<?xml version="1.0" encoding="utf-8"?><svg version="1.1" id="Layer_1" xmlns="http://www.w3.org/2000/svg" xmlns:xlink="http://www.w3.org/1999/xlink" x="0px" y="0px" viewBox="0 0 123.38 106.5" style="enable-background:new 0 0 123.38 106.5" xml:space="preserve"><style type="text/css"><![CDATA[
	.st0{fill-rule:evenodd;clip-rule:evenodd;stroke:#000000;stroke-width:0.5;stroke-miterlimit:2.6131;}
]]></style><g><path class="st0" d="M119.19,49.84L119.19,49.84L119.19,49.84z M86.1,48.91c1.66,1.32,2.98,3.18,3.54,5.35 c0.38,1.48-0.52,2.99-2,3.37c-1.48,0.38-2.99-0.52-3.37-2c-0.24-0.92-0.85-1.75-1.63-2.37c-0.8-0.64-1.74-1.01-2.6-1.01 s-1.8,0.38-2.6,1.01c-0.78,0.62-1.39,1.45-1.63,2.37c-0.38,1.48-1.89,2.38-3.37,2c-1.48-0.38-2.38-1.89-2-3.37 c0.56-2.17,1.88-4.03,3.54-5.35c1.76-1.4,3.95-2.23,6.06-2.23C82.15,46.68,84.34,47.51,86.1,48.91L86.1,48.91z M70.17,74.92 c0.28-1.51,1.72-2.51,3.23-2.23c1.51,0.28,2.51,1.72,2.23,3.23c-0.67,3.65-3.13,6.19-6.37,7.68c-2.22,1.02-4.82,1.53-7.42,1.54 c-2.59,0-5.19-0.49-7.43-1.48c-3.36-1.48-5.95-4.05-6.67-7.71c-0.29-1.51,0.69-2.97,2.2-3.26c1.51-0.29,2.97,0.69,3.26,2.2 c0.33,1.66,1.67,2.9,3.45,3.69c1.54,0.68,3.36,1.02,5.19,1.02c1.81,0,3.6-0.35,5.1-1.03C68.62,77.78,69.87,76.56,70.17,74.92 L70.17,74.92z M43.34,46.68c2.1,0,4.29,0.83,6.06,2.23c1.66,1.32,2.98,3.18,3.54,5.35c0.38,1.48-0.52,2.99-2,3.37 c-1.48,0.38-2.99-0.52-3.37-2c-0.24-0.92-0.85-1.75-1.63-2.37c-0.8-0.64-1.74-1.01-2.6-1.01c-0.86,0-1.8,0.38-2.6,1.01 c-0.78,0.62-1.39,1.45-1.63,2.37c-0.38,1.48-1.89,2.38-3.37,2c-1.48-0.38-2.38-1.89-2-3.37c0.56-2.17,1.88-4.03,3.54-5.35 C39.04,47.51,41.23,46.68,43.34,46.68L43.34,46.68z M61.69,34.8c-2.47,2.47-5.6,4.37-8.92,5.67c-4.59,1.8-9.65,2.45-13.75,1.85 c-4.17-0.61-7.59-2.41-9.4-5.5c-0.2,0.21-0.4,0.41-0.6,0.62c-1.84,1.95-3.46,4.08-4.83,6.33c-1.35,2.21-2.45,4.56-3.29,7.01 l-0.06,0.17c-0.04,0.11-0.08,0.22-0.13,0.32c-0.35,0.74-0.96,1.28-1.66,1.56c-0.72,0.29-1.55,0.31-2.32-0.02l-0.06-0.03 c-0.25-0.11-0.48-0.2-0.71-0.28c-0.24-0.08-0.47-0.15-0.71-0.2c-0.24-0.05-0.48-0.09-0.73-0.11c-0.24-0.02-0.5-0.04-0.77-0.04 c-0.99,0-1.92,0.2-2.77,0.56c-0.88,0.38-1.68,0.93-2.34,1.62l-0.01,0c-0.67,0.69-1.21,1.51-1.57,2.43 c-0.35,0.89-0.55,1.87-0.55,2.9c0,1.03,0.2,2,0.55,2.88l0.01,0.04c0.37,0.91,0.9,1.72,1.57,2.41c0.66,0.69,1.46,1.24,2.34,1.61 c0.85,0.36,1.79,0.56,2.77,0.56c0.2,0,0.39-0.01,0.56-0.02c0.18-0.01,0.36-0.03,0.54-0.06l0.04,0c0.16-0.03,0.34-0.06,0.52-0.1 c0.18-0.04,0.35-0.09,0.49-0.14c0.09-0.03,0.2-0.06,0.29-0.08c0.82-0.18,1.64,0,2.31,0.43c0.66,0.43,1.16,1.11,1.36,1.95l0.01,0.05 c0.95,4.34,2.72,8.41,5.17,12.09c2.51,3.76,5.73,7.11,9.49,9.89c3.75,2.78,8.04,4.99,12.72,6.49c4.51,1.45,9.38,2.24,14.47,2.24 c5.08,0,9.95-0.79,14.46-2.24c4.68-1.5,8.97-3.71,12.73-6.49c3.75-2.78,6.97-6.12,9.48-9.88c2.44-3.66,4.22-7.73,5.17-12.05 l0.03-0.14l0.05-0.16c0.26-0.83,0.81-1.47,1.5-1.85c0.7-0.38,1.54-0.49,2.35-0.25l0.04,0.01c0.16,0.05,0.33,0.1,0.5,0.14 c0.19,0.04,0.38,0.08,0.55,0.11c0.18,0.03,0.36,0.05,0.53,0.06c0.17,0.01,0.37,0.02,0.57,0.02c0.99,0,1.92-0.2,2.77-0.56 c0.88-0.38,1.68-0.93,2.34-1.62l0.01,0c0.67-0.69,1.21-1.51,1.57-2.43c0.35-0.89,0.55-1.87,0.55-2.9c0-1.03-0.2-2-0.55-2.88 c-0.37-0.92-0.91-1.75-1.58-2.45c-0.66-0.69-1.46-1.24-2.34-1.61c-0.85-0.36-1.79-0.56-2.77-0.56c-0.28,0-0.54,0.01-0.78,0.04 c-0.25,0.02-0.49,0.06-0.72,0.11l-0.04,0.01c-0.22,0.05-0.45,0.12-0.67,0.19c-0.23,0.08-0.47,0.17-0.71,0.28l-0.04,0.02 c-0.07,0.03-0.13,0.05-0.19,0.07l-0.06,0.02c-0.79,0.27-1.62,0.19-2.32-0.16c-0.69-0.35-1.26-0.96-1.55-1.75l-0.03-0.07 c-0.83-2.48-1.95-4.85-3.3-7.08c-1.38-2.27-3.01-4.41-4.87-6.39l-0.03-0.04c-0.19-0.2-0.39-0.4-0.58-0.6 c-1.81,3.1-5.23,4.91-9.41,5.52c-4.11,0.6-9.17-0.05-13.75-1.85C67.29,39.17,64.16,37.27,61.69,34.8L61.69,34.8z M67.77,9.9 c10.72-7.86,30.6-5.65,16.27,11.48c16.08,16.82-5.24,19.54-16.36,11.53c1.18-0.62,2.25-1.41,3.18-2.34 c2.35-2.35,3.81-5.61,3.81-9.2c0-3.39-1.31-6.48-3.46-8.81c-0.11-0.13-0.23-0.26-0.35-0.39C69.95,11.28,68.91,10.51,67.77,9.9 L67.77,9.9z M39.35,21.38C25.02,4.27,44.86,2.04,55.58,9.88c-1.15,0.61-2.21,1.39-3.12,2.31l0.01,0.01 c-2.36,2.36-3.82,5.61-3.82,9.19c0,3.59,1.46,6.84,3.81,9.2c0.94,0.94,2.02,1.74,3.21,2.35C44.55,40.92,23.28,38.19,39.35,21.38 L39.35,21.38z M61.66,13.69c4.25,0,7.69,3.44,7.69,7.69c0,4.25-3.44,7.69-7.69,7.69s-7.69-3.44-7.69-7.69 C53.97,17.14,57.41,13.69,61.66,13.69L61.66,13.69z M122.11,54.35c0.66,1.64,1.02,3.42,1.02,5.29c0,1.87-0.36,3.66-1.02,5.29 c-0.68,1.7-1.68,3.23-2.92,4.51l-0.01,0.01c-1.25,1.28-2.73,2.32-4.38,3.02c-1.59,0.68-3.33,1.06-5.16,1.06 c-0.22,0-0.47-0.01-0.73-0.02l-0.08,0c-1.32,4.41-3.36,8.54-6,12.28c-2.81,3.98-6.3,7.53-10.32,10.5 c-4.28,3.17-9.17,5.69-14.48,7.41c-5.12,1.65-10.63,2.55-16.36,2.55c-5.72,0-11.23-0.9-16.34-2.55c-5.31-1.71-10.2-4.24-14.49-7.41 c-4.02-2.98-7.52-6.53-10.33-10.51c-2.64-3.74-4.68-7.87-6-12.27l-0.08,0c-0.26,0.02-0.5,0.02-0.73,0.02 c-1.82,0-3.56-0.38-5.16-1.06c-1.65-0.71-3.14-1.74-4.38-3.03c-1.24-1.27-2.23-2.8-2.91-4.5c-0.66-1.63-1.02-3.42-1.02-5.3 c0-1.87,0.36-3.66,1.02-5.29c0.68-1.7,1.68-3.23,2.92-4.51l0.01-0.01c1.25-1.28,2.73-2.32,4.38-3.02c1.59-0.68,3.33-1.06,5.16-1.06 c0.45,0,0.92,0.03,1.39,0.08c0.31,0.03,0.62,0.08,0.93,0.13c0.96-2.28,2.12-4.46,3.46-6.54c1.47-2.28,3.16-4.43,5.04-6.42 c1.24-1.32,2.56-2.57,3.96-3.74c0.51-2.44,1.8-5.15,4.06-8.12c-3.29-5.03-4.07-9.26-3.18-12.64c1.26-4.75,5.21-7.37,10.3-8.08 c3.85-0.54,8.51,0.09,12.8,1.76c16.58,6.47,1.85,6.47,18.42,0c4.29-1.67,8.95-2.3,12.8-1.76c5.08,0.71,9.04,3.33,10.3,8.08 c0.89,3.37,0.12,7.61-3.18,12.64c2.26,2.96,3.54,5.68,4.05,8.11c1.4,1.18,2.72,2.43,3.96,3.75c1.88,1.99,3.56,4.14,5.03,6.42 c1.34,2.08,2.5,4.26,3.46,6.54c0.3-0.06,0.62-0.1,0.93-0.13c0.47-0.05,0.93-0.08,1.39-0.08c1.82,0,3.56,0.38,5.16,1.06 c1.65,0.71,3.14,1.74,4.39,3.03C120.43,51.13,121.43,52.66,122.11,54.35L122.11,54.35z"/></g></svg>