<?xml version="1.0" encoding="utf-8"?>
<!-- Generator: Adobe Illustrator 27.5.0, SVG Export Plug-In . SVG Version: 6.00 Build 0)  -->
<svg version="1.1" id="Capa_1" xmlns="http://www.w3.org/2000/svg" xmlns:xlink="http://www.w3.org/1999/xlink" x="0px" y="0px"
	 viewBox="0 0 425.2 425.2" style="enable-background:new 0 0 425.2 425.2;" xml:space="preserve">
<g>
	<rect x="0.002" y="0.002" style="fill:#FFFFFF;" width="425.196" height="425.196"/>
	<path style="fill:#9ACDCD;" d="M102.871,352.907h219.145c35.447-30.703,57.883-76.027,57.883-126.605
		c0-92.482-74.971-167.454-167.453-167.454S44.988,133.82,44.988,226.302C44.988,276.88,67.426,322.204,102.871,352.907z"/>
	<g>
		<g>
			<g>
				<g>
					
						<line style="fill:none;stroke:#072F49;stroke-width:1.5924;stroke-linecap:round;stroke-linejoin:round;stroke-miterlimit:10;" x1="62.704" y1="95.474" x2="77.854" y2="95.474"/>
					
						<line style="fill:none;stroke:#072F49;stroke-width:1.5924;stroke-linecap:round;stroke-linejoin:round;stroke-miterlimit:10;" x1="70.279" y1="103.048" x2="70.279" y2="87.899"/>
				</g>
			</g>
			<g>
				<g>
					
						<line style="fill:none;stroke:#072F49;stroke-width:1.5924;stroke-linecap:round;stroke-linejoin:round;stroke-miterlimit:10;" x1="64.922" y1="90.118" x2="75.635" y2="100.829"/>
					
						<line style="fill:none;stroke:#072F49;stroke-width:1.5924;stroke-linecap:round;stroke-linejoin:round;stroke-miterlimit:10;" x1="64.922" y1="100.829" x2="75.635" y2="90.118"/>
				</g>
			</g>
		</g>
		<g>
			<g>
				<g>
					
						<line style="fill:none;stroke:#072F49;stroke-width:1.5924;stroke-linecap:round;stroke-linejoin:round;stroke-miterlimit:10;" x1="365.584" y1="319.603" x2="380.732" y2="319.603"/>
					
						<line style="fill:none;stroke:#072F49;stroke-width:1.5924;stroke-linecap:round;stroke-linejoin:round;stroke-miterlimit:10;" x1="373.157" y1="327.177" x2="373.157" y2="312.028"/>
				</g>
			</g>
			<g>
				<g>
					
						<line style="fill:none;stroke:#072F49;stroke-width:1.5924;stroke-linecap:round;stroke-linejoin:round;stroke-miterlimit:10;" x1="367.803" y1="314.247" x2="378.514" y2="324.958"/>
					
						<line style="fill:none;stroke:#072F49;stroke-width:1.5924;stroke-linecap:round;stroke-linejoin:round;stroke-miterlimit:10;" x1="367.803" y1="324.958" x2="378.514" y2="314.247"/>
				</g>
			</g>
		</g>
		<g>
			<g>
				<g>
					
						<line style="fill:none;stroke:#072F49;stroke-width:1.5924;stroke-linecap:round;stroke-linejoin:round;stroke-miterlimit:10;" x1="285.32" y1="58.826" x2="297.217" y2="58.826"/>
					
						<line style="fill:none;stroke:#072F49;stroke-width:1.5924;stroke-linecap:round;stroke-linejoin:round;stroke-miterlimit:10;" x1="291.27" y1="64.774" x2="291.27" y2="52.875"/>
				</g>
			</g>
			<g>
				<g>
					
						<line style="fill:none;stroke:#072F49;stroke-width:1.5924;stroke-linecap:round;stroke-linejoin:round;stroke-miterlimit:10;" x1="287.063" y1="54.619" x2="295.475" y2="63.032"/>
					
						<line style="fill:none;stroke:#072F49;stroke-width:1.5924;stroke-linecap:round;stroke-linejoin:round;stroke-miterlimit:10;" x1="287.063" y1="63.032" x2="295.475" y2="54.619"/>
				</g>
			</g>
		</g>
		<g>
			<g>
				<g>
					
						<line style="fill:none;stroke:#072F49;stroke-width:1.5924;stroke-linecap:round;stroke-linejoin:round;stroke-miterlimit:10;" x1="45.555" y1="285.829" x2="57.451" y2="285.829"/>
					
						<line style="fill:none;stroke:#072F49;stroke-width:1.5924;stroke-linecap:round;stroke-linejoin:round;stroke-miterlimit:10;" x1="51.502" y1="291.778" x2="51.502" y2="279.88"/>
				</g>
			</g>
			<g>
				<g>
					
						<line style="fill:none;stroke:#072F49;stroke-width:1.5924;stroke-linecap:round;stroke-linejoin:round;stroke-miterlimit:10;" x1="47.296" y1="281.622" x2="55.709" y2="290.036"/>
					
						<line style="fill:none;stroke:#072F49;stroke-width:1.5924;stroke-linecap:round;stroke-linejoin:round;stroke-miterlimit:10;" x1="47.297" y1="290.036" x2="55.709" y2="281.622"/>
				</g>
			</g>
		</g>
		<g>
			<g>
				<g>
					
						<line style="fill:none;stroke:#072F49;stroke-width:1.5924;stroke-linecap:round;stroke-linejoin:round;stroke-miterlimit:10;" x1="349.049" y1="168.643" x2="360.948" y2="168.643"/>
					
						<line style="fill:none;stroke:#072F49;stroke-width:1.5924;stroke-linecap:round;stroke-linejoin:round;stroke-miterlimit:10;" x1="354.998" y1="174.592" x2="354.998" y2="162.693"/>
				</g>
			</g>
			<g>
				<g>
					
						<line style="fill:none;stroke:#072F49;stroke-width:1.5924;stroke-linecap:round;stroke-linejoin:round;stroke-miterlimit:10;" x1="350.79" y1="164.438" x2="359.204" y2="172.85"/>
					
						<line style="fill:none;stroke:#072F49;stroke-width:1.5924;stroke-linecap:round;stroke-linejoin:round;stroke-miterlimit:10;" x1="350.79" y1="172.85" x2="359.204" y2="164.438"/>
				</g>
			</g>
		</g>
		<g>
			
				<line style="fill:none;stroke:#072F49;stroke-width:1.5924;stroke-linecap:round;stroke-linejoin:round;stroke-miterlimit:10;" x1="182.678" y1="42.956" x2="204.115" y2="42.956"/>
			
				<line style="fill:none;stroke:#072F49;stroke-width:1.5924;stroke-linecap:round;stroke-linejoin:round;stroke-miterlimit:10;" x1="190.936" y1="36.908" x2="212.004" y2="36.908"/>
		</g>
		<g>
			
				<line style="fill:none;stroke:#072F49;stroke-width:1.5924;stroke-linecap:round;stroke-linejoin:round;stroke-miterlimit:10;" x1="60.971" y1="320.022" x2="82.408" y2="320.022"/>
			
				<line style="fill:none;stroke:#072F49;stroke-width:1.5924;stroke-linecap:round;stroke-linejoin:round;stroke-miterlimit:10;" x1="69.227" y1="313.974" x2="90.299" y2="313.974"/>
		</g>
		<g>
			
				<line style="fill:none;stroke:#072F49;stroke-width:1.5924;stroke-linecap:round;stroke-linejoin:round;stroke-miterlimit:10;" x1="356.81" y1="129.531" x2="378.248" y2="129.531"/>
			
				<line style="fill:none;stroke:#072F49;stroke-width:1.5924;stroke-linecap:round;stroke-linejoin:round;stroke-miterlimit:10;" x1="365.068" y1="123.483" x2="386.137" y2="123.483"/>
		</g>
		<g>
			
				<line style="fill:none;stroke:#072F49;stroke-width:1.5924;stroke-linecap:round;stroke-linejoin:round;stroke-miterlimit:10;" x1="377.365" y1="278.798" x2="398.803" y2="278.798"/>
			
				<line style="fill:none;stroke:#072F49;stroke-width:1.5924;stroke-linecap:round;stroke-linejoin:round;stroke-miterlimit:10;" x1="385.623" y1="272.751" x2="406.693" y2="272.751"/>
		</g>
		<g>
			
				<line style="fill:none;stroke:#072F49;stroke-width:1.5924;stroke-linecap:round;stroke-linejoin:round;stroke-miterlimit:10;" x1="109.613" y1="87.899" x2="131.05" y2="87.899"/>
			
				<line style="fill:none;stroke:#072F49;stroke-width:1.5924;stroke-linecap:round;stroke-linejoin:round;stroke-miterlimit:10;" x1="117.871" y1="81.853" x2="138.941" y2="81.853"/>
		</g>
		<g>
			
				<line style="fill:none;stroke:#072F49;stroke-width:1.5924;stroke-linecap:round;stroke-linejoin:round;stroke-miterlimit:10;" x1="296.727" y1="116.313" x2="318.164" y2="116.313"/>
			
				<line style="fill:none;stroke:#072F49;stroke-width:1.5924;stroke-linecap:round;stroke-linejoin:round;stroke-miterlimit:10;" x1="304.984" y1="110.266" x2="326.055" y2="110.266"/>
		</g>
		<g>
			
				<line style="fill:none;stroke:#072F49;stroke-width:1.5924;stroke-linecap:round;stroke-linejoin:round;stroke-miterlimit:10;" x1="63.187" y1="154.916" x2="84.627" y2="154.916"/>
			
				<line style="fill:none;stroke:#072F49;stroke-width:1.5924;stroke-linecap:round;stroke-linejoin:round;stroke-miterlimit:10;" x1="71.445" y1="148.869" x2="92.518" y2="148.869"/>
		</g>
	</g>
	
		<line style="fill:none;stroke:#072F49;stroke-width:1.8588;stroke-linecap:round;stroke-linejoin:round;stroke-miterlimit:10;" x1="71.738" y1="352.907" x2="356.244" y2="352.907"/>
	
		<line style="fill:none;stroke:#072F49;stroke-width:1.8588;stroke-linecap:round;stroke-linejoin:round;stroke-miterlimit:10;" x1="124.277" y1="358.706" x2="230.446" y2="358.706"/>
	
		<line style="fill:none;stroke:#072F49;stroke-width:1.8588;stroke-linecap:round;stroke-linejoin:round;stroke-miterlimit:10;" x1="238.57" y1="358.706" x2="267.787" y2="358.706"/>
	
		<line style="fill:none;stroke:#072F49;stroke-width:1.8588;stroke-linecap:round;stroke-linejoin:round;stroke-miterlimit:10;" x1="273.438" y1="358.706" x2="297.201" y2="358.706"/>
	
		<line style="fill:none;stroke:#072F49;stroke-width:1.8588;stroke-linecap:round;stroke-linejoin:round;stroke-miterlimit:10;" x1="166.975" y1="366.833" x2="285.32" y2="366.833"/>
</g>
<g>
	<g>
		<g>
			<path style="fill:#E74645;" d="M139.629,258.695v-16.984h37.053v16.984h9.614v-18.121c0-4.674-3.804-8.477-8.479-8.477h-39.322
				c-4.675,0-8.479,3.803-8.479,8.477v18.121H139.629z"/>
		</g>
		<path style="fill:#00B1C3;" d="M222.117,347.908c0,2.76-2.238,4.999-5,4.999H99.192c-2.761,0-5-2.239-5-4.999v-86.906
			c0-2.762,2.239-4.999,5-4.999h117.925c2.762,0,5,2.237,5,4.999V347.908z"/>
		<path style="fill:#FFFFFF;" d="M129.221,278.361c0.906,5.971,3.068,11.588,6.861,16.329c4.781,5.98,11.057,10.542,18.08,13.557
			c13.273,5.694,28.266,6.1,42.391,4.018c7.404-1.091,14.898-3.01,21.734-6.217v-43.357c0-2.207-1.789-3.996-3.997-3.996h-83.479
			C128.781,265.111,128.267,272.082,129.221,278.361z"/>
		<path style="fill:#9D9D9C;" d="M215.018,320.767c-7.493,2.589-15.288,4.215-23.159,5.128c-8.447,0.98-17.129,1.411-25.609,0.598
			c-18.273-1.754-37.087-8.854-48.699-23.711c-9.252-11.837-11.67-27.385-8.607-41.929c0.344-1.63,0.762-3.25,1.251-4.85H99.192
			c-2.761,0-5,2.237-5,4.999v86.906c0,2.76,2.239,4.999,5,4.999h117.925c2.762,0,5-2.239,5-4.999v-29.979
			C219.797,318.985,217.428,319.935,215.018,320.767z"/>
		<path style="fill:#9D9D9C;" d="M191.789,304.455c0,18.575-15.059,33.634-33.635,33.634c-18.574,0-33.633-15.059-33.633-33.634
			s15.059-33.635,33.633-33.635C176.73,270.82,191.789,285.88,191.789,304.455z"/>
		<g>
			<path style="fill:#26505D;" d="M187.553,304.455c0,16.236-13.161,29.396-29.398,29.396c-16.236,0-29.396-13.16-29.396-29.396
				s13.16-29.398,29.396-29.398C174.392,275.058,187.553,288.219,187.553,304.455z"/>
			<polygon style="fill:#FFFFFF;" points="174.857,296.325 162.832,296.325 162.832,282.076 153.479,282.076 153.479,296.325 
				141.453,296.325 141.453,305.68 153.479,305.68 153.479,326.834 162.832,326.834 162.832,305.68 174.857,305.68 			"/>
			<path style="fill:#FFFFFF;" d="M155.085,280.041c-3.511,3.889-5.851,8.741-5.71,14.016c0.239,9.049,8.322,16.35,17.366,16.244
				c7.819-0.093,13.98-5.129,15.784-12.657c0.088-0.365,0.166-0.731,0.24-1.098c-3.198-9.811-12.414-16.904-23.292-16.904
				C157.975,279.642,156.512,279.783,155.085,280.041z"/>
			<path style="fill:#C6C6C6;" d="M163.814,315.311c-11.713-1.515-22.043-11.527-21.467-23.771
				c0.246-5.179,1.959-10.038,4.678-14.297c-10.716,4.389-18.268,14.915-18.268,27.212c0,16.236,13.16,29.396,29.396,29.396
				c16.237,0,29.398-13.16,29.398-29.396c0-0.529-0.016-1.055-0.043-1.575C183.263,311.702,173.555,316.571,163.814,315.311z"/>
		</g>
		<path style="fill:#FFFFFF;" d="M180.395,263.342c1.213-0.222,2.424-0.391,3.636-0.544c1.212-0.143,2.423-0.288,3.636-0.386
			c2.426-0.245,4.85-0.384,7.273-0.493c2.425-0.101,4.848-0.168,7.273-0.173c2.424-0.015,4.848,0.017,7.271,0.098l0.145,0.006
			l0.031,0.005c0.508,0.089,0.848,0.185,1.24,0.315c0.385,0.118,0.744,0.284,1.105,0.443c0.353,0.18,0.707,0.358,1.04,0.571
			c0.329,0.224,0.671,0.421,0.962,0.695c0.303,0.258,0.613,0.504,0.871,0.809c0.267,0.294,0.541,0.575,0.75,0.913
			c0.212,0.333,0.468,0.634,0.62,0.996c0.169,0.351,0.348,0.696,0.479,1.054l0.329,1.094c0.107,0.362,0.131,0.739,0.195,1.103
			c0.064,0.366,0.103,0.731,0.084,1.098l-0.012,1.087c-0.008,0.358-0.078,0.713-0.127,1.065l-0.173,1.044
			c-0.183,0.684-0.388,1.354-0.6,2.012c-0.034-0.701-0.06-1.389-0.064-2.065l-0.119-1.008c-0.051-0.331-0.047-0.663-0.121-0.986
			l-0.217-0.958c-0.053-0.322-0.17-0.622-0.277-0.922c-0.113-0.295-0.183-0.605-0.326-0.881l-0.422-0.819
			c-0.151-0.264-0.355-0.492-0.513-0.741c-0.149-0.261-0.386-0.45-0.573-0.674c-0.183-0.229-0.426-0.399-0.643-0.591
			c-0.207-0.201-0.463-0.349-0.701-0.511c-0.229-0.174-0.508-0.282-0.756-0.427c-0.256-0.133-0.53-0.238-0.797-0.345
			c-0.276-0.092-0.551-0.184-0.828-0.25c-0.26-0.074-0.59-0.129-0.758-0.147l0.174,0.012c-2.424,0.081-4.848,0.11-7.271,0.098
			c-2.426-0.004-4.849-0.073-7.273-0.173c-2.424-0.109-4.848-0.249-7.273-0.493c-1.213-0.098-2.424-0.243-3.636-0.387
			C182.818,263.73,181.607,263.564,180.395,263.342z"/>
	</g>
	<g>
		<g>
			<g>
				<rect x="238.676" y="270.548" style="fill:#EFBFA5;" width="36.7" height="27.596"/>
				<path style="fill:#DADADA;" d="M248.941,291.705c5.902-0.258,11.648-2.733,16.184-6.491c3.683-3.051,6.653-6.677,8.883-10.907
					c0.439-0.831,0.921-1.773,1.367-2.778v-0.98h-36.7v20.648C242.09,291.651,245.544,291.853,248.941,291.705z"/>
			</g>
			<path style="fill:#EFBFA5;" d="M255.664,153.972c-24.923,0.53-48.561,20.217-44.83,53.679
				c2.254,20.22,4.015,23.221,10.037,46.436c4.168,16.063,26.343,24.538,34.793,25.089c8.453-0.551,30.629-9.025,34.795-25.089
				c6.023-23.215,7.783-26.216,10.041-46.436C304.228,174.189,280.59,154.502,255.664,153.972z"/>
			<g>
				<path style="fill:#EFBFA5;" d="M297.56,216.667l-2.617,20.033c10.279,4.528,11.889-19.048,11.889-19.048
					C304.453,211.773,297.56,216.667,297.56,216.667z"/>
				<path style="fill:#EFBFA5;" d="M204.148,217.652c0,0,1.607,23.576,11.887,19.048l-2.615-20.033
					C213.42,216.667,206.525,211.773,204.148,217.652z"/>
			</g>
			<path style="fill:#432918;" d="M292.424,191.786"/>
			<path style="fill:#EFBFA5;" d="M275.376,290.138l48.705,13.651c0,0,16.62,2.741,20.858,18.822l7.27,29.15h-94.695h-0.832h-94.697
				l7.27-29.15c4.241-16.081,20.859-18.822,20.859-18.822l48.563-13.651H275.376z"/>
			<path style="fill:#03B4BD;" d="M275.376,290.138l48.705,13.651c0,0,16.62,2.741,20.858,18.822l7.27,29.15h-94.695h-0.832h-94.697
				l7.27-29.15c4.241-16.081,20.859-18.822,20.859-18.822l48.563-13.651l18.422,38.154L275.376,290.138z"/>
			<path style="fill:#FFFFFF;stroke:#B2B2B2;stroke-width:2.1153;stroke-miterlimit:10;" d="M231.465,351.76h-69.48l7.27-29.151
				c4.241-16.078,20.859-18.82,20.859-18.82l42.889-12.036L231.465,351.76z"/>
			<path style="fill:#FFFFFF;stroke:#B2B2B2;stroke-width:2.1153;stroke-miterlimit:10;" d="M283.81,292.503l40.271,11.286
				c0,0,16.62,2.741,20.858,18.822l7.27,29.15h-69.41L283.81,292.503z"/>
			<g>
				<path style="fill:#B2B2B2;" d="M219.426,319.162c0,0,16.045-11.69,31.239-3.752C250.665,315.41,241.549,292.767,219.426,319.162
					"/>
				<path style="fill:#0CA3AC;" d="M251.994,317.711c0,0-7.457-18.791-32.568,1.451l8.971-26.134l10.438-2.891L251.994,317.711z"/>
			</g>
			<g>
				<path style="fill:#B2B2B2;" d="M294.792,319.162c0,0-19.416-13.496-31.882-3.002C262.91,316.16,272.668,292.767,294.792,319.162
					"/>
				<path style="fill:#0CA3AC;" d="M262.91,316.16c0,0,6.77-17.24,31.882,3.002l-8.94-26.088l-10.468-2.936L262.91,316.16z"/>
			</g>
			<path style="fill:#C6C6C6;" d="M228.816,171.575c0,0-5.289,19.89,31.473,30.367c0,0,28.334,5.581,39.977-1.788
				C300.266,200.153,289.416,154.903,228.816,171.575z"/>
			<path style="fill:#491809;" d="M306.832,175.279c-0.491,10.354,0.055,22.624-5.24,40.625c-0.592,2.004-2.844,7.857-2.844,7.857
				l-1.885,0.061v-13.024c-1.154-18.554-2.366-18.687-2.366-18.687c-36.761,10.154-59.423-8.539-59.423-8.539
				c-2.238-2.035-3.875-4.067-5.066-6.056c-3.08,2.435-6.029,5.827-8.51,10.549c0,0-5.691,9.369-5.037,25.252v13.024l-1.981-0.782
				l-2.749-10.283c-3.545-20.395-1.47-45.627-1.47-45.627s3.693-22.095,30.487-27.021c0,0,47.435-4.405,60.14,11.344
				C300.889,153.972,307.438,162.524,306.832,175.279z"/>
			<g>
				<path style="fill:#350F00;" d="M226.834,159.124c0,0-0.242,1.372-0.267,3.77c-0.03,2.386,0.191,5.826,1.362,9.656
					c0.617,1.902,1.506,3.87,2.695,5.78c1.176,1.923,2.782,3.692,4.625,5.289c0.893,0.836,1.958,1.503,2.98,2.235
					c0.55,0.314,1.104,0.63,1.658,0.948l0.834,0.479l0.88,0.413c0.587,0.276,1.177,0.553,1.769,0.831l1.854,0.686
					c1.219,0.506,2.533,0.794,3.807,1.177c1.275,0.388,2.607,0.602,3.904,0.913c1.308,0.274,2.643,0.419,3.951,0.634
					c2.637,0.29,5.244,0.624,7.795,0.688c2.542,0.163,5.016,0.135,7.363,0.172c2.347-0.026,4.57-0.122,6.629-0.148
					c2.053-0.129,3.939-0.23,5.617-0.309c1.676-0.078,3.131-0.235,4.337-0.31c2.409-0.173,3.796-0.243,3.796-0.243
					s-1.34,0.334-3.703,0.869c-1.186,0.246-2.615,0.628-4.281,0.89c-1.664,0.285-3.543,0.613-5.603,0.919
					c-2.068,0.228-4.311,0.535-6.697,0.7c-2.389,0.124-4.912,0.341-7.537,0.254c-1.311-0.011-2.647,0.006-3.998-0.109
					c-1.35-0.099-2.723-0.124-4.096-0.331c-1.373-0.206-2.766-0.34-4.15-0.61c-1.378-0.309-2.78-0.514-4.147-0.915
					c-1.361-0.425-2.746-0.754-4.064-1.316c-0.665-0.257-1.328-0.514-1.989-0.77c-0.643-0.311-1.281-0.621-1.92-0.93l-0.951-0.465
					c-0.308-0.173-0.609-0.359-0.909-0.544c-0.597-0.375-1.19-0.748-1.78-1.119c-1.111-0.855-2.246-1.644-3.211-2.616
					c-2.005-1.841-3.641-3.964-4.801-6.168c-1.193-2.186-1.949-4.423-2.411-6.512c-0.454-2.096-0.581-4.05-0.587-5.765
					c-0.02-1.717,0.176-3.202,0.354-4.407c0.174-1.209,0.436-2.135,0.6-2.763C226.715,159.45,226.834,159.124,226.834,159.124z"/>
			</g>
			<path style="opacity:0.5;fill:#FFFFFF;" d="M231.283,163.198c0,0,5.641,19.405,29.006,24.75c0,0-11.385-5.616-14.504-15.183
				c0,0,5.594,6.273,14.504,6.669c0,0-15.049-11.681-15.443-18.414c0,0-6.898,6.137-1.469,13.464
				C243.377,174.484,238.906,173.692,231.283,163.198z"/>
			<path style="opacity:0.5;fill:#FFFFFF;" d="M270.096,150.406c0,0,29.299-0.529,30.793,28.313c0,0-1.485-6.616-8.465-9.395
				c0,0,9.957,11.608,7.842,30.829c0,0,3.742-13.76-21.414-34.136c0,0,8.656-2.646,16.092,1.059
				C294.943,167.076,289.678,154.109,270.096,150.406z"/>
			<g>
				<path d="M235.637,204.112c-8.791-0.074-17.625-0.45-17.01,12.991c0.36,7.898,5.957,14.839,14.717,15.544
					c8.756,0.704,15.809-5.086,18.539-12.928C253.516,212.73,257.379,204.29,235.637,204.112z M249.65,219.535
					c-2.358,6.77-8.441,11.766-16.006,11.158c-7.563-0.607-12.392-6.599-12.705-13.418c-0.528-11.602,7.098-11.278,14.688-11.213
					C254.395,206.216,251.059,213.504,249.65,219.535z"/>
				<path d="M261.594,220.555c2.88,7.786,10.043,13.438,18.786,12.564c8.747-0.872,14.205-7.919,14.414-15.823
					c0.354-13.453-8.472-12.901-17.257-12.662C255.803,205.233,259.829,213.598,261.594,220.555z M277.584,206.583
					c7.586-0.209,15.207-0.682,14.898,10.931c-0.182,6.821-4.893,12.907-12.439,13.658c-7.553,0.754-13.732-4.122-16.219-10.845
					C262.3,214.32,258.822,207.1,277.584,206.583z"/>
				<path d="M252.805,213.26c0,0,4.678-3.067,9.092,0.113c0,0-1.046-3.018,0.904-5.04c0,0-4.789-2.346-10.949-0.134
					C251.852,208.199,253.096,211.2,252.805,213.26z"/>
				<path d="M223.25,205.727l-12.416,1.924l0.898,7.625l8.167,4.319C219.898,219.596,218.488,211.247,223.25,205.727z"/>
				<path d="M291.18,206.778l11.919,3.533l-1.866,6.702l-7.042,3.713C294.19,220.726,295.807,212.413,291.18,206.778z"/>
				<path style="opacity:0.2;fill:#FFFFFF;" d="M277.584,206.583c7.586-0.209,15.207-0.682,14.898,10.931
					c-0.182,6.821-4.893,12.907-12.439,13.658c-7.553,0.754-13.732-4.122-16.219-10.845C262.3,214.32,258.822,207.1,277.584,206.583
					z"/>
				<path style="opacity:0.2;fill:#FFFFFF;" d="M249.651,219.462c-2.356,6.771-8.442,11.767-16.007,11.159
					c-7.56-0.607-12.391-6.601-12.701-13.418c-0.532-11.603,7.094-11.279,14.684-11.213
					C254.396,206.142,251.059,213.431,249.651,219.462z"/>
			</g>
		</g>
		<g>
			<g>
				<path style="fill:#202332;" d="M238.719,280.248h-3.07c-0.94-0.027-7.627,0.027-14.184,6.242
					c-8.799,8.339-16.086,31.764-14.566,56.657l5.252-0.001c-1.742-26.963,7.543-47.644,12.777-52.7
					c5.248-5.072,10.352-4.955,10.537-4.951h3.254V280.248z"/>
				<path style="fill:#202332;" d="M294.465,285.144c-3.486-3.763-9.449-5.407-17.719-4.895h-1.512v5.251h1.597l0.165-0.004
					c6.508-0.419,11.199,0.674,13.559,3.154c2.004,2.107,1.742,4.631,1.729,4.737l5.204,0.699
					C297.517,293.885,298.139,289.108,294.465,285.144z"/>
			</g>
			<g>
				<g>
					<path style="fill:#C6C6C6;" d="M314.026,320.511c0.64,0,1.172,0.503,1.201,1.148c0.015,0.315,0.348,7.87-0.898,17.829
						c-0.027,0.324-0.316,3.035-1.73,5.77c-2.026,3.925-5.355,5.998-9.627,5.998c-0.662,0-1.201-0.539-1.201-1.202
						c0-0.665,0.539-1.204,1.201-1.204c8.037,0,8.931-9.201,8.963-9.594c0.002-0.014,0.005-0.03,0.006-0.048
						c1.223-9.764,0.887-17.363,0.883-17.44c-0.031-0.662,0.48-1.225,1.147-1.256C313.988,320.511,314.008,320.511,314.026,320.511z
						"/>
				</g>
				<path style="fill:#C6C6C6;" d="M302.973,351.257c4.272,0,7.601-2.073,9.627-5.998c1.414-2.735,1.703-5.446,1.73-5.77
					c1.245-9.959,0.912-17.514,0.898-17.829c-0.029-0.646-0.562-1.148-1.201-1.148c-0.018,0-0.038,0-0.056,0.003
					c-0.666,0.03-1.178,0.594-1.147,1.256c0,0.015,0.014,0.319,0.025,0.863c0.027-0.004,0.053-0.011,0.08-0.012
					c0.02-0.001,0.034-0.001,0.051-0.001c0.564,0,1.033,0.443,1.06,1.012c0.013,0.28,0.306,6.947-0.79,15.737
					c-0.029,0.287-0.281,2.68-1.529,5.094c-1.79,3.465-4.727,5.295-8.495,5.295c-0.442,0-0.819-0.271-0.979-0.654
					c-0.287,0.221-0.475,0.563-0.475,0.951C301.771,350.718,302.31,351.257,302.973,351.257z"/>
			</g>
			<g>
				<g>
					<path style="fill:#C6C6C6;" d="M276.691,320.511c-0.639,0-1.172,0.503-1.201,1.148c-0.015,0.315-0.348,7.87,0.896,17.829
						c0.031,0.324,0.316,3.035,1.73,5.77c2.031,3.925,5.357,5.998,9.627,5.998c0.662,0,1.201-0.539,1.201-1.202
						c0-0.665-0.539-1.204-1.201-1.204c-8.035,0-8.929-9.201-8.963-9.594c0-0.014-0.002-0.03-0.004-0.048
						c-1.223-9.764-0.889-17.363-0.885-17.44c0.033-0.662-0.48-1.225-1.146-1.256C276.728,320.511,276.709,320.511,276.691,320.511z
						"/>
				</g>
				<path style="fill:#C6C6C6;" d="M287.744,351.257c-4.271,0-7.596-2.073-9.627-5.998c-1.414-2.735-1.699-5.446-1.73-5.77
					c-1.244-9.959-0.911-17.514-0.896-17.829c0.029-0.646,0.563-1.148,1.201-1.148c0.017,0,0.037,0,0.055,0.003
					c0.666,0.03,1.18,0.594,1.146,1.256c0,0.015-0.012,0.319-0.023,0.863c-0.027-0.004-0.053-0.011-0.082-0.012
					c-0.016-0.001-0.033-0.001-0.049-0.001c-0.564,0-1.035,0.443-1.06,1.012c-0.015,0.28-0.307,6.947,0.793,15.737
					c0.027,0.287,0.277,2.68,1.525,5.094c1.789,3.465,4.729,5.295,8.496,5.295c0.441,0,0.818-0.271,0.979-0.654
					c0.287,0.221,0.475,0.563,0.475,0.951C288.945,350.718,288.406,351.257,287.744,351.257z"/>
			</g>
			<g>
				<path style="fill:#202332;" d="M294.514,292.207c0.074,0,0.139,0.002,0.186,0.002c0.05,0,0.099,0,0.153,0
					c4.863,0,9.033,1.527,12.398,4.543c9.723,8.712,9.19,27.059,9.164,27.835c-0.043,1.166-1.156,2.081-2.48,2.046
					c-1.328-0.035-2.37-1.011-2.332-2.178c0.01-0.232,0.477-17.349-7.796-24.752c-2.493-2.233-5.471-3.301-9.114-3.271
					c-0.073,0-0.096,0.002-0.164-0.004c-0.3-0.005-3.818-0.026-7.412,3.001c-3.657,3.079-8.015,9.932-8.015,25.093
					c0,1.166-1.077,2.11-2.405,2.11c-1.33,0-2.408-0.944-2.408-2.11c0-13.493,3.254-23.01,9.666-28.282
					C288.533,292.475,293.265,292.209,294.514,292.207z"/>
			</g>
			<path style="fill:#B2B2B2;" d="M276.697,326.633c1.29,0,2.34-0.891,2.398-2.008c-1.156-0.002-2.092-0.825-2.092-1.84
				c0-11.756,2.833-20.046,8.418-24.642c3.991-3.278,8.111-3.514,9.202-3.514c0.065,0,0.12,0.001,0.161,0.004
				c0.044,0,0.086-0.001,0.131-0.001c4.238,0,7.873,1.332,10.805,3.957c8.467,7.59,8.006,23.575,7.982,24.251
				c-0.035,0.997-0.969,1.782-2.095,1.782c0.058,1.09,1.064,1.975,2.327,2.01c1.324,0.035,2.438-0.88,2.48-2.046
				c0.025-0.776,0.559-19.123-9.164-27.835c-3.365-3.016-7.535-4.543-12.398-4.543c-0.055,0-0.103,0-0.153,0
				c-0.048,0-0.112-0.002-0.186-0.002c-1.249,0.002-5.98,0.268-10.559,4.033c-6.412,5.272-9.666,14.789-9.666,28.282
				C274.289,325.689,275.367,326.633,276.697,326.633z"/>
			<g>
				<path style="fill:#202332;" d="M298.24,349.922c0-1.145,0.925-2.072,2.07-2.072l3.879,0.336
					c1.201,0.299,1.166,0.931,1.201,1.736l0,0c0,0.869,0,1.504-1.305,1.805l-3.775,0.268
					C299.165,351.994,298.24,351.066,298.24,349.922L298.24,349.922z"/>
				<path style="fill:#FFFFFF;" d="M301.13,349.922c-0.917,0.005-1.518,0.268-2.001,0.962c0.373,0.367,0.885,0.593,1.449,0.593
					l2.293-0.165C302.961,350.21,302.287,349.916,301.13,349.922z"/>
				<path style="fill:#878787;" d="M301.965,348.808c1.695,0.241,2.362,1.408,2.358,2.855c1.065-0.32,1.067-0.93,1.067-1.741
					c-0.035-0.806,0-1.438-1.201-1.736l-3.879-0.336c-1.01,0-1.849,0.722-2.035,1.678
					C299.273,348.767,300.553,348.604,301.965,348.808z"/>
			</g>
			<g>
				<path style="fill:#202332;" d="M293.631,349.922c0-1.145-0.93-2.072-2.073-2.072l-3.874,0.336
					c-1.205,0.299-1.17,0.931-1.205,1.736l0,0c0,0.869,0,1.504,1.303,1.805l3.776,0.268
					C292.701,351.994,293.631,351.066,293.631,349.922L293.631,349.922z"/>
				<path style="fill:#FFFFFF;" d="M290.738,349.922c0.916,0.005,1.52,0.268,1.998,0.962c-0.373,0.367-0.881,0.593-1.444,0.593
					l-2.298-0.165C288.908,350.21,289.579,349.916,290.738,349.922z"/>
				<path style="fill:#878787;" d="M289.902,348.808c-1.697,0.241-2.361,1.408-2.357,2.855c-1.064-0.32-1.066-0.93-1.066-1.741
					c0.035-0.806,0-1.438,1.205-1.736l3.874-0.336c1.007,0,1.849,0.722,2.033,1.678
					C292.594,348.767,291.318,348.604,289.902,348.808z"/>
			</g>
			<g>
				<path style="fill:#202332;" d="M199.143,340.692c0-6.24,5.059-11.301,11.301-11.301c6.24,0,11.303,5.061,11.303,11.301
					c0,6.242-5.063,11.302-11.303,11.302C204.201,351.994,199.143,346.935,199.143,340.692z"/>
				<path style="fill:#B2B2B2;" d="M202.246,340.692c0-4.526,3.67-8.196,8.197-8.196c4.527,0,8.198,3.67,8.198,8.196
					c0,4.527-3.671,8.196-8.198,8.196C205.916,348.889,202.246,345.22,202.246,340.692z"/>
				<path style="fill:#9D9D9C;" d="M203.553,340.692c0-3.805,3.084-6.892,6.891-6.892c3.807,0,6.893,3.087,6.893,6.892
					c0,3.807-3.086,6.894-6.893,6.894C206.637,347.586,203.553,344.499,203.553,340.692z"/>
			</g>
		</g>
	</g>
</g>
</svg>
