<svg xmlns="http://www.w3.org/2000/svg" shape-rendering="geometricPrecision" text-rendering="geometricPrecision" image-rendering="optimizeQuality" fill-rule="evenodd" clip-rule="evenodd" viewBox="0 0 512 428.94"><path fill-rule="nonzero" d="M88.29 63.27c55.43-68.5 116.28-81.1 167.29-39.16 53 2.79 78.58 79.47 42.54 120.77 3.03.69 5.49 2.45 7.44 4.97 3.64 4.72 4.67 12.34 3.67 20.21-.94 7.32-3.61 15.14-7.48 20.99-4.42 6.68-10.27 11.1-17.04 10.69-.48 21.99-11.24 32.11-25.32 45.33l-5.38 5.1c-.88.85-1.76 1.67-2.65 2.44l.36.29a48.73 48.73 0 0 1-4.42 2.99c-5.09 3.78-10.31 6.49-15.61 8.38-7.58 2.71-15.34 3.72-23.11 3.76-7.99.05-16.05-.97-24.01-3.69-1.11-.38-2.21-.79-3.3-1.23-4.54-1.4-8.83-3.25-12.7-5.62l-1.66-1.06c-2.15 6.29-4.73 11.61-7.66 16.13l52.54 36.62 49.31-41.08c-2.39-3.67-4.56-7.83-6.47-12.58 16.85 16.81 17.06 48.4 16.37 73.28-.1 3.29-.19 4.24-.25 5.35-13.78 3.06-23.58 15.29-23.58 29.4 0 8.32 3.38 15.86 8.83 21.3 10.64 10.63 26.12 13.07 39.77 2.4 7.05-5.51 11.59-14.1 11.59-23.75 0-5.05-1.34-9.63-3.67-13.66-5.07-8.76-10.56-11.36-18.98-15.56-.59-.29.02-1.58.11-5.16.52-17.98.36-37.49-3.94-54.42 5.75 4.34 12.15 7.21 18.81 9.38 21.96 5.17 47.6 8.21 65 12.36-8.11 6.1-15.29 13.65-20.78 22.19l-1.16 1.87c-2.42.51-4.7 1.24-6.81 2.14-14.1 6.02-23.34 20.2-23.34 35.58 0 15.31 9.21 29.55 23.33 35.57.87.37 1.77.72 2.7 1.03l.61 1.13c1.99 4.07 4.21 7.82 6.61 11.22 1.5 2.13 3.12 4.22 4.86 6.24H19.67C7.33 414.48 1.05 408.08 0 397.03c4.27-18.94 5.28-63.52 16.99-78.97 4.7-6.22 10.54-10.82 17.04-14.41 18.84-10.49 64.99-13.32 95.67-21.86-3.08 9.37-4.77 18.77-5.32 26.9-3.53 2.59-12.31 5.62-15.12 8.98-4.88 5.82-9.26 12.09-13.04 18.69-.6 1.05-.93 2.25-.93 3.46 0 .94 1 1.91.57 2.75l-.64 1.24c-8.77 17.08-14.49 35.87-11.77 43.99 1.27 3.84 4.32 6.37 8.84 7.77a42.044 42.044 0 0 0 13.84 1.25c.5.46 1.08.89 1.75 1.32.71.43 1.47.78 2.25 1.07a8.8 8.8 0 0 0 3.1.59c4.67 0 8.47-3.8 8.47-8.48 0-1.21-.28-2.41-.76-3.52-1.4-3.22-4.53-5.56-8.05-5.44-3.11.1-7.56 1.53-7.56 4.65v.07l-.12.2c-.72.05-1.45.07-2.17.07-2.65 0-5.32-.26-7.89-.94-1.5-.4-2.38-1-2.58-1.63-1.96-5.67 3.39-21.41 11.12-36.61.32-.62.63-1.24.96-1.85a6.826 6.826 0 0 0 3.53-2.99c3.33-5.86 7.21-11.46 11.52-16.62 1.77-2.11 8.67-5.82 11.43-5.82h.7c2.12 1.53 4.1 3.28 5.83 5.24 4.62 5.22 8.7 10.95 12.16 16.98.79 1.37 2.67 1.66 3.5 3 8.93 14.48 13.97 31.07 12.77 37.39-.27 1.49-1.49 2.37-3.41 2.99-2.89.76-5.87 1.18-8.86 1.24-.11-.22-.22-.44-.35-.65v-.07c.07-3.12-4.45-4.55-7.57-4.65-3.51-.12-6.64 2.22-8.04 5.44-.48 1.11-.76 2.31-.76 3.52 0 4.68 3.79 8.48 8.48 8.48 1.05 0 2.1-.22 3.09-.59.78-.29 1.54-.64 2.24-1.07.44-.28.85-.56 1.21-.85.41.01.81.01 1.21.01 4.19 0 8.41-.48 12.4-1.74 5.14-1.61 8.75-4.85 9.78-10.31 1.5-8.23-4.48-26.44-13.32-42.93.37-.86.56-1.79.56-2.72 0-1.25-.34-2.47-.96-3.54-3.98-6.83-8.63-13.33-13.86-19.26-2.8-3.17-8.97-4.06-9.62-8.25-1.7-10.92 3.02-24.45 10.09-36.2a50.31 50.31 0 0 0 4.93-7.42l1.11-1.47c1.95-2.55 6.11-4.92 11.51-7.04a69.734 69.734 0 0 1-4.95-4.05l-5.38-4.7c-13.76-11.85-25.25-21.8-27.42-46.02-9.4-.81-16.06-9.72-19.34-20.45-1.73-5.64-2.51-11.81-2.21-17.36.33-6.1 1.97-11.67 5.1-15.44a17 17 0 0 1 2.14-2.18l-.46-.3c-2.16-26.99 4.16-73.79-25.14-82.65zM449.5 313.28a4.584 4.584 0 0 1-2.43-2.58c-.43-1.11-.45-2.38.04-3.56l.09-.18c.51-1.1 1.39-1.91 2.43-2.33 1.07-.43 2.3-.47 3.44.01l.09.05c4.43 1.98 8.59 4.35 12.43 7.05a70.65 70.65 0 0 1 10.59 9.18c2.76 2.94 5.25 6.11 7.42 9.47 1.97 3.06 3.68 6.29 5.1 9.65.45-.08.91-.15 1.37-.2a19.213 19.213 0 0 1 9.65 1.45 19.98 19.98 0 0 1 6.47 4.46v.01c1.83 1.88 3.3 4.14 4.31 6.64.97 2.41 1.5 5.05 1.5 7.81 0 2.75-.53 5.39-1.5 7.81-1.01 2.5-2.48 4.75-4.31 6.64l-.01.01c-1.83 1.9-4.03 3.42-6.46 4.46a19.213 19.213 0 0 1-7.61 1.56c-.32 0-.68-.01-1.06-.04h-.13c-1.94 6.49-4.95 12.59-8.85 18.12-4.14 5.87-9.29 11.1-15.22 15.48-6.32 4.68-13.53 8.4-21.36 10.93a78.672 78.672 0 0 1-24.12 3.76c-8.44 0-16.56-1.33-24.11-3.76-7.83-2.53-15.05-6.25-21.37-10.93-5.93-4.39-11.09-9.62-15.23-15.5-3.89-5.52-6.9-11.61-8.84-18.1h-.12c-.39.03-.75.04-1.08.04-17.46 0-26.61-21.94-14.06-34.92l.01-.01c3.71-3.82 8.73-6.02 14.07-6.02.67 0 1.35.04 2.05.12.46.05.92.11 1.37.2a62.12 62.12 0 0 1 5.09-9.65c2.17-3.36 4.66-6.53 7.43-9.47 3.18-3.38 6.74-6.46 10.6-9.19 3.84-2.71 8-5.08 12.41-7.05l.1-.04a4.46 4.46 0 0 1 3.44-.01 4.58 4.58 0 0 1 2.46 2.4l.05.1c.49 1.18.47 2.46.04 3.57l-.02.06a4.608 4.608 0 0 1-2.41 2.52l-.06.02a63.466 63.466 0 0 0-10.76 6.13 60.874 60.874 0 0 0-9.24 8.02 56.177 56.177 0 0 0-7.13 9.34 51.86 51.86 0 0 0-4.85 10.34l-.08.25c-.06.16-.12.32-.2.48a4.56 4.56 0 0 1-2.45 2.29c-1.06.43-2.28.46-3.42-.03l-.09-.04c-2.43-1.08-5.08-1.24-7.62-.39-2.96.99-5.37 3.28-6.57 6.27-.52 1.31-.81 2.75-.81 4.27 0 1.51.29 2.95.81 4.25l.02.06c1.37 3.36 4.22 5.81 7.67 6.54 2.52.53 3.54.15 5.79-.37 1.21-.27 2.42-.01 3.41.63.97.63 1.71 1.64 2 2.87l.01.08c1.4 6.4 4.02 12.41 7.63 17.83 3.7 5.54 8.45 10.48 14.01 14.58 5.53 4.09 11.86 7.36 18.76 9.57 6.65 2.14 13.83 3.3 21.33 3.3 7.5 0 14.68-1.16 21.33-3.3 6.9-2.21 13.23-5.48 18.77-9.57 5.54-4.1 10.28-9.03 13.98-14.58 3.61-5.4 6.23-11.39 7.63-17.77l.05-.21.06-.24a4.69 4.69 0 0 1 2.22-2.73c.52-.28 1.08-.46 1.67-.53 1.59-.18 3.65.81 5.95.63 1.12-.1 2.19-.37 3.18-.79 1.3-.56 2.47-1.37 3.45-2.38l.01-.01c.99-1.02 1.78-2.23 2.32-3.59.52-1.3.81-2.75.81-4.27 0-1.51-.29-2.95-.81-4.25-.54-1.36-1.34-2.58-2.33-3.61-.98-1.01-2.15-1.83-3.45-2.38-2.2-.94-4.54-1.08-6.75-.49-1.18.31-2.19.96-3.43.98a4.5 4.5 0 0 1-2.08-.47 4.625 4.625 0 0 1-2.29-2.59l-.04-.11a52.203 52.203 0 0 0-4.87-10.44 55.995 55.995 0 0 0-7.18-9.42l-.05-.06c-2.78-2.93-5.87-5.6-9.25-7.99a65.067 65.067 0 0 0-10.81-6.14zm-29.52 9.39c-1.12.63-2.39.75-3.55.43a4.638 4.638 0 0 1-2.83-2.2l-.01-.03c-.64-1.12-.76-2.4-.44-3.55a4.662 4.662 0 0 1 2.21-2.83l.01-.01c1.75-.99 3.43-2.02 5-3.11 1.57-1.07 3.03-2.18 4.36-3.34 1.26-1.1 2.4-2.24 3.41-3.44 2.78-3.28 4.6-7.11 4.99-11.44.17-1.96.02-3.9-.47-5.75-.49-1.8-1.31-3.51-2.49-5-2.92-3.69-8.34-6.47-13.02-4.68l-.06.02c-1.3.48-2.45 1.15-3.44 1.93-3.59 2.84-6.32 9.01-1.47 12.1 1.38.89 3.75.57 5.23.24.97-.21 2.05-.54 3.24-.97l.1-.03c1.19-.41 2.44-.31 3.5.19 1.09.51 1.99 1.43 2.42 2.65l.02.06c.42 1.2.32 2.46-.18 3.53a4.672 4.672 0 0 1-2.65 2.43c-5.29 1.93-11.72 3.08-16.77-.19-1.45-.92-2.67-2.01-3.64-3.21-4.59-5.58-4.06-13.19-.31-19.03 1.2-1.88 2.76-3.62 4.63-5.11 1.76-1.4 3.81-2.58 6.1-3.42l.08-.03c5.7-2.1 11.17-1.19 16.43 1.65l.06.04c2.92 1.62 5.3 3.68 7.16 6.03 1.98 2.52 3.36 5.37 4.17 8.39.77 2.86 1.01 5.86.76 8.87-.26 3.02-1.02 6.04-2.26 8.93-.2.49-.41.94-.62 1.37-.19.4-.42.84-.68 1.31-.99 1.81-2.18 3.51-3.53 5.12a40.38 40.38 0 0 1-4.51 4.56 59.238 59.238 0 0 1-5.13 3.93 77.978 77.978 0 0 1-5.8 3.58l-.02.01zm-27.65 62.11a4.202 4.202 0 0 1-1.18-3.05c.03-1.09.48-2.18 1.33-3 .86-.81 1.96-1.2 3.05-1.18 1.1.03 2.19.48 3 1.34 4.22 4.43 8.4 7.6 12.53 9.62 4.09 1.99 8.14 2.87 12.14 2.72 4.07-.15 8.21-1.33 12.38-3.44 4.23-2.13 8.5-5.21 12.81-9.12.87-.79 1.98-1.16 3.07-1.11 1.1.05 2.18.52 2.98 1.38v.01c.79.87 1.16 1.99 1.11 3.07-.05 1.1-.52 2.18-1.39 2.98-5 4.54-10.04 8.13-15.13 10.64-5.13 2.53-10.3 3.95-15.52 4.13-5.3.19-10.56-.88-15.78-3.35-5.18-2.46-10.32-6.29-15.4-11.64zm5.47-46.03c2.9 0 5.53 1.18 7.43 3.08 1.91 1.9 3.09 4.53 3.09 7.44 0 2.9-1.18 5.52-3.09 7.43-1.9 1.91-4.53 3.08-7.43 3.08-2.9 0-5.53-1.17-7.44-3.08-1.9-1.9-3.08-4.53-3.08-7.43 0-2.91 1.18-5.54 3.08-7.44 1.91-1.9 4.54-3.08 7.44-3.08zm50.83 0c2.9 0 5.53 1.18 7.43 3.08 1.91 1.9 3.09 4.53 3.09 7.44 0 2.9-1.18 5.53-3.09 7.43-1.9 1.91-4.53 3.08-7.43 3.08-2.9 0-5.53-1.17-7.44-3.08-1.9-1.9-3.08-4.53-3.08-7.43 0-2.9 1.18-5.54 3.08-7.44 1.91-1.9 4.54-3.08 7.44-3.08zM277.65 349.8c7.63 0 13.81 6.18 13.81 13.8 0 7.63-6.18 13.81-13.81 13.81-7.62 0-13.8-6.18-13.8-13.81 0-7.62 6.18-13.8 13.8-13.8zM142.83 127.97c-2.63 7.43-2.84 16.08-.73 25.87.5 1.74.17 3.7-1.07 5.2-1.99 2.4-5.56 2.74-7.96.75-6.94-5.74-10.88-6.29-12.61-4.19-1.51 1.82-2.33 5.03-2.53 8.81-.24 4.32.37 9.14 1.72 13.52 2.29 7.49 6.64 13.69 12.06 12.18.52-.18 1.08-.28 1.66-.29a5.646 5.646 0 0 1 5.77 5.5c.57 23.68 11.06 32.8 23.83 43.8l5.54 4.81c6.43 5.72 13.03 9.45 19.68 11.71 4.96 1.7 9.97 2.61 15 2.95 3.78.07 7.59-.11 11.33-.53 5.28-.6 10.4-1.65 15.09-3.09 5.66-2.27 11.22-5.76 16.57-10.93l5.48-5.19c13.47-12.66 23.39-21.98 21.49-44.65-.09-1.22.2-2.49.93-3.58a5.644 5.644 0 0 1 7.82-1.6c3.84 2.54 7.6.08 10.43-4.2 2.94-4.44 4.99-10.48 5.71-16.17.66-5.13.3-9.7-1.41-11.9-1.34-1.74-4.97-1.05-11.92 4.28a5.652 5.652 0 0 1-4.62 1.28 5.665 5.665 0 0 1-4.62-6.52c4.95-28.86 2.49-46.75-3.84-58.62-5.52-10.34-14.31-16.41-23.69-21.39-20.79 15.89-35.46 17.71-50.09 19.51-12.04 1.49-24.07 2.98-39.97 13.98-7.49 5.18-12.47 11.43-15.05 18.7z"/></svg>