<?xml version="1.0" encoding="utf-8"?>
<!-- Generator: Adobe Illustrator 27.5.0, SVG Export Plug-In . SVG Version: 6.00 Build 0)  -->
<svg version="1.1" xmlns="http://www.w3.org/2000/svg" xmlns:xlink="http://www.w3.org/1999/xlink" x="0px" y="0px"
	 viewBox="0 0 500 500" style="enable-background:new 0 0 500 500;" xml:space="preserve">
<g id="BACKGROUND">
	<g>
		
			<ellipse transform="matrix(0.7071 -0.7071 0.7071 0.7071 -124.2415 228.3279)" style="fill:#C6DAFA;" cx="213.495" cy="264.137" rx="123.164" ry="123.163"/>
		<g>
			<defs>
				
					<ellipse id="SVGID_1_" transform="matrix(0.7071 -0.7071 0.7071 0.7071 -124.2415 228.3279)" cx="213.495" cy="264.137" rx="123.164" ry="123.163"/>
			</defs>
			<use xlink:href="#SVGID_1_"  style="overflow:visible;fill:#C6DAFA;"/>
			<clipPath id="SVGID_00000004525077337140569380000017459099999840842431_">
				<use xlink:href="#SVGID_1_"  style="overflow:visible;"/>
			</clipPath>
		</g>
	</g>
</g>
<g id="OBJECTS">
	<g>
		<g>
			<rect x="360.953" y="86.979" style="fill:#C6DAFA;" width="90.579" height="143.492"/>
			<rect x="368.312" y="94.154" style="fill:#FFFFFF;" width="75.86" height="129.143"/>
		</g>
		<g>
			<rect x="356.07" y="83.591" style="fill:#91BDFF;" width="98.85" height="5.252"/>
			<rect x="356.07" y="91.741" style="fill:#91BDFF;" width="98.85" height="5.252"/>
			<rect x="356.07" y="99.891" style="fill:#91BDFF;" width="98.85" height="5.252"/>
			<rect x="356.07" y="108.041" style="fill:#91BDFF;" width="98.85" height="5.252"/>
			<rect x="356.07" y="116.191" style="fill:#91BDFF;" width="98.85" height="5.252"/>
			<rect x="356.07" y="124.34" style="fill:#91BDFF;" width="98.85" height="5.252"/>
			<rect x="356.07" y="132.49" style="fill:#91BDFF;" width="98.85" height="5.252"/>
			<rect x="356.07" y="140.64" style="fill:#91BDFF;" width="98.85" height="5.252"/>
			<rect x="356.07" y="148.79" style="fill:#91BDFF;" width="98.85" height="5.252"/>
		</g>
		<line style="fill:none;stroke:#91BDFF;stroke-miterlimit:10;" x1="454.92" y1="83.591" x2="454.92" y2="178.755"/>
		<rect x="453.081" y="177.559" style="fill:#91BDFF;" width="3.677" height="9.267"/>
		<g>
			<rect x="372.318" y="191.56" style="fill:#C6DAFA;" width="8.842" height="31.777"/>
			<rect x="404.16" y="196.603" style="fill:#C6DAFA;" width="7.944" height="26.734"/>
			<rect x="414.936" y="201.949" style="fill:#C6DAFA;" width="7.944" height="21.388"/>
			<rect x="384.96" y="183.973" style="fill:#C6DAFA;" width="14.281" height="39.364"/>
			<rect x="425.59" y="183.973" style="fill:#C6DAFA;" width="14.281" height="39.364"/>
		</g>
	</g>
	<polygon style="fill:#C6DAFA;" points="468.401,439.723 35.359,439.723 61.472,425.023 442.288,425.023 	"/>
	<rect x="35.359" y="439.723" style="fill:#91BDFF;" width="432.316" height="12.863"/>
	<g>
		<path style="fill:#3763A6;" d="M415.976,379.386c19.685,0,31.754,3.76,32.502,4c1.269,0.407,1.966,1.764,1.561,3.032
			c-0.407,1.269-1.77,1.963-3.032,1.561c-0.378-0.119-27.095-8.345-65.758,0.06c-1.302,0.278-2.585-0.543-2.869-1.844
			c-0.283-1.302,0.544-2.585,1.844-2.869C393.806,380.373,405.891,379.386,415.976,379.386z"/>
		<g>
			<path style="fill:#2BA167;" d="M401.939,363.867c0.346-0.664,7.046-24.511,3.505-24.839c-3.542-0.328-1.973,1.84-3.908,3.447
				c-1.935,1.607-6.01-22.291-7.89-18.04c-1.88,4.251,1.613,9.365-1.078,8.214c-2.691-1.151-7.533-23.255-10.982-21.172
				c-3.449,2.083,1.538,9.832-1.378,10.083c-2.916,0.251-18.987-7.119-21.066,2.852c-2.078,9.971,19.948,11.587,22.143,14.335
				c2.195,2.749-10.945,3.996-4.395,6.484c6.55,2.488,17.644,5.694,13.539,6.725c-0.874,0.219-12.746-4.584-12.132,3.925
				C378.595,360.003,401.939,363.867,401.939,363.867z"/>
			<path style="fill:none;stroke:#1D402F;stroke-linecap:round;stroke-miterlimit:10;" d="M401.994,366.511
				c0,0-4.025-31.678-21.481-36.395"/>
			<ellipse style="fill:#1D402F;" cx="414.357" cy="385.095" rx="33.53" ry="4.564"/>
			<path style="fill:#2BA167;" d="M413.37,383.847c0.636-0.395,18.553-17.499,15.672-19.587c-2.88-2.087-2.635,0.578-5.119,0.975
				c-2.484,0.396,6.187-22.243,2.403-19.543c-3.784,2.7-3.384,8.88-5.113,6.519c-1.729-2.361,5.368-23.848,1.339-23.813
				c-4.029,0.035-3.686,9.244-6.323,7.974c-2.637-1.27-12.71-15.801-19.579-8.281c-6.869,7.52,11.26,20.134,11.749,23.618
				c0.488,3.483-11.454-2.139-7.086,3.34c4.368,5.479,12.28,13.891,8.223,12.685c-0.864-0.257-8.631-10.439-12.439-2.805
				C395.254,368.628,413.37,383.847,413.37,383.847z"/>
			<path style="fill:none;stroke:#1D402F;stroke-linecap:round;stroke-miterlimit:10;" d="M412.041,391.178
				c0,0,12.708-34.335,0.092-47.289"/>
			<path style="fill:#2BA167;" d="M419.289,394.126c-0.215-0.717-2.326-25.397,1.215-25.056c3.541,0.341,1.593,2.178,3.192,4.119
				c1.599,1.941,10.083-20.769,11.133-16.241c1.049,4.529-3.34,8.896-0.481,8.271c2.859-0.626,11.76-21.43,14.757-18.737
				c2.998,2.693-3.354,9.369-0.537,10.163c2.817,0.793,19.986-3.433,20.157,6.751c0.172,10.184-21.767,7.641-24.439,9.929
				c-2.672,2.288,10.002,5.977,3.101,7.193c-6.901,1.216-18.399,2.285-14.56,4.067c0.817,0.379,13.38-2.112,11.181,6.13
				C442.943,394.708,419.289,394.126,419.289,394.126z"/>
			<path style="fill:none;stroke:#1D402F;stroke-linecap:round;stroke-miterlimit:10;" d="M415.433,400.502
				c0,0,13.199-34.149,31.23-35.51"/>
			<path style="fill:#2BA167;" d="M421.794,365.253c-0.327-0.673-6.361-24.697-2.811-24.927c3.55-0.23,1.921,1.895,3.81,3.555
				c1.89,1.66,6.629-22.115,8.39-17.813c1.761,4.302-1.874,9.316,0.848,8.241c2.722-1.075,8.178-23.036,11.568-20.857
				c3.39,2.178-1.811,9.785,1.096,10.118c2.908,0.332,19.178-6.588,20.978,3.437c1.8,10.025-20.263,11.026-22.534,13.713
				c-2.271,2.686,10.83,4.299,4.212,6.604c-6.617,2.305-17.796,5.201-13.721,6.345c0.867,0.244,12.869-4.227,12.018,4.262
				C445.236,362.041,421.794,365.253,421.794,365.253z"/>
			<path style="fill:none;stroke:#1D402F;stroke-linecap:round;stroke-miterlimit:10;" d="M419.009,372.164
				c0,0,7.563-35.822,25.143-40.051"/>
			<path style="fill:#2BA167;" d="M408.373,390.232c0.237-0.71,3.076-25.317-0.473-25.081c-3.549,0.237-1.656,2.129-3.313,4.022
				c-1.656,1.893-9.464-21.058-10.647-16.563c-1.183,4.495,3.076,8.991,0.237,8.281c-2.839-0.71-11.121-21.768-14.197-19.165
				c-3.076,2.603,3.076,9.464,0.237,10.174c-2.839,0.71-19.875-4.022-20.348,6.152c-0.473,10.174,21.531,8.281,24.134,10.647
				c2.603,2.366-10.174,5.679-3.313,7.098c6.862,1.42,18.324,2.828,14.433,4.496c-0.828,0.355-13.311-2.507-11.357,5.797
				C384.712,390.114,408.373,390.232,408.373,390.232z"/>
			<path style="fill:none;stroke:#1D402F;stroke-linecap:round;stroke-miterlimit:10;" d="M408.847,392.835
				c0,0-8.991-30.641-26.973-32.534"/>
			<path style="fill:#3763A6;" d="M435.723,431.845l-1.466,0.346c-13.414,3.162-27.971,3.283-41.495,0.346l0,0l-11.981-47.319l0,0
				c21.025,4.722,43.684,4.885,64.852,0.468l2.242-0.468L435.723,431.845z"/>
		</g>
		<path style="fill:#24416E;" d="M382.339,391.371c4.472,1.14,15.077,3.347,30.163,3.347c9.6,0,21.03-0.916,33.822-3.549
			l1.343-5.152c-0.145,0.004-0.291,0.017-0.437,0.049c-38.663,8.405-65.381,0.179-65.758,0.06c-0.161-0.051-0.324-0.084-0.486-0.1
			L382.339,391.371z"/>
		<path style="fill:#3763A6;" d="M412.502,392.635c-19.685,0-31.754-3.761-32.502-4c-1.269-0.407-1.966-1.764-1.56-3.032
			c0.407-1.269,1.77-1.963,3.032-1.561c0.378,0.119,27.095,8.345,65.758-0.06c1.302-0.278,2.585,0.543,2.869,1.844
			c0.283,1.302-0.543,2.585-1.844,2.869C434.672,391.648,422.587,392.635,412.502,392.635z"/>
	</g>
	<g>
		<g>
			<polygon style="fill:#424242;" points="291.021,415.547 89.245,420.741 39.513,283.147 241.289,277.952 			"/>
			<polygon style="fill:#333333;" points="385.303,426.491 183.527,431.685 89.237,420.436 291.013,415.242 			"/>
			<polygon style="fill:#3763A6;" points="281.227,407.621 95.667,412.397 51.438,289.938 236.998,285.161 			"/>
			<polygon style="fill:#1A1A1A;" points="89.237,420.436 183.527,431.685 183.819,443.022 89.895,430.246 			"/>
			<polygon points="183.527,431.685 385.303,426.491 385.522,434.994 183.819,443.022 			"/>
			<polygon style="fill:#122138;" points="232.534,289.363 275.301,407.773 281.227,407.621 236.998,285.161 51.438,289.938 
				52.9,293.987 			"/>
		</g>
		<polygon points="39.513,283.147 38.288,284.764 89.895,430.246 89.237,420.436 		"/>
		<polygon style="fill:#424242;" points="282.453,425.194 234.982,426.416 212.799,423.77 260.27,422.548 		"/>
	</g>
	<g>
		
			<line style="fill:none;stroke:#424242;stroke-linecap:round;stroke-miterlimit:10;" x1="291.019" y1="0" x2="291.019" y2="90.671"/>
		<g>
			<polygon style="fill:#C6DAFA;" points="257.236,138.242 326.646,138.242 291.298,99.338 			"/>
			<rect x="283.029" y="84.77" style="fill:#C6DAFA;" width="17.138" height="25.364"/>
			<polygon style="fill:#3763A6;" points="283.029,108.807 300.146,108.935 280.394,111.827 			"/>
		</g>
	</g>
	<g>
		<path style="fill:#1A1A1A;" d="M210.69,122.693c0,0,7.184,32.522-4.204,29.046c-11.388-3.477-12.396-29.529-12.396-29.529
			L210.69,122.693z"/>
		<g>
			<g>
				<path style="fill:#FCBC76;" d="M225.427,299.491c4.293,13.953,9.144,26.973,13.614,34.384
					c6.229,19.072,14.252,22.567,14.252,22.567l14.268-5.181c2.249-0.926,2.444-4.913,1.893-7.11l-12.826-65.719l-0.21,0.078"/>
				<path style="fill:#FFFFFF;" d="M256.418,278.509l-19.081-59.253c-36.63-5.907-23.409,33.579-23.409,33.579
					c1.877,11.314,6.275,29.675,11.499,46.655"/>
				<path style="fill:#FFFFFF;" d="M263.069,276.8c0,0-25.406-4.685-37.27,13.842l5.336,13.998l1.662,0.057
					c12.217,0.421,24.235-3.174,34.215-10.234l0,0L263.069,276.8z"/>
				<path style="fill:#ADADAD;" d="M260.472,281.865c0,0-4.876,4.765-13.785,7.496c-8.909,2.732-18.62,2.757-17.934,0.606
					c0.686-2.151,1.135-1.4,1.135-1.4l1.347,2.255c0,0,19.066-1.729,27.492-8.671l-0.493-3.242
					C258.233,278.909,259.836,279.036,260.472,281.865z"/>
				<g>
					<polygon style="fill:#FFFFFF;" points="122.718,218.095 184.248,201.383 237.339,219.362 					"/>
					<path style="fill:#FFFFFF;" d="M241.469,408.644l-0.24-35.534l1.864-57.861c1.557-21.808-2.763-78.33-14.795-96.586
						l-30.159-10.534l-3.084,5.251l-4.935,3.069l-22.491-10.442l-41.845,11.471l10.302,193.877L241.469,408.644z"/>
					<path style="fill:#ADADAD;" d="M192.712,220.449c1.568,8.042,3.03,16.106,4.407,24.186c1.29,8.092,2.471,16.201,3.604,24.319
						c2.216,16.242,3.87,32.555,5.385,48.882c1.202,16.353,2.203,32.729,2.542,49.129c0.002,8.205,0.169,16.403-0.109,24.603
						c-0.181,8.199-0.166,9.776-0.672,17.947l-0.531,0.012c0.672-16.359,0.302-26.15-0.196-42.513
						c-0.626-16.359-1.616-32.703-2.97-49.018c-1.369-16.314-3.017-32.604-4.953-48.862c-1.95-16.254-4.123-32.486-6.698-48.654
						L192.712,220.449z"/>
					<g>
						<g>
							<path style="fill:#ADADAD;" d="M186.661,227.196c-0.506,0.009-1.015-0.196-1.373-0.559c-0.376-0.343-0.599-0.845-0.608-1.35
								c-0.01-0.525,0.195-1.015,0.558-1.392c0.707-0.733,2.01-0.757,2.743-0.051c0.376,0.363,0.58,0.845,0.59,1.37
								c0.009,0.505-0.176,1.015-0.539,1.371C187.669,226.963,187.186,227.187,186.661,227.196z"/>
						</g>
						<g>
							<path style="fill:#ADADAD;" d="M201.695,390.126c-1.07,0.02-1.962-0.859-1.962-1.929l0,0c-0.02-1.069,0.84-1.941,1.909-1.961
								l0,0c1.089-0.02,1.962,0.859,1.981,1.928l0,0c0.001,1.071-0.84,1.942-1.91,1.962l0,0
								C201.695,390.126,201.695,390.126,201.695,390.126z M198.663,355.549L198.663,355.549c-0.059-1.07,0.76-1.999,1.849-2.039
								l0,0c1.07-0.059,1.98,0.761,2.038,1.83l0,0l0,0l0,0c0.059,1.07-0.761,1.999-1.85,2.039l0,0
								c-0.018,0.019-0.038,0.02-0.058,0.02l0,0C199.593,357.418,198.722,356.597,198.663,355.549z M196.446,322.94L196.446,322.94
								c-0.079-1.068,0.702-2.017,1.79-2.115l0,0c1.068-0.079,1.998,0.721,2.096,1.79l0,0c0.077,1.068-0.722,1.998-1.79,2.096l0,0
								c-0.039,0.001-0.078,0.001-0.117,0.002l0,0C197.413,324.732,196.543,323.97,196.446,322.94z M193.315,290.388
								c-0.117-1.069,0.663-2.036,1.731-2.153l0,0c1.068-0.117,2.036,0.664,2.133,1.731l0,0c0.117,1.068-0.644,2.016-1.712,2.133
								l0,0c-0.059,0.02-0.117,0.021-0.175,0.022l0,0C194.301,292.139,193.431,291.397,193.315,290.388z M189.408,257.908
								L189.408,257.908c-0.137-1.068,0.623-2.055,1.69-2.192l0,0c1.048-0.136,2.035,0.605,2.171,1.673l0,0
								c0.137,1.067-0.604,2.054-1.672,2.19l0,0c-0.078,0.001-0.156,0.003-0.234,0.004l0,0
								C190.392,259.602,189.543,258.897,189.408,257.908z"/>
						</g>
					</g>
					<path style="fill:#FCBC76;" d="M175.183,217.927l-6.981-11.569l-4.439-37.731l23.5-6.671l12.27,51.256
						C200.662,221.806,181.766,223.565,175.183,217.927z"/>
					<path style="fill:#E3923C;" d="M190.919,199.997c1.79-0.261,3.455-0.889,4.976-1.768l-8.633-36.272l-23.5,6.671l2.097,17.821
						l0.517,0.814l14.012,10.074C183.515,199.584,187.261,200.53,190.919,199.997z"/>
					<path style="fill:#FCBC76;" d="M195.632,197.177L195.632,197.177c6.519-0.587,11.889-5.681,13.313-12.629l4.258-20.768
						c0.595-2.901,0.667-5.879,0.207-8.804c-1.706-10.839-4.052-22.442-6.517-28.586l-0.373-2.978
						c-4.515-11.252-15.352-11.335-26.495-10.331l0,0c-12.232,1.101-16.057,10.394-17.351,23.701l-6.858,6.86
						c-0.585,6.015,0.68,12.102,3.597,17.309l10.217,19.762c0.546,1.057,1.314,1.985,2.25,2.72l13.382,10.509
						C188.262,196.357,191.95,197.509,195.632,197.177z"/>
					<path style="fill:#1A1A1A;" d="M162.188,165.295c0,0,4.679-21.574,3.135-30.523c0,0,42.733,11.398,46.727-9.734
						c0,0,4.471-14.567-10.584-14.438c-15.439,0.132-48.439-4.281-47.852,22.261C154.366,166.842,162.188,165.295,162.188,165.295z"
						/>
					<path style="fill:#FCBC76;" d="M167.718,159.042c2.961,4.175,2.764,9.401-0.439,11.673c-3.203,2.271-8.2,0.727-11.161-3.448
						c-2.961-4.175-2.764-9.401,0.439-11.673C159.76,153.323,164.757,154.867,167.718,159.042z"/>
					<polygon style="opacity:0.67;fill:#707070;" points="158.722,208.358 179.672,232.221 192.616,220.465 					"/>
					<polygon style="opacity:0.67;fill:#707070;" points="206.553,209.787 200.466,226.278 203.516,226.347 					"/>
					<polygon style="opacity:0.67;fill:#707070;" points="192.616,220.465 185.331,231.098 193.376,223.182 201.137,227.702 					
						"/>
					<polygon style="fill:#ADADAD;" points="196.381,200.246 201.056,200.35 197.987,208.305 					"/>
					<polygon style="fill:#FFFFFF;" points="201.056,200.35 206.553,209.787 201.369,227.863 192.616,220.465 					"/>
					<path style="fill:#ADADAD;" d="M167.296,198.2l-4.761,0.07c0.54,0.325,5.113,3.579,5.113,3.579L167.296,198.2z"/>
					<polyline style="fill:#FFFFFF;" points="162.535,198.27 158.522,208.549 185.331,231.098 192.616,220.465 167.345,201.619 
											"/>
					<path style="opacity:0.42;fill:#707070;" d="M222.657,342.501l-85.877-1.988c-0.36-21.343,0.45-71.301-4.938-93.684
						c0,0-3.284-26.09-12.577-23.583l-11.458,74.928l-0.257,80.908l9.039-14.176c6.82,8.98,26.163,20.724,37.292,19.625
						c58.669-5.797,87.482-26.001,87.482-26.001L222.657,342.501z"/>
				</g>
				<path style="fill:#ADADAD;" d="M122.987,221.098c1.175,0.683,1.509,1.947,1.946,3.032c0.374,1.13,0.684,2.282,0.921,3.439
					c0.425,2.325,0.639,4.659,0.832,6.993c0.2,2.331,0.16,4.67,0.124,6.993c-0.024,2.329-0.091,4.652-0.213,6.97
					c-0.178,2.317-0.433,4.621-0.679,6.926c-0.253,2.305-0.45,4.612-0.891,6.893c-0.391,2.286-0.753,4.573-1.207,6.847
					c-0.543,2.263-0.975,4.538-1.617,6.783l-0.193-0.024c0.516-4.585,1.093-9.164,1.515-13.759c0.47-4.589,0.851-9.188,1.132-13.791
					c0.35-4.599,0.508-9.21,0.513-13.819c-0.03-2.303-0.093-4.61-0.34-6.898c-0.107-1.146-0.286-2.283-0.526-3.404
					c-0.15-0.552-0.266-1.117-0.492-1.64c-0.182-0.517-0.481-1.089-0.873-1.351L122.987,221.098z"/>
				<g>
					<g>
						<path style="fill:#ADADAD;" d="M135.398,295.998l0.303-4.644C135.575,292.86,135.48,294.419,135.398,295.998z"/>
						<path style="fill:#FFFFFF;" d="M132.028,304.512c-1.16-11.396,6.033-37.017-0.289-63.284c0,0,8.422-29.258-15.52-21.985
							c-6.895,2.095-16.611,35.659-17.766,48.99l-2.404,35.077c-1.157,9.105,0.908,12.78,1.806,21.914"/>
						<path style="fill:#FCBC76;" d="M97.855,325.223l5.313,48.57c0.448,2.666,2.471,7,5.174,7.075l39.486-1.829
							c0,0-13.38-50.77-15.799-74.527"/>
					</g>
					<path style="fill:#FCBC76;" d="M119.54,364.501l13.267-29.679l89.747,2.077l0.745,29.553
						C223.299,366.452,113.217,396.596,119.54,364.501z"/>
					<path style="fill:#E3923C;" d="M160.249,335.457l-8.933-1.123c0,0,68.082,34.102,72.464,32.108
						c9.143-4.159,18.139-9.44,18.139-9.44l-19.366-20.103L160.249,335.457z"/>
				</g>
				<g>
					<path style="fill:#FCBC76;" d="M159.811,320.518c0,0-7.825,0.145-10.845,0.706c-3.02,0.561-11.735,13.721-11.735,13.721
						l17.52,0.465L159.811,320.518z"/>
					<path style="fill:#FCBC76;" d="M258.38,347.227l-5.141-28.382l-93.427,1.674l-7.939,14.476
						C151.872,334.995,264.026,377.532,258.38,347.227z"/>
					<path style="fill:#FFFFFF;" d="M138.001,300.234c0,0-31.256-11.124-50.078,9.945l3.909,18.837l2.096,0.412
						c15.404,3.027,31.375,0.922,45.468-5.993l0,0L138.001,300.234z"/>
					<path style="fill:#ADADAD;" d="M133.676,306.125c0,0-7.155,5.046-19.007,6.691c-11.853,1.645-24.171-0.304-22.862-2.891
						c1.308-2.587,1.724-1.543,1.724-1.543l1.247,3.134c0,0,24.527,1.698,36.626-5.384l0.037-4.211
						C131.44,301.922,133.447,302.41,133.676,306.125z"/>
				</g>
				<path style="fill:#ADADAD;" d="M236.728,255.955c1.205,3.897,2.108,7.934,2.904,12.02c0.428,2.03,0.741,4.112,1.112,6.168
					c0.33,2.075,0.628,4.165,0.939,6.248c0.257,2.109,0.538,4.206,0.775,6.324c0.204,2.134,0.459,4.243,0.605,6.403
					c0.349,4.294,0.593,8.637,0.537,13.12l-0.179,0.083l-3.525-25.101l-3.347-25.184L236.728,255.955z"/>
				<path style="fill:#FCBC76;" d="M218.695,319.489c0,0,19.475-13.785,31.729-14.012l13.617,10.372l-1.668,20.096l-14.406-15.144
					L218.695,319.489z"/>
				<path style="fill:#ADADAD;" d="M125.785,217.48c2.065,2.815,3.691,5.911,5.005,9.11c1.349,3.192,2.382,6.502,3.246,9.85
					c0.76,3.372,1.474,6.761,1.72,10.217c0.166,1.72,0.232,3.45,0.32,5.17c-0.04,1.737-0.039,3.462-0.211,5.195l-0.194,0.018
					c-0.374-3.39-0.799-6.775-1.402-10.131c-0.554-3.365-1.315-6.691-2.12-10.001c-0.809-3.311-1.743-6.591-2.812-9.828
					c-1.079-3.23-2.267-6.437-3.725-9.512L125.785,217.48z"/>
				<path style="fill:#ADADAD;" d="M116.02,225.65l-0.684,20.945c-0.197,6.969-0.449,13.928-0.393,20.885
					c-0.116,6.952,0.049,13.906,0.52,20.803c0.231,3.448,0.582,6.888,1.214,10.241c0.59,3.353,1.484,6.686,3.284,9.362l-0.085,0.118
					c-2.021-2.506-3.071-5.915-3.844-9.257c-0.757-3.382-1.209-6.852-1.549-10.327c-0.667-6.959-0.826-13.97-0.811-20.963
					c0.039-6.996,0.295-13.984,0.675-20.957c0.385-6.973,0.885-13.934,1.546-20.872L116.02,225.65z"/>
				<path style="fill:none;stroke:#E3923C;stroke-linecap:round;stroke-miterlimit:10;" d="M157.403,160.513
					c0,0,4.816-1.435,6.559,3.894"/>
				
					<line style="fill:none;stroke:#E3923C;stroke-linecap:round;stroke-miterlimit:10;" x1="159.811" y1="164.151" x2="161.758" y2="161.281"/>
			</g>
			<g>
				<g>
					<path style="fill:#3763A6;" d="M228.994,237.795c-5.309-22.887-23.148-29.473-23.332-29.541l-0.946-1.631
						c0.257,0.049,19.948,7.429,25.395,30.913L228.994,237.795z"/>
					<g>
						<path style="fill:#C9C9C9;" d="M228.771,258.046c-2.639-0.346-5.013-1.657-6.72-3.717c-1.79-2.163-2.632-4.895-2.369-7.691
							c0.346-3.675,2.644-6.94,5.999-8.521c0.256-0.12,0.563-0.036,0.72,0.199c0.158,0.235,0.121,0.551-0.088,0.743
							c-1.715,1.575-2.778,3.709-2.996,6.011c-0.483,5.143,3.313,9.712,8.448,10.202l0.001,0c1.657,0.156,3.336-0.14,4.856-0.857
							c0.257-0.12,0.563-0.036,0.72,0.199c0.158,0.235,0.121,0.551-0.088,0.742c-2.195,2.015-5.143,3.011-8.091,2.734
							C229.032,258.078,228.901,258.063,228.771,258.046z"/>
						<path style="fill:#264473;" d="M228.771,258.046c-2.639-0.346-5.013-1.657-6.72-3.717c-1.79-2.163-2.632-4.895-2.369-7.691
							c0.346-3.675,2.644-6.94,5.999-8.521c0.256-0.12,0.563-0.036,0.72,0.199c0.158,0.235,0.121,0.551-0.088,0.743
							c-1.715,1.575-2.778,3.709-2.996,6.011c-0.483,5.143,3.313,9.712,8.448,10.202l0.001,0c1.657,0.156,3.336-0.14,4.856-0.857
							c0.257-0.12,0.563-0.036,0.72,0.199c0.158,0.235,0.121,0.551-0.088,0.742c-2.195,2.015-5.143,3.011-8.091,2.734
							C229.032,258.078,228.901,258.063,228.771,258.046z"/>
						<path style="fill:#3763A6;" d="M230.189,257.199c-5.573-0.731-9.624-5.766-9.094-11.408
							c0.544-5.772,5.681-10.025,11.452-9.483c5.774,0.529,10.025,5.681,9.483,11.452c0,0,0,0,0,0.001
							c-0.544,5.771-5.681,10.025-11.452,9.481C230.448,257.231,230.318,257.216,230.189,257.199z"/>
						<path style="fill:#264473;" d="M230.555,254.424c-4.089-0.537-7.062-4.231-6.673-8.37c0.399-4.235,4.168-7.356,8.403-6.958
							c4.237,0.388,7.356,4.168,6.958,8.403c0,0,0,0,0,0.001c-0.399,4.235-4.168,7.356-8.403,6.957
							C230.745,254.447,230.649,254.436,230.555,254.424z"/>
					</g>
				</g>
				<g>
					<g>
						<path style="fill:#3763A6;" d="M131.085,317.406l-5.979-0.572c-2.335-0.223-4.437-1.347-5.92-3.165
							c-1.483-1.816-2.161-4.102-1.911-6.433l5.265-49.052c0.816-4.485,4.229-7.755,8.702-8.373c4.47-0.617,8.646,1.603,10.631,5.66
							l18.8,46.187c0.948,2.327,0.844,4.95-0.286,7.195c-1.129,2.246-3.173,3.893-5.607,4.52l-4.311,1.111l-0.286-1.111l4.311-1.111
							c2.113-0.544,3.888-1.975,4.868-3.924c0.98-1.949,1.071-4.226,0.249-6.248l-18.784-46.151
							c-1.747-3.567-5.454-5.541-9.428-4.992c-3.974,0.549-7.006,3.455-7.725,7.401l-5.259,49.01
							c-0.217,2.024,0.371,4.008,1.659,5.586c1.288,1.578,3.113,2.554,5.14,2.747l5.979,0.572L131.085,317.406z"/>
						<path style="fill:#3763A6;" d="M147.927,314.292c-0.113-1.499,1.01-2.805,2.508-2.919c1.499-0.113,2.805,1.01,2.919,2.509
							c0.113,1.499-1.01,2.805-2.508,2.919C149.347,316.913,148.041,315.79,147.927,314.292z"/>
						<path style="fill:#3763A6;" d="M128.52,316.881c-0.113-1.499,1.01-2.806,2.508-2.919c1.499-0.113,2.805,1.01,2.919,2.508
							c0.113,1.499-1.01,2.805-2.508,2.919C129.939,319.503,128.633,318.38,128.52,316.881z"/>
						<path style="fill:#3763A6;" d="M122.566,267.35l-0.993-0.573c3.269-5.66,7.084-8.687,11.34-8.997
							c6.821-0.486,12.212,6.189,12.436,6.474l-0.9,0.712c-0.051-0.065-5.236-6.503-11.459-6.042
							C129.14,259.206,125.632,262.041,122.566,267.35z"/>
					</g>
					<path style="fill:#3763A6;" d="M129.738,250.378c-0.044-0.376-3.774-37.654,30.066-45.116l-0.541,1.39
						c-32.839,7.241-28.428,43.228-28.386,43.594L129.738,250.378z"/>
				</g>
			</g>
			<path style="fill:#1A1A1A;" d="M182.688,155.743c-0.024,1.213-0.61,2.185-1.309,2.171c-0.699-0.014-1.245-1.009-1.221-2.221
				c0.024-1.213,0.61-2.185,1.309-2.171C182.166,153.536,182.712,154.531,182.688,155.743z"/>
			<path style="fill:#1A1A1A;" d="M205.996,154.287c-0.024,1.213-0.61,2.184-1.309,2.17c-0.699-0.014-1.245-1.008-1.221-2.221
				c0.024-1.213,0.61-2.184,1.309-2.17C205.474,152.08,206.021,153.074,205.996,154.287z"/>
			<path style="fill:none;stroke:#E3923C;stroke-linecap:round;stroke-miterlimit:10;" d="M195.497,150.845
				c0,0,2.697,7.876,4.208,13.271c1.51,5.395-7.769,4.424-7.769,4.424"/>
			<path style="fill:none;stroke:#E3923C;stroke-linecap:round;stroke-miterlimit:10;" d="M181.383,171.273
				c0,0,3.484,8.608,12.093,6.149"/>
		</g>
		<path style="fill:#E3923C;" d="M136.909,334.892c0,0-6.427-0.348-10.13,7.775C126.779,342.668,134.605,336.569,136.909,334.892z"
			/>
		<polygon style="fill:#E3923C;" points="218.695,319.489 248.84,320.8 263.137,336.413 243.514,323.233 		"/>
		<polygon style="fill:#E3923C;" points="243.442,306.657 251.343,304.643 263.689,315.739 251.369,306.044 		"/>
		<g>
			<path style="fill:#E3923C;" d="M253.343,311.819c1.132,0.452,2.08,1.119,3.074,1.743c0.979,0.639,1.912,1.341,2.865,2.014
				c0.911,0.729,1.846,1.427,2.733,2.187c0.888,0.759,1.767,1.529,2.588,2.376l-0.03,0.04l-5.59-4.203l-2.796-2.1
				c-0.938-0.679-1.869-1.421-2.842-2.006L253.343,311.819z"/>
		</g>
		<g>
			<path style="fill:#E3923C;" d="M254.024,317.06c1.132,0.452,2.08,1.119,3.074,1.743c0.979,0.639,1.912,1.34,2.865,2.014
				c0.911,0.729,1.846,1.427,2.733,2.187c0.888,0.758,1.767,1.529,2.588,2.376l-0.03,0.04l-5.59-4.203l-2.796-2.1
				c-0.938-0.679-1.87-1.421-2.842-2.006L254.024,317.06z"/>
		</g>
		<g>
			<path style="fill:#E3923C;" d="M254.367,323.008c1.132,0.452,2.08,1.119,3.074,1.743c0.979,0.639,1.912,1.341,2.865,2.014
				c0.911,0.729,1.846,1.427,2.733,2.187c0.888,0.758,1.767,1.529,2.588,2.376l-0.03,0.04l-5.59-4.203l-2.796-2.1
				c-0.938-0.679-1.869-1.421-2.842-2.006L254.367,323.008z"/>
		</g>
		<g>
			<path style="fill:none;stroke:#FFFFFF;stroke-linecap:round;stroke-miterlimit:10;" d="M174.227,157.884
				c-0.012-0.166-0.018-0.333-0.019-0.502c-0.029-4.332,3.458-7.867,7.79-7.897c4.332-0.029,7.867,3.458,7.897,7.79
				c0.029,4.332-3.459,7.868-7.79,7.897C177.941,165.201,174.513,161.98,174.227,157.884"/>
			<path style="fill:none;stroke:#FFFFFF;stroke-linecap:round;stroke-miterlimit:10;" d="M215.139,154.977
				c0.029,4.332-3.458,7.868-7.79,7.897c-4.332,0.029-7.868-3.458-7.897-7.79c-0.029-4.332,3.459-7.867,7.79-7.897
				C211.574,147.157,215.11,150.645,215.139,154.977z"/>
			<path style="fill:none;stroke:#FFFFFF;stroke-linecap:round;stroke-miterlimit:10;" d="M189.838,155.619
				c0,0,5.021-4.848,9.614-0.536"/>
			
				<line style="fill:none;stroke:#FFFFFF;stroke-linecap:round;stroke-miterlimit:10;" x1="163.599" y1="154.884" x2="174.207" y2="157.382"/>
			<path style="fill:none;stroke:#1A1A1A;stroke-linecap:round;stroke-miterlimit:10;" d="M202.973,144.18
				c0,0,2.629-3.088,6.726,0.231"/>
			<path style="fill:none;stroke:#1A1A1A;stroke-linecap:round;stroke-miterlimit:10;" d="M175.907,146.808
				c0,0,3.092-3.428,9.507-0.721"/>
		</g>
		<polygon style="fill:#3763A6;" points="176.69,279.178 156.622,281.056 156.634,273.561 176.701,271.683 		"/>
	</g>
	<path style="fill:none;stroke:#E3923C;stroke-linecap:round;stroke-miterlimit:10;" d="M159.675,164.085"/>
	<g>
		<g>
			<rect x="47.841" y="59.889" style="fill:#91BDFF;" width="91.8" height="56.264"/>
			<polygon style="fill:#91BDFF;" points="106.08,110.4 124.788,133.263 124.788,108.257 			"/>
		</g>
		<line style="fill:none;stroke:#FFFFFF;stroke-miterlimit:10;" x1="60.081" y1="73.356" x2="96.081" y2="73.356"/>
		<line style="fill:none;stroke:#FFFFFF;stroke-miterlimit:10;" x1="60.081" y1="81.876" x2="127.401" y2="81.876"/>
		<line style="fill:none;stroke:#FFFFFF;stroke-miterlimit:10;" x1="60.081" y1="90.396" x2="127.401" y2="90.396"/>
		<line style="fill:none;stroke:#FFFFFF;stroke-miterlimit:10;" x1="60.081" y1="98.916" x2="127.401" y2="98.916"/>
	</g>
</g>
</svg>
