<?xml version="1.0" encoding="utf-8"?>
<!-- Generator: Adobe Illustrator 27.5.0, SVG Export Plug-In . SVG Version: 6.00 Build 0)  -->
<svg version="1.1" xmlns="http://www.w3.org/2000/svg" xmlns:xlink="http://www.w3.org/1999/xlink" x="0px" y="0px"
	 viewBox="0 0 3710 3710" style="enable-background:new 0 0 3710 3710;" xml:space="preserve">
<g id="Background">
	<g>
		<g>
			<rect style="fill:#FFFFFF;" width="3710" height="3710"/>
		</g>
	</g>
</g>
<g id="Illustration">
	<g>
		<path style="fill:#F4F7FA;" d="M1131.061,621.911c-93.657,134.075,16.158,351.442-122.813,452.278
			c-135.277,98.156-301.461-62.734-428.951,21.757C390.172,1221.284,424.71,1794.811,701.22,2151.154
			c83.156,107.165,152.638,148.861,183.411,270.059c66.079,260.243-166.155,415.052-121.961,543.764
			c99.509,289.812,1629.878,532.999,2243.931-337.983c286.788-406.785,329.698-994.185,73.461-1440.319
			C2617.048,380.518,1341.21,321.072,1131.061,621.911z"/>
		<g>
			<g>
				<defs>
					<path id="SVGID_1_" d="M1393.716,2701.255c-75.333-128.473-2.232-342.421,87.254-467.675
						c104.477-146.238,189.358-112.886,261.762-232.94c134.807-223.524-104.151-430.8,13.919-666.994
						c96.522-193.089,292.846-127.834,390.006-346.526c70.11-157.805,1.584-267.632,107.875-384.878
						c9.086-10.023,108.63-116.71,229.527-97.387c122.022,19.504,194.431,155.972,218.118,250.195
						c43.786,174.168-72.37,229.971-96.229,455.484c-32.483,307.029,163.591,385.332,92.945,606.461
						c-58.337,182.601-205.495,171.325-266.156,375.073c-56.33,189.201,50.093,267.677,0,391.332
						C2317.498,2867.87,1547.375,2963.303,1393.716,2701.255z"/>
				</defs>
				
					<linearGradient id="SVGID_00000121965181929537417510000008195766487539787439_" gradientUnits="userSpaceOnUse" x1="1768.4536" y1="756.7672" x2="2110.6184" y2="1960.2416">
					<stop  offset="0.0036" style="stop-color:#E38DDD"/>
					<stop  offset="1" style="stop-color:#9571F6"/>
				</linearGradient>
				
					<use xlink:href="#SVGID_1_"  style="overflow:visible;fill:url(#SVGID_00000121965181929537417510000008195766487539787439_);"/>
				<clipPath id="SVGID_00000119832723572242853240000002032453329357035410_">
					<use xlink:href="#SVGID_1_"  style="overflow:visible;"/>
				</clipPath>
				<g style="clip-path:url(#SVGID_00000119832723572242853240000002032453329357035410_);">
					<path style="opacity:0.7;fill:#FFFFFF;" d="M1495.743,2902.603c-0.769,0-1.43-0.581-1.512-1.364
						c-0.089-0.836,0.517-1.587,1.354-1.675c130.869-13.854,253.09-54.474,363.27-120.734
						c104.379-62.771,212.311-127.68,260.257-247.319c36.281-90.529,16.329-157.16-8.93-241.518
						c-24.534-81.939-55.071-183.916-38.215-339.73c9.625-88.966,21.603-199.687,98.655-304.395
						c44.871-60.974,88.432-87.097,126.865-110.144c40.435-24.249,72.375-43.402,91.048-94.762
						c30.401-83.605,10.466-155.404-12.617-238.54c-14.228-51.238-28.939-104.221-34.512-167.104
						c-6.948-78.372,5.51-159.937,37.028-242.427c39.745-104.022,110.877-212.788,211.42-323.276
						c0.565-0.623,1.528-0.667,2.152-0.101c0.622,0.566,0.667,1.53,0.101,2.153C2491.82,581.873,2420.889,690.315,2381.28,793.98
						c-31.352,82.055-43.746,163.163-36.84,241.07c5.549,62.605,20.222,115.452,34.412,166.558
						c23.224,83.64,43.28,155.874,12.546,240.397c-19.044,52.375-53.013,72.746-92.345,96.334
						c-38.187,22.9-81.469,48.855-125.978,109.337c-76.566,104.046-88.494,214.314-98.079,302.916
						c-16.789,155.202,13.647,256.851,38.105,338.528c25.43,84.928,45.516,152.009,8.839,243.525
						c-48.327,120.589-156.705,185.766-261.516,248.797c-110.563,66.49-233.204,107.252-364.518,121.153
						C1495.852,2902.601,1495.797,2902.603,1495.743,2902.603z"/>
					<path style="opacity:0.7;fill:#FFFFFF;" d="M2139.059,1699.988c-0.585,0-1.144-0.339-1.395-0.908
						c-105.429-238.68-121.997-423.437-117.331-536.399c5.06-122.518,35.529-189.489,35.837-190.151
						c0.354-0.763,1.258-1.096,2.023-0.741c0.763,0.354,1.095,1.26,0.741,2.023c-0.304,0.659-30.557,67.222-35.565,189.206
						c-4.622,112.603,11.938,296.796,117.083,534.831c0.339,0.77-0.009,1.669-0.778,2.01
						C2139.472,1699.947,2139.263,1699.988,2139.059,1699.988z"/>
					<path style="opacity:0.7;fill:#FFFFFF;" d="M2069.481,2078.919c-0.675,0-1.291-0.45-1.471-1.133
						c-0.215-0.813,0.269-1.648,1.082-1.864c133.99-35.56,249.375-92.432,342.951-169.039
						c74.848-61.275,135.998-135.248,181.75-219.863c77.923-144.115,84.167-270.84,84.222-272.103
						c0.036-0.842,0.75-1.493,1.587-1.457c0.841,0.036,1.492,0.746,1.457,1.587c-0.053,1.269-6.305,128.581-84.516,273.297
						c-45.934,84.99-107.333,159.291-182.494,220.837c-93.928,76.915-209.725,134.005-344.173,169.687
						C2069.742,2078.904,2069.612,2078.919,2069.481,2078.919z"/>
					<path style="opacity:0.7;fill:#FFFFFF;" d="M1975.467,2714.477c-0.351,0-0.705-0.121-0.994-0.369
						c-100.049-86.169-178.79-180.719-234.036-281.022c-44.211-80.27-73.56-164.383-87.23-250
						c-23.283-145.829,7.5-246.86,7.813-247.863c0.25-0.803,1.097-1.252,1.909-1c0.802,0.251,1.25,1.106,0.999,1.909
						c-0.311,0.998-30.896,101.477-7.684,246.643c13.631,85.248,42.875,169.005,86.919,248.945
						c55.067,99.946,133.56,194.178,233.298,280.079c0.638,0.55,0.71,1.511,0.161,2.149
						C1976.321,2714.298,1975.895,2714.477,1975.467,2714.477z"/>
					<path style="opacity:0.7;fill:#FFFFFF;" d="M2346.215,1006.318c-0.593,0-1.157-0.349-1.404-0.931
						c-0.327-0.775,0.035-1.669,0.81-1.997c97.047-41.058,177.772-98.207,239.933-169.857
						c49.72-57.313,87.749-123.989,113.029-198.174c43.046-126.326,34.017-231.956,33.92-233.008
						c-0.076-0.838,0.541-1.579,1.379-1.656c0.838-0.078,1.579,0.541,1.656,1.379c0.096,1.059,9.182,107.335-34.072,234.268
						c-25.407,74.559-63.631,141.576-113.612,199.187c-62.466,72.005-143.566,129.426-241.047,170.667
						C2346.615,1006.279,2346.413,1006.318,2346.215,1006.318z"/>
				</g>
			</g>
		</g>
		<g>
			<g>
				<defs>
					<path id="SVGID_00000150066128057523874330000016522076530538974909_" d="M2001.095,2818.574
						c-64.349-109.74-1.907-292.492,74.532-399.483c89.243-124.915,161.747-96.427,223.595-198.976
						c115.15-190.932-88.965-367.984,11.89-569.739c82.448-164.934,250.146-109.194,333.138-295.998
						c59.887-134.796,1.354-228.609,92.145-328.759c7.762-8.562,92.791-99.693,196.06-83.188
						c104.229,16.661,166.081,133.231,186.314,213.715c37.401,148.772-61.817,196.438-82.198,389.069
						c-27.747,262.26,139.738,329.147,79.392,518.033c-49.831,155.976-175.531,146.344-227.348,320.384
						c-48.117,161.612,42.789,228.646,0,334.271C2790.18,2960.895,2132.349,3042.413,2001.095,2818.574z"/>
				</defs>
				
					<linearGradient id="SVGID_00000144305136448857727800000013678358740460932512_" gradientUnits="userSpaceOnUse" x1="2378.8401" y1="1575.8088" x2="2768.1995" y2="2448.9175">
					<stop  offset="0.0036" style="stop-color:#E38DDD"/>
					<stop  offset="1" style="stop-color:#9571F6"/>
				</linearGradient>
				
					<use xlink:href="#SVGID_00000150066128057523874330000016522076530538974909_"  style="overflow:visible;fill:url(#SVGID_00000144305136448857727800000013678358740460932512_);"/>
				<clipPath id="SVGID_00000091719179555344580380000000102650621123305112_">
					<use xlink:href="#SVGID_00000150066128057523874330000016522076530538974909_"  style="overflow:visible;"/>
				</clipPath>
				<g style="clip-path:url(#SVGID_00000091719179555344580380000000102650621123305112_);">
					<path style="opacity:0.7;fill:#FFFFFF;" d="M2088.247,2990.786c-0.77,0-1.431-0.581-1.514-1.363
						c-0.089-0.837,0.518-1.587,1.354-1.675c111.756-11.832,216.125-46.52,310.211-103.1
						c89.13-53.602,181.291-109.026,222.218-211.148c30.962-77.257,13.929-134.139-7.635-206.156
						c-20.964-70.011-47.054-157.141-32.652-290.281c8.225-76.022,18.461-170.633,84.312-260.119
						c38.356-52.119,75.584-74.445,108.431-94.142c34.503-20.69,61.755-37.033,77.68-80.83
						c25.942-71.348,8.923-132.646-10.785-203.622c-12.155-43.777-24.725-89.045-29.487-142.78
						c-13.404-151.231,58.017-313.866,212.279-483.386c0.566-0.624,1.53-0.667,2.152-0.102c0.623,0.566,0.668,1.53,0.101,2.153
						c-153.665,168.864-224.823,330.719-211.497,481.066c4.738,53.458,17.269,98.589,29.387,142.234
						c19.849,71.481,36.989,133.214,10.712,205.478c-16.294,44.813-45.342,62.232-78.976,82.402
						c-32.601,19.551-69.55,41.709-107.543,93.336c-65.365,88.825-75.551,182.982-83.737,258.639
						c-14.336,132.529,11.656,219.333,32.541,289.081c21.735,72.586,38.903,129.919,7.545,208.163
						c-41.307,103.073-133.914,158.764-223.469,212.623c-94.475,56.815-199.265,91.644-311.465,103.522
						C2088.355,2990.783,2088.3,2990.786,2088.247,2990.786z"/>
					<path style="opacity:0.7;fill:#FFFFFF;" d="M2637.758,1963.524c-0.585,0-1.144-0.339-1.396-0.908
						c-90.073-203.917-104.227-361.77-100.24-458.285c4.324-104.697,30.37-161.944,30.632-162.51
						c0.355-0.762,1.259-1.096,2.023-0.741c0.764,0.354,1.095,1.26,0.741,2.022c-0.26,0.562-26.089,57.402-30.36,161.565
						c-3.942,96.155,10.205,253.445,99.993,456.717c0.339,0.77-0.009,1.669-0.778,2.01
						C2638.172,1963.482,2637.963,1963.524,2637.758,1963.524z"/>
					<path style="opacity:0.7;fill:#FFFFFF;" d="M2578.326,2287.203c-0.674,0-1.29-0.45-1.471-1.133
						c-0.215-0.813,0.269-1.648,1.081-1.863c114.418-30.365,212.947-78.928,292.852-144.34
						c63.911-52.319,116.126-115.48,155.193-187.728c66.543-123.06,71.878-231.272,71.925-232.351
						c0.036-0.84,0.751-1.474,1.587-1.457c0.841,0.036,1.492,0.746,1.457,1.587c-0.045,1.085-5.387,109.885-72.219,233.544
						c-39.25,72.623-91.715,136.112-155.939,188.703c-80.257,65.72-179.198,114.5-294.073,144.987
						C2578.587,2287.187,2578.455,2287.203,2578.326,2287.203z"/>
					<path style="opacity:0.7;fill:#FFFFFF;" d="M2498.02,2830.09c-0.351,0-0.705-0.122-0.994-0.369
						c-85.48-73.622-152.758-154.406-199.96-240.107c-37.778-68.589-62.855-140.46-74.535-213.619
						c-19.896-124.617,6.412-210.966,6.681-211.823c0.249-0.803,1.1-1.251,1.909-1c0.802,0.251,1.25,1.106,0.999,1.909
						c-9.203,29.474-22.417,111.421-6.554,210.603c11.643,72.79,36.615,144.307,74.225,212.564
						c47.024,85.344,114.053,165.811,199.225,239.165c0.637,0.549,0.709,1.511,0.16,2.149
						C2498.874,2829.91,2498.448,2830.09,2498.02,2830.09z"/>
					<path style="opacity:0.7;fill:#FFFFFF;" d="M2814.711,1370.998c-0.594,0-1.158-0.349-1.405-0.93
						c-0.327-0.775,0.035-1.669,0.81-1.997c82.865-35.058,151.793-83.854,204.866-145.031
						c42.453-48.934,74.922-105.863,96.506-169.204c36.755-107.862,29.045-198.043,28.962-198.941
						c-0.076-0.838,0.541-1.579,1.379-1.656c0.837-0.075,1.579,0.541,1.656,1.378c0.083,0.904,7.848,91.732-29.114,200.202
						c-21.711,63.715-54.376,120.985-97.087,170.218c-53.381,61.531-122.683,110.6-205.982,145.841
						C2815.11,1370.959,2814.908,1370.998,2814.711,1370.998z"/>
				</g>
			</g>
		</g>
		<g>
			<g>
				<g>
					
						<linearGradient id="SVGID_00000010268337072518215380000002617191046466756254_" gradientUnits="userSpaceOnUse" x1="1535.8605" y1="1999.0288" x2="1660.9058" y2="1534.5752">
						<stop  offset="0" style="stop-color:#311944"/>
						<stop  offset="1" style="stop-color:#893976"/>
					</linearGradient>
					<path style="fill:url(#SVGID_00000010268337072518215380000002617191046466756254_);" d="M2356.441,1556.758l-120.164-0.373
						c-15.34-0.047-27.784-13.169-27.784-29.309v-297.398c0-211.509-163.777-386.284-367.599-390.408l-231.567-4.685
						c-208.123-4.211-378.359,167.853-378.359,384.354v304.417c0,16.521-13.047,29.873-29.151,29.822l-126.991-0.393
						c-16.213-0.051-29.366-13.542-29.366-30.135v-305.744c0-322.652,254.314-577.931,563.872-570.283l231.563,5.721
						c301.72,7.454,543.134,266.756,543.134,579.264v296.137C2384.028,1543.815,2371.682,1556.805,2356.441,1556.758z"/>
					
						<linearGradient id="SVGID_00000026164580322274406320000012602936118646939275_" gradientUnits="userSpaceOnUse" x1="1809.8331" y1="3204.8564" x2="1727.6608" y2="2315.2493">
						<stop  offset="0" style="stop-color:#311944"/>
						<stop  offset="1" style="stop-color:#893976"/>
					</linearGradient>
					<path style="fill:url(#SVGID_00000026164580322274406320000012602936118646939275_);" d="M2425.589,1613.833l-1424.524-2.451
						c-70.31-0.121-127.477,58.069-127.477,129.971v722.236c0,293.27,232.213,523.896,515.21,515.226l667.94-20.464
						c270.521-8.288,487.253-243.38,487.253-525.192V1739.14C2543.992,1670.048,2491.066,1613.945,2425.589,1613.833z
						 M1860.937,2599.308l-271.894,5.954l72.246-321.372c-64.96-25.689-111.063-90.796-111.063-167.729
						c0-100.533,78.623-182.495,175.203-183.067c96.14-0.57,173.753,79.789,173.753,179.49c0,76.295-45.443,142.106-109.807,169.478
						L1860.937,2599.308z"/>
				</g>
				<g>
					
						<linearGradient id="SVGID_00000092426344643662040450000017153569380598541213_" gradientUnits="userSpaceOnUse" x1="2227.0276" y1="639.5866" x2="317.5093" y2="3796.4543">
						<stop  offset="0" style="stop-color:#FF9085"/>
						<stop  offset="1" style="stop-color:#FB6FBB"/>
					</linearGradient>
					<path style="fill:url(#SVGID_00000092426344643662040450000017153569380598541213_);" d="M2472.92,1556.758l-120.164-0.373
						c-15.341-0.047-27.785-13.169-27.785-29.309v-297.398c0-211.509-163.777-386.284-367.599-390.408l-231.567-4.685
						c-208.123-4.211-378.36,167.853-378.36,384.354v304.417c0,16.521-13.046,29.873-29.151,29.822l-126.991-0.393
						c-16.213-0.051-29.366-13.542-29.366-30.135v-305.744c0-322.652,254.314-577.931,563.872-570.283l231.563,5.721
						c301.72,7.454,543.134,266.756,543.134,579.264v296.137C2500.507,1543.815,2488.16,1556.805,2472.92,1556.758z"/>
					
						<linearGradient id="SVGID_00000124860044038384482370000014929558694611124098_" gradientUnits="userSpaceOnUse" x1="2599.2556" y1="864.739" x2="689.7342" y2="4021.6121">
						<stop  offset="0" style="stop-color:#FF9085"/>
						<stop  offset="1" style="stop-color:#FB6FBB"/>
					</linearGradient>
					<path style="fill:url(#SVGID_00000124860044038384482370000014929558694611124098_);" d="M2542.068,1613.833l-1424.525-2.451
						c-70.31-0.121-127.476,58.069-127.476,129.971v722.236c0,293.27,232.213,523.896,515.21,515.226l667.94-20.464
						c270.522-8.288,487.252-243.38,487.252-525.192V1739.14C2660.47,1670.048,2607.545,1613.945,2542.068,1613.833z
						 M1977.415,2599.308l-271.895,5.954l72.247-321.372c-64.961-25.689-111.063-90.796-111.063-167.729
						c0-100.533,78.623-182.495,175.203-183.067c96.14-0.57,173.753,79.789,173.753,179.49c0,76.295-45.443,142.106-109.807,169.478
						L1977.415,2599.308z"/>
				</g>
				<path style="fill:none;" d="M1777.767,2283.89l-72.247,321.372l271.895-5.954l-67.966-301.3
					c-92.92-68.933-178.542-128.369-240.565-210.485c-1.422,9.336-2.181,18.896-2.181,28.639
					C1666.703,2193.094,1712.807,2258.201,1777.767,2283.89z"/>
				<path style="fill:none;" d="M1909.449,2298.007l-3.597-15.947c64.367-27.372,109.809-93.183,109.809-169.478
					c0-99.7-77.614-180.059-173.753-179.49c-87.223,0.517-159.778,67.42-173.024,154.429
					C1730.908,2169.638,1816.529,2229.074,1909.449,2298.007z"/>
				<path style="opacity:0.48;fill:#FFFFFF;" d="M1161.938,1216.905v305.745c0,16.593,13.152,30.084,29.365,30.135l126.992,0.393
					c16.104,0.05,29.151-13.301,29.151-29.822v-304.417c0-216.5,170.236-388.564,378.359-384.353l28.875,0.584
					c-24.362-66.493-58.479-128.359-99.317-185.713C1378.59,678.707,1161.938,919.102,1161.938,1216.905z"/>
				<path style="opacity:0.48;fill:#FFFFFF;" d="M1909.449,2298.007l67.966,301.3l-271.895,5.954l72.247-321.372
					c-64.96-25.689-111.063-90.796-111.063-167.729c0-9.742,0.759-19.302,2.181-28.639c-35.764-47.349-63.697-102.225-80.62-170.848
					c-28.24-114.517-12.22-211.959,20.808-304.447l-491.528-0.846c-70.312-0.121-127.477,58.069-127.477,129.971v722.236
					c0,293.27,232.213,523.896,515.21,515.226l667.94-20.464c70.418-2.157,137.175-19.712,197.428-49.428
					c-23.633-73.215-55.049-147.352-96.418-220.54C2164.481,2494.227,2030.765,2388.004,1909.449,2298.007z"/>
			</g>
			<path style="fill:#D8DEE8;" d="M1684.457,836.106c-27.766,2.586-54.644,8.345-80.309,16.89
				c-65.503-65.586-147.022-117.05-232.12-157.701c72.275-33.183,152.716-50.762,237.303-48.672l60.63,1.498
				c18.383-1.438,37.01-1.963,55.847-1.498l231.563,5.72c301.721,7.454,543.134,266.756,543.134,579.264v296.137
				c0,16.071-12.345,29.061-27.586,29.013l-112.346-0.348c-1.35,0.21-2.724,0.353-4.132,0.348l-120.164-0.373
				c-15.34-0.047-27.784-13.169-27.784-29.309v-297.398c0-211.509-163.778-386.284-367.6-390.408L1684.457,836.106z
				 M2542.069,1613.833l-900.352-1.549c-16.669,82.736-18.808,169.792,14.972,266.28c15.087,43.095,34.635,80.205,57.399,112.982
				c19.253-21.45,43.372-38.133,70.516-48.074c66.901,24.73,114.58,90.974,114.58,169.111c0,15.469-1.897,30.495-5.412,44.869
				c138.107,93.459,290.391,166.885,355.814,354.433c52.199,149.64,26.065,305.91-24.673,442.052
				c245.914-34.454,435.558-257.168,435.558-520.778V1739.14C2660.469,1670.048,2607.545,1613.945,2542.069,1613.833z"/>
			<g>
				<defs>
					<path id="SVGID_00000031905609321273625250000010733190398646245006_" d="M2214.65,2962.177l3.948-10.594
						c60.746-162.993,69.029-310.182,24.624-437.479c-55.084-157.908-170.094-232.182-291.859-310.816
						c-20.203-13.046-41.089-26.535-61.367-40.257l-3.882-2.626l1.115-4.553c3.461-14.168,5.218-28.726,5.218-43.27
						c0-72.15-43.234-136.887-107.854-161.911c-24.729,9.492-47.33,25.142-65.491,45.374l-5.688,6.339l-4.859-6.996
						c-24.565-35.366-43.609-72.852-58.224-114.599c-30.134-86.071-34.969-171.813-15.217-269.837l1.091-5.417l905.878,1.559
						c68.993,0.118,125.126,59.354,125.126,132.045v694.018c0,265.442-189.744,492.197-441.363,527.451L2214.65,2962.177z
						 M1901.381,2154.458c18.956,12.755,38.425,25.326,57.291,37.51c118.317,76.409,240.664,155.418,297.274,317.698
						c44.484,127.527,37.48,274.135-20.792,435.896c239.423-39.379,418.578-257.59,418.578-512.403V1739.14
						c0-65.274-50.097-118.464-111.678-118.57l-894.801-1.54c-18,93.3-12.952,175.201,15.794,257.307
						c13.263,37.883,30.268,72.143,51.88,104.478c19.142-19.464,42.274-34.483,67.358-43.669l2.329-0.853l2.324,0.859
						c71.166,26.307,118.981,96.807,118.981,175.431C1905.921,2126.635,1904.394,2140.699,1901.381,2154.458z M2473.002,1563.495
						c-0.033,0-0.069,0-0.102,0l-111.839-0.347c-1.635,0.234-3.135,0.347-4.563,0.347c-0.023,0-0.049,0-0.076,0l-120.166-0.373
						c-19.025-0.058-34.5-16.229-34.5-36.046v-297.397c0-100.667-37.48-195.972-105.54-268.359
						c-68.072-72.405-158.797-113.358-255.461-115.313l-156.051-3.157c-26.616,2.508-53.002,8.072-78.428,16.538l-3.953,1.316
						l-2.943-2.947c-58.793-58.867-136.263-111.482-230.258-156.382l-12.98-6.2l13.074-6.002
						c75.736-34.772,156.597-51.35,240.28-49.285l60.283,1.49c18.67-1.448,37.576-1.948,56.193-1.49l231.566,5.72
						c147.55,3.646,285.862,66.636,389.464,177.37c103.332,110.446,160.239,255.567,160.239,408.63v296.138
						c0,9.873-3.76,19.06-10.59,25.868C2490.257,1559.988,2481.862,1563.495,2473.002,1563.495z M2360.064,1549.67l112.875,0.35
						c0.023,0,0.043,0,0.063,0c5.267,0,10.284-2.111,14.136-5.95c4.273-4.262,6.629-10.059,6.629-16.326v-296.138
						c0-149.631-55.617-291.483-156.603-399.424c-101.111-108.073-236.048-169.549-379.959-173.104l-231.563-5.72
						c-18.28-0.45-36.831,0.046-55.155,1.48l-0.345,0.027l-60.976-1.507c-76.805-1.895-151.116,12.301-221.135,42.215
						c87.98,43.402,161.23,93.724,217.946,149.737c25.298-8.105,51.469-13.456,77.856-15.914l0.38-0.035l156.817,3.173
						c100.315,2.029,194.429,44.489,265.005,119.556c70.418,74.895,109.198,173.478,109.198,277.589v297.397
						c0,12.411,9.448,22.536,21.064,22.571l120.166,0.373c0.813-0.012,1.882-0.082,3.076-0.268L2360.064,1549.67z"/>
				</defs>
				<use xlink:href="#SVGID_00000031905609321273625250000010733190398646245006_"  style="overflow:visible;fill:#FFFFFF;"/>
				<clipPath id="SVGID_00000029023525757837496050000009945921283609366932_">
					<use xlink:href="#SVGID_00000031905609321273625250000010733190398646245006_"  style="overflow:visible;"/>
				</clipPath>
				<g style="clip-path:url(#SVGID_00000029023525757837496050000009945921283609366932_);">
					<path style="fill:#FFFFFF;" d="M1580.58,2612.186l72.893-324.241c-67.01-29.002-109.984-95.79-109.984-171.784
						c0-104.064,81.601-189.21,181.902-189.804c46.917-0.259,91.513,18.063,125.298,51.649
						c35.615,35.407,55.232,83.202,55.232,134.578c0,75.359-42.497,142.793-108.755,173.393l72.156,319.888L1580.58,2612.186z
						 M1726.442,1939.828c-0.326,0-0.646,0.001-0.972,0.003c-92.915,0.55-168.506,79.652-168.506,176.33
						c0,72.428,41.923,135.806,106.803,161.464l5.361,2.12l-71.622,318.594l255.045-5.585l-70.985-314.692l5.173-2.2
						c64.215-27.308,105.707-91.398,105.707-163.277c0-47.763-18.202-92.162-51.258-125.021
						C1810.201,1956.757,1769.484,1939.828,1726.442,1939.828z"/>
					<path style="fill:#FFFFFF;" d="M2473.006,1563.495c-0.036,0-0.072,0-0.105,0l-120.166-0.373
						c-19.025-0.058-34.5-16.229-34.5-36.046v-297.398c0-100.666-37.48-195.971-105.539-268.358
						c-68.072-72.405-158.798-113.358-255.458-115.313l-231.569-4.686c-96.548-1.955-188.072,34.595-257.78,102.906
						c-73.323,71.855-113.705,169.417-113.705,274.712v304.416c0,9.941-3.831,19.235-10.789,26.17
						c-6.723,6.702-15.6,10.389-25.009,10.389c-0.038,0-0.076,0-0.114,0l-126.99-0.393c-19.895-0.063-36.082-16.604-36.082-36.873
						v-305.745c0-161.312,61.997-310.634,174.57-420.461c107.24-104.621,247.988-160.218,396.206-156.557l231.564,5.721
						c147.55,3.646,285.865,66.636,389.464,177.37c103.335,110.447,160.242,255.568,160.242,408.63v296.138
						c0,9.873-3.76,19.059-10.59,25.867C2490.257,1559.987,2481.862,1563.495,2473.006,1563.495z M1718.309,827.772
						c2.543,0,5.083,0.026,7.632,0.077l231.566,4.685c100.315,2.029,194.429,44.489,265.008,119.556
						c70.415,74.895,109.194,173.478,109.194,277.588v297.398c0,12.411,9.448,22.536,21.064,22.571l120.166,0.373
						c0.023,0,0.043,0,0.063,0c5.267,0,10.287-2.112,14.139-5.952c4.273-4.262,6.629-10.059,6.629-16.324v-296.138
						c0-149.631-55.617-291.482-156.606-399.424c-101.111-108.072-236.048-169.549-379.959-173.105l-231.561-5.721
						c-144.594-3.576-281.848,50.667-386.463,152.731c-109.953,107.27-170.506,253.166-170.506,410.816v305.745
						c0,12.862,10.161,23.358,22.65,23.398l126.99,0.393c6.001-0.001,11.371-2.275,15.567-6.458
						c4.402-4.388,6.826-10.293,6.826-16.626v-304.416c0-108.946,41.818-209.925,117.749-284.336
						C1528.933,865.539,1620.955,827.772,1718.309,827.772z"/>
					<path style="fill:#FFFFFF;" d="M1489.777,2985.789c-130.387,0-253.357-49.894-347.785-141.473
						c-102.315-99.229-158.663-234.441-158.663-380.729v-722.236c0-37.073,14.307-71.772,40.288-97.707
						c25.198-25.155,58.469-39,93.708-39c0.077,0,0.153,0,0.23,0l1424.526,2.451c68.993,0.118,125.126,59.354,125.126,132.045
						v694.018c0,138.166-51.13,269.477-143.974,369.745c-93.081,100.525-217.313,158.122-349.809,162.181l-667.942,20.463
						C1500.24,2985.708,1494.999,2985.789,1489.777,2985.789z M1117.325,1618.119c-31.646,0-61.534,12.445-84.189,35.062
						c-23.43,23.39-36.332,54.702-36.332,88.171v722.236c0,142.61,54.893,274.386,154.57,371.055
						c95.57,92.688,221.165,141.497,353.699,137.437l667.938-20.463c128.861-3.948,249.727-60.013,340.334-157.868
						c90.531-97.77,140.388-225.83,140.388-360.59V1739.14c0-65.274-50.097-118.464-111.678-118.57l-1424.523-2.451
						C1117.464,1618.119,1117.392,1618.119,1117.325,1618.119z M1697.057,2612.186l72.893-324.241
						c-67.01-29.002-109.984-95.79-109.984-171.784c0-104.064,81.601-189.21,181.902-189.804
						c46.892-0.259,91.512,18.063,125.298,51.649c35.615,35.407,55.232,83.201,55.232,134.578
						c0,75.36-42.497,142.793-108.753,173.393l72.155,319.888L1697.057,2612.186z M1842.92,1939.828
						c-0.326,0-0.646,0.002-0.972,0.003c-92.915,0.55-168.506,79.652-168.506,176.33c0,72.428,41.923,135.806,106.803,161.464
						l5.361,2.12l-71.622,318.594l255.045-5.585l-70.984-314.692l5.175-2.2c64.213-27.308,105.704-91.397,105.704-163.277
						c0-47.763-18.202-92.163-51.258-125.022C1926.679,1956.757,1885.961,1939.828,1842.92,1939.828z"/>
					<path style="fill:#FFFFFF;" d="M1489.844,2884.727L1489.844,2884.727c-108.155-0.002-209.653-43.063-285.796-121.25
						c-77.162-79.23-119.656-185.733-119.656-299.89v-722.236c0-19.656,14.774-35.646,32.934-35.646l1424.58,2.452
						c11.705,0.021,24.239,12.476,24.239,30.983v694.018c0,230.919-177.566,424.226-395.82,430.912l-667.94,20.464
						C1498.215,2884.662,1493.998,2884.727,1489.844,2884.727z M1117.315,1719.181c-10.718,0-19.448,9.946-19.448,22.172v722.236
						c0,110.625,41.137,213.789,115.833,290.488c76.417,78.465,179.36,120.306,288.275,116.99l667.937-20.464
						c211.056-6.466,382.759-193.731,382.759-417.444V1739.14c0-10.513-6.494-17.501-10.79-17.508L1117.315,1719.181z"/>
					<path style="fill:#FFFFFF;" d="M2410.454,1553.196h-13.475v-365.222c0-243.336-197.969-441.304-441.304-441.304h-252.653
						c-243.335,0-441.304,197.968-441.304,441.304v365.222h-13.475v-365.222c0-250.766,204.012-454.779,454.779-454.779h252.653
						c250.767,0,454.779,204.013,454.779,454.779V1553.196z"/>
					<polygon style="fill:#FFFFFF;" points="2339.036,2932.547 2326.91,2926.669 2410.454,2754.313 2410.454,1713.545 
						2377.642,1615.908 2390.413,1611.615 2423.929,1711.341 2423.929,2757.407 					"/>
					<polygon style="fill:#FFFFFF;" points="2049.486,2959.134 2037.038,2953.982 2076.949,2857.526 2076.949,1713.126 
						2056.875,1615.113 2070.074,1612.409 2090.424,1711.76 2090.424,2860.204 					"/>
					<polygon style="fill:#FFFFFF;" points="2561.103,1898.776 985.482,1898.776 985.482,1885.301 2557.714,1885.301 
						2656.552,1832.203 2662.928,1844.074 					"/>
					<polygon style="fill:#FFFFFF;" points="2561.103,2258.129 985.482,2258.129 985.482,2244.654 2557.714,2244.654 
						2656.552,2191.556 2662.928,2203.427 					"/>
					<polygon style="fill:#FFFFFF;" points="985.602,2617.48 985.362,2604.007 2531.406,2576.403 2649.992,2517.094 
						2656.019,2529.147 2534.702,2589.821 2533.176,2589.849 					"/>
				</g>
				
					<rect x="1949.723" y="2028.035" transform="matrix(0.0294 -0.9996 0.9996 0.0294 -185.627 3979.9426)" style="clip-path:url(#SVGID_00000029023525757837496050000009945921283609366932_);fill:#FFFFFF;" width="13.474" height="115.031"/>
				
					<rect x="1855.177" y="1982.8" style="clip-path:url(#SVGID_00000029023525757837496050000009945921283609366932_);fill:#FFFFFF;" width="111.166" height="13.475"/>
				
					<rect x="1944.111" y="2104.29" transform="matrix(0.19 -0.9818 0.9818 0.19 -538.0199 3662.811)" style="clip-path:url(#SVGID_00000029023525757837496050000009945921283609366932_);fill:#FFFFFF;" width="13.475" height="106.369"/>
				<g style="opacity:0.4;clip-path:url(#SVGID_00000029023525757837496050000009945921283609366932_);">
					
						<linearGradient id="SVGID_00000086685870361121299750000009769863135820345503_" gradientUnits="userSpaceOnUse" x1="1768.4536" y1="756.7672" x2="2110.6184" y2="1960.2416">
						<stop  offset="0.0036" style="stop-color:#E38DDD"/>
						<stop  offset="1" style="stop-color:#9571F6"/>
					</linearGradient>
					<path style="fill:url(#SVGID_00000086685870361121299750000009769863135820345503_);" d="M1393.716,2701.255
						c-75.333-128.473-2.232-342.421,87.254-467.675c104.477-146.238,189.358-112.886,261.762-232.94
						c134.807-223.524-104.151-430.8,13.919-666.994c96.522-193.089,292.846-127.834,390.006-346.526
						c70.11-157.805,1.584-267.632,107.875-384.878c9.086-10.023,108.63-116.71,229.527-97.387
						c122.022,19.504,194.431,155.972,218.118,250.195c43.786,174.168-72.37,229.971-96.229,455.484
						c-32.483,307.029,163.591,385.332,92.945,606.461c-58.337,182.601-205.495,171.325-266.156,375.073
						c-56.33,189.201,50.093,267.677,0,391.332C2317.498,2867.87,1547.375,2963.303,1393.716,2701.255z"/>
					<path style="fill:#FFFFFF;" d="M1801.972,2861.542c-167.096,0.001-345.885-40.603-414.066-156.879
						c-73.717-125.715-9.896-338.559,87.582-474.999c54.319-76.03,104.131-104.685,148.081-129.967
						c42.359-24.368,78.943-45.412,113.394-102.537c67.166-111.368,39.859-217.341,10.948-329.535
						c-27.716-107.561-56.375-218.783,2.714-336.991c47.379-94.781,119.457-129.233,189.161-162.552
						c74.342-35.535,151.218-72.281,200.713-183.696c30.161-67.879,34.191-125.77,38.086-181.756
						c4.912-70.543,9.55-137.174,70.957-204.911c11.116-12.263,112.211-119.244,235.581-99.514
						c131.124,20.959,202.242,170.279,223.59,255.205c25.117,99.906-1.872,163.212-33.122,236.514
						c-24.644,57.805-52.574,123.325-62.94,221.321c-16.011,151.336,24.354,246.978,59.973,331.362
						c36.954,87.559,68.872,163.178,32.687,276.441c-28.746,89.98-79.672,134.724-128.92,177.993
						c-52.304,45.957-106.391,93.478-137.197,196.952c-29.348,98.566-13.669,166.95,0.161,227.284
						c12.327,53.772,23.969,104.562-0.375,164.654c-29.726,73.383-103.467,138.589-213.247,188.572
						c-99.378,45.246-222.856,75.172-347.69,84.267C1853.269,2860.574,1827.752,2861.541,1801.972,2861.542z M2454.438,509.252
						c-103.286,0-185.182,86.779-194.916,97.517c-58.272,64.279-62.545,125.689-67.496,196.797
						c-3.793,54.487-8.09,116.244-39.211,186.291c-51.518,115.957-130.67,153.793-207.22,190.383
						c-70.763,33.826-137.607,65.777-182.917,156.42c-56.838,113.7-28.817,222.442-1.719,327.603
						c28.333,109.951,57.63,223.645-12.458,339.857c-36.25,60.108-76.063,83.01-118.213,107.258
						c-44.848,25.798-91.222,52.474-143.836,126.119c-47.555,66.564-85.592,150.489-104.358,230.257
						c-15.345,65.232-24.779,158.104,17.434,230.093c55.831,95.214,205.07,150.417,398.499,150.421
						c25.616,0.001,51.985-0.966,79.035-2.938c219.5-15.991,485.061-105.569,549.429-264.458
						c22.749-56.157,12.08-102.696-0.273-156.583c-14.202-61.954-30.299-132.175,0.059-234.141
						c31.914-107.19,87.482-156.013,141.22-203.229c50.07-43.994,97.364-85.549,124.975-171.972
						c34.671-108.515,3.652-182.005-32.266-267.1c-36.25-85.884-77.336-183.227-60.96-338.02
						c10.58-100.005,38.935-166.511,63.947-225.188c31.546-73.992,56.459-132.436,32.45-227.944
						c-20.545-81.725-88.452-225.333-212.648-245.185C2473.335,509.965,2463.788,509.252,2454.438,509.252z"/>
				</g>
				<g style="opacity:0.4;clip-path:url(#SVGID_00000029023525757837496050000009945921283609366932_);">
					
						<linearGradient id="SVGID_00000078024349648541231730000003687184816625266358_" gradientUnits="userSpaceOnUse" x1="2378.8401" y1="1575.8088" x2="2768.1995" y2="2448.9175">
						<stop  offset="0.0036" style="stop-color:#E38DDD"/>
						<stop  offset="1" style="stop-color:#9571F6"/>
					</linearGradient>
					<path style="fill:url(#SVGID_00000078024349648541231730000003687184816625266358_);" d="M2001.095,2818.574
						c-64.349-109.74-1.907-292.492,74.532-399.483c89.243-124.915,161.747-96.427,223.595-198.976
						c115.15-190.932-88.965-367.984,11.89-569.739c82.448-164.934,250.146-109.194,333.138-295.998
						c59.887-134.796,1.354-228.609,92.145-328.759c7.762-8.562,92.791-99.693,196.06-83.188
						c104.229,16.661,166.081,133.231,186.314,213.715c37.401,148.772-61.817,196.438-82.198,389.069
						c-27.747,262.26,139.738,329.147,79.392,518.033c-49.831,155.976-175.531,146.344-227.348,320.384
						c-48.117,161.612,42.789,228.646,0,334.271C2790.18,2960.895,2132.349,3042.413,2001.095,2818.574z"/>
					<path style="fill:#FFFFFF;" d="M2349.866,2956.47c-143.03,0.001-296.133-34.809-354.582-134.488
						c-63.177-107.742-8.583-290.01,74.862-406.807c46.521-65.119,89.169-89.653,126.798-111.299
						c36.066-20.746,67.213-38.664,96.509-87.24c57.16-94.776,33.885-185.103,9.241-280.732
						c-23.719-92.052-48.248-187.239,2.392-288.539c40.622-81.263,102.345-110.766,162.035-139.297
						c63.341-30.278,128.837-61.586,170.973-156.424c25.69-57.822,29.125-107.183,32.447-154.92
						c4.208-60.434,8.182-117.516,60.864-175.629c9.531-10.515,96.2-102.245,202.114-85.315
						c112.504,17.984,173.486,145.948,191.784,218.724c21.535,85.661-1.579,139.877-28.342,202.654
						c-21.021,49.314-44.849,105.207-53.689,188.767c-13.649,129.019,20.778,210.591,51.156,282.561
						c31.644,74.972,58.972,139.72,27.953,236.814c-24.637,77.12-68.24,115.431-110.408,152.48
						c-44.573,39.163-90.666,79.66-116.899,167.775c-24.992,83.947-11.633,142.227,0.151,193.645
						c10.567,46.086,20.545,89.618-0.365,141.233c-25.489,62.92-88.653,118.801-182.658,161.601
						c-84.995,38.697-190.59,64.29-297.333,72.066C2393.696,2955.643,2371.901,2956.47,2349.866,2956.47z M2907.145,947.169
						c-87.798,0-157.475,73.841-165.759,82.976c-49.547,54.656-53.186,106.956-57.403,167.514
						c-3.244,46.622-6.922,99.465-33.572,159.456c-44.155,99.381-111.931,131.779-177.48,163.11
						c-60.292,28.818-117.238,56.04-155.791,133.165c-48.386,96.793-24.499,189.499-1.395,279.151
						c24.249,94.115,49.327,191.434-10.751,291.055c-31.098,51.56-65.213,71.184-101.328,91.961
						c-38.217,21.984-77.738,44.717-122.557,107.451c-40.55,56.758-72.98,128.319-88.982,196.336
						c-13.07,55.546-21.111,134.609,14.784,195.822c47.511,81.026,174.657,128,339.505,128.004
						c21.867,0.001,44.376-0.825,67.477-2.508c187.202-13.638,413.657-89.954,468.481-225.288
						c19.314-47.682,10.235-87.295-0.28-133.163c-12.159-53.04-25.94-113.155,0.066-200.5
						c27.341-91.833,74.915-133.631,120.919-174.054c42.665-37.487,82.965-72.895,106.467-146.458
						c29.503-92.346,3.073-154.966-27.532-227.474c-31.01-73.471-66.158-156.744-52.143-289.218
						c9.053-85.569,33.302-142.449,54.699-192.633c26.871-63.035,48.097-112.822,27.667-194.084
						c-17.495-69.576-75.267-191.828-180.843-208.704C2923.189,947.774,2915.086,947.169,2907.145,947.169z"/>
				</g>
			</g>
			<path style="fill:#FFFFFF;" d="M2473.006,1561.811c-0.036,0-0.069,0-0.102,0l-120.166-0.373
				c-18.097-0.055-32.819-15.47-32.819-34.362v-297.398c0-101.097-37.642-196.812-105.997-269.512
				c-68.385-72.738-159.534-113.879-256.652-115.843l-231.567-4.685c-41.019-0.83-81.401,5.262-119.973,18.106l-3.193-9.589
				c39.671-13.21,81.192-19.474,123.37-18.621l231.568,4.685c99.858,2.02,193.547,44.29,263.814,119.025
				c70.118,74.582,108.737,172.755,108.737,276.435v297.398c0,13.336,10.202,24.217,22.746,24.256l120.166,0.372
				c0.02,0,0.043,0,0.066,0c5.718,0,11.159-2.286,15.327-6.444c4.596-4.579,7.125-10.8,7.125-17.516v-296.138
				c0-150.06-55.778-292.32-157.061-400.574c-101.424-108.406-236.782-170.071-381.147-173.638l-231.563-5.721
				c-102.518-2.533-203.014,24.324-290.505,77.669l-5.26-8.629c89.151-54.357,191.513-81.729,296.016-79.143l231.563,5.721
				c147.096,3.634,284.987,66.436,388.276,176.836c103.042,110.134,159.788,254.846,159.788,407.479v296.138
				c0,9.421-3.586,18.184-10.096,24.674C2489.389,1558.477,2481.414,1561.811,2473.006,1561.811z"/>
			<path style="fill:#FFFFFF;" d="M2225.615,2958.96l-1.402-10.009c245.825-34.441,431.204-256.183,431.204-515.793V1739.14
				c0-66.201-50.853-120.147-113.359-120.255l-900.348-1.549l0.016-10.106l900.351,1.549
				c68.069,0.118,123.446,58.597,123.446,130.361v694.018C2665.523,2697.778,2476.404,2923.824,2225.615,2958.96z
				 M1989.112,2218.451l-8.435-5.566c19.581-29.675,29.93-64.36,29.93-100.302c0-48.214-18.38-93.039-51.755-126.216
				c-31.539-31.355-73.066-48.521-116.915-48.22c-46.797,0.277-92.041,20.956-124.133,56.735l-7.524-6.748
				c33.992-37.896,81.957-59.798,131.598-60.093c0.347-0.002,0.697-0.003,1.043-0.003c46.182,0,89.844,18.144,123.057,51.162
				c35.296,35.089,54.735,82.458,54.735,133.384C2020.714,2150.51,2009.785,2187.118,1989.112,2218.451z"/>
			
				<ellipse transform="matrix(0.7071 -0.7071 0.7071 0.7071 -634.5379 2266.0754)" style="fill:#FFFFFF;" cx="2418.126" cy="1898.993" rx="34.098" ry="34.098"/>
			
				<ellipse transform="matrix(0.1602 -0.9871 0.9871 0.1602 342.0525 3823.6865)" style="fill:#FFFFFF;" cx="2418.126" cy="1710.826" rx="34.098" ry="34.098"/>
			
				<ellipse transform="matrix(0.1602 -0.9871 0.9871 0.1602 -189.7953 4276.1855)" style="fill:#FFFFFF;" cx="2418.126" cy="2249.631" rx="34.098" ry="34.098"/>
			
				<ellipse transform="matrix(0.2298 -0.9732 0.9732 0.2298 -668.1537 4356.293)" style="fill:#FFFFFF;" cx="2418.126" cy="2600.27" rx="34.098" ry="34.098"/>
			
				<ellipse transform="matrix(0.2298 -0.9732 0.9732 0.2298 398.5822 3490.8735)" style="fill:#FFFFFF;" cx="2404.742" cy="1493.622" rx="34.098" ry="34.098"/>
			<circle style="fill:#FFFFFF;" cx="2081.724" cy="1892.393" r="21.603"/>
			
				<ellipse transform="matrix(0.1602 -0.9871 0.9871 0.1602 56.6243 3494.1016)" style="fill:#FFFFFF;" cx="2081.724" cy="1713.774" rx="21.603" ry="21.603"/>
			
				<ellipse transform="matrix(0.9239 -0.3827 0.3827 0.9239 -702.4352 967.885)" style="fill:#FFFFFF;" cx="2081.724" cy="2249.631" rx="21.603" ry="21.603"/>
			
				<ellipse transform="matrix(0.9966 -0.0825 0.0825 0.9966 -94.0734 202.5668)" style="fill:#FFFFFF;" cx="2404.742" cy="1239.906" rx="21.603" ry="21.603"/>
			<circle style="fill:#FFFFFF;" cx="2340.469" cy="959.829" r="21.603"/>
			<path style="fill:#FFFFFF;" d="M2166.953,779.066c0,11.931-9.672,21.603-21.603,21.603s-21.603-9.672-21.603-21.603
				c0-11.931,9.672-21.603,21.603-21.603S2166.953,767.135,2166.953,779.066z"/>
			<circle style="fill:#FFFFFF;" cx="1825.269" cy="735.86" r="21.603"/>
			
				<ellipse transform="matrix(0.2298 -0.9732 0.9732 0.2298 693.2954 3101.9258)" style="fill:#FFFFFF;" cx="2306.371" cy="1112.955" rx="34.098" ry="34.098"/>
		</g>
		<g>
			<path style="fill:#D8DEE8;" d="M1565.241,3109.414c-1.561,0-2.827-1.265-2.827-2.827V1992.453c0-1.561,1.266-2.827,2.827-2.827
				c1.561,0,2.827,1.265,2.827,2.827v1114.135C1568.067,3108.149,1566.801,3109.414,1565.241,3109.414z"/>
			<path style="fill:#D8DEE8;" d="M1265.08,3039.427c-1.561,0-2.827-1.266-2.827-2.827V1964.358c0-1.561,1.266-2.827,2.827-2.827
				c1.561,0,2.827,1.266,2.827,2.827V3036.6C1267.907,3038.161,1266.641,3039.427,1265.08,3039.427z"/>
			<path style="fill:#97A6B7;" d="M571.123,3089.356c-0.321,0-0.645-0.055-0.965-0.17c-1.467-0.532-2.224-2.154-1.692-3.621
				l401.241-1105.592c0.532-1.468,2.154-2.224,3.621-1.693c1.467,0.533,2.224,2.154,1.691,3.621L573.78,3087.493
				C573.363,3088.642,572.278,3089.356,571.123,3089.356z"/>
			<path style="fill:#97A6B7;" d="M867.336,3175.873c-0.276,0-0.558-0.04-0.835-0.126c-1.492-0.461-2.327-2.044-1.867-3.535
				l360.115-1165.652c0.46-1.492,2.048-2.327,3.535-1.867c1.492,0.461,2.327,2.044,1.867,3.535L870.035,3173.88
				C869.66,3175.094,868.542,3175.873,867.336,3175.873z"/>
			<polygon style="fill:#D8DEE8;" points="1268.381,1963.244 1569.486,1985.53 1569.486,1992.303 1225.368,2007.729 
				968.166,1976.213 968.166,1969.441 			"/>
			<polygon style="fill:#FFFFFF;" points="1268.381,1956.472 1569.486,1985.53 1225.368,2000.956 968.166,1969.441 			"/>
			<path style="fill:#97A6B7;" d="M945.244,2923.698c-0.238,0-0.479-0.03-0.719-0.093l-286.701-75.216
				c-1.51-0.396-2.413-1.941-2.017-3.451c0.396-1.511,1.943-2.411,3.451-2.017l286.701,75.216c1.51,0.396,2.413,1.941,2.017,3.452
				C947.643,2922.857,946.498,2923.698,945.244,2923.698z"/>
			<path style="fill:#97A6B7;" d="M1026.46,2659.836c-0.164,0-0.329-0.015-0.496-0.044l-281.371-49.821
				c-1.537-0.273-2.563-1.74-2.291-3.277c0.273-1.537,1.747-2.559,3.276-2.291l281.37,49.822c1.537,0.273,2.563,1.739,2.291,3.277
				C1028.997,2658.872,1027.805,2659.836,1026.46,2659.836z"/>
			<path style="fill:#97A6B7;" d="M1110.901,2387.486c-0.121,0-0.242-0.007-0.365-0.023l-272.312-35.101
				c-1.548-0.199-2.641-1.616-2.442-3.165c0.201-1.549,1.624-2.639,3.165-2.442l272.312,35.1c1.548,0.199,2.641,1.616,2.442,3.165
				C1113.516,2386.447,1112.301,2387.486,1110.901,2387.486z"/>
			<path style="fill:#97A6B7;" d="M1165.008,2198.492c-0.146,0-0.292-0.011-0.44-0.034l-256.029-40.064
				c-1.542-0.242-2.597-1.687-2.355-3.229c0.24-1.542,1.696-2.594,3.229-2.356l256.029,40.064c1.542,0.242,2.597,1.687,2.355,3.229
				C1167.58,2197.497,1166.377,2198.492,1165.008,2198.492z"/>
		</g>
		<g>
			
				<linearGradient id="SVGID_00000174599958804641318790000006040345395223077549_" gradientUnits="userSpaceOnUse" x1="18.9557" y1="1808.5994" x2="38.0664" y2="2051.8254" gradientTransform="matrix(-1 0 0 1 1460.9358 0)">
				<stop  offset="0" style="stop-color:#311944"/>
				<stop  offset="1" style="stop-color:#A03976"/>
			</linearGradient>
			<path style="fill:url(#SVGID_00000174599958804641318790000006040345395223077549_);" d="M1404.709,1929.902
				c0,0,76.927,34.963,78.184,40.544c1.256,5.581-49.472-1.871-70.181-1.066c-20.709,0.806-37.744-5.316-35.871-14.087
				c1.876-8.773,9.125-30.834,9.125-30.834L1404.709,1929.902z"/>
			
				<linearGradient id="SVGID_00000031177092137078025740000012454581225804594837_" gradientUnits="userSpaceOnUse" x1="68.2916" y1="1944.0116" x2="64.8172" y2="1692.1069" gradientTransform="matrix(-1 0 0 1 1460.9358 0)">
				<stop  offset="0" style="stop-color:#FFC444"/>
				<stop  offset="0.9964" style="stop-color:#F36F56"/>
			</linearGradient>
			<path style="fill:url(#SVGID_00000031177092137078025740000012454581225804594837_);" d="M1407.523,1901.528l-4.679,34.635
				c0,0-12.179,4.335-20.36-0.791l-3.49-37.987L1407.523,1901.528z"/>
			
				<linearGradient id="SVGID_00000127034399692050692900000005316753315279983548_" gradientUnits="userSpaceOnUse" x1="380.0985" y1="1780.2284" x2="399.2087" y2="2023.4474" gradientTransform="matrix(-1 0 0 1 1460.9358 0)">
				<stop  offset="0" style="stop-color:#311944"/>
				<stop  offset="1" style="stop-color:#A03976"/>
			</linearGradient>
			<path style="fill:url(#SVGID_00000127034399692050692900000005316753315279983548_);" d="M1045.245,1902.359l-8.948,14.364
				c-2.503,4.017-3.249,8.853-2.049,13.432c3.129,11.945,9.379,35.224,12.104,41.294c3.71,8.269,53.493,13.18,53.493,13.18
				s4.439-6.246-5.897-13.793c-10.335-7.545-16.979-8.731-20.627-19.867c-3.646-11.133-6.081-42.628-6.081-42.628L1045.245,1902.359
				z"/>
			
				<linearGradient id="SVGID_00000175321497986973705560000011472827886218194330_" gradientUnits="userSpaceOnUse" x1="399.2625" y1="1939.4473" x2="395.788" y2="1687.5341" gradientTransform="matrix(-1 0 0 1 1460.9358 0)">
				<stop  offset="0" style="stop-color:#FFC444"/>
				<stop  offset="0.9964" style="stop-color:#F36F56"/>
			</linearGradient>
			<path style="fill:url(#SVGID_00000175321497986973705560000011472827886218194330_);" d="M1082.49,1865.855
				c-3.269,2.606-19.257,51.135-19.257,51.135s-5.175,6.618-15.007-3.149c-9.83-9.767-4.449-4.381-4.449-4.381l1.844-47.731
				L1082.49,1865.855z"/>
			
				<linearGradient id="SVGID_00000124163650020748657390000007118381579657200783_" gradientUnits="userSpaceOnUse" x1="8.1731" y1="1535.9283" x2="194.4266" y2="1535.9283" gradientTransform="matrix(-1 0 0 1 1460.9358 0)">
				<stop  offset="0" style="stop-color:#444B8C"/>
				<stop  offset="0.9964" style="stop-color:#3E4177"/>
			</linearGradient>
			<path style="fill:url(#SVGID_00000124163650020748657390000007118381579657200783_);" d="M1449.849,1205.678
				c4.059,103.317,4.224,215.566-1.721,335.482c-6.692,135.035-20.143,259.841-37.094,372.978c-6.302,0.201-12.924,0.234-19.84,0.04
				c-4.671-0.13-9.197-0.357-13.571-0.659c-8.796-23.459-19.194-54.31-28.505-91.159c-9.789-38.747-15.694-73.503-19.901-106.739
				c-14.814-117.021,2.547-127.23-9.476-213.954c-10.647-76.807-25.789-79.806-43.564-188.854
				c-19.286-118.321-4.929-136.072,2.053-142.484C1307.952,1143.03,1377.769,1161.615,1449.849,1205.678z"/>
			
				<linearGradient id="SVGID_00000040544700957050606480000003431329119567320255_" gradientUnits="userSpaceOnUse" x1="8.1725" y1="1535.9363" x2="194.4255" y2="1535.9363" gradientTransform="matrix(-1 0 0 1 1460.9358 0)">
				<stop  offset="0" style="stop-color:#444B8C"/>
				<stop  offset="0.9964" style="stop-color:#3E4177"/>
			</linearGradient>
			<path style="opacity:0.3;fill:url(#SVGID_00000040544700957050606480000003431329119567320255_);" d="M1278.23,1170.33
				c28.349-26.039,93.18-10.275,161.654,29.465c-78.774,85.108-87.361,140.319-77.917,176.141
				c10.672,40.488,43.121,52.149,42.998,96.421c-0.153,54.405-49.254,68.817-48.21,126.388c0.69,38.069,22.267,37.673,27.362,84.693
				c6.029,55.633-22.159,74.803-13.029,115.966c3.928,17.708,15.138,40.847,47.067,64.684c-2.302,16.903-4.662,33.635-7.123,50.053
				c-6.299,0.199-12.922,0.234-19.838,0.038c-4.671-0.129-9.199-0.356-13.57-0.658c-8.797-23.459-19.195-54.309-28.506-91.158
				c-9.789-38.748-15.694-73.503-19.901-106.74c-14.813-117.02,2.547-127.23-9.476-213.954
				c-10.647-76.807-25.789-79.808-43.563-188.855C1256.892,1194.491,1271.248,1176.741,1278.23,1170.33z"/>
			
				<linearGradient id="SVGID_00000107564021312518456760000011270196014914775179_" gradientUnits="userSpaceOnUse" x1="59.8808" y1="1517.569" x2="434.829" y2="1517.569" gradientTransform="matrix(-1 0 0 1 1460.9358 0)">
				<stop  offset="0" style="stop-color:#444B8C"/>
				<stop  offset="0.9964" style="stop-color:#3E4177"/>
			</linearGradient>
			<path style="fill:url(#SVGID_00000107564021312518456760000011270196014914775179_);" d="M1401.055,1203.943
				c-67.826,99.245-140.986,222.76-206.411,370.602c-49.443,111.724-85.302,216.624-111.629,310.112
				c-3.563,1.649-11.966,4.94-22.705,3.52c-14.647-1.937-23.426-11.287-25.721-13.897c-10.715-67.018-9.534-123.777-5.898-164.741
				c2.329-26.228,6.45-69.905,23.168-123.825c18.725-60.398,31.599-63.792,56.028-127.692
				c25.356-66.325,19.214-82.875,43.496-165.877c9.975-34.097,26.674-84.838,54.227-145.533
				C1270.759,1165.722,1335.907,1184.833,1401.055,1203.943z"/>
			
				<linearGradient id="SVGID_00000097481691916848095780000015654413536214778018_" gradientUnits="userSpaceOnUse" x1="1374.8628" y1="1502.3809" x2="1512.9783" y2="720.5968">
				<stop  offset="0" style="stop-color:#AA80F9"/>
				<stop  offset="0.9964" style="stop-color:#6165D7"/>
			</linearGradient>
			<path style="fill:url(#SVGID_00000097481691916848095780000015654413536214778018_);" d="M1714.203,1329.897
				c-13.044,20.286-57.939,17.913-88.601,6.95c-71.692-25.635-117.573-116.812-121.612-189.367
				c-0.867-15.578-0.318-30.808-3.474-31.271c-7.942-1.168-28.336,93.025-44.346,172.884c-12.871,4.71-32.382,9.713-54.681,6.059
				c-36.493-5.978-40.838-28.65-81.653-43.434c-23.814-8.625-47.147-8.645-93.814-8.685c-52.68-0.046-54.132,6.451-64.279,1.738
				c0,0-2.509-1.376-4.669-2.928c-37.516-26.933,69.81-231.65,38.909-420.535c-3.435-20.994-8.701-42.55,3.025-63.564
				c30.301-54.304,150.054-61.96,224.246-26.223c20.335,9.795,54.392,31.226,84.808,53.811c12.157,9.026,24.8,19.131,37.989,30.651
				c31.986,27.938,54.254,47.386,72.601,74.379c73.982,108.85-11.52,199.568,55.593,338.772
				C1697.323,1276.999,1727.864,1308.654,1714.203,1329.897z"/>
			
				<linearGradient id="SVGID_00000172441085202783887900000001386153375337875642_" gradientUnits="userSpaceOnUse" x1="-3.9279" y1="851.4881" x2="-3.9279" y2="700.9943" gradientTransform="matrix(-1 0 0 1 1460.9358 0)">
				<stop  offset="0" style="stop-color:#FFC444"/>
				<stop  offset="0.9964" style="stop-color:#F36F56"/>
			</linearGradient>
			<path style="fill:url(#SVGID_00000172441085202783887900000001386153375337875642_);" d="M1515.287,711.903
				c0,0-19.261,21.87-39.962,33.204c-18.71,10.242-59.951-7.011-69.493-9.036c-9.542-2.026,1.908,23.668,19.911,41.377
				c18.002,17.708,77.507,58.209,93.556,58.886c16.049,0.679-2.584-13.377-12.44-29.742c-9.856-16.366,4.033-50.202,16.472-60.627
				C1535.772,735.537,1515.287,711.903,1515.287,711.903z"/>
			
				<linearGradient id="SVGID_00000163784854701302915390000012465487706281297300_" gradientUnits="userSpaceOnUse" x1="2353.5071" y1="535.9672" x2="2421.3484" y2="535.9672" gradientTransform="matrix(-0.8729 0.488 0.488 0.8729 3556.1196 -337.9137)">
				<stop  offset="0" style="stop-color:#FFC444"/>
				<stop  offset="0.9964" style="stop-color:#F36F56"/>
			</linearGradient>
			<path style="fill:url(#SVGID_00000163784854701302915390000012465487706281297300_);" d="M1693.727,1293.037
				c0,0,30.608-1.967,49.055-9.108c18.447-7.141,29.797,4.437,27.857,12.109c-1.94,7.67-32.219,17.386-44.179,17.354
				C1714.501,1313.36,1693.727,1293.037,1693.727,1293.037z"/>
			<g>
				
					<linearGradient id="SVGID_00000071534085035957020900000016687426461412975784_" gradientUnits="userSpaceOnUse" x1="-1400.7769" y1="-102.5802" x2="-1464.6847" y2="-264.8943" gradientTransform="matrix(-0.8789 -0.477 -0.477 0.8789 160.8578 210.4266)">
					<stop  offset="0" style="stop-color:#444B8C"/>
					<stop  offset="0.9964" style="stop-color:#3E4177"/>
				</linearGradient>
				<path style="fill:url(#SVGID_00000071534085035957020900000016687426461412975784_);" d="M1559.545,729.012
					c21.856-1.659,43.938-28.576,39.477-40.325c-1.276-3.358-4.115-3.891-46.898-10.939c-21.247-3.498-31.866-4.942-39.209,0.929
					c-4.482,3.583-7.981,9.974-9.085,16.01c-0.567,3.107-0.597,7.384-0.065,15.905c0.474,7.562,0.333,7.231,0.53,9.464
					c0.472,5.365,1.934,14.803,7.165,27.885c2.179-2.39,5.064-5.243,8.706-8.055c1.401-1.082,6.945-5.272,13.249-7.811
					C1544.265,727.706,1552.452,729.551,1559.545,729.012z"/>
				
					<linearGradient id="SVGID_00000155141144860228631760000003636342319889954197_" gradientUnits="userSpaceOnUse" x1="-110.3063" y1="808.1168" x2="-39.9457" y2="671.3044" gradientTransform="matrix(-1 0 0 1 1460.9358 0)">
					<stop  offset="0" style="stop-color:#FFC444"/>
					<stop  offset="0.9964" style="stop-color:#F36F56"/>
				</linearGradient>
				<path style="fill:url(#SVGID_00000155141144860228631760000003636342319889954197_);" d="M1503.474,733.361
					c0,0,0.973,20.912,20.677,30.093c17.644,8.22,41.06-28.617,34.618-42.684c-2.148-4.693-8.805-9.796-15.624-11.378
					c-4.028-0.934-6.004-0.129-12.555-1.783c-6.042-1.525-7.216-2.931-9.549-2.46c-2.918,0.587-6.638,3.908-9.419,16.904
					c-1.447-5.072-4.658-8.471-8.136-8.68c-0.554-0.033-2.161,0.122-3.479,0.968
					C1495.235,717.402,1496.167,725.156,1503.474,733.361z"/>
			</g>
			
				<linearGradient id="SVGID_00000102534015219604389220000002396579181684526475_" gradientUnits="userSpaceOnUse" x1="1052.4084" y1="1445.4143" x2="1190.5239" y2="663.6307">
				<stop  offset="0" style="stop-color:#AA80F9"/>
				<stop  offset="0.9964" style="stop-color:#6165D7"/>
			</linearGradient>
			<path style="fill:url(#SVGID_00000102534015219604389220000002396579181684526475_);" d="M1032.035,1155.374
				c-29.54-14.48-93.316-51.563-112.924-119.874c-32.645-113.721,83.455-222.196,143.394-262.783
				c68.722-46.536,137.777-54.05,179.742-58.617c52.065-5.666,83.843-9.123,107.712,10.424
				c61.728,50.554,24.623,217.365-36.483,234.536c-20.005,5.621-27.575-9.012-69.492-19.112
				c-13.651-3.288-115.536-27.832-168.517,26.06c-37.081,37.719-41.818,105.323-15.636,168.519
				C1050.566,1141.476,1041.3,1148.425,1032.035,1155.374z"/>
			
				<linearGradient id="SVGID_00000093856410812523852440000006405549095519239066_" gradientUnits="userSpaceOnUse" x1="1058.3376" y1="1224.1787" x2="1073.3551" y2="1139.1741">
				<stop  offset="0" style="stop-color:#FFC444"/>
				<stop  offset="0.9964" style="stop-color:#F36F56"/>
			</linearGradient>
			<path style="fill:url(#SVGID_00000093856410812523852440000006405549095519239066_);" d="M1037.997,1150.904l15.64-11.731
				c0,0,9.812,6.795,21.806,5.865c6.536-0.506,15.21,3.419,17.165,5.496c1.955,2.075,11.065,7.064-1.975,5.761
				c-13.038-1.303-15.131,2.33-13.315,8.846c1.816,6.515,12.698,24.756,18.224,28.665c5.526,3.91-10.327,6.515-16.842,4.127
				c-6.514-2.39-16.939-6.733-24.539-20.848C1051.389,1171.937,1037.997,1150.904,1037.997,1150.904z"/>
			<g>
				
					<linearGradient id="SVGID_00000158718650347259308720000017331421892924045233_" gradientUnits="userSpaceOnUse" x1="1083.9413" y1="500.2274" x2="1981.2943" y2="2604.9275" gradientTransform="matrix(0.9995 -0.033 0.033 0.9995 327.9046 226.0723)">
					<stop  offset="0" style="stop-color:#AB316D"/>
					<stop  offset="1" style="stop-color:#792D3D"/>
				</linearGradient>
				<path style="fill:url(#SVGID_00000158718650347259308720000017331421892924045233_);" d="M2269.853,1188.833
					c-0.004-0.016-0.009-0.031-0.013-0.046c-0.232-0.834-0.513-1.659-0.829-2.477c-0.085-0.221-0.177-0.439-0.267-0.658
					c-0.268-0.64-0.563-1.272-0.882-1.897c-0.118-0.233-0.23-0.466-0.357-0.696c-0.447-0.816-0.926-1.62-1.465-2.403l-31.387-45.507
					c-5.14-7.451-13.635-11.958-22.519-11.942l-547.729,0.981c-29.773-80.19-94.673-145.544-176.136-178.455
					c-0.089-0.036-0.179-0.071-0.267-0.107c-2.08-0.838-4.172-1.654-6.274-2.45c-0.227-0.086-0.453-0.172-0.68-0.257
					c-2.141-0.805-4.291-1.59-6.453-2.351c-0.059-0.02-0.116-0.042-0.174-0.062c-4.512-1.584-9.071-3.068-13.672-4.453
					c-0.312-0.094-0.625-0.183-0.937-0.276c-1.895-0.564-3.797-1.11-5.706-1.64c-0.507-0.14-1.014-0.279-1.521-0.417
					c-1.801-0.489-3.608-0.963-5.421-1.422c-0.475-0.12-0.949-0.244-1.424-0.361c-4.542-1.127-9.12-2.159-13.734-3.088
					c-0.438-0.088-0.878-0.169-1.315-0.255c-1.819-0.358-3.643-0.703-5.474-1.03c-0.685-0.123-1.373-0.24-2.06-0.358
					c-1.631-0.28-3.266-0.548-4.904-0.803c-0.713-0.111-1.424-0.223-2.138-0.329c-1.782-0.265-3.57-0.513-5.36-0.748
					c-0.523-0.069-1.043-0.145-1.567-0.211c-2.316-0.292-4.639-0.561-6.969-0.803c-0.409-0.042-0.819-0.076-1.226-0.116
					c-1.901-0.19-3.805-0.365-5.714-0.521c-0.771-0.063-1.543-0.117-2.315-0.175c-1.58-0.117-3.161-0.224-4.747-0.318
					c-0.831-0.049-1.664-0.096-2.497-0.139c-1.622-0.083-3.248-0.151-4.876-0.209c-0.739-0.026-1.474-0.058-2.214-0.08
					c-2.347-0.067-4.698-0.116-7.057-0.132c-166.445-1.102-296.349,128.296-288.051,289.032
					c8.299,160.735,151.488,288.674,317.729,285.796c2.356-0.041,4.701-0.115,7.04-0.207c0.736-0.029,1.469-0.069,2.203-0.103
					c1.623-0.076,3.241-0.161,4.854-0.261c0.826-0.051,1.651-0.107,2.475-0.165c1.579-0.111,3.152-0.235,4.723-0.37
					c0.762-0.065,1.525-0.127,2.284-0.198c1.893-0.176,3.78-0.372,5.661-0.582c0.405-0.045,0.812-0.083,1.216-0.13
					c2.304-0.267,4.597-0.56,6.881-0.877c0.516-0.072,1.028-0.153,1.543-0.227c1.766-0.254,3.528-0.521,5.282-0.805
					c0.701-0.113,1.399-0.233,2.097-0.351c1.617-0.274,3.227-0.559,4.833-0.858c0.669-0.125,1.338-0.248,2.006-0.377
					c1.805-0.348,3.602-0.714,5.392-1.094c0.42-0.089,0.841-0.172,1.26-0.263c4.521-0.979,8.996-2.061,13.425-3.238
					c0.452-0.12,0.902-0.246,1.353-0.368c1.777-0.481,3.545-0.977,5.306-1.489c0.485-0.142,0.97-0.283,1.455-0.427
					c1.869-0.554,3.728-1.125,5.578-1.714c0.286-0.091,0.573-0.179,0.858-0.27c4.466-1.436,8.879-2.972,13.235-4.607
					c0.037-0.014,0.075-0.029,0.112-0.043c2.104-0.791,4.193-1.607,6.271-2.443c0.201-0.081,0.402-0.163,0.602-0.244
					c2.04-0.826,4.068-1.673,6.082-2.543c0.066-0.028,0.132-0.056,0.198-0.084c78.033-33.761,136.158-99.777,157.639-180.249
					l94.606-0.842l16.768-12.698l-18.238-15.761l46.847-0.36l1.466,28.403l23.354-0.208l16.768-12.698l-18.233-15.677l26.89-0.207
					l1.463,28.342l37.541-0.334l16.768-12.698l-17.46-0.701l48.092-0.401l0.691,13.372l21.311-0.19l-1.34-25.955l57.008-0.444
					l1.337,25.891l43.693-0.389l16.769-12.698l-18.219-15.394l46.527-0.358l1.447,28.036l53.922-0.48
					c6.35-0.056,12.356-2.413,16.897-6.626l73.24-67.966C2269.931,1207.415,2272.316,1197.774,2269.853,1188.833z
					 M1190.062,1211.082c-1.673-32.406,24.508-58.755,58.387-58.854c33.784-0.099,62.454,25.958,64.119,58.199
					c1.665,32.241-24.3,58.591-58.076,58.853C1220.622,1269.543,1191.735,1243.487,1190.062,1211.082z"/>
				<g>
					
						<linearGradient id="SVGID_00000152987233659082677180000012353522666103370390_" gradientUnits="userSpaceOnUse" x1="1664.9589" y1="754.8477" x2="1261.5277" y2="1662.5675" gradientTransform="matrix(0.9995 -0.033 0.033 0.9995 327.9046 226.0723)">
						<stop  offset="0" style="stop-color:#FFC444"/>
						<stop  offset="0.9964" style="stop-color:#F36F56"/>
					</linearGradient>
					<path style="fill:url(#SVGID_00000152987233659082677180000012353522666103370390_);" d="M1517.942,1281.693l266.545-2.371
						l-1.469-28.459l46.847-0.36l1.466,28.403l23.354-0.208l-1.465-28.375l26.89-0.207l1.463,28.342l37.54-0.334l-0.692-13.399
						l48.092-0.4l0.69,13.372l21.311-0.19l-1.34-25.954l57.009-0.444l1.337,25.891l43.693-0.389l-1.451-28.092l46.526-0.358
						l1.447,28.036l53.923-0.48c6.349-0.057,12.356-2.413,16.896-6.627l73.241-67.966c9.092-8.439,10.367-22.497,3.01-33.166
						l-31.386-45.507c-5.139-7.451-13.635-11.958-22.519-11.942l-664.452,1.19L1517.942,1281.693z"/>
					
						<linearGradient id="SVGID_00000026851688002021190510000001500785197298083216_" gradientUnits="userSpaceOnUse" x1="1235.3058" y1="563.9196" x2="831.891" y2="1471.6025" gradientTransform="matrix(0.9995 -0.033 0.033 0.9995 327.9046 226.0723)">
						<stop  offset="0" style="stop-color:#FFC444"/>
						<stop  offset="0.9964" style="stop-color:#F36F56"/>
					</linearGradient>
					<path style="fill:url(#SVGID_00000026851688002021190510000001500785197298083216_);" d="M1100.287,1198.954
						c8.298,160.735,151.488,288.674,317.729,285.795c163.969-2.839,288.696-132.211,280.601-288.992
						c-8.095-156.782-146.107-284.749-310.279-285.835C1221.892,908.82,1091.988,1038.217,1100.287,1198.954z M1329.337,1197.729
						c1.665,32.241-24.3,58.59-58.076,58.853c-33.87,0.263-62.757-25.793-64.43-58.198s24.508-58.755,58.387-58.854
						C1299.002,1139.431,1327.672,1165.488,1329.337,1197.729z"/>
					
						<linearGradient id="SVGID_00000140001221027934088940000018104446428188714122_" gradientUnits="userSpaceOnUse" x1="-3396.6123" y1="-5387.4038" x2="-2266.9785" y2="-2737.9001" gradientTransform="matrix(-0.0516 -0.9987 0.9987 -0.0516 6280.2422 -2265.2273)">
						<stop  offset="0" style="stop-color:#FFC444"/>
						<stop  offset="0.9964" style="stop-color:#F36F56"/>
					</linearGradient>
					<path style="opacity:0.3;fill:url(#SVGID_00000140001221027934088940000018104446428188714122_);" d="M1388.338,909.921
						c-166.446-1.101-296.35,128.296-288.051,289.033c8.298,160.735,151.488,288.674,317.729,285.795
						c133.445-2.311,240.849-88.39,271.866-204.586l28.446-0.253c-2.58-35.767,6.824-53.589,17.69-63.137
						c30.491-26.793,73.489,9.958,160.311,0.755c72.352-7.67,79.813-37.281,147.442-35.801
						c47.089,1.03,64.262,15.896,103.208,23.803c34.466,6.997,80.663,7.43,139.497-15.226c2.179-7.26,1.06-15.493-3.667-22.346
						l-31.386-45.507c-5.139-7.451-13.635-11.958-22.519-11.942l-547.729,0.981C1638.179,995.689,1521.945,910.806,1388.338,909.921
						z M1206.831,1198.384c-1.673-32.405,24.508-58.755,58.387-58.854c33.784-0.099,62.455,25.958,64.119,58.199
						c1.665,32.241-24.3,58.59-58.076,58.853C1237.39,1256.845,1208.504,1230.789,1206.831,1198.384z"/>
					
						<linearGradient id="SVGID_00000119807512935186377560000001302173684028860293_" gradientUnits="userSpaceOnUse" x1="-3339.5132" y1="-5364.4731" x2="-2738.8386" y2="-3955.6189" gradientTransform="matrix(-0.0516 -0.9987 0.9987 -0.0516 6280.2422 -2265.2273)">
						<stop  offset="0" style="stop-color:#FFC444"/>
						<stop  offset="0.9964" style="stop-color:#F36F56"/>
					</linearGradient>
					<path style="fill:url(#SVGID_00000119807512935186377560000001302173684028860293_);" d="M1160.333,1198.633
						c6.653,128.87,121.319,231.705,254.77,229.708c131.983-1.976,232.626-105.962,226.104-232.278
						c-6.521-126.317-117.844-229.169-249.957-229.734C1257.668,965.759,1153.68,1069.762,1160.333,1198.633z M1329.337,1197.729
						c1.665,32.241-24.3,58.59-58.076,58.853c-33.87,0.263-62.757-25.793-64.43-58.198s24.508-58.755,58.387-58.854
						C1299.002,1139.431,1327.672,1165.488,1329.337,1197.729z"/>
				</g>
			</g>
		</g>
		<g>
			
				<linearGradient id="SVGID_00000121998886200111998420000011647513604216446086_" gradientUnits="userSpaceOnUse" x1="1110.6127" y1="3217.3442" x2="1045.8245" y2="3003.7178" gradientTransform="matrix(-0.9999 0.0138 0.0138 0.9999 3588.7747 -14.86)">
				<stop  offset="0" style="stop-color:#444B8C"/>
				<stop  offset="0.9964" style="stop-color:#26264F"/>
			</linearGradient>
			<path style="fill:url(#SVGID_00000121998886200111998420000011647513604216446086_);" d="M2584.374,3113.094
				c6.632,13.525,4.771,19.337,3.119,21.893c-4.839,7.502-16.49,0.418-46.902,4.019c-3.568,0.424-10.375,1.344-18.871-0.658
				c-7.277-1.715-15.858-5.588-15.492-7.538c0.134-0.709,1.427-0.994,1.917-1.099c8.44-1.8,61.275-18.013,61.275-18.013
				L2584.374,3113.094z"/>
			
				<linearGradient id="SVGID_00000002348747528844477150000003040579997491811763_" gradientUnits="userSpaceOnUse" x1="1054.762" y1="3175.7458" x2="1054.762" y2="2832.5405" gradientTransform="matrix(-0.9999 0.0138 0.0138 0.9999 3588.7747 -14.86)">
				<stop  offset="0" style="stop-color:#FFC444"/>
				<stop  offset="0.9964" style="stop-color:#F36F56"/>
			</linearGradient>
			<path style="fill:url(#SVGID_00000002348747528844477150000003040579997491811763_);" d="M2588.43,3083.363l-4.717,30.235
				c0,0-12.986,9.179-16.399-1.965c-2.456-8.016-2.386-29.622-2.386-29.622L2588.43,3083.363z"/>
			
				<linearGradient id="SVGID_00000141417524512975925320000011044588540357307266_" gradientUnits="userSpaceOnUse" x1="1181.1294" y1="3175.7493" x2="1181.1294" y2="2832.5386" gradientTransform="matrix(-0.9999 0.0138 0.0138 0.9999 3588.7747 -14.86)">
				<stop  offset="0" style="stop-color:#FFC444"/>
				<stop  offset="0.9964" style="stop-color:#F36F56"/>
			</linearGradient>
			<polygon style="fill:url(#SVGID_00000141417524512975925320000011044588540357307266_);" points="2435.086,3098.331 
				2447.835,3133.142 2466.363,3130.19 2462.068,3097.958 			"/>
			
				<linearGradient id="SVGID_00000139995295739502237330000014960213110434195377_" gradientUnits="userSpaceOnUse" x1="1204.9918" y1="3188.7246" x2="1140.2024" y2="2975.094" gradientTransform="matrix(-0.9999 0.0138 0.0138 0.9999 3588.7747 -14.86)">
				<stop  offset="0" style="stop-color:#444B8C"/>
				<stop  offset="0.9964" style="stop-color:#26264F"/>
			</linearGradient>
			<path style="fill:url(#SVGID_00000139995295739502237330000014960213110434195377_);" d="M2453.606,3152.315
				c8.968-10.641,16.975-9.676,18.59-16.988c1.27-5.746-2.249-12.793-7.558-15.471c-7.462-3.76-16.499,2.115-18.541,3.439
				c-13.871,9.018-10.093,23.119-23.171,29.233c-2.633,1.231-6.803,2.536-11.201,6.656c-1.866,1.75-6.491,6.083-5.407,9.068
				c1.252,3.452,9.499,3.332,17.337,3.219c9.407-0.135,14.111-0.2,18.635-3.025
				C2448.562,3164.533,2446.683,3160.528,2453.606,3152.315z"/>
			
				<linearGradient id="SVGID_00000015340794745347129840000015953445984197906861_" gradientUnits="userSpaceOnUse" x1="1025.1094" y1="2435.1748" x2="993.5905" y2="3144.3513" gradientTransform="matrix(-0.9999 0.0138 0.0138 0.9999 3588.7747 -14.86)">
				<stop  offset="0" style="stop-color:#311944"/>
				<stop  offset="1" style="stop-color:#893976"/>
			</linearGradient>
			<path style="fill:url(#SVGID_00000015340794745347129840000015953445984197906861_);" d="M2687.564,2360.175
				c-3.428,70.324-13.497,130.356-24.951,179.295c-12.321,52.646-19.034,61.645-23.309,98.14
				c-9.298,79.415,16.104,91.357,18.884,181.405c3.07,99.432-25.033,177.803-36.061,207.692
				c-9.641,26.13-19.598,47.184-27.06,61.796c-9.277,7.744-23.135,4.397-37.75,1.097c-3.477-90.203-8.4-175.126-11.876-265.328
				c-14.534-135.896-29.067-271.787-43.601-407.681C2563.748,2397.784,2625.656,2378.982,2687.564,2360.175z"/>
			
				<linearGradient id="SVGID_00000069357826917235904960000017610730407793634729_" gradientUnits="userSpaceOnUse" x1="1025.1094" y1="2435.1748" x2="993.5905" y2="3144.3506" gradientTransform="matrix(-0.9999 0.0138 0.0138 0.9999 3588.7747 -14.86)">
				<stop  offset="0" style="stop-color:#311944"/>
				<stop  offset="1" style="stop-color:#893976"/>
			</linearGradient>
			<path style="opacity:0.3;fill:url(#SVGID_00000069357826917235904960000017610730407793634729_);" d="M2557.317,3089.6
				c-3.477-90.203-8.4-175.126-11.876-265.328c-14.534-135.896-29.067-271.787-43.601-407.681
				c61.908-18.807,123.816-37.61,185.724-56.417c-0.227,4.656-0.558,9.145-0.84,13.715
				c-87.858,73.052-106.011,132.026-106.036,172.516c-0.031,49.109,26.289,74.017,19.518,145.077
				c-4.842,50.807-20.332,59.445-21.31,105.366c-1.259,59.131,23.406,92.922,35.034,127.356
				c11.237,33.281,14.485,80.148-10.019,146.183c-3.177,6.805-6.174,12.891-8.842,18.115
				C2585.791,3096.245,2571.933,3092.902,2557.317,3089.6z"/>
			
				<linearGradient id="SVGID_00000076566426670927911670000014049563869580583828_" gradientUnits="userSpaceOnUse" x1="1505.5808" y1="2736.8721" x2="927.7497" y2="2710.6064" gradientTransform="matrix(-0.9999 0.0138 0.0138 0.9999 3588.7747 -14.86)">
				<stop  offset="0" style="stop-color:#311944"/>
				<stop  offset="1" style="stop-color:#893976"/>
			</linearGradient>
			<path style="fill:url(#SVGID_00000076566426670927911670000014049563869580583828_);" d="M2577.267,2425.62
				c-46.838,75.347-73.227,134.876-87.652,171.676c-8.8,22.45-16.839,45.859-19.257,76.731c-2.961,37.822,3.901,69.1,10,89.164
				c8.957,25.728,16.905,55.683,21.571,89.429c15.131,109.44-12.37,200.162-33.479,252.221c-11.012,3.81-22.026,7.625-33.038,11.436
				c-23.26-69.761-51.466-168.621-70.634-290.198c-10.469-66.403-18.439-118.475-17.111-184.374
				c1.399-69.507,13.643-179.232,73.329-309.366C2473.086,2363.431,2525.177,2394.526,2577.267,2425.62z"/>
			
				<linearGradient id="SVGID_00000072993556503889455560000016606275127843949953_" gradientUnits="userSpaceOnUse" x1="650.358" y1="2888.2622" x2="1060.1022" y2="2012.7407" gradientTransform="matrix(-0.9999 0.0138 0.0138 0.9999 3588.7747 -14.86)">
				<stop  offset="0" style="stop-color:#FFC444"/>
				<stop  offset="0.9964" style="stop-color:#F36F56"/>
			</linearGradient>
			<path style="fill:url(#SVGID_00000072993556503889455560000016606275127843949953_);" d="M2564.918,1823.438
				c-69.736,10.443-122.899,21.729-147.298,57.611c-25.769,37.902,13.27,67.686,22.245,152.248
				c13.742,129.464-61.524,176.103-42.955,306.563c6.256,43.957,20.425,78.156,30.245,98.505
				c22.059,18.795,57.209,44.55,105.261,62.526c69.925,26.156,104.986,12.575,199.66,20.025
				c154.855,12.185,177.104,57.651,247.745,31.501c71.395-26.429,124.253-100.846,109.931-133.438
				c-8.578-19.517-37.204-8.059-77.377-32.657c-51.775-31.701-42.073-73.248-83.845-109.961
				c-59.999-52.734-119.892-2.063-171.194-47.899c-51.894-46.368-55.845-156.502-31.97-221.502
				c15.595-42.456,16.866-88.964,28.699-132.616c0.985-3.627,1.821-9.427-0.304-16.072c-8.124-25.409-54.175-31.241-88.991-35.322
				C2611.669,1816.725,2570.652,1822.577,2564.918,1823.438z"/>
			
				<linearGradient id="SVGID_00000152244794319063332940000006563475459913092500_" gradientUnits="userSpaceOnUse" x1="1474.1759" y1="1924.7186" x2="1794.2408" y2="2582.8809" gradientTransform="matrix(0.9823 -0.1875 0.1875 0.9823 540.2847 295.6934)">
				<stop  offset="0" style="stop-color:#FF9085"/>
				<stop  offset="1" style="stop-color:#FB6FBB"/>
			</linearGradient>
			<path style="opacity:0.3;fill:url(#SVGID_00000152244794319063332940000006563475459913092500_);" d="M2972.738,2503.279
				c-21.159-14.765-8.663-55.068-39.995-77.278c-29.08-20.613-52.656,5.024-95.858-9.241
				c-55.412-18.298-51.344-71.936-104.43-90.224c-38.174-13.149-50.297,11.137-105.762,11.009
				c-55.371-0.127-127.438-24.526-172.125-84.184c-18.988-25.349-29.326-52.179-34.735-76.895
				c-15.827,47.495-32.889,93.371-22.922,163.393c6.256,43.957,20.425,78.156,30.245,98.505
				c22.059,18.795,57.209,44.55,105.261,62.524c69.924,26.157,104.986,12.577,199.66,20.026
				c154.855,12.185,177.104,57.651,247.745,31.501c45.628-16.89,83.584-53.362,101.372-86.009
				C3018.96,2509.666,2988.094,2513.996,2972.738,2503.279z"/>
			
				<linearGradient id="SVGID_00000167354926076512938220000015835816602484706690_" gradientUnits="userSpaceOnUse" x1="1101.8986" y1="1752.4513" x2="1027.9828" y2="1872.021" gradientTransform="matrix(-0.9999 0.0138 0.0138 0.9999 3588.7747 -14.86)">
				<stop  offset="0" style="stop-color:#FFC444"/>
				<stop  offset="0.9964" style="stop-color:#F36F56"/>
			</linearGradient>
			<path style="fill:url(#SVGID_00000167354926076512938220000015835816602484706690_);" d="M2527.365,1702.33
				c0,0-19.918,35.532-21.667,60.728c-1.75,25.194,26.753,23.972,26.753,23.972l-1.41,15.887
				c-1.203,13.562-10.273,25.147-23.149,29.571l-11.327,3.891c0,0,72.97,17.267,113.609-10.156l-11.511-1.377
				c-16.3-1.949-28.969-15.117-30.285-31.481l-0.549-6.825C2567.83,1786.541,2582.232,1708.197,2527.365,1702.33z"/>
			<g>
				
					<linearGradient id="SVGID_00000092424979531660199130000005673249693040485803_" gradientUnits="userSpaceOnUse" x1="1377.1814" y1="1937.5833" x2="1228.1937" y2="2178.5928" gradientTransform="matrix(-0.9999 0.0138 0.0138 0.9999 3588.7747 -14.86)">
					<stop  offset="0" style="stop-color:#444B8C"/>
					<stop  offset="0.9964" style="stop-color:#26264F"/>
				</linearGradient>
				<path style="fill:url(#SVGID_00000092424979531660199130000005673249693040485803_);" d="M2410.796,2100.743l-90.652-202.323
					c-1.12-2.499-3.739-3.971-6.455-3.629l-158.51,19.986c-4.232,0.533-6.685,5.072-4.811,8.903l106.882,218.616
					c1.287,2.632,4.237,4.01,7.082,3.306l141.125-34.899L2410.796,2100.743z"/>
				<path style="fill:#FFFFFF;" d="M2385.853,2076.248l-73.4-163.82c-0.907-2.023-3.027-3.216-5.227-2.938l-128.344,16.182
					c-3.427,0.432-5.413,4.107-3.896,7.21l86.542,177.011c1.042,2.132,3.431,3.247,5.733,2.677l114.269-28.257L2385.853,2076.248z"
					/>
				
					<linearGradient id="SVGID_00000140011978239683087470000013820467237594027155_" gradientUnits="userSpaceOnUse" x1="1361.9689" y1="1922.123" x2="1397.4259" y2="1848.5824" gradientTransform="matrix(-0.9999 0.0138 0.0138 0.9999 3588.7747 -14.86)">
					<stop  offset="0" style="stop-color:#AA80F9"/>
					<stop  offset="0.9964" style="stop-color:#6165D7"/>
				</linearGradient>
				<path style="fill:url(#SVGID_00000140011978239683087470000013820467237594027155_);" d="M2285.841,1911.438l-5.816-13.132
					c-0.809-1.825-2.711-2.911-4.694-2.677l-65.958,7.758c-3.062,0.36-4.888,3.596-3.613,6.404l6.499,14.297
					c0.832,1.831,2.768,2.9,4.76,2.628l65.276-8.924C2285.298,1917.381,2287.068,1914.208,2285.841,1911.438z"/>
				<path style="fill:#D8DEE8;" d="M2195.88,1955.732c0.104-0.002,0.2-0.013,0.302-0.025l116.251-14.915
					c1.439-0.183,2.457-1.5,2.274-2.935c-0.19-1.444-1.553-2.441-2.94-2.268l-116.251,14.915c-1.439,0.184-2.458,1.502-2.274,2.935
					C2193.414,1954.782,2194.567,1955.75,2195.88,1955.732z"/>
				<path style="fill:#D8DEE8;" d="M2201.845,1967.47c0.108-0.002,0.22-0.013,0.328-0.026l115.666-16.046
					c1.439-0.195,2.441-1.522,2.242-2.966c-0.195-1.434-1.507-2.432-2.961-2.237l-115.666,16.046
					c-1.439,0.196-2.442,1.522-2.242,2.966C2199.395,1966.53,2200.542,1967.488,2201.845,1967.47z"/>
				<path style="fill:#D8DEE8;" d="M2260.045,1985.925c0.133-0.002,0.265-0.014,0.399-0.036l63.072-10.507
					c1.435-0.236,2.401-1.592,2.16-3.026c-0.235-1.423-1.614-2.399-3.021-2.156l-63.074,10.508
					c-1.433,0.235-2.399,1.594-2.159,3.027C2257.635,1985.026,2258.772,1985.943,2260.045,1985.925z"/>
			</g>
			
				<linearGradient id="SVGID_00000138549895382998291720000001404053054274011813_" gradientUnits="userSpaceOnUse" x1="1408.701" y1="2032.8319" x2="1372.9515" y2="2090.6621" gradientTransform="matrix(-0.9999 0.0138 0.0138 0.9999 3588.7747 -14.86)">
				<stop  offset="0" style="stop-color:#FFC444"/>
				<stop  offset="0.9964" style="stop-color:#F36F56"/>
			</linearGradient>
			<path style="fill:url(#SVGID_00000138549895382998291720000001404053054274011813_);" d="M2231.092,2088.792
				c0,0-25.83-17.568-28.842-29.953c-3.013-12.386-2.256-35.688-2.256-35.688l15.056,32.827c0,0,7.275-2.086,10.409-12.903
				c3.134-10.819,8.431-0.909,6.292,7.263C2229.612,2058.511,2231.092,2088.792,2231.092,2088.792z"/>
			
				<linearGradient id="SVGID_00000018958670517385201330000010354725771610204811_" gradientUnits="userSpaceOnUse" x1="834.255" y1="2974.3521" x2="1244.0062" y2="2098.8154" gradientTransform="matrix(-0.9999 0.0138 0.0138 0.9999 3588.7747 -14.86)">
				<stop  offset="0" style="stop-color:#FFC444"/>
				<stop  offset="0.9964" style="stop-color:#F36F56"/>
			</linearGradient>
			<path style="fill:url(#SVGID_00000018958670517385201330000010354725771610204811_);" d="M2429.976,1868.838
				c-13.643,8.311-34.214,22.899-52.397,46.437c-51.729,66.965-31.563,138.308-74.355,163.541
				c-12.237,7.218-33.718,13.077-72.5-0.639l-14.865,7.907c0,0-18.156,92.348,93.981,95.8
				c112.137,3.457,168.009-135.95,168.009-135.95L2429.976,1868.838z"/>
			
				<linearGradient id="SVGID_00000080205512881484911130000000131855354655926187_" gradientUnits="userSpaceOnUse" x1="691.3853" y1="2253.2837" x2="990.213" y2="1614.7632" gradientTransform="matrix(-0.9999 0.0138 0.0138 0.9999 3588.7747 -14.86)">
				<stop  offset="0" style="stop-color:#444B8C"/>
				<stop  offset="0.9964" style="stop-color:#26264F"/>
			</linearGradient>
			<path style="fill:url(#SVGID_00000080205512881484911130000000131855354655926187_);" d="M2538.052,1738.318
				c3.796-0.232,7.029-4.972,9.593-3.488c2.691,1.553,2.239,8.552-0.234,13.419c-2.028,3.988-5.242,6.198-7.026,7.224
				c2.839,4.111,6.431,10.485,7.805,18.756c3.043,18.294-6.957,32.741-11.168,41.23c-18.985,38.268,7.949,99.99,38.289,131.519
				c24.656,25.628,36.627,15.792,51.229,36.605c28.422,40.508-12.927,83.476,1.062,137.477
				c21.272,82.111,149.629,109.156,154.951,110.211c2.097,0.417,3.505,0.68,5.689,1.075
				c57.616,10.424,144.944,26.225,207.672-19.904c46.933-34.51,69.433-95.847,67.103-150.347
				c-0.612-14.336-3.783-68.773-47.112-114.077c-6.878-7.19-47.604-49.673-103.833-51.383c-29.781-0.907-36.013,9.46-58.655,2.482
				c-30.998-9.554-49.6-38.321-61.142-56.164c-21.227-32.825-12.17-39.542-27.599-55.792c-30.235-31.837-67.016-8.134-99.433-36.355
				c-31.956-27.817-11.537-64.187-42.441-88.335c-31.88-24.903-94.037-17.78-107.866,10.766
				C2503.05,1697.768,2526.416,1739.027,2538.052,1738.318z"/>
		</g>
	</g>
</g>
</svg>
