<?xml version="1.0" encoding="utf-8"?>
<!-- Generator: Adobe Illustrator 27.5.0, SVG Export Plug-In . SVG Version: 6.00 Build 0)  -->
<svg version="1.1" xmlns="http://www.w3.org/2000/svg" xmlns:xlink="http://www.w3.org/1999/xlink" x="0px" y="0px"
	 viewBox="0 0 500 500" style="enable-background:new 0 0 500 500;" xml:space="preserve">
<g id="Background_Complete">
	<g>
		<rect y="382.398" style="fill:#EBEBEB;" width="500" height="0.25"/>
		<rect x="288.404" y="396.342" style="fill:#EBEBEB;" width="33.122" height="0.25"/>
		<rect x="407.085" y="393.629" style="fill:#EBEBEB;" width="8.693" height="0.25"/>
		<rect x="327.667" y="389.208" style="fill:#EBEBEB;" width="68.919" height="0.25"/>
		<rect x="194.843" y="395.111" style="fill:#EBEBEB;" width="30.304" height="0.25"/>
		<rect x="166.717" y="395.111" style="fill:#EBEBEB;" width="19.222" height="0.25"/>
		<rect x="52.459" y="390.888" style="fill:#EBEBEB;" width="46.838" height="0.25"/>
		<path style="fill:#EBEBEB;" d="M237.014,337.8H43.915c-3.147,0-5.708-2.561-5.708-5.708V60.66c0-3.147,2.561-5.708,5.708-5.708
			h193.099c3.146,0,5.707,2.561,5.707,5.708v271.432C242.721,335.239,240.16,337.8,237.014,337.8z M43.915,55.203
			c-3.01,0-5.458,2.448-5.458,5.458v271.432c0,3.01,2.448,5.458,5.458,5.458h193.099c3.009,0,5.457-2.448,5.457-5.458V60.66
			c0-3.009-2.448-5.458-5.457-5.458H43.915z"/>
		<path style="fill:#EBEBEB;" d="M453.31,337.8H260.212c-3.147,0-5.707-2.561-5.707-5.708V60.66c0-3.147,2.561-5.708,5.707-5.708
			H453.31c3.148,0,5.708,2.561,5.708,5.708v271.432C459.019,335.239,456.458,337.8,453.31,337.8z M260.212,55.203
			c-3.009,0-5.457,2.448-5.457,5.458v271.432c0,3.01,2.448,5.458,5.457,5.458H453.31c3.01,0,5.458-2.448,5.458-5.458V60.66
			c0-3.009-2.448-5.458-5.458-5.458H260.212z"/>
	</g>
	<g>
		<g>
			<g>
				<g>
					<g>
						
							<rect x="57.339" y="77.964" transform="matrix(-1 -1.224647e-16 1.224647e-16 -1 284.971 312.7084)" style="fill:#E6E6E6;" width="170.294" height="156.781"/>
						
							<rect x="53.296" y="77.964" transform="matrix(-1 -1.224647e-16 1.224647e-16 -1 279.171 312.7084)" style="fill:#F5F5F5;" width="172.58" height="156.781"/>
						
							<rect x="69.037" y="77.321" transform="matrix(-1.836970e-16 1 -1 -1.836970e-16 295.9398 16.7686)" style="fill:#FAFAFA;" width="141.096" height="158.066"/>
						<polygon style="fill:#FFFFFF;" points="199.088,226.902 145.932,85.806 123.55,85.806 176.707,226.902 						"/>
						<polygon style="fill:#FFFFFF;" points="170.363,226.902 117.206,85.806 101.795,85.806 154.952,226.902 						"/>
						
							<rect x="47.841" y="152.025" transform="matrix(-1.836970e-16 1 -1 -1.836970e-16 274.743 37.9655)" style="fill:#E6E6E6;" width="141.096" height="8.658"/>
						
							<rect x="96.034" y="152.025" transform="matrix(-1.836970e-16 1 -1 -1.836970e-16 322.9365 -10.228)" style="fill:#E6E6E6;" width="141.096" height="8.658"/>
						
							<rect x="39.733" y="150.455" transform="matrix(-1.836970e-16 1 -1 -1.836970e-16 271.6111 40.2422)" style="fill:#F5F5F5;" width="151.903" height="10.944"/>
						
							<rect x="87.926" y="150.455" transform="matrix(-1.836970e-16 1 -1 -1.836970e-16 319.8047 -7.9513)" style="fill:#F5F5F5;" width="151.903" height="10.944"/>
						
							<rect x="-9.61" y="155.969" transform="matrix(-1.836970e-16 1 -1 -1.836970e-16 217.2922 95.4162)" style="fill:#E6E6E6;" width="141.096" height="0.77"/>
					</g>
				</g>
			</g>
		</g>
		<g>
			<g>
				<rect x="270.69" y="79.396" style="fill:#EBEBEB;" width="175.186" height="122.543"/>
				
					<rect x="445.876" y="79.396" transform="matrix(-1 -1.224647e-16 1.224647e-16 -1 893.2284 281.3359)" style="fill:#E0E0E0;" width="1.477" height="122.543"/>
				
					<rect x="303.149" y="59.213" transform="matrix(-1.836970e-16 1 -1 -1.836970e-16 498.9517 -217.6151)" style="fill:#FFFFFF;" width="110.269" height="162.911"/>
				
					<rect x="222.302" y="140.059" transform="matrix(-1.836970e-16 1 -1 -1.836970e-16 418.105 -136.7686)" style="fill:#E0E0E0;" width="110.269" height="1.218"/>
			</g>
			<rect x="380.549" y="97.425" style="fill:#F5F5F5;" width="39.799" height="55.918"/>
			<rect x="289.588" y="107.79" style="fill:#F5F5F5;" width="39.799" height="55.918"/>
			<rect x="353.012" y="121.702" style="fill:#EBEBEB;" width="39.799" height="55.918"/>
			<rect x="322.693" y="124.157" style="fill:#F5F5F5;" width="15.544" height="15.544"/>
			<rect x="318.179" y="155.936" style="fill:#F0F0F0;" width="15.544" height="15.544"/>
		</g>
		<g>
			<g>
				<path style="fill:#E0E0E0;" d="M409.099,375.213c0-3.968,3.217-7.185,7.185-7.185c3.968,0,7.185,3.217,7.185,7.185
					c0,3.968-3.217,7.185-7.185,7.185C412.316,382.398,409.099,379.182,409.099,375.213z"/>
			</g>
			<g>
				<path style="fill:#E0E0E0;" d="M421.223,375.213c0-3.968,3.217-7.185,7.185-7.185c3.968,0,7.185,3.217,7.185,7.185
					c0,3.968-3.217,7.185-7.185,7.185C424.44,382.398,421.223,379.182,421.223,375.213z"/>
			</g>
			<g>
				<path style="fill:#E0E0E0;" d="M222.675,375.213c0-3.968,3.217-7.185,7.185-7.185c3.968,0,7.185,3.217,7.185,7.185
					c0,3.968-3.217,7.185-7.185,7.185C225.892,382.398,222.675,379.182,222.675,375.213z"/>
			</g>
			<g>
				<path style="fill:#E0E0E0;" d="M234.799,375.213c0-3.968,3.217-7.185,7.185-7.185c3.968,0,7.185,3.217,7.185,7.185
					c0,3.968-3.217,7.185-7.185,7.185C238.016,382.398,234.799,379.182,234.799,375.213z"/>
			</g>
			
				<rect x="421.538" y="223" transform="matrix(-1 -1.224647e-16 1.224647e-16 -1 860.082 599.2045)" style="fill:#EBEBEB;" width="17.005" height="153.204"/>
			<rect x="221.201" y="223" style="fill:#F5F5F5;" width="200.337" height="153.204"/>
			<rect x="227.714" y="229.287" style="fill:#EBEBEB;" width="187.312" height="140.631"/>
			<g>
				<rect x="230.378" y="288.433" style="fill:#F5F5F5;" width="181.984" height="78.891"/>
			</g>
			<rect x="230.378" y="232.247" style="fill:#F5F5F5;" width="181.984" height="54.188"/>
			<path style="fill:#EBEBEB;" d="M263.49,289.765h115.76c0.733,0,1.332-0.599,1.332-1.332l0,0c0-0.733-0.599-1.332-1.332-1.332
				H263.49c-0.733,0-1.332,0.599-1.332,1.332l0,0C262.157,289.166,262.757,289.765,263.49,289.765z"/>
			<path style="fill:#EBEBEB;" d="M263.49,233.579h115.76c0.733,0,1.332-0.599,1.332-1.332l0,0c0-0.733-0.599-1.332-1.332-1.332
				H263.49c-0.733,0-1.332,0.6-1.332,1.332l0,0C262.157,232.98,262.757,233.579,263.49,233.579z"/>
		</g>
		<g>
			<g>
				<rect x="63.908" y="304.175" style="fill:#F5F5F5;" width="88.216" height="78.224"/>
				
					<rect x="152.124" y="304.175" transform="matrix(-1 -1.224647e-16 1.224647e-16 -1 338.5418 686.5733)" style="fill:#EBEBEB;" width="34.295" height="78.224"/>
			</g>
			<g>
				<rect x="59.559" y="290.452" style="fill:#EBEBEB;" width="94.478" height="13.723"/>
				
					<rect x="154.038" y="290.452" transform="matrix(-1 -1.224647e-16 1.224647e-16 -1 344.8045 594.6269)" style="fill:#E0E0E0;" width="36.729" height="13.723"/>
			</g>
		</g>
	</g>
</g>
<g id="Background_Simple" style="display:none;">
	<g style="display:inline;">
		<path style="fill:#407BFF;" d="M198.092,160.995c43.093,50.647,106.975,19.697,153.722,37.929
			c57.206,22.311,80.911,89.183,45.841,121.034c-30.072,27.311-70.075,0.72-109.994-1.33c-54.514-2.798-90.215,23.312-151.001-0.733
			C19.218,271.438,47.659,122.052,104.998,70.808c19.78-17.678,37.845-31.293,68.199-0.848
			C200.734,97.58,180.343,140.135,198.092,160.995z"/>
		<path style="opacity:0.9;fill:#FFFFFF;" d="M198.092,160.995c43.093,50.647,106.975,19.697,153.722,37.929
			c57.206,22.311,80.911,89.183,45.841,121.034c-30.072,27.311-70.075,0.72-109.994-1.33c-54.514-2.798-90.215,23.312-151.001-0.733
			C19.218,271.438,47.659,122.052,104.998,70.808c19.78-17.678,37.845-31.293,68.199-0.848
			C200.734,97.58,180.343,140.135,198.092,160.995z"/>
	</g>
</g>
<g id="Shadow_1_">
	<ellipse id="_x3C_Path_x3E__345_" style="fill:#F5F5F5;" cx="250" cy="416.238" rx="193.889" ry="11.323"/>
</g>
<g id="Placeholder">
	<g>
		<g>
			<line style="fill:#FFFFFF;" x1="408.194" y1="186.891" x2="408.194" y2="198.808"/>
			<rect x="407.694" y="186.891" style="fill:#407BFF;" width="1" height="11.917"/>
		</g>
		<g>
			<line style="fill:#FFFFFF;" x1="408.194" y1="152.748" x2="408.194" y2="178.549"/>
			<rect x="407.694" y="152.748" style="fill:#407BFF;" width="1" height="25.801"/>
		</g>
		<path style="fill:#E0E0E0;" d="M394.171,275.195H154.398c-3.933,0-7.15-3.218-7.15-7.15V139.064c0-3.933,3.218-7.15,7.15-7.15
			h239.774c3.933,0,7.15,3.218,7.15,7.15v128.981C401.322,271.978,398.104,275.195,394.171,275.195z"/>
		<g>
			<path style="fill:#FFFFFF;" d="M397.827,271.54H158.053c-3.933,0-7.15-3.218-7.15-7.15V135.409c0-3.933,3.218-7.15,7.15-7.15
				h239.774c3.933,0,7.15,3.218,7.15,7.15v128.981C404.977,268.322,401.759,271.54,397.827,271.54z"/>
			<path style="fill:#407BFF;" d="M397.826,272.04H158.053c-4.218,0-7.65-3.432-7.65-7.65V135.409c0-4.218,3.432-7.65,7.65-7.65
				h239.773c4.218,0,7.65,3.432,7.65,7.65V264.39C405.477,268.608,402.044,272.04,397.826,272.04z M158.053,128.758
				c-3.667,0-6.65,2.983-6.65,6.65V264.39c0,3.667,2.983,6.65,6.65,6.65h239.773c3.667,0,6.65-2.983,6.65-6.65V135.409
				c0-3.667-2.983-6.65-6.65-6.65H158.053z"/>
		</g>
		<path style="fill:#E0E0E0;" d="M262.797,190.489h-92.403c-2.054,0-3.725-1.671-3.725-3.725v-12.736
			c0-2.054,1.671-3.725,3.725-3.725h92.403c2.054,0,3.725,1.671,3.725,3.725v12.736
			C266.523,188.818,264.852,190.489,262.797,190.489z M170.395,171.303c-1.502,0-2.725,1.223-2.725,2.725v12.736
			c0,1.502,1.223,2.725,2.725,2.725h92.403c1.502,0,2.725-1.223,2.725-2.725v-12.736c0-1.502-1.223-2.725-2.725-2.725H170.395z"/>
		<path style="fill:#E0E0E0;" d="M311.479,217.482H170.395c-2.054,0-3.725-1.671-3.725-3.725V201.02
			c0-2.054,1.671-3.726,3.725-3.726h141.084c2.054,0,3.725,1.671,3.725,3.726v12.736
			C315.204,215.811,313.533,217.482,311.479,217.482z M170.395,198.295c-1.502,0-2.725,1.223-2.725,2.726v12.736
			c0,1.502,1.223,2.725,2.725,2.725h141.084c1.502,0,2.725-1.223,2.725-2.725V201.02c0-1.503-1.223-2.726-2.725-2.726H170.395z"/>
		<path style="fill:#E0E0E0;" d="M171.46,211.404c-0.276,0-0.5-0.224-0.5-0.5v-7.031c0-0.276,0.224-0.5,0.5-0.5
			c0.276,0,0.5,0.224,0.5,0.5v7.031C171.96,211.18,171.736,211.404,171.46,211.404z"/>
		<path style="fill:#E0E0E0;" d="M373.568,190.489h-92.403c-2.054,0-3.725-1.671-3.725-3.725v-12.736
			c0-2.054,1.671-3.725,3.725-3.725h92.403c2.054,0,3.725,1.671,3.725,3.725v12.736
			C377.293,188.818,375.622,190.489,373.568,190.489z M281.165,171.303c-1.503,0-2.725,1.223-2.725,2.725v12.736
			c0,1.502,1.223,2.725,2.725,2.725h92.403c1.502,0,2.725-1.223,2.725-2.725v-12.736c0-1.502-1.223-2.725-2.725-2.725H281.165z"/>
		<path style="opacity:0.2;fill:#407BFF;" d="M230.509,152.748h-59.228c-2.261,0-4.111-1.85-4.111-4.111l0,0
			c0-2.261,1.85-4.111,4.111-4.111h59.228c2.261,0,4.112,1.85,4.112,4.111l0,0C234.621,150.898,232.771,152.748,230.509,152.748z"/>
		<path style="opacity:0.2;fill:#407BFF;" d="M246.806,232.027h-64.174c-0.901,0-1.639-0.737-1.639-1.639l0,0
			c0-0.901,0.737-1.639,1.639-1.639h64.174c0.901,0,1.639,0.737,1.639,1.639l0,0C248.445,231.29,247.707,232.027,246.806,232.027z"
			/>
		<circle style="fill:#407BFF;" cx="170.477" cy="230.389" r="3.307"/>
		<path style="fill:#E0E0E0;" d="M282.23,184.412c-0.276,0-0.5-0.224-0.5-0.5v-7.031c0-0.276,0.224-0.5,0.5-0.5
			c0.276,0,0.5,0.224,0.5,0.5v7.031C282.73,184.188,282.506,184.412,282.23,184.412z"/>
		<path style="fill:#E0E0E0;" d="M171.46,184.412c-0.276,0-0.5-0.224-0.5-0.5v-7.031c0-0.276,0.224-0.5,0.5-0.5
			c0.276,0,0.5,0.224,0.5,0.5v7.031C171.96,184.188,171.736,184.412,171.46,184.412z"/>
		<g style="opacity:0.6;">
			<path style="fill:#263238;" d="M175.443,183.376v-6.142h4.143v0.725h-3.331v1.902h2.883v0.725h-2.883v2.791H175.443z"/>
			<path style="fill:#263238;" d="M180.549,178.102v-0.867h0.755v0.867H180.549z M180.549,183.376v-4.449h0.755v4.449H180.549z"/>
			<path style="fill:#263238;" d="M182.443,183.376v-4.449h0.679v0.674c0.173-0.315,0.333-0.523,0.48-0.624
				c0.146-0.1,0.308-0.151,0.483-0.151c0.255,0,0.513,0.081,0.775,0.243l-0.26,0.7c-0.185-0.109-0.368-0.163-0.553-0.163
				c-0.165,0-0.314,0.049-0.444,0.148c-0.131,0.099-0.225,0.237-0.28,0.413c-0.084,0.268-0.126,0.561-0.126,0.88v2.33H182.443z"/>
			<path style="fill:#263238;" d="M185.007,182.048l0.746-0.117c0.042,0.299,0.158,0.528,0.35,0.687
				c0.191,0.159,0.459,0.239,0.803,0.239c0.346,0,0.604-0.07,0.771-0.211c0.168-0.141,0.252-0.307,0.252-0.497
				c0-0.17-0.074-0.304-0.223-0.402c-0.104-0.067-0.36-0.152-0.771-0.255c-0.554-0.14-0.937-0.26-1.15-0.362
				c-0.214-0.102-0.376-0.243-0.486-0.423c-0.11-0.18-0.165-0.379-0.165-0.597c0-0.198,0.045-0.382,0.136-0.551
				c0.091-0.169,0.215-0.309,0.371-0.421c0.117-0.087,0.277-0.16,0.48-0.22c0.203-0.06,0.42-0.09,0.651-0.09
				c0.35,0,0.656,0.05,0.92,0.151c0.264,0.101,0.459,0.236,0.585,0.408c0.125,0.172,0.212,0.402,0.26,0.689l-0.737,0.101
				c-0.034-0.229-0.131-0.408-0.292-0.537c-0.16-0.129-0.387-0.192-0.681-0.192c-0.346,0-0.594,0.057-0.741,0.171
				c-0.149,0.115-0.223,0.249-0.223,0.402c0,0.098,0.031,0.186,0.093,0.264c0.062,0.081,0.157,0.148,0.289,0.201
				c0.075,0.028,0.297,0.092,0.666,0.192c0.533,0.143,0.905,0.259,1.116,0.35c0.211,0.091,0.377,0.223,0.497,0.396
				c0.12,0.173,0.18,0.388,0.18,0.645c0,0.251-0.073,0.488-0.22,0.71c-0.146,0.222-0.358,0.394-0.635,0.516
				c-0.276,0.122-0.589,0.182-0.938,0.182c-0.578,0-1.019-0.12-1.322-0.36C185.284,182.876,185.091,182.52,185.007,182.048z"/>
			<path style="fill:#263238;" d="M191.245,182.702l0.109,0.666c-0.213,0.044-0.402,0.067-0.57,0.067
				c-0.273,0-0.485-0.044-0.637-0.13c-0.15-0.086-0.257-0.2-0.318-0.341c-0.061-0.141-0.092-0.438-0.092-0.89v-2.56h-0.554v-0.587
				h0.554v-1.102l0.75-0.453v1.555h0.758v0.587h-0.758v2.602c0,0.215,0.013,0.354,0.039,0.415c0.027,0.061,0.07,0.11,0.13,0.146
				c0.061,0.036,0.146,0.055,0.258,0.055C190.998,182.731,191.109,182.722,191.245,182.702z"/>
			<path style="fill:#263238;" d="M194.366,183.376v-4.449h0.679v0.632c0.327-0.489,0.799-0.733,1.416-0.733
				c0.269,0,0.515,0.048,0.739,0.145c0.226,0.096,0.394,0.223,0.505,0.379c0.112,0.157,0.19,0.342,0.235,0.557
				c0.027,0.14,0.042,0.384,0.042,0.733v2.736h-0.755v-2.707c0-0.307-0.029-0.537-0.088-0.689c-0.058-0.152-0.162-0.274-0.311-0.365
				c-0.149-0.091-0.325-0.136-0.526-0.136c-0.321,0-0.599,0.102-0.831,0.306c-0.233,0.204-0.351,0.59-0.351,1.16v2.43H194.366z"/>
			<path style="fill:#263238;" d="M202.042,182.828c-0.279,0.237-0.548,0.405-0.807,0.503c-0.258,0.098-0.535,0.146-0.831,0.146
				c-0.489,0-0.864-0.12-1.127-0.358c-0.263-0.239-0.395-0.544-0.395-0.916c0-0.218,0.05-0.416,0.149-0.597
				c0.099-0.18,0.229-0.325,0.39-0.434c0.16-0.109,0.341-0.191,0.542-0.248c0.148-0.039,0.372-0.077,0.671-0.113
				c0.608-0.073,1.057-0.159,1.345-0.26c0.003-0.104,0.004-0.169,0.004-0.197c0-0.308-0.071-0.524-0.214-0.65
				c-0.192-0.17-0.479-0.256-0.858-0.256c-0.354,0-0.616,0.063-0.785,0.187c-0.17,0.124-0.295,0.344-0.375,0.66l-0.738-0.101
				c0.067-0.315,0.178-0.57,0.331-0.764c0.154-0.194,0.376-0.344,0.667-0.449c0.29-0.104,0.627-0.157,1.009-0.157
				c0.38,0,0.688,0.044,0.927,0.134c0.237,0.089,0.411,0.202,0.523,0.337c0.111,0.136,0.189,0.307,0.234,0.513
				c0.025,0.128,0.038,0.36,0.038,0.695v1.006c0,0.701,0.016,1.144,0.048,1.33c0.032,0.186,0.096,0.364,0.191,0.534h-0.787
				C202.115,183.22,202.065,183.037,202.042,182.828z M201.98,181.144c-0.273,0.112-0.685,0.206-1.232,0.285
				c-0.31,0.045-0.529,0.095-0.658,0.151c-0.129,0.056-0.228,0.138-0.298,0.245c-0.069,0.107-0.104,0.227-0.104,0.358
				c0,0.201,0.076,0.369,0.229,0.503c0.152,0.134,0.375,0.201,0.668,0.201c0.291,0,0.549-0.063,0.775-0.19
				c0.227-0.127,0.393-0.301,0.499-0.522c0.08-0.17,0.121-0.421,0.121-0.754V181.144z"/>
			<path style="fill:#263238;" d="M203.91,183.376v-4.449h0.675v0.624c0.14-0.218,0.325-0.393,0.557-0.526
				c0.232-0.132,0.496-0.199,0.792-0.199c0.33,0,0.601,0.068,0.811,0.205c0.211,0.137,0.36,0.328,0.446,0.574
				c0.353-0.52,0.811-0.779,1.375-0.779c0.44,0,0.78,0.122,1.018,0.367c0.237,0.244,0.357,0.621,0.357,1.129v3.054h-0.75v-2.803
				c0-0.302-0.025-0.519-0.073-0.652c-0.049-0.132-0.138-0.239-0.267-0.32c-0.128-0.081-0.279-0.122-0.452-0.122
				c-0.313,0-0.572,0.104-0.779,0.312c-0.207,0.208-0.31,0.541-0.31,0.999v2.585h-0.755v-2.891c0-0.335-0.062-0.587-0.184-0.754
				c-0.123-0.167-0.324-0.251-0.604-0.251c-0.213,0-0.409,0.056-0.589,0.168c-0.181,0.112-0.311,0.275-0.392,0.49
				c-0.081,0.215-0.122,0.525-0.122,0.93v2.309H203.91z"/>
			<path style="fill:#263238;" d="M214.104,181.944l0.779,0.096c-0.123,0.455-0.351,0.809-0.683,1.06
				c-0.333,0.251-0.757,0.377-1.273,0.377c-0.651,0-1.167-0.2-1.549-0.601c-0.381-0.401-0.571-0.963-0.571-1.687
				c0-0.749,0.192-1.33,0.578-1.743c0.386-0.414,0.885-0.62,1.5-0.62c0.595,0,1.081,0.203,1.458,0.607
				c0.377,0.405,0.565,0.975,0.565,1.71c0,0.044-0.002,0.112-0.004,0.201h-3.318c0.027,0.489,0.166,0.863,0.414,1.123
				c0.249,0.26,0.559,0.39,0.931,0.39c0.276,0,0.513-0.073,0.708-0.218C213.834,182.494,213.989,182.262,214.104,181.944z
				 M211.628,180.725h2.484c-0.034-0.374-0.129-0.655-0.285-0.842c-0.24-0.29-0.552-0.436-0.934-0.436
				c-0.346,0-0.638,0.116-0.873,0.348C211.783,180.026,211.652,180.336,211.628,180.725z"/>
		</g>
		<g style="opacity:0.6;">
			<path style="fill:#263238;" d="M175.417,210.369v-6.142h4.441v0.725h-3.629v1.881h3.398v0.721h-3.398v2.091H180v0.725H175.417z"
				/>
			<path style="fill:#263238;" d="M181.027,210.369v-4.449h0.675v0.624c0.14-0.218,0.325-0.393,0.557-0.526
				c0.232-0.132,0.496-0.199,0.792-0.199c0.33,0,0.601,0.068,0.811,0.205c0.211,0.137,0.36,0.328,0.446,0.574
				c0.353-0.52,0.811-0.779,1.375-0.779c0.44,0,0.78,0.122,1.018,0.367c0.237,0.244,0.357,0.621,0.357,1.129v3.054h-0.75v-2.803
				c0-0.302-0.024-0.519-0.073-0.652c-0.049-0.132-0.138-0.239-0.267-0.32c-0.128-0.081-0.279-0.122-0.452-0.122
				c-0.313,0-0.572,0.104-0.779,0.312c-0.207,0.209-0.31,0.542-0.31,1v2.585h-0.755v-2.891c0-0.335-0.061-0.587-0.184-0.754
				c-0.123-0.167-0.324-0.251-0.604-0.251c-0.213,0-0.409,0.056-0.589,0.167c-0.181,0.112-0.311,0.275-0.392,0.49
				c-0.081,0.215-0.122,0.525-0.122,0.93v2.309H181.027z"/>
			<path style="fill:#263238;" d="M191.077,209.82c-0.279,0.237-0.548,0.405-0.807,0.503c-0.258,0.098-0.535,0.146-0.831,0.146
				c-0.489,0-0.864-0.12-1.127-0.358c-0.263-0.239-0.395-0.544-0.395-0.915c0-0.218,0.05-0.417,0.149-0.597
				c0.099-0.18,0.229-0.325,0.39-0.434c0.16-0.109,0.341-0.191,0.542-0.247c0.148-0.039,0.372-0.077,0.671-0.113
				c0.608-0.073,1.057-0.159,1.345-0.26c0.003-0.104,0.004-0.169,0.004-0.197c0-0.308-0.071-0.524-0.214-0.649
				c-0.192-0.17-0.479-0.256-0.858-0.256c-0.354,0-0.616,0.063-0.785,0.186c-0.17,0.125-0.295,0.344-0.375,0.66l-0.738-0.101
				c0.067-0.316,0.178-0.57,0.331-0.764c0.154-0.194,0.376-0.344,0.667-0.449c0.29-0.105,0.627-0.157,1.009-0.157
				c0.38,0,0.689,0.044,0.927,0.134c0.237,0.089,0.411,0.202,0.523,0.337c0.111,0.136,0.189,0.307,0.234,0.513
				c0.025,0.128,0.038,0.36,0.038,0.695v1.006c0,0.701,0.016,1.145,0.048,1.33c0.032,0.186,0.096,0.364,0.19,0.534h-0.787
				C191.15,210.212,191.1,210.029,191.077,209.82z M191.015,208.136c-0.273,0.112-0.684,0.207-1.231,0.285
				c-0.311,0.045-0.529,0.095-0.658,0.151c-0.129,0.056-0.228,0.138-0.298,0.245c-0.069,0.107-0.104,0.227-0.104,0.358
				c0,0.201,0.076,0.369,0.229,0.502c0.152,0.134,0.375,0.201,0.668,0.201c0.291,0,0.549-0.064,0.775-0.19
				c0.227-0.128,0.393-0.301,0.499-0.522c0.08-0.17,0.121-0.421,0.121-0.754V208.136z"/>
			<path style="fill:#263238;" d="M192.95,205.094v-0.867h0.755v0.867H192.95z M192.95,210.369v-4.449h0.755v4.449H192.95z"/>
			<path style="fill:#263238;" d="M194.836,210.369v-6.142h0.754v6.142H194.836z"/>
		</g>
		<g style="opacity:0.6;">
			<path style="fill:#263238;" d="M286.137,183.376v-6.142h0.813v5.417h3.024v0.725H286.137z"/>
			<path style="fill:#263238;" d="M293.749,182.828c-0.279,0.237-0.548,0.405-0.807,0.503c-0.258,0.098-0.535,0.146-0.831,0.146
				c-0.489,0-0.864-0.12-1.127-0.358c-0.263-0.239-0.395-0.544-0.395-0.916c0-0.218,0.05-0.416,0.15-0.597
				c0.099-0.18,0.228-0.325,0.39-0.434c0.16-0.109,0.341-0.191,0.542-0.248c0.148-0.039,0.372-0.077,0.671-0.113
				c0.608-0.073,1.057-0.159,1.345-0.26c0.003-0.104,0.004-0.169,0.004-0.197c0-0.308-0.071-0.524-0.214-0.65
				c-0.192-0.17-0.479-0.256-0.858-0.256c-0.354,0-0.616,0.063-0.785,0.187c-0.17,0.124-0.295,0.344-0.375,0.66l-0.738-0.101
				c0.067-0.315,0.178-0.57,0.331-0.764c0.154-0.194,0.376-0.344,0.667-0.449c0.29-0.104,0.627-0.157,1.009-0.157
				c0.38,0,0.688,0.044,0.927,0.134c0.237,0.089,0.411,0.202,0.523,0.337c0.111,0.136,0.189,0.307,0.234,0.513
				c0.025,0.128,0.038,0.36,0.038,0.695v1.006c0,0.701,0.016,1.144,0.048,1.33c0.032,0.186,0.096,0.364,0.19,0.534h-0.787
				C293.822,183.22,293.772,183.037,293.749,182.828z M293.687,181.144c-0.273,0.112-0.685,0.206-1.231,0.285
				c-0.311,0.045-0.529,0.095-0.658,0.151c-0.129,0.056-0.228,0.138-0.298,0.245c-0.069,0.107-0.105,0.227-0.105,0.358
				c0,0.201,0.076,0.369,0.229,0.503c0.152,0.134,0.375,0.201,0.668,0.201c0.291,0,0.549-0.063,0.775-0.19
				c0.227-0.127,0.393-0.301,0.499-0.522c0.08-0.17,0.121-0.421,0.121-0.754V181.144z"/>
			<path style="fill:#263238;" d="M295.315,182.048l0.746-0.117c0.042,0.299,0.158,0.528,0.35,0.687
				c0.191,0.159,0.459,0.239,0.803,0.239c0.346,0,0.604-0.07,0.771-0.211c0.168-0.141,0.252-0.307,0.252-0.497
				c0-0.17-0.074-0.304-0.223-0.402c-0.103-0.067-0.36-0.152-0.771-0.255c-0.554-0.14-0.937-0.26-1.15-0.362
				c-0.214-0.102-0.376-0.243-0.486-0.423c-0.11-0.18-0.165-0.379-0.165-0.597c0-0.198,0.045-0.382,0.136-0.551
				c0.091-0.169,0.215-0.309,0.371-0.421c0.117-0.087,0.277-0.16,0.479-0.22c0.203-0.06,0.42-0.09,0.651-0.09
				c0.35,0,0.656,0.05,0.92,0.151c0.264,0.101,0.459,0.236,0.585,0.408c0.125,0.172,0.212,0.402,0.26,0.689l-0.737,0.101
				c-0.034-0.229-0.131-0.408-0.292-0.537c-0.16-0.129-0.387-0.192-0.681-0.192c-0.346,0-0.594,0.057-0.741,0.171
				c-0.148,0.115-0.223,0.249-0.223,0.402c0,0.098,0.031,0.186,0.093,0.264c0.062,0.081,0.157,0.148,0.289,0.201
				c0.075,0.028,0.297,0.092,0.666,0.192c0.533,0.143,0.905,0.259,1.116,0.35c0.211,0.091,0.377,0.223,0.497,0.396
				c0.12,0.173,0.18,0.388,0.18,0.645c0,0.251-0.073,0.488-0.22,0.71c-0.147,0.222-0.358,0.394-0.635,0.516
				c-0.276,0.122-0.589,0.182-0.939,0.182c-0.578,0-1.019-0.12-1.322-0.36C295.593,182.876,295.4,182.52,295.315,182.048z"/>
			<path style="fill:#263238;" d="M301.554,182.702l0.109,0.666c-0.213,0.044-0.402,0.067-0.57,0.067
				c-0.273,0-0.485-0.044-0.637-0.13c-0.15-0.086-0.257-0.2-0.318-0.341c-0.061-0.141-0.092-0.438-0.092-0.89v-2.56h-0.554v-0.587
				h0.554v-1.102l0.75-0.453v1.555h0.758v0.587h-0.758v2.602c0,0.215,0.013,0.354,0.039,0.415c0.027,0.061,0.07,0.11,0.13,0.146
				c0.061,0.036,0.146,0.055,0.258,0.055C301.307,182.731,301.417,182.722,301.554,182.702z"/>
			<path style="fill:#263238;" d="M304.675,183.376v-4.449h0.679v0.632c0.327-0.489,0.799-0.733,1.416-0.733
				c0.269,0,0.515,0.048,0.739,0.145c0.226,0.096,0.393,0.223,0.505,0.379c0.112,0.157,0.19,0.342,0.235,0.557
				c0.027,0.14,0.042,0.384,0.042,0.733v2.736h-0.755v-2.707c0-0.307-0.029-0.537-0.088-0.689c-0.059-0.152-0.162-0.274-0.311-0.365
				c-0.149-0.091-0.325-0.136-0.526-0.136c-0.321,0-0.599,0.102-0.831,0.306c-0.233,0.204-0.351,0.59-0.351,1.16v2.43H304.675z"/>
			<path style="fill:#263238;" d="M312.351,182.828c-0.279,0.237-0.548,0.405-0.807,0.503c-0.258,0.098-0.535,0.146-0.831,0.146
				c-0.489,0-0.864-0.12-1.127-0.358c-0.263-0.239-0.395-0.544-0.395-0.916c0-0.218,0.05-0.416,0.149-0.597
				c0.099-0.18,0.228-0.325,0.39-0.434c0.16-0.109,0.341-0.191,0.542-0.248c0.148-0.039,0.372-0.077,0.671-0.113
				c0.608-0.073,1.057-0.159,1.345-0.26c0.003-0.104,0.004-0.169,0.004-0.197c0-0.308-0.071-0.524-0.214-0.65
				c-0.192-0.17-0.478-0.256-0.858-0.256c-0.354,0-0.616,0.063-0.785,0.187c-0.17,0.124-0.295,0.344-0.375,0.66l-0.738-0.101
				c0.067-0.315,0.178-0.57,0.331-0.764c0.154-0.194,0.376-0.344,0.667-0.449c0.29-0.104,0.627-0.157,1.009-0.157
				c0.38,0,0.689,0.044,0.927,0.134c0.237,0.089,0.411,0.202,0.523,0.337c0.111,0.136,0.189,0.307,0.234,0.513
				c0.025,0.128,0.038,0.36,0.038,0.695v1.006c0,0.701,0.016,1.144,0.048,1.33c0.032,0.186,0.096,0.364,0.191,0.534h-0.787
				C312.424,183.22,312.373,183.037,312.351,182.828z M312.288,181.144c-0.273,0.112-0.685,0.206-1.232,0.285
				c-0.311,0.045-0.529,0.095-0.658,0.151c-0.129,0.056-0.228,0.138-0.298,0.245c-0.069,0.107-0.105,0.227-0.105,0.358
				c0,0.201,0.076,0.369,0.229,0.503c0.152,0.134,0.375,0.201,0.668,0.201c0.291,0,0.549-0.063,0.775-0.19
				c0.227-0.127,0.393-0.301,0.499-0.522c0.08-0.17,0.121-0.421,0.121-0.754V181.144z"/>
			<path style="fill:#263238;" d="M314.219,183.376v-4.449h0.675v0.624c0.14-0.218,0.325-0.393,0.557-0.526
				c0.232-0.132,0.496-0.199,0.792-0.199c0.33,0,0.601,0.068,0.81,0.205c0.211,0.137,0.36,0.328,0.446,0.574
				c0.353-0.52,0.811-0.779,1.375-0.779c0.44,0,0.78,0.122,1.018,0.367c0.237,0.244,0.356,0.621,0.356,1.129v3.054h-0.75v-2.803
				c0-0.302-0.024-0.519-0.073-0.652c-0.049-0.132-0.138-0.239-0.267-0.32c-0.128-0.081-0.279-0.122-0.452-0.122
				c-0.313,0-0.572,0.104-0.779,0.312c-0.207,0.208-0.31,0.541-0.31,0.999v2.585h-0.755v-2.891c0-0.335-0.061-0.587-0.184-0.754
				c-0.123-0.167-0.324-0.251-0.604-0.251c-0.213,0-0.409,0.056-0.589,0.168c-0.181,0.112-0.31,0.275-0.392,0.49
				c-0.081,0.215-0.122,0.525-0.122,0.93v2.309H314.219z"/>
			<path style="fill:#263238;" d="M324.412,181.944l0.779,0.096c-0.123,0.455-0.351,0.809-0.683,1.06
				c-0.333,0.251-0.757,0.377-1.273,0.377c-0.651,0-1.167-0.2-1.549-0.601c-0.381-0.401-0.571-0.963-0.571-1.687
				c0-0.749,0.192-1.33,0.578-1.743c0.386-0.414,0.885-0.62,1.5-0.62c0.595,0,1.081,0.203,1.458,0.607
				c0.377,0.405,0.565,0.975,0.565,1.71c0,0.044-0.002,0.112-0.004,0.201h-3.318c0.027,0.489,0.166,0.863,0.414,1.123
				c0.249,0.26,0.559,0.39,0.931,0.39c0.276,0,0.513-0.073,0.708-0.218C324.143,182.494,324.298,182.262,324.412,181.944z
				 M321.937,180.725h2.484c-0.034-0.374-0.129-0.655-0.285-0.842c-0.24-0.29-0.552-0.436-0.935-0.436
				c-0.346,0-0.638,0.116-0.873,0.348C322.092,180.026,321.961,180.336,321.937,180.725z"/>
		</g>
		<path style="fill:#407BFF;" d="M299.036,243.915h34.202c3.003,0,5.46,2.457,5.46,5.46v6.181c0,3.003-2.457,5.46-5.46,5.46h-34.202
			c-3.003,0-5.46-2.457-5.46-5.46v-6.181C293.576,246.372,296.033,243.915,299.036,243.915z"/>
		<path style="opacity:0.2;fill:#407BFF;" d="M353.636,243.915h34.202c3.003,0,5.46,2.457,5.46,5.46v6.181
			c0,3.003-2.457,5.46-5.46,5.46h-34.202c-3.003,0-5.46-2.457-5.46-5.46v-6.181C348.176,246.372,350.633,243.915,353.636,243.915z"
			/>
	</g>
</g>
<g id="Character_1_">
	<g>
		<g>
			<path style="fill:#263238;" d="M136.805,87.176c-7.386-1.109-9.062,5.603-16.831,5.339c1.222,4.071,5.275,5.796,5.275,5.796
				s-6.17,4.484-4.794,11.18c4.835-5.471,11.328-0.278,18.39-0.495c14.674-0.451,19.971-7.249,14.89-13.08
				c4.723-5.973-8.182-9.176-7.89-13.628c-1.477,0.688-1.422,3.529-1.422,3.529s-5.327,0.452-9.921-3.279
				C134.313,85.281,136.805,87.176,136.805,87.176z"/>
			<path style="fill:#263238;" d="M150.96,95.642c3.294,0.626,5.427-1.843,5.447-3.885C158.75,96.695,155.137,99.383,150.96,95.642z
				"/>
			<g>
				<polygon style="fill:#FF8B7B;" points="157.895,396.789 150.936,400.798 140.689,385.337 147.648,381.328 				"/>
				<path style="fill:#263238;" d="M150.104,400.209l7.818-4.504c0.285-0.164,0.614-0.091,0.792,0.174l3.965,5.916
					c0.411,0.614,0.161,1.563-0.501,1.929c-2.749,1.522-4.142,2.112-7.58,4.092c-2.115,1.218-9.754,5.305-15.396,4.875
					c-3.287-0.251-3.361-3.252-1.941-3.581c6.369-1.474,10.822-5.125,11.892-7.787C149.347,400.844,149.688,400.449,150.104,400.209
					z"/>
				<g>
					<polygon style="opacity:0.2;" points="147.652,381.332 140.691,385.342 145.976,393.31 152.938,389.299 					"/>
				</g>
				<g>
					<g>
						<path style="fill:#407BFF;" d="M108.993,201.937c0,0-16.843,66.236-18.6,89.121c-1.924,25.061,51.337,101.38,51.337,101.38
							l13.031-6.815c0,0-24.66-43.532-41.115-92.755c7.99-25.754,23.898-88.752,23.898-88.752L108.993,201.937z"/>
					</g>
					<g style="opacity:0.3;">
						<path style="fill:#FFFFFF;" d="M108.993,201.937c0,0-16.843,66.236-18.6,89.121c-1.924,25.061,51.337,101.38,51.337,101.38
							l13.031-6.815c0,0-24.66-43.532-41.115-92.755c7.99-25.754,23.898-88.752,23.898-88.752L108.993,201.937z"/>
					</g>
				</g>
				<path style="opacity:0.4;fill:#407BFF;" d="M123.915,227.975c-6.606,11.571-8.837,39.236-7.14,54.345
					c4.621-16.091,10.447-38.17,14.759-54.761C128.627,225.321,125.781,224.703,123.915,227.975z"/>
				<polygon style="fill:#407BFF;" points="155.215,385.582 141.266,392.89 137.234,388.211 153.764,380.854 				"/>
				<path style="fill:#407BFF;" d="M148.341,402.832c0.643-0.37,1.277-0.911,1.71-1.315c0.054-0.05,0.073-0.127,0.049-0.196
					c-0.025-0.07-0.088-0.118-0.161-0.124c-0.312-0.025-3.063-0.226-3.719,0.595c-0.153,0.19-0.191,0.422-0.111,0.673
					c0.131,0.413,0.371,0.667,0.713,0.756C147.257,403.333,147.802,403.143,148.341,402.832z M149.469,401.541
					c-1.101,0.963-2.04,1.453-2.552,1.32c-0.212-0.055-0.36-0.221-0.451-0.508c-0.042-0.133-0.027-0.237,0.047-0.329
					C146.866,401.582,148.363,401.496,149.469,401.541z"/>
				<path style="fill:#407BFF;" d="M150.016,401.543c0.025-0.014,0.047-0.035,0.064-0.061c0.035-0.054,0.039-0.122,0.011-0.18
					c-0.042-0.088-1.046-2.163-2.141-2.43c-0.295-0.072-0.57-0.013-0.819,0.172c-0.298,0.223-0.406,0.516-0.303,0.826
					c0.28,0.845,2.16,1.688,3.092,1.698C149.955,401.568,149.988,401.559,150.016,401.543z M147.43,399.293
					c0.135-0.078,0.276-0.097,0.431-0.059c0.653,0.158,1.375,1.263,1.739,1.929c-0.901-0.158-2.232-0.855-2.415-1.409
					c-0.035-0.105-0.047-0.248,0.173-0.412C147.381,399.323,147.406,399.307,147.43,399.293z"/>
			</g>
			<path style="fill:#FF8B7B;" d="M120.904,145.106l-7.238,12.447c-1.183,2.07-2.352,4.134-3.446,6.165
				c-0.542,1.012-1.042,2.029-1.514,2.986c-0.46,0.934-0.875,1.933-1.053,2.429l-0.388-3.7c0.098,0.456,0.156,0.925,0.244,1.361
				c0.1,0.413,0.148,0.879,0.25,1.262c0.076,0.412,0.166,0.813,0.255,1.205l0.13,0.581c0.021,0.105,0.034,0.193,0.043,0.287
				c-0.006,0.04,0.012,0.103-0.012,0.139c-0.042,0.041,0.044,0.098-0.207,0.101c1.757,0.271,2.963,1.915,2.692,3.673
				c-0.271,1.757-1.915,2.963-3.673,2.692c-0.419-0.028-0.499-0.015-0.704-0.024l-0.499-0.023c-0.309-0.03-0.614-0.068-0.898-0.119
				c-0.578-0.112-1.114-0.263-1.636-0.458c-1.036-0.389-1.949-0.93-2.785-1.534c-0.828-0.622-1.552-1.292-2.197-2.024
				c-0.314-0.363-0.604-0.732-0.906-1.108c-0.278-0.369-0.521-0.761-0.78-1.148c-0.584-0.87-0.757-1.896-0.564-2.848l0.175-0.852
				c0.39-1.896,0.858-3.197,1.332-4.531c0.471-1.309,0.998-2.524,1.516-3.726c1.042-2.391,2.151-4.679,3.307-6.926
				c1.141-2.253,2.352-4.45,3.581-6.629c1.245-2.182,2.497-4.304,3.881-6.455l0.004-0.006c1.942-3.02,5.965-3.894,8.985-1.952
				C121.734,138.256,122.635,142.119,120.904,145.106z"/>
			<path style="fill:#263238;" d="M116.848,133.041c8.143-0.613,12.14,5.144,8.263,14.62c-2.131,5.229-5.481,11.434-7.935,15.762
				c-0.645,1.148-1.239,2.169-1.722,2.992l-16.318-12.712C102.306,146.194,111.401,133.452,116.848,133.041z"/>
			<path style="opacity:0.3;" d="M115.07,142.312c5.401-3.497-2.106,12.926-5.203,19.752l-4.794-3.737
				C106.365,153.463,110.923,144.998,115.07,142.312z"/>
			<g>
				<polygon style="fill:#FF8B7B;" points="137.89,408.137 129.901,407.527 130.129,388.935 138.118,389.545 				"/>
				<path style="fill:#263238;" d="M129.545,406.57l8.976,0.685c0.327,0.025,0.557,0.271,0.555,0.591l-0.051,7.139
					c-0.005,0.741-0.744,1.385-1.496,1.315c-3.121-0.292-4.601-0.59-8.548-0.891c-2.428-0.185-12.77-0.721-16.123-0.977
					c-3.28-0.25-3.031-3.566-1.589-3.758c6.465-0.861,14.49-2.116,16.867-3.717C128.564,406.668,129.067,406.533,129.545,406.57z"/>
				<g>
					<polygon style="opacity:0.2;" points="138.12,389.551 130.128,388.94 130.014,398.524 138.006,399.134 					"/>
				</g>
				<g>
					<path style="fill:#407BFF;" d="M124.592,203.128c0,0-4.907,60.626-5.177,83.612c-0.296,25.172,7.329,109.219,7.329,109.219
						l14.633,1.117c0,0-1.094-81.514,1.485-106.262c2.799-26.86,8.86-85.615,8.86-85.615L124.592,203.128z"/>
					<path style="opacity:0.3;fill:#FFFFFF;" d="M124.592,203.128c0,0-4.907,60.626-5.177,83.612
						c-0.296,25.172,7.329,109.219,7.329,109.219l14.633,1.117c0,0-1.094-81.514,1.485-106.262c2.799-26.86,8.86-85.615,8.86-85.615
						L124.592,203.128z"/>
				</g>
				<polygon style="fill:#407BFF;" points="141.967,397.121 126.155,395.914 125.658,390.291 143.05,392.491 				"/>
				<path style="fill:#407BFF;" d="M126.618,407.746c0.738,0.056,1.565-0.034,2.148-0.123c0.073-0.011,0.132-0.064,0.15-0.135
					c0.019-0.072-0.006-0.147-0.063-0.194c-0.243-0.197-2.399-1.917-3.401-1.608c-0.232,0.071-0.395,0.242-0.47,0.494
					c-0.124,0.416-0.068,0.762,0.164,1.029C125.443,407.548,125.999,407.699,126.618,407.746z M128.273,407.314
					c-1.449,0.176-2.498,0.051-2.846-0.349c-0.144-0.165-0.172-0.386-0.087-0.676c0.04-0.133,0.111-0.212,0.224-0.246
					C126.104,405.878,127.387,406.653,128.273,407.314z"/>
				<path style="fill:#407BFF;" d="M128.724,407.624c0.029,0.002,0.059-0.002,0.087-0.014c0.059-0.025,0.101-0.079,0.11-0.142
					c0.014-0.097,0.351-2.382-0.402-3.221c-0.203-0.226-0.463-0.333-0.771-0.32c-0.371,0.016-0.625,0.198-0.714,0.512
					c-0.244,0.858,0.833,2.617,1.597,3.152C128.659,407.611,128.691,407.622,128.724,407.624z M127.854,404.301
					c0.155,0.012,0.283,0.076,0.389,0.194c0.45,0.5,0.425,1.822,0.351,2.579c-0.654-0.64-1.361-1.969-1.201-2.531
					c0.03-0.107,0.101-0.232,0.374-0.244C127.797,404.298,127.826,404.299,127.854,404.301z"/>
			</g>
			<path style="fill:#407BFF;" d="M108.993,201.937l42.729,3.262c0.563-3.794,0.529-16.284,2.268-32.052
				c1.169-10.588,3.142-22.653,6.631-34.548c0.253-0.848,0.505-1.685,0.769-2.532c0,0-2.136-0.608-5.208-1.297
				c-2.55-0.574-5.756-1.209-8.914-1.602c-5.435-0.675-13.322-1.451-18.158-1.386c-2.809,0.046-5.567,0.302-7.773,0.556
				c-2.819,0.349-4.49,0.703-4.49,0.703S107.522,155.911,108.993,201.937z"/>
			<path style="fill:#FF8B7B;" d="M110.887,169.473c0,0,1.656-2.388,3.168-3.112c1.078-0.516,1.9-1.034,2.386-1.367
				c0.337-0.231,0.791,0.008,0.816,0.418c0.037,0.628-0.295,1.632-1.945,3.005c-0.265,1.967-3.331,3.913-3.331,3.913
				L110.887,169.473z"/>
			<polygon style="opacity:0.3;" points="117.047,174.741 125.925,175.419 121.115,157.438 112.236,156.76 			"/>
			<polygon style="fill:#FFFFFF;" points="116.44,174.695 125.319,175.373 120.509,157.392 111.63,156.714 			"/>
			<path style="opacity:0.3;" d="M153.99,173.151c1.169-10.588,3.142-22.653,6.632-34.548c-2.839-0.466-7.74-0.559-8.864,3.995
				C150.546,147.491,150.847,159.242,153.99,173.151z"/>
			<path style="fill:#FF8B7B;" d="M164.394,142.314c0.448,1.394,0.804,2.605,1.147,3.909c0.352,1.281,0.653,2.571,0.948,3.864
				c0.568,2.592,1.087,5.2,1.448,7.866c0.371,2.667,0.661,5.36,0.753,8.138c0.101,2.783,0.029,5.629-0.373,8.618l-0.043,0.322
				c-0.168,1.251-0.75,2.348-1.585,3.169c-0.687,0.675-1.35,1.125-1.962,1.483c-0.586,0.325-1.16,0.589-1.659,0.77
				c-1.024,0.385-1.915,0.591-2.755,0.74c-1.67,0.29-3.147,0.372-4.589,0.409c-2.864,0.061-5.539-0.182-8.18-0.472
				c-2.635-0.322-5.216-0.742-7.77-1.258c-2.562-0.526-5.059-1.099-7.61-1.851c-1.722-0.508-2.707-2.316-2.198-4.038
				c0.414-1.402,1.689-2.315,3.078-2.332l0.062,0l7.456-0.083c2.48-0.038,4.944-0.088,7.362-0.212c2.411-0.1,4.801-0.302,6.982-0.61
				c1.078-0.159,2.12-0.367,2.919-0.626c0.392-0.129,0.723-0.268,0.869-0.361c0.091-0.047,0.079-0.076,0.042-0.062
				c-0.076,0.025-0.226,0.098-0.466,0.326l-1.629,3.491c0.065-2.052-0.095-4.277-0.325-6.54c-0.259-2.27-0.657-4.593-1.083-6.921
				c-0.454-2.328-0.961-4.676-1.521-7.014c-0.267-1.172-0.572-2.339-0.861-3.504l-0.885-3.401l-0.051-0.195
				c-0.904-3.474,1.18-7.022,4.653-7.926C159.919,137.142,163.342,139.064,164.394,142.314z"/>
			<path style="fill:#263238;" d="M161.391,136.067c-7.819-2.451-12.495,2.551-11.193,12.744c0.711,5.622,2.703,12.379,4.182,17.157
				l17.232-5.301C170.108,152.624,166.621,137.708,161.391,136.067z"/>
			<path style="fill:#FF8B7B;" d="M129.977,131.783c5.366-0.847,6.516-4.044,6.406-7.662c-0.016-0.879-0.105-1.797-0.237-2.707
				l6.993-4.994l5.136-3.662c-1.748,5.753-3.997,16.301-0.308,20.506c0,0-7.158,5.28-15.868,8.681
				c-1.376,0.537-2.969-0.178-3.404-1.59C127.028,134.94,129.977,131.783,129.977,131.783z"/>
			<path style="opacity:0.2;" d="M136.145,121.414c0.133,0.91,0.222,1.827,0.237,2.707c2.502-0.308,6.382-2.223,6.931-4.981
				c0.188-0.94-0.156-2.057-0.176-2.72L136.145,121.414z"/>
			<path style="fill:#FF8B7B;" d="M148.688,100.919c0.376,7.972,0.998,12.609-2.527,17.208c-5.302,6.918-15.387,4.618-18.117-3.018
				c-2.457-6.874-2.66-18.756,4.684-22.951C139.963,88.025,148.311,92.947,148.688,100.919z"/>
			<path style="fill:#263238;" d="M145.352,96.082c-2.253,4.073-0.539,7.056-0.539,7.056l0.417-1.917c0,0,2.841,3.017,2.035,6.478
				C152.21,105.051,152.77,94.751,145.352,96.082z"/>
			<path style="fill:#263238;" d="M149.505,97.302c-9.003,1.977-14.068,1.073-15.667,0.725c3.768-0.254,4.758-1.964,4.758-1.964
				s-8.982,2.205-10.829,1.5c1.813-5.486,6.025-8.009,14.536-7.676C150.813,90.221,149.505,97.302,149.505,97.302z"/>
			<path style="fill:#FF8B7B;" d="M152.521,108.344c-0.913,1.971-2.509,3.409-4.014,4.09c-2.264,1.023-3.386-1.043-2.748-3.486
				c0.574-2.199,2.444-5.381,4.712-5.37C152.705,103.589,153.564,106.09,152.521,108.344z"/>
			<path style="fill:#263238;" d="M137.018,104.753c0.07,0.644-0.212,1.212-0.63,1.269c-0.418,0.057-0.813-0.419-0.883-1.063
				c-0.07-0.644,0.212-1.212,0.63-1.269C136.553,103.633,136.948,104.109,137.018,104.753z"/>
			<path style="fill:#263238;" d="M129.792,105.738c0.07,0.644-0.212,1.212-0.63,1.269c-0.418,0.057-0.813-0.419-0.883-1.063
				c-0.07-0.644,0.212-1.212,0.63-1.269C129.327,104.619,129.722,105.094,129.792,105.738z"/>
			<path style="fill:#FF5652;" d="M132.124,105.745c0,0-1.051,3.912-2.456,5.922c1.246,0.909,3.117,0.161,3.117,0.161
				L132.124,105.745z"/>
			<path style="fill:#263238;" d="M135.584,113.206c2.458-0.639,3.423-2.534,3.466-2.622c0.046-0.093,0.008-0.208-0.086-0.255
				c-0.094-0.048-0.207-0.009-0.254,0.084c-0.011,0.021-1.106,2.18-3.918,2.561c-0.105,0.014-0.176,0.11-0.16,0.214
				c0.015,0.104,0.111,0.177,0.215,0.162C135.106,113.316,135.352,113.267,135.584,113.206z"/>
			<path style="fill:#263238;" d="M138.998,102.099c0.06-0.016,0.117-0.046,0.165-0.092c0.15-0.145,0.155-0.385,0.009-0.537
				c-1.441-1.504-3.165-1.165-3.237-1.149c-0.197,0.021-0.335,0.243-0.291,0.449c0.044,0.205,0.246,0.337,0.45,0.295
				c0.072-0.014,1.4-0.253,2.532,0.929C138.726,102.097,138.869,102.132,138.998,102.099z"/>
			<path style="fill:#263238;" d="M126.414,103.66c0.117-0.031,0.217-0.117,0.26-0.239c0.57-1.626,1.927-2.005,1.94-2.008
				c0.202-0.054,0.321-0.262,0.266-0.464c-0.055-0.202-0.262-0.323-0.464-0.27c-0.001,0-0.002,0-0.002,0.001
				c-0.072,0.019-1.756,0.489-2.456,2.485c-0.069,0.197,0.035,0.415,0.233,0.486C126.266,103.676,126.343,103.678,126.414,103.66z"
				/>
			<path style="fill:#FF8B7B;" d="M134.798,172.371l-8.203-5.067l0.754,10.084c0,0,6.869,2.462,7.815-1.18L134.798,172.371z"/>
			<path style="fill:#FF8B7B;" d="M129.199,168.912c0,0-1.701-2.382-3.226-3.102c-1.087-0.513-2.12-1.434-2.612-1.765
				c-0.342-0.23-0.791,0.011-0.808,0.421c-0.026,0.628,0.525,2.037,2.201,3.404c0.302,1.966,3.404,3.903,3.404,3.903
				L129.199,168.912z"/>
			<path style="fill:#FF8B7B;" d="M119.501,168.154l0.725,6.311c0.063,0.544,0.447,0.998,0.973,1.15l6.149,1.773l-0.76-9.996
				l-5.591-0.716C120.135,166.564,119.402,167.289,119.501,168.154z"/>
			<path style="fill:#FF8B7B;" d="M106.963,171.071l7.107-3.595l-0.176,8.885c0,0-7.375,2.199-7.815-1.548L106.963,171.071z"/>
			<path style="fill:#FF8B7B;" d="M117.183,167.811l0.001,7.016c0,0.396-0.265,0.74-0.646,0.84l-2.644,0.694l0.176-8.885
				l2.015-0.519C116.64,166.814,117.183,167.236,117.183,167.811z"/>
		</g>
	</g>
</g>
<g id="Obj_2">
	<g>
		<g>
			<path style="fill:#407BFF;" d="M333.161,290.907c6.711,6.682,5.739,13.464,0.958,18.266c-4.78,4.801-11.559,5.803-18.27-0.879
				c-6.711-6.682-10.812-18.516-6.032-23.317C314.598,280.175,326.45,284.225,333.161,290.907z"/>
			<path style="fill:#407BFF;" d="M356.911,334.742c-8.295,1.463-13.293-2.461-15.031-8.083c-1.738-5.622,0.441-10.813,8.736-12.276
				c8.295-1.463,19.564,1.355,21.302,6.977C373.657,326.982,365.206,333.279,356.911,334.742z"/>
			<path style="fill:#407BFF;" d="M313.126,347.868c5.978,1.976,10.098-0.389,11.989-4.361c1.891-3.972,0.838-8.046-5.14-10.022
				c-5.978-1.976-14.617-1.104-16.509,2.867C301.575,340.324,307.148,345.892,313.126,347.868z"/>
			<path style="fill:#407BFF;" d="M361.553,290.524c-5.744,7.861-12.835,8.51-18.515,5.114c-5.681-3.395-7.801-9.549-2.056-17.41
				c5.744-7.861,17.177-14.453,22.858-11.057C369.521,270.566,367.298,282.663,361.553,290.524z"/>
			<path style="fill:#263238;" d="M328.09,393.605c-0.528,0-0.97-0.414-0.998-0.948c-3.076-59.256,19.372-105.289,19.599-105.747
				c0.246-0.495,0.845-0.699,1.34-0.451c0.495,0.245,0.697,0.845,0.452,1.34c-0.225,0.453-22.442,46.044-19.394,104.755
				c0.029,0.552-0.395,1.021-0.947,1.051C328.125,393.605,328.107,393.605,328.09,393.605z"/>
			<path style="fill:#263238;" d="M336.391,319.645c-0.032,0-0.063-0.002-0.096-0.005c-0.549-0.052-0.953-0.54-0.901-1.089
				c0.012-0.13,1.115-13.039-7.735-17.274c-0.498-0.238-0.709-0.836-0.47-1.334c0.238-0.499,0.837-0.707,1.333-0.471
				c10.116,4.842,8.918,18.681,8.863,19.268C337.336,319.257,336.9,319.645,336.391,319.645z"/>
			<path style="fill:#263238;" d="M329.143,357.676c-0.515,0-0.952-0.396-0.996-0.917c-0.01-0.124-1.155-12.409-11.932-15.826
				c-0.526-0.167-0.818-0.728-0.651-1.255c0.167-0.528,0.73-0.819,1.255-0.651c12.073,3.827,13.31,17.433,13.32,17.569
				c0.044,0.551-0.365,1.032-0.915,1.077C329.198,357.675,329.17,357.676,329.143,357.676z"/>
			<path style="fill:#263238;" d="M331.305,342.383c-0.08,0-0.16-0.009-0.24-0.029c-0.536-0.132-0.864-0.674-0.732-1.21
				c4.681-18.991,19.445-18.538,19.597-18.536c0.552,0.025,0.979,0.492,0.954,1.044c-0.025,0.553-0.494,0.986-1.044,0.954
				c-0.536-0.018-13.289-0.331-17.565,17.017C332.162,342.078,331.754,342.383,331.305,342.383z"/>
		</g>
		<path style="fill:#407BFF;" d="M369.651,384.897c0,12.275-5.615,23.257-14.442,30.556c-0.631,0.522-1.369,0.781-2.112,0.781
			h-47.452c-0.743,0-1.481-0.259-2.112-0.781c-8.827-7.299-14.442-18.281-14.442-30.556c0-3.892,0.561-7.655,1.618-11.204
			c0.003-0.011,0.007-0.023,0.01-0.034c0.598-2.013,2.096-3.3,3.727-3.3h69.85c1.631,0,3.13,1.287,3.727,3.3
			c0.003,0.011,0.007,0.023,0.01,0.034C369.09,377.242,369.651,381.005,369.651,384.897z"/>
		<g>
			<path style="fill:#FFFFFF;" d="M369.532,387.812c-22.954,7.457-45.602,16.249-67.583,26.26c0.274,0.252,0.561,0.49,0.841,0.734
				c21.686-9.858,44.014-18.535,66.648-25.905C369.475,388.54,369.505,388.177,369.532,387.812z"/>
			<path style="fill:#FFFFFF;" d="M355.149,370.359h-1.734c-18.481,13.07-36.454,27.172-53.968,41.184
				c0.225,0.246,0.448,0.493,0.679,0.734C317.975,397.998,336.305,383.627,355.149,370.359z"/>
			<path style="fill:#FFFFFF;" d="M343.903,416.234c8.299-6.802,16.442-13.836,24.376-21.047c0.156-0.578,0.304-1.159,0.434-1.747
				c-8.568,7.826-17.385,15.448-26.384,22.794H343.903z"/>
			<path style="fill:#FFFFFF;" d="M343.953,370.359c-18.868,6.187-36.566,15.966-53.068,26.286c0.103,0.328,0.205,0.657,0.316,0.982
				c17.383-10.882,36.09-21.172,56.067-27.268H343.953z"/>
			<path style="fill:#FFFFFF;" d="M289.697,378.103c5.326-2.812,10.773-5.391,16.317-7.743h-2.5
				c-4.602,2.011-9.139,4.168-13.589,6.496C289.839,377.268,289.77,377.686,289.697,378.103z"/>
			<path style="fill:#FFFFFF;" d="M314.54,370.359h-1.474l-23.341,21.58c0.07,0.385,0.151,0.766,0.232,1.148L314.54,370.359z"/>
		</g>
	</g>
</g>
</svg>
