<?xml version="1.0" encoding="utf-8"?>
<!-- Generator: Adobe Illustrator 27.5.0, SVG Export Plug-In . SVG Version: 6.00 Build 0)  -->
<svg version="1.1" xmlns="http://www.w3.org/2000/svg" xmlns:xlink="http://www.w3.org/1999/xlink" x="0px" y="0px"
	 viewBox="0 0 3710 3710" style="enable-background:new 0 0 3710 3710;" xml:space="preserve">
<g id="Background">
	<g>
		<g>
			<rect style="fill:#FFFFFF;" width="3710" height="3710"/>
		</g>
	</g>
</g>
<g id="Illustration">
	<g>
		<path style="fill:#F4F7FA;" d="M3189.92,1539.202c-30.302-373.578-45.452-560.367-115.971-681.224
			c-201.913-346.033-788.948-428.324-1159.707-396.773c-496.359,42.238-1064.194,327.577-1314.141,878.501
			c-227.021,500.394-122.342,1066.798,219.728,1437.316c627.066,679.217,1920.57,557.948,2236.545,112.264
			c126.103-177.869,135.192-461.969,148.545-879.295C3211.347,1809.096,3198.824,1649.007,3189.92,1539.202z"/>
		<g>
			<g>
				<g>
					<defs>
						<path id="SVGID_1_" d="M2952.064,683.563c-32.092-26.551-80.77-41.013-121.919-43.928
							c-291.695-20.666-334.259,589.041-289.553,725.301c44.706,136.26,15.739,181.005-213.988,252.292
							s-119.521,208.55-91.517,288.821c28.004,80.27,83.448,148.077-84.022,227.837c-167.47,79.76-109.273,129.176-109.273,129.176
							s308.844,315.912,291.785,214.768c-17.06-101.144,13.846-253.865,290.748-265.465c119.267-4.998,301.91-61.893,342.354-189.6
							c9.418-29.738,15.97-75.16,8.806-105.939c-9.939-42.696-37.962-76.342-53.524-116.528
							c-36.265-93.649,54.686-162.233,107.028-224.827c27.325-32.678,54.638-66.194,75.564-103.453
							c43.446-77.355,27.183-160.318-20.127-231.625c-22.686-34.193-54.213-70.474-64.108-111.258
							c-10.628-43.812-1.365-103.671,1.162-148.744c1.981-35.347,5.345-70.561,3.359-105.997
							C3021.145,808.479,3005.712,727.949,2952.064,683.563z"/>
					</defs>
					
						<linearGradient id="SVGID_00000096036472610537007150000015054103038286241691_" gradientUnits="userSpaceOnUse" x1="2354.4834" y1="2474.6184" x2="3084.8721" y2="501.9938">
						<stop  offset="0.0036" style="stop-color:#E38DDD"/>
						<stop  offset="1" style="stop-color:#9571F6"/>
					</linearGradient>
					
						<use xlink:href="#SVGID_1_"  style="overflow:visible;fill:url(#SVGID_00000096036472610537007150000015054103038286241691_);"/>
					<clipPath id="SVGID_00000082370780832876837570000017776222786349717379_">
						<use xlink:href="#SVGID_1_"  style="overflow:visible;"/>
					</clipPath>
					<g style="opacity:0.8;clip-path:url(#SVGID_00000082370780832876837570000017776222786349717379_);">
						<g>
							<path style="fill:#FFFFFF;" d="M2017.506,2440.368c-1.996,0.718-4.266-0.13-5.276-2.063c-1.104-2.111-0.288-4.717,1.824-5.82
								c1.296-0.678,131.317-69.07,276.359-181.708c133.646-103.788,307.756-267.443,378.251-457.69
								c58.877-158.894,112.571-421.568,147.317-720.668c31.156-268.207,36.077-466.568,22.835-503.393
								c-0.806-2.242,0.357-4.712,2.599-5.518c2.242-0.806,4.712,0.357,5.519,2.599c15.489,43.075,5.657,265.912-22.384,507.307
								c-34.821,299.756-88.691,563.158-147.795,722.67c-71.218,192.198-246.592,357.106-381.171,461.602
								c-145.638,113.083-276.232,181.764-277.533,182.444C2017.872,2440.223,2017.69,2440.302,2017.506,2440.368z"/>
						</g>
						<g>
							<path style="fill:#FFFFFF;" d="M2815.505,1124.411c-2.23,0.802-4.503,0.18-5.32-2.048
								c-1.083-2.95-109.815-295.502-250.041-361.554c-2.155-1.014-3.032-3.454-2.017-5.608c1.015-2.156,3.607-3.014,5.763-1.998
								c143.431,67.56,249.91,353.975,254.381,366.156c0.82,2.236-0.498,4.237-2.74,5.043
								C2815.522,1124.405,2815.513,1124.408,2815.505,1124.411z"/>
						</g>
						<g>
							<path style="fill:#FFFFFF;" d="M2762.48,1463.679c-1.665,0.599-3.598,0.127-4.789-1.317
								c-1.514-1.838-1.252-4.557,0.586-6.072c0.797-0.656,80.857-66.332,179.64-121.443
								c133.472-74.461,235.759-95.247,304.025-61.779c2.139,1.048,3.022,3.633,1.974,5.772c-1.051,2.139-3.633,3.022-5.772,1.974
								c-157.057-76.996-471.226,179.534-474.381,182.134C2763.37,1463.273,2762.935,1463.516,2762.48,1463.679z"/>
						</g>
						<g>
							<path style="fill:#FFFFFF;" d="M2413.924,2157.151c-0.436,0.157-0.904,0.245-1.394,0.252
								c-2.382,0.037-4.343-1.864-4.378-4.246c-0.021-1.252-2.238-126.775-28.512-259.029
								c-24.089-121.259-73.828-273.151-173.989-308.15c-2.249-0.786-3.435-3.246-2.649-5.495c0.784-2.25,3.246-3.437,5.495-2.649
								c83.519,29.184,143.954,135.074,179.626,314.727c26.411,133.006,28.635,259.205,28.654,260.465
								C2416.806,2154.917,2415.611,2156.544,2413.924,2157.151z"/>
						</g>
						<g>
							<path style="fill:#FFFFFF;" d="M2592.148,1954.364c-1.747,0.628-3.767,0.071-4.926-1.496
								c-1.417-1.915-1.012-4.617,0.903-6.032c13.885-10.266,341.528-251.141,469.298-228.138c2.345,0.422,3.904,2.665,3.481,5.009
								c-0.422,2.345-2.665,3.905-5.009,3.481c-124.152-22.349-459.271,224.092-462.641,226.583
								C2592.906,1954.028,2592.534,1954.225,2592.148,1954.364z"/>
						</g>
					</g>
				</g>
			</g>
			<g>
				<g>
					<defs>
						<path id="SVGID_00000120558146685359153340000008991942004045277833_" d="M3208.071,1581.591
							c-21.214-35.843-62.128-65.924-99.863-82.591c-267.495-118.149-513.858,441.19-517.896,584.539
							c-4.038,143.349-46.437,175.653-286.734,165.002c-240.297-10.651-183.039,155.805-183.848,240.817
							c-0.809,85.011,28.42,167.579-156.16,185.967c-184.58,18.387-146.537,84.581-146.537,84.581s183.729,401.782,201.9,300.832
							s98.931-234.205,363.424-151.425c113.923,35.655,305.044,43.917,386.315-62.571c18.925-24.797,40.46-65.323,44.133-96.71
							c5.095-43.541-9.891-84.684-10.937-127.765c-2.437-100.396,106.356-134.158,176.79-175.349
							c36.771-21.504,73.814-43.802,106.113-71.782c67.058-58.091,79.826-141.663,59.436-224.772
							c-9.778-39.853-27.169-84.661-22.679-126.388c4.824-44.824,33.796-98.017,51.424-139.577
							c13.825-32.592,28.906-64.59,39.028-98.607C3230.809,1722.514,3243.536,1641.512,3208.071,1581.591z"/>
					</defs>
					
						<linearGradient id="SVGID_00000129916888724855133100000014328473682383389861_" gradientUnits="userSpaceOnUse" x1="1813.7922" y1="2279.8706" x2="3230.5176" y2="2279.8706">
						<stop  offset="0" style="stop-color:#FF9085"/>
						<stop  offset="1" style="stop-color:#FB6FBB"/>
					</linearGradient>
					
						<use xlink:href="#SVGID_00000120558146685359153340000008991942004045277833_"  style="overflow:visible;fill:url(#SVGID_00000129916888724855133100000014328473682383389861_);"/>
					<clipPath id="SVGID_00000153701388326283571650000005402996107931625660_">
						<use xlink:href="#SVGID_00000120558146685359153340000008991942004045277833_"  style="overflow:visible;"/>
					</clipPath>
					<g style="opacity:0.8;clip-path:url(#SVGID_00000153701388326283571650000005402996107931625660_);">
						<g>
							<path style="fill:#FFFFFF;" d="M1734.184,2918.535c-2.122,0-3.971-1.566-4.267-3.727c-0.324-2.36,1.326-4.537,3.686-4.86
								c1.449-0.199,146.942-20.561,321.543-77.477c160.882-52.443,380.098-147.53,510.809-302.701
								c109.169-129.599,248.579-358.609,382.482-628.309c120.072-241.843,191.823-426.839,191.823-465.971
								c0-2.383,1.931-4.313,4.313-4.313c2.383,0,4.313,1.931,4.313,4.313c0,45.776-84.654,252.141-192.723,469.807
								c-134.197,270.291-274.018,499.927-383.61,630.031c-132.052,156.762-352.882,252.6-514.881,305.395
								c-175.311,57.132-321.442,77.572-322.896,77.772C1734.577,2918.522,1734.379,2918.535,1734.184,2918.535z"/>
						</g>
						<g>
							<path style="fill:#FFFFFF;" d="M2930.396,1951.11c-2.37,0-4.298-1.796-4.313-4.169
								c-0.021-3.142-3.347-315.45-112.951-425.055c-1.685-1.683-1.685-4.387,0-6.07c1.685-1.685,4.414-1.67,6.099,0.015
								c112.11,112.108,115.393,418.072,115.478,431.047c0.016,2.381-1.902,4.232-4.285,4.232
								C2930.414,1951.11,2930.404,1951.11,2930.396,1951.11z"/>
						</g>
						<g>
							<path style="fill:#FFFFFF;" d="M2765.699,2251.539c-1.769,0-3.429-1.098-4.061-2.86c-0.803-2.242,0.364-4.712,2.606-5.515
								c0.972-0.348,98.532-35.06,210.136-53.494c150.795-24.906,254.081-9.854,306.995,44.739c1.658,1.71,1.615,4.441-0.096,6.099
								c-1.713,1.657-4.441,1.615-6.099-0.095c-121.739-125.599-504.179,9.493-508.028,10.872
								C2766.674,2251.458,2766.183,2251.539,2765.699,2251.539z"/>
						</g>
						<g>
							<path style="fill:#FFFFFF;" d="M2203.051,2786.161c-0.463,0-0.934-0.076-1.397-0.235c-2.254-0.771-3.456-3.224-2.683-5.477
								c0.405-1.185,40.791-120.054,60.819-253.397c18.362-122.257,22.954-282.02-59.456-348.846
								c-1.851-1.501-2.134-4.216-0.633-6.067c1.5-1.852,4.218-2.136,6.067-0.633c68.717,55.724,89.757,175.817,62.535,356.942
								c-20.153,134.097-60.763,253.604-61.171,254.796C2206.519,2785.034,2204.844,2786.161,2203.051,2786.161z"/>
						</g>
						<g>
							<path style="fill:#FFFFFF;" d="M2439.38,2655.643c-1.856,0-3.569-1.208-4.129-3.075c-0.685-2.282,0.609-4.687,2.891-5.371
								c16.54-4.962,406.362-120.762,518.811-55.882c2.064,1.191,2.772,3.829,1.581,5.891c-1.191,2.064-3.829,2.773-5.892,1.581
								c-109.266-63.04-508.007,55.468-512.021,56.671C2440.207,2655.584,2439.79,2655.643,2439.38,2655.643z"/>
						</g>
					</g>
				</g>
			</g>
		</g>
		<g>
			<g>
				<path style="fill:#D8DEE8;" d="M2311.393,573.956l-3.082,22.059c-10.228,0.467-20.29,1.786-30.08,3.985l-8.337-20.579
					c-2.275-5.615-8.697-8.278-14.346-5.951l-35.369,14.571c-5.662,2.333-8.419,8.785-6.155,14.414l8.381,20.84
					c-8.569,5.457-16.673,11.636-24.206,18.484l-17.784-13.784c-4.795-3.717-11.755-2.797-15.548,2.055l-23.762,30.4
					c-3.807,4.87-3.003,11.846,1.799,15.579l17.833,13.865c-4.75,8.919-8.741,18.343-11.962,28.166l-22.63-2.968
					c-6.075-0.797-11.735,3.515-12.643,9.633l-5.688,38.345c-0.911,6.144,3.289,11.777,9.382,12.576l22.696,2.977
					c0.269,10.351,1.4,20.535,3.413,30.444l-21.298,8.88c-5.743,2.394-8.565,8.999-6.3,14.754l14.189,36.055
					c2.273,5.777,8.783,8.509,14.538,6.099l21.311-8.922c5.356,8.719,11.469,16.939,18.253,24.579l-14.197,18.438
					c-3.844,4.992-3.021,12.133,1.842,15.947l30.442,23.881c4.873,3.824,11.937,2.861,15.774-2.149l14.03-18.316
					c8.961,4.774,18.444,8.743,28.335,11.911l-3.194,22.861c-0.874,6.258,3.398,11.988,9.545,12.794l38.433,5.041
					c6.146,0.806,11.822-3.619,12.678-9.879l3.102-22.688c10.449-0.446,20.721-1.797,30.711-4.05l8.43,20.961
					c2.341,5.82,8.891,8.569,14.629,6.137l35.842-15.187c5.725-2.426,8.457-9.1,6.106-14.905l-8.431-20.811
					c8.75-5.645,16.989-12.061,24.634-19.153l17.517,13.619c4.895,3.806,11.916,2.849,15.676-2.136l23.473-31.115
					c3.747-4.967,2.818-12.063-2.07-15.852l-17.36-13.455c4.734-9.175,8.659-18.864,11.78-28.946l21.705,2.847
					c6.093,0.799,11.673-3.55,12.462-9.711l4.926-38.445c0.786-6.135-3.503-11.751-9.578-12.548l-21.641-2.839
					c-0.447-10.478-1.766-20.764-3.989-30.746l20.073-8.404c5.644-2.363,8.314-8.883,5.965-14.561l-14.662-35.44
					c-2.341-5.657-8.803-8.337-14.436-5.988l-20.186,8.416c-5.497-8.634-11.725-16.768-18.628-24.296l13.337-17.411
					c3.711-4.845,2.804-11.778-2.022-15.487l-30.154-23.166c-4.816-3.7-11.733-2.786-15.451,2.042l-13.424,17.433
					c-8.904-4.618-18.304-8.462-28.106-11.505l2.993-21.892c0.823-6.024-3.393-11.545-9.416-12.336l-37.671-4.941
					C2317.799,563.696,2312.234,567.935,2311.393,573.956z M2178.58,752.649c10.887-75.759,80.421-128.872,155.368-119.042
					c74.946,9.83,127.587,78.968,117.521,154.835c-10.127,76.327-79.805,130.485-155.575,120.547
					C2220.124,899.05,2167.627,828.867,2178.58,752.649z"/>
			</g>
			<g>
				<path style="fill:#D8DEE8;" d="M1733.768,562l-4.764,34.107c-15.814,0.722-31.372,2.761-46.508,6.162l-12.89-31.818
					c-3.517-8.681-13.447-12.799-22.182-9.2l-54.686,22.529c-8.754,3.607-13.017,13.584-9.517,22.287l12.958,32.222
					c-13.249,8.437-25.779,17.992-37.426,28.58l-27.496-21.312c-7.414-5.747-18.176-4.325-24.039,3.178l-36.74,47.004
					c-5.886,7.53-4.644,18.315,2.782,24.087l27.573,21.437c-7.343,13.791-13.516,28.361-18.495,43.549l-34.989-4.589
					c-9.393-1.232-18.145,5.434-19.548,14.894l-8.794,59.287c-1.409,9.5,5.085,18.209,14.506,19.444l35.092,4.603
					c0.416,16.005,2.164,31.75,5.276,47.071l-32.929,13.729c-8.88,3.702-13.242,13.914-9.741,22.812l21.939,55.747
					c3.515,8.932,13.58,13.156,22.478,9.43l32.949-13.795c8.281,13.481,17.734,26.19,28.222,38.003l-21.951,28.508
					c-5.943,7.719-4.671,18.759,2.848,24.657l47.069,36.924c7.535,5.912,18.457,4.423,24.389-3.323l21.692-28.319
					c13.855,7.381,28.518,13.519,43.81,18.416l-4.938,35.346c-1.352,9.676,5.255,18.535,14.758,19.782l59.424,7.794
					c9.502,1.246,18.278-5.596,19.602-15.275l4.796-35.079c16.156-0.69,32.038-2.778,47.484-6.262l13.034,32.409
					c3.619,8.999,13.747,13.249,22.618,9.489l55.418-23.482c8.852-3.75,13.076-14.07,9.44-23.045l-13.035-32.177
					c13.529-8.729,26.268-18.648,38.088-29.613l27.083,21.057c7.569,5.885,18.423,4.405,24.237-3.303l36.293-48.109
					c5.793-7.679,4.357-18.652-3.2-24.51l-26.842-20.804c7.319-14.186,13.388-29.167,18.214-44.755l33.559,4.402
					c9.421,1.236,18.048-5.489,19.269-15.014l7.615-59.441c1.215-9.485-5.416-18.169-14.809-19.401l-33.46-4.389
					c-0.69-16.2-2.73-32.105-6.167-47.539l31.036-12.995c8.727-3.653,12.856-13.734,9.223-22.513l-22.67-54.796
					c-3.619-8.746-13.61-12.89-22.321-9.258l-31.211,13.013c-8.499-13.349-18.128-25.926-28.802-37.565l20.621-26.92
					c5.738-7.491,4.336-18.211-3.127-23.945l-46.622-35.817c-7.447-5.721-18.141-4.308-23.89,3.158l-20.755,26.954
					c-13.766-7.141-28.301-13.083-43.456-17.788l4.628-33.848c1.273-9.314-5.245-17.851-14.559-19.073l-58.246-7.64
					C1743.673,546.136,1735.069,552.69,1733.768,562z M1528.419,838.287c16.833-117.136,124.343-199.256,240.223-184.057
					c115.879,15.199,197.269,122.096,181.706,239.399c-15.658,118.012-123.391,201.75-240.543,186.384
					C1592.652,1064.646,1511.484,956.132,1528.419,838.287z"/>
			</g>
		</g>
		<g>
			
				<linearGradient id="SVGID_00000165210680347771750500000010736054117506474151_" gradientUnits="userSpaceOnUse" x1="1298.5149" y1="1945.8887" x2="880.3348" y2="1991.5082" gradientTransform="matrix(-1 0 0 1 3475.8816 0)">
				<stop  offset="0" style="stop-color:#444B8C"/>
				<stop  offset="0.9964" style="stop-color:#26264F"/>
			</linearGradient>
			<path style="fill:url(#SVGID_00000165210680347771750500000010736054117506474151_);" d="M1678.038,892.301l-254.762,2117.537
				c-3.819,31.749,18.063,60.211,48.717,63.252l1061.119,116.495c65.003,4.043,100.594-29.167,104.605-62.928l267.471-2251.295
				c3.989-33.573-27.902-63.977-93.182-63.978l-1070.773,22.552C1710.236,834.455,1681.839,860.718,1678.038,892.301z"/>
			
				<linearGradient id="SVGID_00000094618583192027033790000004669721642968163470_" gradientUnits="userSpaceOnUse" x1="1666.9709" y1="891.7824" x2="632.9328" y2="4412.083" gradientTransform="matrix(-1 0 0 1 3475.8816 0)">
				<stop  offset="0" style="stop-color:#444B8C"/>
				<stop  offset="0.9964" style="stop-color:#26264F"/>
			</linearGradient>
			<path style="fill:url(#SVGID_00000094618583192027033790000004669721642968163470_);" d="M1630.281,888.656L1374.12,3016.785
				c-3.841,31.909,18.116,60.517,48.883,63.581l1100.083,109.525c34.49,3.433,66.096-21.516,70.13-55.452L2862.19,871.51
				c4.01-33.746-21.322-60.871-56.188-60.283l-1112.276,18.767C1662.611,830.519,1634.102,856.915,1630.281,888.656z"/>
			<path style="fill:#D8DEE8;" d="M1651.155,1006.042l-237.428,1973.197c-3.587,29.812,16.976,56.49,45.775,59.289l1034.591,100.57
				c32.062,3.116,61.443-20.173,65.2-51.76l248.571-2090.422c3.737-31.424-19.781-56.849-52.167-56.504l-1045.208,11.13
				C1681.389,951.852,1654.725,976.375,1651.155,1006.042z"/>
			
				<linearGradient id="SVGID_00000004548555985919627220000007774441980631834249_" gradientUnits="userSpaceOnUse" x1="1279.4926" y1="805.0746" x2="64.2169" y2="4096.4453" gradientTransform="matrix(-1 0 0 1 3475.8816 0)">
				<stop  offset="0" style="stop-color:#FFC444"/>
				<stop  offset="0.9964" style="stop-color:#F36F56"/>
			</linearGradient>
			<path style="fill:url(#SVGID_00000004548555985919627220000007774441980631834249_);" d="M2205.957,887.194
				c-1.356,11.329,6.774,20.397,18.171,20.253c11.41-0.143,21.769-9.463,23.127-20.815c1.358-11.352-6.802-20.419-18.214-20.252
				C2217.642,866.548,2207.313,875.865,2205.957,887.194z"/>
			<g>
				<path style="fill:#FFFFFF;" d="M1830.026,2330.576c211.803-391.595,528.205-508.809,623.467-912.391
					c51.493-218.152,16.409-426.952-42.679-600.291l395.188-6.668c34.866-0.588,60.198,26.537,56.187,60.283l-268.973,2262.93
					c-4.033,33.935-35.64,58.885-70.131,55.451l-864.772-86.097C1651.918,2752.91,1735.613,2505.132,1830.026,2330.576z"/>
			</g>
		</g>
		<g>
			<g>
				
					<linearGradient id="SVGID_00000124143339946834925020000014979884629960270734_" gradientUnits="userSpaceOnUse" x1="8521.0596" y1="8271.5459" x2="7689.8062" y2="9055.3906" gradientTransform="matrix(-1 0 0 -1 99.9479 18234.4336)">
					<stop  offset="0" style="stop-color:#311944"/>
					<stop  offset="1" style="stop-color:#893976"/>
				</linearGradient>
				<path style="fill:url(#SVGID_00000124143339946834925020000014979884629960270734_);" d="M585.856,1113.231
					c0-208.077,181.508-376.734,399.327-376.707c211.378,0.025,378.202,159.802,378.202,356.87
					c0,197.069-166.824,365.358-378.202,376.169C767.364,1480.704,585.856,1321.308,585.856,1113.231z"/>
			</g>
			<g>
				
					<linearGradient id="SVGID_00000155833694941024270470000015758827037712003236_" gradientUnits="userSpaceOnUse" x1="734.2134" y1="1315.7295" x2="1400.3253" y2="711.2507">
					<stop  offset="0" style="stop-color:#FF9085"/>
					<stop  offset="1" style="stop-color:#FB6FBB"/>
				</linearGradient>
				<path style="fill:url(#SVGID_00000155833694941024270470000015758827037712003236_);" d="M609.337,1096.638
					c0-208.077,176.258-376.734,387.775-376.708c205.263,0.025,367.261,159.802,367.261,356.87
					c0,197.069-161.998,365.357-367.261,376.169C785.595,1464.11,609.337,1304.714,609.337,1096.638z"/>
			</g>
			<g style="opacity:0.5;">
				<path style="fill:#FFFFFF;" d="M669.681,1095.053c0-174.817,148.084-316.515,325.791-316.494
					c172.453,0.022,308.556,134.259,308.556,299.827c0,165.569-136.103,306.958-308.556,316.041
					C817.764,1403.787,669.681,1269.87,669.681,1095.053z"/>
			</g>
			<path style="opacity:0.5;fill:#FFFFFF;" d="M983.237,805.425c172.454,0.023,308.557,134.258,308.557,299.826
				c0,39.373-7.774,77.338-21.824,112.52c21.76-42.363,34.058-89.769,34.058-139.383c0-165.569-136.103-299.808-308.556-299.831
				c-137.059-0.014-256.419,84.305-303.888,203.066C745.343,877.216,856.759,805.411,983.237,805.425z"/>
			<g>
				<path style="fill:#FFFFFF;" d="M848.127,1052.264v152.578c0,44.115,37.114,78.91,82.754,77.719l113.169-2.952
					c45.092-1.177,81.532-37.514,81.532-81.165v-150.973L848.127,1052.264z M952.352,1210.003l21.033-63.73
					c-9.008-4.65-15.115-13.809-15.115-24.48c0-15.663,13.135-28.608,29.318-28.914c16.163-0.306,29.252,12.115,29.252,27.743
					c0,10.648-6.081,20.039-15.064,25.057l20.954,62.682L952.352,1210.003z"/>
				<path style="fill:#FFFFFF;" d="M1093.413,1034.253c-12.006,0.201-21.745-9.093-21.745-20.756
					c0-44.847-37.652-80.85-84.08-80.255c-46.594,0.598-84.623,37.807-84.623,82.943c0,11.739-9.873,21.423-22.064,21.626
					c-12.202,0.204-22.101-9.163-22.101-20.922c0-68.693,57.931-125.229,128.787-126.024
					c70.475-0.79,127.535,53.913,127.535,121.938C1115.123,1024.448,1105.408,1034.052,1093.413,1034.253z"/>
			</g>
		</g>
		<g>
			
				<linearGradient id="SVGID_00000051345686469988441610000006503308881189286823_" gradientUnits="userSpaceOnUse" x1="-554.9016" y1="1841.3425" x2="-422.9021" y2="1975.6991" gradientTransform="matrix(-1 0 0 1 854.1966 0)">
				<stop  offset="0" style="stop-color:#FFC444"/>
				<stop  offset="0.9964" style="stop-color:#F36F56"/>
			</linearGradient>
			<path style="fill:url(#SVGID_00000051345686469988441610000006503308881189286823_);" d="M1355.524,1904.518
				c0,0-7.697-28.862-2.245-36.238c5.452-7.376,38.803-36.879,35.596-27.259c-3.207,9.621-8.017,16.034-8.017,16.034
				s17.958,8.338,6.414,20.845c-11.545,12.507-15.399,15.393-16.037,26.617C1370.596,1915.742,1363.22,1919.59,1355.524,1904.518z"
				/>
			
				<linearGradient id="SVGID_00000054959096408319156820000002809243019835047074_" gradientUnits="userSpaceOnUse" x1="-227.7117" y1="3117.5774" x2="-228.8239" y2="2819.5098" gradientTransform="matrix(-1 0 0 1 854.1966 0)">
				<stop  offset="0" style="stop-color:#AA80F9"/>
				<stop  offset="0.9964" style="stop-color:#6165D7"/>
			</linearGradient>
			<path style="fill:url(#SVGID_00000054959096408319156820000002809243019835047074_);" d="M1035.166,3150.29
				c0,0-4.078,24.961-3.558,33.844c0.518,8.884,99.097,13.425,100.093,6.77s-16.295-17.237-28.464-20.971
				c-12.17-3.735-47.788-13.703-47.788-13.703L1035.166,3150.29z"/>
			
				<linearGradient id="SVGID_00000171690193069186003510000011377868835509005239_" gradientUnits="userSpaceOnUse" x1="-3296.2217" y1="3422.2427" x2="-3294.3804" y2="3267.5801" gradientTransform="matrix(-0.9968 0.0799 0.0799 0.9968 -2506.7317 65.4365)">
				<stop  offset="0" style="stop-color:#FFC444"/>
				<stop  offset="0.9964" style="stop-color:#F36F56"/>
			</linearGradient>
			<path style="fill:url(#SVGID_00000171690193069186003510000011377868835509005239_);" d="M1059.094,3125.406l-3.144,31.037
				c0,0-11.451,7.567-21.54,1.726l-5.048-33.783L1059.094,3125.406z"/>
			
				<linearGradient id="SVGID_00000023280457598535774920000018057845364318606769_" gradientUnits="userSpaceOnUse" x1="-51.9819" y1="3116.9216" x2="-53.0942" y2="2818.854" gradientTransform="matrix(-1 0 0 1 854.1966 0)">
				<stop  offset="0" style="stop-color:#AA80F9"/>
				<stop  offset="0.9964" style="stop-color:#6165D7"/>
			</linearGradient>
			<path style="fill:url(#SVGID_00000023280457598535774920000018057845364318606769_);" d="M859.284,3190.754
				c0,0-4.079,24.96-3.56,33.844c0.519,8.884,99.099,13.425,100.094,6.769c0.996-6.654-16.295-17.237-28.464-20.972
				c-12.169-3.735-47.787-13.703-47.787-13.703L859.284,3190.754z"/>
			
				<linearGradient id="SVGID_00000047037458979788334630000013567546038170509731_" gradientUnits="userSpaceOnUse" x1="-3117.3809" y1="3424.3682" x2="-3115.5396" y2="3269.7039" gradientTransform="matrix(-0.9968 0.0799 0.0799 0.9968 -2506.7317 65.4365)">
				<stop  offset="0" style="stop-color:#FFC444"/>
				<stop  offset="0.9964" style="stop-color:#F36F56"/>
			</linearGradient>
			<path style="fill:url(#SVGID_00000047037458979788334630000013567546038170509731_);" d="M883.212,3165.869l-3.145,31.037
				c0,0-11.45,7.568-21.54,1.726l-5.048-33.783L883.212,3165.869z"/>
			
				<linearGradient id="SVGID_00000042710040264104961040000018159309773860093368_" gradientUnits="userSpaceOnUse" x1="-192.7959" y1="2437.2888" x2="-83.5422" y2="2995.8469" gradientTransform="matrix(-1 0 0 1 854.1966 0)">
				<stop  offset="0" style="stop-color:#311944"/>
				<stop  offset="1" style="stop-color:#893976"/>
			</linearGradient>
			<path style="fill:url(#SVGID_00000042710040264104961040000018159309773860093368_);" d="M1041.206,2315.149
				c11.394,23.101,22.79,46.202,34.185,69.303c9.164,131.834,13.718,275.188,10.793,428.496
				c-2.176,114.061-8.273,222.111-17.028,323.535c-15.449-0.708-30.899-1.42-46.349-2.127
				c-22.341-44.338-48.713-111.512-51.14-194.432c-2.532-86.493,23.691-97.977,22.028-180.792
				c-2.156-107.337-47.166-135.975-71.146-265.086c-9.17-49.376-15.345-113.868-8.006-192.11
				C956.765,2306.338,998.984,2310.746,1041.206,2315.149z"/>
			
				<linearGradient id="SVGID_00000115511863771301645320000009960686398712254648_" gradientUnits="userSpaceOnUse" x1="-3385.3862" y1="2924.8333" x2="-3220.7183" y2="2924.8333" gradientTransform="matrix(-0.9968 0.0799 0.0799 0.9968 -2506.7317 65.4365)">
				<stop  offset="0" style="stop-color:#311944"/>
				<stop  offset="1" style="stop-color:#893976"/>
			</linearGradient>
			<path style="opacity:0.3;fill:url(#SVGID_00000115511863771301645320000009960686398712254648_);" d="M914.543,2301.934
				c22.802,2.377,45.603,4.756,68.406,7.139c41.045,71.427,52.505,145.772,45.302,178.656
				c-10.19,46.527-37.146,61.431-35.664,108.144c1.466,46.221,28.698,58.207,45.973,112.684
				c11.958,37.719,8.803,72.399,1.999,140.22c-13.701,136.613-46.69,178.391-19.057,223.181
				c7.852,12.726,21.999,27.883,49.716,39.454c-0.678,8.377-1.346,16.782-2.062,25.07c-15.449-0.705-30.899-1.42-46.349-2.125
				c-22.341-44.344-48.713-111.513-51.14-194.434c-2.532-86.494,23.69-97.98,22.028-180.793
				c-2.156-107.337-47.166-135.972-71.146-265.084C913.378,2444.669,907.204,2380.178,914.543,2301.934z"/>
			
				<linearGradient id="SVGID_00000129906913491281926430000006409802144782584734_" gradientUnits="userSpaceOnUse" x1="-3292.4216" y1="2948.3552" x2="-3042.4402" y2="2948.3552" gradientTransform="matrix(-0.9968 0.0799 0.0799 0.9968 -2506.7317 65.4365)">
				<stop  offset="0" style="stop-color:#311944"/>
				<stop  offset="1" style="stop-color:#893976"/>
			</linearGradient>
			<path style="fill:url(#SVGID_00000129906913491281926430000006409802144782584734_);" d="M979.903,2356.738
				c-21.389,116.637-40.282,241.469-55.024,373.857c-17.798,159.848-27.297,310.545-31.032,450.461
				c-16.957,0.483-33.914,0.959-50.872,1.441c-66.82-132.189-70.903-221.812-61.268-280.162
				c3.713-22.485,13.796-66.574,16.098-132.465c1.604-45.931-1.326-80.887-4.987-122.907
				c-8.024-92.131-17.763-112.244-19.162-182.715c-1.315-66.136-1.586-99.601,17.293-119.135
				C840.689,2293.653,970.087,2352.183,979.903,2356.738z"/>
			
				<linearGradient id="SVGID_00000060723008024331140860000009955320528812915635_" gradientUnits="userSpaceOnUse" x1="-353.3517" y1="1918.8463" x2="-168.9961" y2="3102.821" gradientTransform="matrix(-1 0 0 1 854.1966 0)">
				<stop  offset="0" style="stop-color:#AA80F9"/>
				<stop  offset="0.9964" style="stop-color:#6165D7"/>
			</linearGradient>
			<path style="fill:url(#SVGID_00000060723008024331140860000009955320528812915635_);" d="M1346.65,1900.07
				c11.278-0.787,22.554-1.573,33.831-2.36c26.604,107.505,7.522,211.792-52.524,250.144
				c-93.812,59.921-268.159-52.973-305.941-175.898c-16.584-53.955-12.808-131.822,20.336-146.951
				c9.2-4.201,23.476-4.852,54.406,12.513c92.369,51.86,94.797,149.876,141.755,158.177
				C1259.393,1999.388,1293.108,1986.076,1346.65,1900.07z"/>
			
				<linearGradient id="SVGID_00000070826618306862265540000015381348136361531798_" gradientUnits="userSpaceOnUse" x1="-3059.6494" y1="3408.3694" x2="-2875.2939" y2="4592.3438" gradientTransform="matrix(-0.9968 0.0799 0.0799 0.9968 -2506.7317 65.4365)">
				<stop  offset="0" style="stop-color:#AA80F9"/>
				<stop  offset="0.9964" style="stop-color:#6165D7"/>
			</linearGradient>
			<path style="fill:url(#SVGID_00000070826618306862265540000015381348136361531798_);" d="M1088.368,2408.104
				c16.247-26.958-4.159-52.959-8.805-104.035c-5.264-57.887,17.035-67.526,39.089-163.459
				c14.666-63.802,28.745-125.052,11.94-196.749c-8.053-34.362-21.713-92.642-69.946-120.792
				c-24.891-14.527-58.876-13.074-125.829-9.571c-82.796,4.329-124.193,6.493-155.067,22.751
				c-4.519,2.381-98.444,53.469-104.909,136.746c-6.581,84.756,85.724,96.149,98.034,209.177
				c5.527,50.739-4.325,128.778-10.713,179.395c-6.134,48.601-10.356,61.044-0.765,75.758
				c23.116,35.466,93.886,25.356,235.428,5.145C1052.348,2434.54,1076.245,2428.221,1088.368,2408.104z"/>
			
				<linearGradient id="SVGID_00000113346148813966106330000018097329974665411493_" gradientUnits="userSpaceOnUse" x1="-2790.0225" y1="2978.0249" x2="-3347.9243" y2="2177.0764" gradientTransform="matrix(-0.9968 0.0799 0.0799 0.9968 -2506.7317 65.4365)">
				<stop  offset="0" style="stop-color:#AA80F9"/>
				<stop  offset="0.9964" style="stop-color:#6165D7"/>
			</linearGradient>
			<path style="fill:url(#SVGID_00000113346148813966106330000018097329974665411493_);" d="M873.011,2163.99
				c-5.985,22.029-27.51,38.483-42.494,92.067c-3.235,11.57-26.276,93.956,3.612,114.235c17.264,11.711,32.761-10.478,74.659-13.376
				c72.603-5.022,107.19,55.997,154.616,39.334c8.228-2.895,19.092-9.058,29.938-23.223c2.159,12.764,1.789,23.85-4.975,35.075
				c-12.124,20.117-36.02,26.436-91.541,34.365c-141.542,20.211-212.312,30.321-235.428-5.145
				c-9.591-14.714-5.37-27.158,0.765-75.758c6.388-50.616,16.24-128.655,10.713-179.395
				c-12.311-113.028-104.616-124.42-98.034-209.177c1.759-22.659,10.094-42.835,21.24-60.395
				C813.176,1959.983,891.824,2094.764,873.011,2163.99z"/>
			
				<linearGradient id="SVGID_00000124134399642056988000000016071106806956783240_" gradientUnits="userSpaceOnUse" x1="167.4404" y1="2228.1665" x2="63.6492" y2="2368.3755" gradientTransform="matrix(-1 0 0 1 854.1966 0)">
				<stop  offset="0" style="stop-color:#FFC444"/>
				<stop  offset="0.9964" style="stop-color:#F36F56"/>
			</linearGradient>
			<path style="fill:url(#SVGID_00000124134399642056988000000016071106806956783240_);" d="M725.115,2330.713l23.427,14.958
				c4.207-4.857,13.945-14.657,29.151-18.003c17.131-3.765,36.797,1.635,37.254,7.103c0.367,4.38-11.608,8.798-13.459,9.482
				c-14.947,5.516-26.038,0.935-32.081,6.944c-2.137,2.125-4.801,6.077-10.926,9.739c-1.608,0.962-3.294,1.812-4.182,2.158
				c-9.976,3.879-27.09-13.489-28.562-15.006L725.115,2330.713z"/>
			
				<linearGradient id="SVGID_00000161627179383190463350000000019462298966145931_" gradientUnits="userSpaceOnUse" x1="-2843.7917" y1="3374.76" x2="-2659.436" y2="4558.7363" gradientTransform="matrix(-0.9968 0.0799 0.0799 0.9968 -2506.7317 65.4365)">
				<stop  offset="0" style="stop-color:#AA80F9"/>
				<stop  offset="0.9964" style="stop-color:#6165D7"/>
			</linearGradient>
			<path style="fill:url(#SVGID_00000161627179383190463350000000019462298966145931_);" d="M794.329,2023.449
				c16.947-40.59,28.689-102.735,1.921-195.027c-176.378,69.499-266.331,234.256-231.208,364.863
				c28.953,107.669,134.292,160.113,157.79,171.146c5.467-12.446,10.936-24.887,16.403-37.333
				c-27.231-30.324-57.917-75.162-53.577-126.329C691.674,2129.835,760.018,2105.624,794.329,2023.449z"/>
			
				<linearGradient id="SVGID_00000062894983406355834150000015240895602402927752_" gradientUnits="userSpaceOnUse" x1="-4522.6353" y1="5246.9668" x2="-4522.6353" y2="5087.4795" gradientTransform="matrix(-0.7795 0.6265 0.6265 0.7795 -5831.1143 622.2045)">
				<stop  offset="0" style="stop-color:#FFC444"/>
				<stop  offset="0.9964" style="stop-color:#F36F56"/>
			</linearGradient>
			<path style="fill:url(#SVGID_00000062894983406355834150000015240895602402927752_);" d="M930.483,1729.997
				c0,0-1.393,30.854-10.971,53.96c-8.655,20.883-54.179,34.01-63.406,38.671c-9.229,4.661,17.288,18.287,43.917,20.964
				c26.628,2.678,102.674-3.369,116.383-13.464c13.708-10.094-11.016-9.335-30.023-16.313c-19.006-6.977-29.996-44.148-26.641-61.02
				C963.096,1735.921,930.483,1729.997,930.483,1729.997z"/>
			
				<linearGradient id="SVGID_00000163762002037263502070000013900232568452584877_" gradientUnits="userSpaceOnUse" x1="-3260.1211" y1="2034.6805" x2="-3326.8308" y2="1865.2505" gradientTransform="matrix(-0.9968 0.0799 0.0799 0.9968 -2506.7317 65.4365)">
				<stop  offset="0" style="stop-color:#444B8C"/>
				<stop  offset="0.9964" style="stop-color:#3E4177"/>
			</linearGradient>
			<path style="fill:url(#SVGID_00000163762002037263502070000013900232568452584877_);" d="M972.6,1718.811
				c13.817-13.576,15.746-15.161,17.251-19.854c6.039-18.834-8.569-44.626-27.729-50.976c-0.997-0.329-13.846-4.443-18.751,1.132
				c-4.166,4.734,1.963,11.272-0.951,20.396c-2.729,8.542-10.134,9.181-23.857,20.383c-11.305,9.224-18.331,14.959-19.952,23.026
				c-3.342,16.632,16.791,40.735,34.614,40.079C939.634,1752.762,941.377,1749.488,972.6,1718.811z"/>
			<g>
				
					<linearGradient id="SVGID_00000045587089302569870930000004805886979785894581_" gradientUnits="userSpaceOnUse" x1="-4635.3701" y1="5201.0044" x2="-4560.8037" y2="5056.0146" gradientTransform="matrix(-0.7795 0.6265 0.6265 0.7795 -5831.1143 622.2045)">
					<stop  offset="0" style="stop-color:#FFC444"/>
					<stop  offset="0.9964" style="stop-color:#F36F56"/>
				</linearGradient>
				<path style="fill:url(#SVGID_00000045587089302569870930000004805886979785894581_);" d="M934.969,1755.567
					c0,0,14.687,16.63,37.061,11.132c20.032-4.922,14.921-50.899,0.261-58.244c-4.89-2.449-13.777-2.247-20.46,0.974
					c-3.948,1.903-5.045,3.879-11.556,6.863c-6.004,2.75-7.908,2.369-9.523,4.307c-2.022,2.422-2.891,7.635,3.441,20.218
					c-4.563-3.229-9.471-3.905-12.483-1.769c-0.481,0.342-1.705,1.536-2.232,3.109
					C917.568,1747.853,923.487,1753.639,934.969,1755.567z"/>
			</g>
		</g>
		<g>
			
				<linearGradient id="SVGID_00000045611220404096604900000001037859085662343615_" gradientUnits="userSpaceOnUse" x1="1315.825" y1="1978.0085" x2="2658.8752" y2="1978.0085">
				<stop  offset="0" style="stop-color:#311944"/>
				<stop  offset="1" style="stop-color:#893976"/>
			</linearGradient>
			<path style="fill:url(#SVGID_00000045611220404096604900000001037859085662343615_);" d="M2610.234,1133.022l5.172,27.905
				l-0.002,0l-106.434,0.251l-923.599,2.19c-23.757,0.056-45.613,19.695-48.868,43.869l-220.478,1473.534
				c-3.282,24.388,34.682,61.618,58.302,63.441l409.754,31.49v-0.496L2397,2822.23c0.012,0,0.022,0,0.034,0l1.485,0.618
				c26.173,2.02,50.18-16.971,53.577-42.731c0-0.01,0.003,0.109,0.005,0.099l206.476-1573.251
				C2661.926,1181.437,2636.554,1132.95,2610.234,1133.022z"/>
			<g>
				
					<linearGradient id="SVGID_00000018208188549416487790000000450725245032788873_" gradientUnits="userSpaceOnUse" x1="2132.3562" y1="4619.5459" x2="1972.2142" y2="1845.6332">
					<stop  offset="0.0036" style="stop-color:#F36F56"/>
					<stop  offset="1" style="stop-color:#FFC444"/>
				</linearGradient>
				<path style="fill:url(#SVGID_00000018208188549416487790000000450725245032788873_);" d="M2431.204,2749.452
					c-3.381,25.77-27.385,45.03-53.554,43.021l-1025.241-78.725c-23.606-1.813-40.04-23.054-36.757-47.445l200.428-1489.2
					c3.253-24.169,25.098-43.812,48.843-43.877l1031.026-2.835c26.311-0.072,44.974,20.556,41.625,46.078L2431.204,2749.452z"/>
				<path style="fill:#FFFFFF;" d="M2444.82,1930.476c-1.678,12.763-13.598,22.28-26.622,21.804l-902.334-32.931
					c-11.911-0.435-20.288-10.242-18.651-22.427l17.74-131.495c1.636-12.176,12.507-20.421,24.428-20.089l903.123,25.083
					c13.036,0.362,22.273,9.57,20.596,22.323L2444.82,1930.476z"/>
				<path style="fill:#FFFFFF;" d="M2409.875,2197.651c-1.681,12.785-13.612,23.696-26.627,23.053l-901.65-44.543
					c-11.901-0.588-20.184-11.977-18.544-24.182l17.881-134.032c1.638-12.194,12.611-22.644,24.52-22.164l902.199,36.388
					c13.022,0.525,22.23,12.305,20.55,25.079L2409.875,2197.651z"/>
				
					<linearGradient id="SVGID_00000018214581732957595430000017993745701559609273_" gradientUnits="userSpaceOnUse" x1="1496.9965" y1="1831.9537" x2="2463.3054" y2="1831.9537">
					<stop  offset="0.0036" style="stop-color:#F36F56"/>
					<stop  offset="1" style="stop-color:#FFC444"/>
				</linearGradient>
				<path style="opacity:0.1;fill:url(#SVGID_00000018214581732957595430000017993745701559609273_);" d="M2463.175,1792.208
					c-2.135-0.689-4.442-1.068-6.886-1.136l-903.142-25.065c-11.915-0.345-22.794,7.919-24.413,20.072l-17.766,131.494
					c-0.035,0.345-0.069,0.656-0.104,0.999c-9.158-2.582-15.045-11.259-13.668-21.658l17.766-131.494
					c1.619-12.154,12.498-20.417,24.413-20.072l903.142,25.066C2455.325,1770.791,2464.518,1779.708,2463.175,1792.208z"/>
				
					<linearGradient id="SVGID_00000112599873770992781540000001663385574745124027_" gradientUnits="userSpaceOnUse" x1="1462.837" y1="2085.4709" x2="2428.3989" y2="2085.4709">
					<stop  offset="0.0036" style="stop-color:#F36F56"/>
					<stop  offset="1" style="stop-color:#FFC444"/>
				</linearGradient>
				<path style="opacity:0.1;fill:url(#SVGID_00000112599873770992781540000001663385574745124027_);" d="M2428.399,2054.3
					c-2.169-0.861-4.511-1.377-6.989-1.479l-902.178-36.395c-11.913-0.481-22.897,9.986-24.516,22.175l-17.905,134.041
					c-0.103,0.861-0.172,1.688-0.172,2.549c-9.159-2.962-14.978-12.81-13.601-23.208l17.905-134.041
					c1.619-12.189,12.602-22.656,24.516-22.176l902.178,36.395C2419.688,2032.678,2428.434,2042.732,2428.399,2054.3z"/>
				
					<linearGradient id="SVGID_00000181080066637542800300000007949093647377416380_" gradientUnits="userSpaceOnUse" x1="1937.4349" y1="2179.0728" x2="1721.5884" y2="3547.8577">
					<stop  offset="0.0036" style="stop-color:#F36F56"/>
					<stop  offset="1" style="stop-color:#FFC444"/>
				</linearGradient>
				<path style="fill:url(#SVGID_00000181080066637542800300000007949093647377416380_);" d="M2170.08,2414.202
					c2.665-20.17-11.596-38.755-31.867-39.919l-466.753-26.803c-19.327-1.11-37.183,15.168-39.811,34.811l-19.264,145.183
					c-2.63,19.665,10.782,38.489,30.099,39.811l466.513,31.916c20.26,1.386,38.92-15.722,41.588-35.916L2170.08,2414.202z"/>
				<g>
					
						<linearGradient id="SVGID_00000119115604485899195410000005689745978317233310_" gradientUnits="userSpaceOnUse" x1="2008.4357" y1="753.9221" x2="2054.5334" y2="2126.605">
						<stop  offset="0.0036" style="stop-color:#F36F56"/>
						<stop  offset="1" style="stop-color:#FFC444"/>
					</linearGradient>
					<path style="fill:url(#SVGID_00000119115604485899195410000005689745978317233310_);" d="M2205.327,1436.065
						c-6.145,46.412-29.993,88.303-63.885,119.111c-36.531,33.228-84.652,53.445-134.687,52.481
						c-49.793-0.959-91.697-22.715-118.609-56.684c-24.824-31.309-36.979-73.033-30.888-118.665
						c12.669-94.926,99.886-171.669,195.6-171.444C2149.47,1261.093,2218.112,1339.517,2205.327,1436.065z"/>
					<g>
						<path style="fill:#FFFFFF;" d="M2112.254,1383.316c-5.519,41.583-43.897,74.896-85.566,74.398
							c-41.501-0.495-70.564-34.366-65.067-75.646c5.496-41.269,43.487-74.561,85.01-74.369
							C2088.322,1307.892,2117.771,1341.743,2112.254,1383.316z"/>
						<path style="fill:#FFFFFF;" d="M2141.442,1555.177c-36.531,33.228-84.652,53.445-134.687,52.481
							c-49.793-0.959-91.697-22.715-118.609-56.684c30.805-42.914,81.596-71.45,135.55-70.747
							C2077.934,1480.935,2121.653,1510.992,2141.442,1555.177z"/>
					</g>
				</g>
				<path style="opacity:0.4;fill:#FFFFFF;" d="M2637.573,1176.469l-206.369,1572.985c-3.379,25.76-28.914,44.912-55.071,42.904
					l-615.77-47.283c-29.254-29.946-53.344-65.895-70.531-109.017c-8.441-21.151-14.623-43.972-18.728-67.967
					c-11.431-66.417-7.003-141.915,9.67-216.03c12.821-57.05,32.916-113.375,58.65-164.192c20.575-40.63,44.78-77.78,71.807-108.997
					c19.461-22.469,40.508-44.304,62.709-65.713c26.77-25.837,55.221-51.063,84.567-76.051
					c68.387-58.266,141.618-115.236,209.422-175.398c156.443-138.784,283.359-293.851,252.823-515.113
					c-0.976-6.967-10.512-60.339-22.688-115.662l196.359-0.54C2620.72,1130.323,2640.92,1150.956,2637.573,1176.469z"/>
			</g>
		</g>
	</g>
</g>
</svg>
