<?xml version="1.0" encoding="utf-8"?>
<!-- Generator: Adobe Illustrator 27.5.0, SVG Export Plug-In . SVG Version: 6.00 Build 0)  -->
<svg version="1.1" xmlns="http://www.w3.org/2000/svg" xmlns:xlink="http://www.w3.org/1999/xlink" x="0px" y="0px"
	 viewBox="0 0 500 500" style="enable-background:new 0 0 500 500;" xml:space="preserve">
<g id="Background_Complete">
	<g>
		<g>
			<g>
				<g>
					<g>
						<g>
							<g>
								<g>
									<g>
										<g>
											<g>
												<polygon style="fill:#EBEBEB;" points="75.301,416.352 83.761,471.947 132.91,471.947 144.318,417.155 												"/>
											</g>
										</g>
									</g>
								</g>
							</g>
						</g>
					</g>
				</g>
			</g>
		</g>
		<g>
			<g>
				<g>
					<g>
						<g>
							<g>
								<g>
									<g>
										<g>
											<g>
												<g>
													<g>
														<path style="fill:#FAFAFA;" d="M137.445,451.982c0,0.159-12.594,0.288-28.126,0.288
															c-15.537,0-28.129-0.129-28.129-0.288c0-0.159,12.591-0.289,28.129-0.289
															C124.851,451.694,137.445,451.823,137.445,451.982z"/>
													</g>
												</g>
											</g>
										</g>
									</g>
								</g>
							</g>
						</g>
					</g>
				</g>
			</g>
			<g>
				<g>
					<g>
						<g>
							<g>
								<g>
									<g>
										<g>
											<g>
												<g>
													<g>
														<path style="fill:#FAFAFA;" d="M137.636,449.248c0,0.16-12.679,0.289-28.316,0.289
															c-15.643,0-28.319-0.129-28.319-0.289c0-0.159,12.677-0.288,28.319-0.288
															C124.957,448.96,137.636,449.089,137.636,449.248z"/>
													</g>
												</g>
											</g>
										</g>
									</g>
								</g>
							</g>
						</g>
					</g>
				</g>
			</g>
			<g>
				<g>
					<g>
						<g>
							<g>
								<g>
									<g>
										<g>
											<g>
												<g>
													<g>
														<path style="fill:#FAFAFA;" d="M137.539,446.16c0,0.159-12.679,0.288-28.316,0.288
															c-15.643,0-28.319-0.129-28.319-0.288c0-0.159,12.676-0.288,28.319-0.288
															C124.86,445.872,137.539,446.001,137.539,446.16z"/>
													</g>
												</g>
											</g>
										</g>
									</g>
								</g>
							</g>
						</g>
					</g>
				</g>
			</g>
			<g>
				<g>
					<g>
						<g>
							<g>
								<g>
									<g>
										<g>
											<g>
												<g>
													<g>
														<path style="fill:#FAFAFA;" d="M89.407,468.775c-0.157,0.027-0.832-3.107-1.508-7
															c-0.676-3.894-1.096-7.072-0.939-7.099c0.157-0.027,0.832,3.106,1.507,7
															C89.143,465.569,89.564,468.747,89.407,468.775z"/>
													</g>
												</g>
											</g>
										</g>
									</g>
								</g>
							</g>
						</g>
					</g>
				</g>
			</g>
			<g>
				<g>
					<g>
						<g>
							<g>
								<g>
									<g>
										<g>
											<g>
												<g>
													<g>
														<path style="fill:#FAFAFA;" d="M92.75,468.184c-0.163,0.003-0.351-3.059-0.609-6.83
															c-0.254-3.772-0.483-6.831-0.321-6.85c0.154-0.018,0.641,3.023,0.896,6.811
															C92.976,465.102,92.906,468.182,92.75,468.184z"/>
													</g>
												</g>
											</g>
										</g>
									</g>
								</g>
							</g>
						</g>
					</g>
				</g>
			</g>
			<g>
				<g>
					<g>
						<g>
							<g>
								<g>
									<g>
										<g>
											<g>
												<g>
													<g>
														<path style="fill:#FAFAFA;" d="M98.844,468.182c-0.153,0.027-0.824-3.095-1.279-7.003
															c-0.46-3.908-0.529-7.1-0.374-7.109c0.163-0.01,0.489,3.152,0.947,7.042
															C98.591,465.002,99.005,468.154,98.844,468.182z"/>
													</g>
												</g>
											</g>
										</g>
									</g>
								</g>
							</g>
						</g>
					</g>
				</g>
			</g>
			<g>
				<g>
					<g>
						<g>
							<g>
								<g>
									<g>
										<g>
											<g>
												<g>
													<g>
														<path style="fill:#FAFAFA;" d="M103.122,468.475c-0.155,0.014-0.556-3.167-0.681-7.115
															c-0.131-3.949,0.063-7.148,0.218-7.145c0.163,0.003,0.228,3.194,0.359,7.126
															C103.142,465.272,103.285,468.461,103.122,468.475z"/>
													</g>
												</g>
											</g>
										</g>
									</g>
								</g>
							</g>
						</g>
					</g>
				</g>
			</g>
			<g>
				<g>
					<g>
						<g>
							<g>
								<g>
									<g>
										<g>
											<g>
												<g>
													<g>
														<path style="fill:#FAFAFA;" d="M110.694,468.184c-0.159,0.006-0.391-3.018-0.517-6.753
															c-0.127-3.736-0.1-6.768,0.059-6.773c0.159-0.005,0.391,3.017,0.517,6.753
															C110.88,465.147,110.853,468.179,110.694,468.184z"/>
													</g>
												</g>
											</g>
										</g>
									</g>
								</g>
							</g>
						</g>
					</g>
				</g>
			</g>
			<g>
				<g>
					<g>
						<g>
							<g>
								<g>
									<g>
										<g>
											<g>
												<g>
													<g>
														<path style="fill:#FAFAFA;" d="M116.225,468.477c-0.159-0.001-0.263-3.129-0.231-6.986
															c0.031-3.858,0.186-6.984,0.345-6.982c0.159,0.001,0.263,3.129,0.232,6.987
															C116.539,465.352,116.385,468.478,116.225,468.477z"/>
													</g>
												</g>
											</g>
										</g>
									</g>
								</g>
							</g>
						</g>
					</g>
				</g>
			</g>
			<g>
				<g>
					<g>
						<g>
							<g>
								<g>
									<g>
										<g>
											<g>
												<g>
													<g>
														<path style="fill:#FAFAFA;" d="M121.411,467.735c-0.158-0.016,0.029-3.285,0.419-7.301
															c0.39-4.018,0.835-7.262,0.993-7.246c0.158,0.015-0.029,3.284-0.419,7.302
															C122.015,464.506,121.57,467.75,121.411,467.735z"/>
													</g>
												</g>
											</g>
										</g>
									</g>
								</g>
							</g>
						</g>
					</g>
				</g>
			</g>
			<g>
				<g>
					<g>
						<g>
							<g>
								<g>
									<g>
										<g>
											<g>
												<g>
													<g>
														<path style="fill:#FAFAFA;" d="M128.098,467.006c-0.152-0.019,0.087-2.824,0.827-6.209
															c0.733-3.388,1.681-6.038,1.828-5.992c0.158,0.047-0.536,2.753-1.264,6.115
															C128.755,464.279,128.262,467.029,128.098,467.006z"/>
													</g>
												</g>
											</g>
										</g>
									</g>
								</g>
							</g>
						</g>
					</g>
				</g>
			</g>
		</g>
		<g>
			<g>
				<g>
					<g>
						<g>
							<g>
								<g>
									<g>
										<g>
											<g>
												<g>
													<g>
														<path style="fill:#EBEBEB;" d="M123.365,306.651c0.009,0.003-0.011,0.096-0.06,0.274
															c-0.061,0.21-0.137,0.468-0.23,0.785c-0.227,0.73-0.54,1.733-0.935,3.001c-0.421,1.297-0.922,2.889-1.443,4.756
															c-0.529,1.864-1.187,3.97-1.772,6.338c-0.624,2.358-1.3,4.941-1.915,7.742c-0.682,2.785-1.256,5.795-1.896,8.954
															c-1.178,6.337-2.253,13.345-3.011,20.746c-0.719,7.407-1.051,14.491-1.149,20.937
															c0.003,3.223-0.029,6.287,0.089,9.152c0.05,2.867,0.202,5.534,0.347,7.968c0.106,2.437,0.335,4.632,0.485,6.564
															c0.141,1.933,0.318,3.592,0.475,4.947c0.137,1.321,0.244,2.365,0.323,3.126c0.028,0.33,0.051,0.598,0.07,0.815
															c0.013,0.184,0.014,0.279,0.004,0.28c-0.01,0.001-0.031-0.091-0.063-0.273c-0.034-0.215-0.075-0.481-0.127-0.808
															c-0.105-0.758-0.249-1.798-0.431-3.115c-0.191-1.353-0.401-3.01-0.573-4.943c-0.181-1.931-0.438-4.127-0.571-6.567
															c-0.172-2.437-0.348-5.107-0.418-7.98c-0.139-2.871-0.125-5.941-0.142-9.172c0.069-6.461,0.385-13.565,1.106-20.99
															c0.76-7.419,1.854-14.443,3.063-20.789c0.656-3.163,1.248-6.176,1.952-8.962c0.637-2.802,1.337-5.385,1.987-7.74
															c0.612-2.365,1.298-4.467,1.857-6.325c0.551-1.861,1.085-3.444,1.539-4.733c0.439-1.255,0.785-2.246,1.038-2.968
															c0.115-0.31,0.208-0.563,0.283-0.767C123.317,306.734,123.356,306.648,123.365,306.651z"/>
													</g>
												</g>
											</g>
										</g>
									</g>
								</g>
							</g>
						</g>
					</g>
				</g>
			</g>
			<g>
				<g>
					<g>
						<g>
							<g>
								<g>
									<g>
										<g>
											<g>
												<g>
													<path style="fill:#EBEBEB;" d="M114.494,341.076c1.326-3.972,4.08-7.45,7.641-9.652
														c1.218-0.753,2.754-1.366,4.043-0.742c1.715,0.829,1.853,3.242,1.341,5.076c-0.86,3.086-2.877,5.835-5.562,7.581
														c-2.685,1.747-5.178,2.57-8.348,2.106"/>
												</g>
											</g>
										</g>
									</g>
								</g>
							</g>
						</g>
					</g>
				</g>
			</g>
			<g>
				<g>
					<g>
						<g>
							<g>
								<g>
									<g>
										<g>
											<g>
												<g>
													<path style="fill:#EBEBEB;" d="M111.509,364.32c1.27-4.797,5.097-11.619,9.072-14.589
														c0.629-0.47,1.301-0.915,2.063-1.099c0.763-0.184,1.639-0.066,2.206,0.477c0.812,0.778,0.732,2.086,0.493,3.185
														c-1.519,6.999-7.351,12.87-14.34,14.436"/>
												</g>
											</g>
										</g>
									</g>
								</g>
							</g>
						</g>
					</g>
				</g>
			</g>
			<g>
				<g>
					<g>
						<g>
							<g>
								<g>
									<g>
										<g>
											<g>
												<g>
													<path style="fill:#EBEBEB;" d="M110.686,384.782c1.956-4.559,5.152-8.577,9.153-11.51
														c0.938-0.688,2.049-1.346,3.194-1.138c1.736,0.315,2.524,2.435,2.371,4.194c-0.316,3.619-3.08,6.521-5.934,8.769
														c-3.072,2.422-8.466,4.352-8.466,4.352"/>
												</g>
											</g>
										</g>
									</g>
								</g>
							</g>
						</g>
					</g>
				</g>
			</g>
			<g>
				<g>
					<g>
						<g>
							<g>
								<g>
									<g>
										<g>
											<g>
												<g>
													<path style="fill:#EBEBEB;" d="M111.148,399.491c2.009-3.42,4.508-6.635,7.787-8.866
														c0.712-0.485,1.483-0.93,2.337-1.047c0.853-0.117,1.808,0.16,2.292,0.872c0.781,1.147,0.037,2.697-0.8,3.803
														c-2.891,3.825-6.537,6.717-11.112,8.152"/>
												</g>
											</g>
										</g>
									</g>
								</g>
							</g>
						</g>
					</g>
				</g>
			</g>
			<g>
				<g>
					<g>
						<g>
							<g>
								<g>
									<g>
										<g>
											<g>
												<g>
													<path style="fill:#EBEBEB;" d="M110.763,393.516c-3.355-4.111-7.087-7.914-11.136-11.344
														c-0.632-0.535-1.431-1.096-2.219-0.84c-0.61,0.199-0.979,0.857-1.021,1.497c-0.043,0.64,0.178,1.266,0.424,1.859
														c2.434,5.883,8.168,10.49,14.338,12.062"/>
												</g>
											</g>
										</g>
									</g>
								</g>
							</g>
						</g>
					</g>
				</g>
			</g>
			<g>
				<g>
					<g>
						<g>
							<g>
								<g>
									<g>
										<g>
											<g>
												<g>
													<path style="fill:#EBEBEB;" d="M111.118,374.374c-2.916-3.555-5.833-7.11-8.749-10.665
														c-0.832-1.015-1.692-2.053-2.838-2.693c-1.146-0.64-2.659-0.8-3.732-0.044c-1.071,0.754-1.433,2.233-1.197,3.522
														c0.235,1.288,0.96,2.428,1.707,3.504c1.778,2.561,3.806,5.005,6.375,6.772c2.569,1.767,4.903,2.916,7.987,2.461"/>
												</g>
											</g>
										</g>
									</g>
								</g>
							</g>
						</g>
					</g>
				</g>
			</g>
			<g>
				<g>
					<g>
						<g>
							<g>
								<g>
									<g>
										<g>
											<g>
												<g>
													<path style="fill:#EBEBEB;" d="M112.335,352.825c-1.698-5.079-4.771-9.692-8.804-13.216
														c-0.674-0.589-1.414-1.168-2.294-1.338c-1.753-0.339-3.446,1.125-4.013,2.818c-0.639,1.904-0.202,4.05,0.799,5.791
														c1.001,1.74,2.517,3.128,4.112,4.348c2.941,2.249,6.239,4.029,9.732,5.254"/>
												</g>
											</g>
										</g>
									</g>
								</g>
							</g>
						</g>
					</g>
				</g>
			</g>
			<g>
				<g>
					<g>
						<g>
							<g>
								<g>
									<g>
										<g>
											<g>
												<g>
													<path style="fill:#EBEBEB;" d="M115.83,333.609c-0.847-6.183-4.065-11.328-7.795-16.331
														c-0.786-1.054-1.883-2.173-3.183-1.975c-0.829,0.126-1.498,0.797-1.827,1.568c-0.328,0.771-0.368,1.633-0.346,2.471
														c0.196,7.47,5.35,14.567,12.394,17.062"/>
												</g>
											</g>
										</g>
									</g>
								</g>
							</g>
						</g>
					</g>
				</g>
			</g>
			<g>
				<g>
					<g>
						<g>
							<g>
								<g>
									<g>
										<g>
											<g>
												<g>
													<path style="fill:#EBEBEB;" d="M118.278,323.798c-0.306-3.179-0.613-6.38-0.32-9.56
														c0.294-3.18,1.226-6.374,3.174-8.904c0.837-1.088,1.887-2.061,3.176-2.533c1.289-0.472,2.844-0.364,3.897,0.517
														c0.976,0.815,1.383,2.161,1.334,3.431c-0.049,1.27-0.498,2.488-0.986,3.663
														C126.224,316.02,122.336,322.229,118.278,323.798"/>
												</g>
											</g>
										</g>
									</g>
								</g>
							</g>
						</g>
					</g>
				</g>
			</g>
		</g>
		<g>
			<g>
				<g>
					<g>
						<g>
							<g>
								<g>
									<g>
										<g>
											<g>
												<g>
													<g>
														<path style="fill:#E0E0E0;" d="M80.167,331.165c0.02,0.001,0.036,0.271,0.048,0.784
															c0.006,0.57,0.015,1.316,0.025,2.244c-0.002,0.974,0.003,2.165,0.055,3.548c0.046,1.382,0.055,2.957,0.17,4.695
															c0.152,3.478,0.489,7.61,1.016,12.18c0.566,4.566,1.345,9.566,2.421,14.765c1.104,5.195,2.4,10.088,3.716,14.497
															c1.354,4.397,2.705,8.318,3.964,11.563c0.593,1.637,1.217,3.083,1.731,4.367c0.508,1.287,0.981,2.38,1.375,3.271
															c0.363,0.854,0.655,1.54,0.879,2.065c0.195,0.475,0.289,0.728,0.271,0.737c-0.018,0.008-0.147-0.228-0.376-0.688
															c-0.249-0.514-0.574-1.186-0.978-2.022c-0.426-0.878-0.93-1.96-1.467-3.238c-0.543-1.275-1.195-2.713-1.814-4.345
															c-1.31-3.235-2.706-7.152-4.092-11.556c-1.349-4.414-2.665-9.321-3.773-14.534c-1.08-5.218-1.845-10.238-2.384-14.822
															c-0.5-4.589-0.796-8.737-0.896-12.225c-0.089-1.743-0.07-3.322-0.085-4.708c-0.021-1.386,0.006-2.579,0.043-3.555
															c0.034-0.928,0.062-1.674,0.083-2.245C80.124,331.434,80.147,331.165,80.167,331.165z"/>
													</g>
												</g>
											</g>
										</g>
									</g>
								</g>
							</g>
						</g>
					</g>
				</g>
			</g>
			<g>
				<g>
					<g>
						<g>
							<g>
								<g>
									<g>
										<g>
											<g>
												<g>
													<path style="fill:#E0E0E0;" d="M81.537,356.513c0.048-2.99,1.174-5.95,3.125-8.216
														c0.667-0.775,1.581-1.522,2.592-1.376c1.346,0.195,1.96,1.808,2.006,3.168c0.078,2.286-0.703,4.591-2.155,6.359
														c-1.452,1.767-2.972,2.864-5.23,3.23"/>
												</g>
											</g>
										</g>
									</g>
								</g>
							</g>
						</g>
					</g>
				</g>
			</g>
			<g>
				<g>
					<g>
						<g>
							<g>
								<g>
									<g>
										<g>
											<g>
												<g>
													<path style="fill:#E0E0E0;" d="M84.508,372.981c-0.169-3.539,0.969-9.008,3.036-11.885
														c0.327-0.455,0.689-0.903,1.168-1.192c0.48-0.29,1.102-0.398,1.604-0.15c0.72,0.355,0.947,1.263,1.021,2.062
														c0.473,5.092-2.235,10.345-6.656,12.915"/>
												</g>
											</g>
										</g>
									</g>
								</g>
							</g>
						</g>
					</g>
				</g>
			</g>
			<g>
				<g>
					<g>
						<g>
							<g>
								<g>
									<g>
										<g>
											<g>
												<g>
													<path style="fill:#E0E0E0;" d="M88.352,387.09c0.35-3.525,1.661-6.949,3.754-9.806c0.491-0.67,1.106-1.357,1.929-1.463
														c1.25-0.159,2.243,1.115,2.517,2.345c0.564,2.532-0.694,5.102-2.152,7.248c-1.571,2.31-4.827,4.785-4.827,4.785"/>
												</g>
											</g>
										</g>
									</g>
								</g>
							</g>
						</g>
					</g>
				</g>
			</g>
			<g>
				<g>
					<g>
						<g>
							<g>
								<g>
									<g>
										<g>
											<g>
												<g>
													<path style="fill:#E0E0E0;" d="M91.832,397.004c0.632-2.761,1.642-5.488,3.393-7.713
														c0.381-0.483,0.81-0.952,1.366-1.216c0.556-0.263,1.266-0.28,1.749,0.1c0.778,0.613,0.605,1.828,0.274,2.762
														c-1.145,3.227-3.005,5.981-5.811,7.941"/>
												</g>
											</g>
										</g>
									</g>
								</g>
							</g>
						</g>
					</g>
				</g>
			</g>
			<g>
				<g>
					<g>
						<g>
							<g>
								<g>
									<g>
										<g>
											<g>
												<g>
													<path style="fill:#E0E0E0;" d="M90.284,393.019c-3.169-2.077-6.529-3.863-10.024-5.327
														c-0.546-0.228-1.21-0.438-1.691-0.094c-0.372,0.267-0.482,0.794-0.373,1.239c0.109,0.445,0.394,0.824,0.689,1.175
														c2.923,3.482,7.819,5.384,12.358,5.126"/>
												</g>
											</g>
										</g>
									</g>
								</g>
							</g>
						</g>
					</g>
				</g>
			</g>
			<g>
				<g>
					<g>
						<g>
							<g>
								<g>
									<g>
										<g>
											<g>
												<g>
													<path style="fill:#E0E0E0;" d="M86.406,379.91c-2.751-1.792-5.501-3.585-8.252-5.378
														c-0.785-0.512-1.594-1.034-2.512-1.223c-0.918-0.189-1.982,0.028-2.55,0.773c-0.567,0.744-0.495,1.829-0.057,2.655
														c0.438,0.826,1.176,1.447,1.917,2.018c1.762,1.361,3.669,2.589,5.798,3.239c2.129,0.65,3.966,0.93,5.968-0.044"/>
												</g>
											</g>
										</g>
									</g>
								</g>
							</g>
						</g>
					</g>
				</g>
			</g>
			<g>
				<g>
					<g>
						<g>
							<g>
								<g>
									<g>
										<g>
											<g>
												<g>
													<path style="fill:#E0E0E0;" d="M82.596,364.977c-2.25-3.093-5.335-5.572-8.839-7.103
														c-0.586-0.256-1.214-0.491-1.85-0.417c-1.267,0.147-2.104,1.508-2.126,2.783c-0.025,1.434,0.734,2.801,1.791,3.771
														c1.056,0.97,2.387,1.588,3.735,2.076c2.486,0.897,5.115,1.4,7.757,1.482"/>
												</g>
											</g>
										</g>
									</g>
								</g>
							</g>
						</g>
					</g>
				</g>
			</g>
			<g>
				<g>
					<g>
						<g>
							<g>
								<g>
									<g>
										<g>
											<g>
												<g>
													<path style="fill:#E0E0E0;" d="M80.839,351.142c-1.908-4.027-5.206-6.837-8.822-9.441
														c-0.762-0.549-1.75-1.074-2.592-0.66c-0.537,0.264-0.849,0.865-0.906,1.461c-0.058,0.596,0.101,1.191,0.296,1.757
														c1.741,5.044,6.778,8.766,12.111,8.949"/>
												</g>
											</g>
										</g>
									</g>
								</g>
							</g>
						</g>
					</g>
				</g>
			</g>
			<g>
				<g>
					<g>
						<g>
							<g>
								<g>
									<g>
										<g>
											<g>
												<g>
													<path style="fill:#E0E0E0;" d="M80.394,343.935c-0.893-2.098-1.79-4.212-2.275-6.44
														c-0.485-2.228-0.537-4.603,0.244-6.745c0.336-0.921,0.841-1.81,1.617-2.408c0.776-0.598,1.858-0.86,2.765-0.487
														c0.839,0.345,1.407,1.174,1.647,2.049c0.24,0.875,0.197,1.802,0.117,2.706
														C84.13,336.928,82.819,341.993,80.394,343.935"/>
												</g>
											</g>
										</g>
									</g>
								</g>
							</g>
						</g>
					</g>
				</g>
			</g>
		</g>
		<g>
			<g>
				<g>
					<g>
						<g>
							<g>
								<g>
									<g>
										<g>
											<g>
												<g>
													<g>
														<path style="fill:#EBEBEB;" d="M142.307,330.626c0.02-0.001,0.043,0.268,0.068,0.781
															c0.021,0.571,0.049,1.316,0.083,2.245c0.037,0.975,0.064,2.168,0.043,3.554c-0.015,1.385,0.004,2.965-0.085,4.708
															c-0.1,3.488-0.396,7.637-0.896,12.225c-0.539,4.583-1.304,9.605-2.384,14.822c-1.108,5.213-2.425,10.12-3.773,14.534
															c-1.385,4.403-2.782,8.321-4.092,11.556c-0.619,1.632-1.271,3.07-1.814,4.345c-0.537,1.278-1.042,2.36-1.467,3.238
															c-0.404,0.836-0.729,1.507-0.978,2.022c-0.23,0.459-0.358,0.696-0.376,0.688c-0.018-0.008,0.076-0.262,0.271-0.737
															c0.223-0.525,0.515-1.211,0.879-2.065c0.393-0.891,0.867-1.984,1.375-3.271c0.514-1.284,1.138-2.73,1.731-4.367
															c1.258-3.246,2.61-7.166,3.964-11.563c1.316-4.409,2.613-9.301,3.717-14.497c1.076-5.199,1.855-10.199,2.421-14.765
															c0.527-4.57,0.865-8.703,1.016-12.181c0.115-1.737,0.125-3.312,0.17-4.695c0.052-1.383,0.058-2.574,0.055-3.548
															c0.01-0.928,0.019-1.673,0.025-2.244C142.271,330.897,142.287,330.627,142.307,330.626z"/>
													</g>
												</g>
											</g>
										</g>
									</g>
								</g>
							</g>
						</g>
					</g>
				</g>
			</g>
			<g>
				<g>
					<g>
						<g>
							<g>
								<g>
									<g>
										<g>
											<g>
												<g>
													<path style="fill:#EBEBEB;" d="M140.937,355.973c-0.048-2.99-1.174-5.95-3.125-8.216
														c-0.667-0.774-1.581-1.522-2.593-1.376c-1.346,0.195-1.96,1.808-2.006,3.167c-0.078,2.286,0.703,4.592,2.155,6.359
														c1.452,1.767,2.972,2.864,5.23,3.23"/>
												</g>
											</g>
										</g>
									</g>
								</g>
							</g>
						</g>
					</g>
				</g>
			</g>
			<g>
				<g>
					<g>
						<g>
							<g>
								<g>
									<g>
										<g>
											<g>
												<g>
													<path style="fill:#EBEBEB;" d="M137.966,372.441c0.168-3.539-0.969-9.008-3.036-11.885
														c-0.327-0.455-0.689-0.902-1.168-1.192c-0.48-0.29-1.102-0.398-1.605-0.15c-0.72,0.355-0.947,1.263-1.021,2.062
														c-0.473,5.092,2.234,10.345,6.656,12.915"/>
												</g>
											</g>
										</g>
									</g>
								</g>
							</g>
						</g>
					</g>
				</g>
			</g>
			<g>
				<g>
					<g>
						<g>
							<g>
								<g>
									<g>
										<g>
											<g>
												<g>
													<path style="fill:#EBEBEB;" d="M134.122,386.55c-0.35-3.524-1.661-6.949-3.754-9.807
														c-0.491-0.67-1.105-1.357-1.929-1.462c-1.25-0.159-2.243,1.115-2.517,2.345c-0.564,2.532,0.694,5.103,2.152,7.248
														c1.57,2.31,4.827,4.785,4.827,4.785"/>
												</g>
											</g>
										</g>
									</g>
								</g>
							</g>
						</g>
					</g>
				</g>
			</g>
			<g>
				<g>
					<g>
						<g>
							<g>
								<g>
									<g>
										<g>
											<g>
												<g>
													<path style="fill:#EBEBEB;" d="M130.641,396.465c-0.631-2.761-1.641-5.488-3.393-7.713
														c-0.38-0.483-0.81-0.952-1.365-1.216c-0.556-0.263-1.265-0.28-1.749,0.1c-0.778,0.613-0.605,1.828-0.274,2.762
														c1.145,3.227,3.005,5.98,5.811,7.942"/>
												</g>
											</g>
										</g>
									</g>
								</g>
							</g>
						</g>
					</g>
				</g>
			</g>
			<g>
				<g>
					<g>
						<g>
							<g>
								<g>
									<g>
										<g>
											<g>
												<g>
													<path style="fill:#EBEBEB;" d="M132.189,392.48c3.169-2.077,6.529-3.862,10.024-5.326
														c0.546-0.228,1.211-0.438,1.692-0.094c0.372,0.267,0.482,0.794,0.373,1.239c-0.109,0.445-0.394,0.824-0.689,1.174
														c-2.923,3.481-7.819,5.384-12.358,5.126"/>
												</g>
											</g>
										</g>
									</g>
								</g>
							</g>
						</g>
					</g>
				</g>
			</g>
			<g>
				<g>
					<g>
						<g>
							<g>
								<g>
									<g>
										<g>
											<g>
												<g>
													<path style="fill:#EBEBEB;" d="M136.068,379.371c2.751-1.793,5.501-3.585,8.252-5.378
														c0.785-0.512,1.594-1.034,2.512-1.223c0.918-0.189,1.983,0.028,2.55,0.773c0.567,0.744,0.495,1.829,0.057,2.655
														c-0.437,0.827-1.176,1.447-1.917,2.019c-1.762,1.361-3.669,2.588-5.798,3.239c-2.129,0.65-3.965,0.93-5.967-0.044"/>
												</g>
											</g>
										</g>
									</g>
								</g>
							</g>
						</g>
					</g>
				</g>
			</g>
			<g>
				<g>
					<g>
						<g>
							<g>
								<g>
									<g>
										<g>
											<g>
												<g>
													<path style="fill:#EBEBEB;" d="M139.878,364.438c2.25-3.092,5.334-5.572,8.839-7.103
														c0.586-0.256,1.214-0.491,1.85-0.417c1.267,0.147,2.104,1.508,2.126,2.782c0.025,1.434-0.734,2.802-1.79,3.771
														c-1.057,0.969-2.387,1.588-3.736,2.075c-2.486,0.898-5.114,1.4-7.757,1.482"/>
												</g>
											</g>
										</g>
									</g>
								</g>
							</g>
						</g>
					</g>
				</g>
			</g>
			<g>
				<g>
					<g>
						<g>
							<g>
								<g>
									<g>
										<g>
											<g>
												<g>
													<path style="fill:#EBEBEB;" d="M141.635,350.603c1.908-4.027,5.206-6.837,8.822-9.441
														c0.762-0.549,1.75-1.074,2.593-0.66c0.537,0.264,0.848,0.865,0.906,1.461c0.057,0.596-0.101,1.191-0.296,1.757
														c-1.741,5.044-6.778,8.766-12.111,8.949"/>
												</g>
											</g>
										</g>
									</g>
								</g>
							</g>
						</g>
					</g>
				</g>
			</g>
			<g>
				<g>
					<g>
						<g>
							<g>
								<g>
									<g>
										<g>
											<g>
												<g>
													<path style="fill:#EBEBEB;" d="M142.079,343.395c0.893-2.098,1.791-4.212,2.276-6.44
														c0.485-2.228,0.537-4.603-0.244-6.745c-0.336-0.921-0.841-1.81-1.617-2.408c-0.776-0.598-1.858-0.859-2.765-0.487
														c-0.84,0.345-1.407,1.174-1.647,2.049c-0.24,0.875-0.197,1.802-0.118,2.706
														C138.344,336.389,139.655,341.454,142.079,343.395"/>
												</g>
											</g>
										</g>
									</g>
								</g>
							</g>
						</g>
					</g>
				</g>
			</g>
		</g>
		<g>
			<g>
				<g>
					<g>
						<g>
							<g>
								<g>
									<g>
										<g>
											<g>
												<path style="fill:#EBEBEB;" d="M69.661,405.343v10.403c0,2.262,1.833,4.096,4.095,4.096h71.172
													c2.262,0,4.096-1.834,4.096-4.096v-10.403H69.661z"/>
											</g>
										</g>
									</g>
								</g>
							</g>
						</g>
					</g>
				</g>
			</g>
		</g>
		<g>
			<g>
				<g>
					<g>
						<g>
							<g>
								<g>
									<g>
										<g>
											<g>
												<polygon style="fill:#E0E0E0;" points="75.832,419.841 76.423,423.153 142.095,427.833 143.758,419.841 												"/>
											</g>
										</g>
									</g>
								</g>
							</g>
						</g>
					</g>
				</g>
			</g>
		</g>
	</g>
	<g>
		<g>
			<g>
				<g>
					<path style="fill:#F5F5F5;" d="M87.638,167.082l-14.991-6.163c0,0-5.175,12.587-18.348,7.435
						c-6.842-2.676-8.534-8.574-8.563-12.572c-0.034-4.641,2.324-8.947,6.059-11.702c4.266-3.147,11.578-5.087,20.948,0.846
						l13.723-33.379l-14.823-6.094l-8.14,19.799c0,0-22.999-3.173-32.418,19.737c-9.012,21.921,9.324,35.411,19.558,39.619
						C57.078,187.253,77.048,193.645,87.638,167.082z"/>
				</g>
			</g>
			<g>
				<g>
					
						<rect x="77.142" y="86.351" transform="matrix(0.3803 -0.9249 0.9249 0.3803 -34.87 136.928)" style="fill:#F5F5F5;" width="15.191" height="16.265"/>
				</g>
			</g>
		</g>
		<g>
			<g>
				<g>
					<path style="fill:#E0E0E0;" d="M82.561,164.971l-14.991-6.163c0,0-5.175,12.587-18.348,7.435
						c-6.842-2.676-8.534-8.574-8.563-12.572c-0.034-4.642,2.324-8.947,6.059-11.702c4.266-3.147,11.405-4.667,20.775,1.267
						l13.896-33.8l-14.823-6.094l-8.14,19.799c0,0-22.999-3.173-32.418,19.737c-9.012,21.921,8.552,35.094,16.967,38.554
						C49.41,184.077,71.971,191.533,82.561,164.971z"/>
				</g>
			</g>
			<g>
				<g>
					
						<rect x="72.065" y="84.239" transform="matrix(0.3803 -0.9249 0.9249 0.3803 -36.0634 130.9239)" style="fill:#E0E0E0;" width="15.191" height="16.265"/>
				</g>
			</g>
		</g>
	</g>
	<g>
		<g>
			<g>
				<g>
					<path style="fill:#F5F5F5;" d="M442.372,423.625l-9.295,0.772c0,0,0.648,7.804-7.45,8.618
						c-4.206,0.423-6.619-2.155-7.682-4.196c-1.234-2.369-1.155-5.192,0.037-7.583c1.361-2.73,4.598-5.641,10.953-5.057
						l-1.719-20.697l-9.191,0.764l1.02,12.276c0,0-12.613,4.403-11.434,18.608c1.129,13.592,14.059,15.696,20.404,15.169
						C432.005,441.969,443.91,440.009,442.372,423.625z"/>
				</g>
			</g>
			<g>
				<g>
					
						<rect x="417.177" y="382.824" transform="matrix(0.9966 -0.0828 0.0828 0.9966 -30.6007 36.2459)" style="fill:#F5F5F5;" width="9.36" height="8.742"/>
				</g>
			</g>
		</g>
		<g>
			<g>
				<g>
					<path style="fill:#E0E0E0;" d="M439.218,423.874l-9.295,0.772c0,0,0.648,7.804-7.45,8.618
						c-4.206,0.423-6.619-2.155-7.682-4.196c-1.234-2.369-1.155-5.192,0.037-7.583c1.361-2.73,4.619-5.38,10.975-4.797
						l-1.741-20.957l-9.191,0.763l1.02,12.276c0,0-12.613,4.403-11.434,18.608c1.129,13.592,13.58,15.736,18.798,15.303
						C427.244,442.351,440.756,440.258,439.218,423.874z"/>
				</g>
			</g>
			<g>
				<g>
					
						<rect x="414.023" y="383.073" transform="matrix(0.9966 -0.0828 0.0828 0.9966 -30.6359 35.9905)" style="fill:#E0E0E0;" width="9.36" height="8.742"/>
				</g>
			</g>
		</g>
	</g>
	<g>
		<g>
			<g>
				<g>
					<path style="fill:#F5F5F5;" d="M388.378,86.508l18.412-7.271c0,0-6.105-15.459,9.851-22.081
						c8.287-3.439,14.772,0.318,18.183,3.812c3.961,4.056,5.532,9.841,4.578,15.43c-1.09,6.382-5.881,14.282-19.152,16.996
						l16.19,40.997l18.206-7.19l-9.603-24.318c0,0,22.927-16.685,11.815-44.824c-10.633-26.924-38.194-23.268-50.764-18.304
						C398.189,42.877,375.202,54.163,388.378,86.508z"/>
				</g>
			</g>
			<g>
				<g>
					
						<rect x="442.479" y="138.667" transform="matrix(0.9301 -0.3673 0.3673 0.9301 -22.7169 176.517)" style="fill:#F5F5F5;" width="19.865" height="18.553"/>
				</g>
			</g>
		</g>
		<g>
			<g>
				<g>
					<path style="fill:#E0E0E0;" d="M381.034,89.409l18.412-7.271c0,0-6.105-15.459,9.851-22.081
						c8.287-3.439,14.772,0.318,18.183,3.812c3.961,4.056,5.532,9.841,4.578,15.43c-1.09,6.382-6.085,13.765-19.356,16.479
						l16.395,41.514l18.206-7.19l-9.604-24.318c0,0,22.927-16.685,11.815-44.824c-10.632-26.924-37.246-23.642-47.582-19.56
						C394.028,44.521,367.858,57.063,381.034,89.409z"/>
				</g>
			</g>
			<g>
				<g>
					
						<rect x="435.135" y="141.567" transform="matrix(0.9301 -0.3673 0.3673 0.9301 -24.2956 174.0201)" style="fill:#E0E0E0;" width="19.865" height="18.553"/>
				</g>
			</g>
		</g>
	</g>
	<g>
		<g>
			<g>
				<g>
					<g>
						<g>
							
								<ellipse transform="matrix(0.0884 -0.9961 0.9961 0.0884 124.7083 260.0391)" style="fill:#FFFFFF;" cx="204.429" cy="61.884" rx="34.711" ry="34.777"/>
						</g>
						<g>
							<g>
								<path style="fill:#E0E0E0;" d="M226.749,88.514c0,0,0.149-0.119,0.427-0.367c0.287-0.259,0.695-0.629,1.227-1.11
									c0.27-0.246,0.571-0.521,0.902-0.823c0.317-0.318,0.631-0.697,0.989-1.09c0.354-0.398,0.736-0.826,1.143-1.284
									c0.426-0.444,0.761-1.011,1.181-1.56c1.693-2.188,3.349-5.193,4.684-8.889c1.314-3.699,2.173-8.184,1.945-13.142
									c-0.033-0.619-0.067-1.245-0.101-1.879c-0.072-0.63-0.184-1.262-0.276-1.904c-0.114-0.638-0.157-1.298-0.333-1.938
									c-0.162-0.642-0.325-1.291-0.491-1.946c-0.155-0.509-0.409-1.343-0.565-1.852c-0.013-0.036-0.026-0.072-0.039-0.108
									c-0.234-0.65-0.47-1.306-0.708-1.968c-0.258-0.654-0.595-1.282-0.894-1.933c-0.325-0.638-0.577-1.322-0.986-1.93
									c-0.767-1.24-1.474-2.551-2.435-3.718c-0.462-0.595-0.892-1.224-1.391-1.804c-0.71-0.767-1.427-1.541-2.151-2.323
									c-0.072-0.077-0.148-0.152-0.227-0.222c-0.294-0.259-0.588-0.519-0.884-0.78c-0.597-0.514-1.174-1.063-1.799-1.559
									c-1.31-0.916-2.575-1.94-4.035-2.7c-1.39-0.881-2.929-1.517-4.459-2.212c-0.78-0.31-1.591-0.554-2.393-0.836
									c-0.405-0.128-0.8-0.295-1.216-0.391l-1.251-0.295c-1.33-0.372-2.706-0.556-4.094-0.74
									c-0.698-0.061-1.395-0.122-2.093-0.183l-2.245-0.09l-0.665,0.033l-1.335,0.073l-1.34,0.074l-1.334,0.198l-1.339,0.204
									l-0.671,0.103l-0.661,0.163c-1.352,0.409-3.557,1.076-4.908,1.486c-0.113,0.041-0.225,0.081-0.338,0.122
									c-3.422,1.379-6.674,3.302-9.612,5.7c-2.875,2.474-5.34,5.339-7.296,8.469c-0.054,0.094-0.108,0.188-0.162,0.283
									c-0.644,1.268-1.694,3.335-2.338,4.603l-0.277,0.622l-0.218,0.643l-0.435,1.283l-0.428,1.279l-0.307,1.307l-0.306,1.302
									l-0.149,0.649l-0.303,2.23c-0.062,0.698-0.124,1.395-0.186,2.092c-0.062,1.398-0.121,2.785,0.013,4.159l0.072,1.283
									c0.021,0.427,0.117,0.845,0.172,1.266c0.138,0.838,0.237,1.68,0.405,2.502c0.418,1.628,0.775,3.255,1.399,4.778
									c0.493,1.571,1.281,2.996,1.953,4.446c0.38,0.703,0.819,1.367,1.221,2.045c0.205,0.337,0.41,0.673,0.613,1.007
									c0.055,0.089,0.114,0.177,0.177,0.26c0.644,0.85,1.282,1.693,1.913,2.526c0.484,0.592,1.028,1.126,1.533,1.685
									c0.981,1.151,2.149,2.076,3.236,3.048c0.526,0.508,1.157,0.876,1.728,1.308c0.589,0.407,1.148,0.85,1.747,1.217
									c0.615,0.353,1.224,0.702,1.827,1.049c0.496,0.255,1.304,0.669,1.8,0.924c0.003,0.001,0.006,0.003,0.009,0.004
									c0.617,0.278,1.228,0.552,1.833,0.824c0.6,0.285,1.242,0.442,1.85,0.666c0.616,0.203,1.22,0.424,1.827,0.604
									c0.618,0.144,1.229,0.287,1.832,0.428c4.842,1.09,9.409,1.028,13.28,0.381c3.872-0.669,7.119-1.775,9.569-3.059
									c0.614-0.318,1.231-0.548,1.742-0.891c0.522-0.321,1.01-0.622,1.464-0.901c0.45-0.284,0.878-0.527,1.246-0.784
									c0.355-0.273,0.678-0.521,0.968-0.744c0.567-0.44,1.002-0.777,1.308-1.014C226.606,88.64,226.749,88.514,226.749,88.514
									s-0.161,0.104-0.463,0.323c-0.311,0.229-0.753,0.555-1.331,0.98c-0.292,0.217-0.618,0.459-0.977,0.725
									c-0.371,0.25-0.801,0.487-1.253,0.764c-0.455,0.273-0.945,0.567-1.468,0.881c-0.512,0.335-1.129,0.559-1.743,0.87
									c-2.449,1.256-5.687,2.332-9.536,2.975c-3.848,0.621-8.38,0.661-13.178-0.438c-0.598-0.142-1.203-0.285-1.815-0.431
									c-0.602-0.181-1.199-0.403-1.809-0.606c-0.602-0.224-1.238-0.382-1.831-0.666c-0.598-0.271-1.201-0.545-1.811-0.822
									c-0.473-0.243-1.247-0.641-1.72-0.884c-0.028-0.016-0.057-0.033-0.085-0.049c-0.592-0.342-1.19-0.687-1.794-1.036
									c-0.592-0.366-1.144-0.806-1.727-1.211c-0.564-0.429-1.188-0.794-1.707-1.299c-1.074-0.965-2.228-1.883-3.196-3.025
									c-0.499-0.555-1.037-1.084-1.514-1.671c-0.625-0.829-1.256-1.666-1.893-2.511c-0.061-0.08-0.118-0.164-0.17-0.25
									c-0.201-0.331-0.403-0.664-0.605-0.998c-0.396-0.671-0.83-1.329-1.204-2.025c-0.662-1.436-1.44-2.846-1.924-4.4
									c-0.616-1.507-0.965-3.116-1.377-4.726c-0.165-0.813-0.262-1.646-0.397-2.475c-0.054-0.416-0.148-0.83-0.169-1.252
									l-0.069-1.269c-0.164-1.696-0.028-3.412,0.036-5.144c0.118-0.859,0.236-1.722,0.354-2.589l0.089-0.651l0.148-0.642
									l0.303-1.286l0.304-1.292l0.425-1.263l0.431-1.267l0.216-0.636l0.274-0.614c0.641-1.259,1.686-3.313,2.327-4.572
									c0.049-0.085,0.097-0.169,0.146-0.254c1.935-3.091,4.37-5.921,7.211-8.367c2.904-2.369,6.116-4.269,9.497-5.633
									c0.105-0.038,0.209-0.076,0.314-0.113c1.341-0.407,3.528-1.071,4.869-1.478l0.653-0.162l0.663-0.101l1.323-0.203
									l1.318-0.197l1.325-0.074l1.319-0.074l0.657-0.033l0.656,0.026c0.874,0.035,1.744,0.069,2.61,0.103
									c1.716,0.24,3.429,0.407,5.07,0.864l1.237,0.29c0.412,0.094,0.802,0.259,1.203,0.385c0.792,0.278,1.595,0.518,2.367,0.823
									c1.513,0.687,3.036,1.312,4.412,2.181c1.446,0.748,2.698,1.76,3.996,2.663c0.619,0.49,1.191,1.032,1.783,1.539
									c0.293,0.258,0.585,0.514,0.876,0.77c0.076,0.067,0.15,0.138,0.219,0.213c0.72,0.775,1.434,1.542,2.14,2.301
									c0.495,0.573,0.922,1.195,1.381,1.783c0.955,1.153,1.657,2.449,2.42,3.675c0.407,0.6,0.657,1.278,0.981,1.908
									c0.297,0.644,0.633,1.265,0.891,1.911c0.238,0.655,0.473,1.304,0.706,1.947c0.117,0.321,0.233,0.641,0.349,0.96
									c0.009,0.03,0.019,0.061,0.028,0.091c0.243,0.952,0.483,1.891,0.72,2.816c0.177,0.634,0.221,1.287,0.336,1.919
									c0.093,0.636,0.207,1.263,0.28,1.887c0.036,0.628,0.072,1.249,0.107,1.862c0.244,4.915-0.587,9.371-1.871,13.052
									c-1.305,3.678-2.931,6.678-4.596,8.87c-0.413,0.55-0.741,1.119-1.161,1.564c-0.401,0.46-0.776,0.891-1.124,1.292
									c-0.352,0.397-0.661,0.779-0.972,1.1c-0.325,0.307-0.62,0.585-0.885,0.835c-0.519,0.494-0.918,0.873-1.197,1.139
									C226.879,88.373,226.749,88.514,226.749,88.514z"/>
							</g>
						</g>
					</g>
				</g>
				<g>
					<g>
						<g>
							<path style="fill:#FFFFFF;" d="M234.055,107.672c-2.572,3.348-7.631,2.902-9.578-0.844c-0.981-1.888-0.773-4.249,0.523-5.936
								c2.572-3.348,7.631-2.902,9.578,0.844C235.559,103.624,235.351,105.985,234.055,107.672z"/>
						</g>
						<g>
							<g>
								<path style="fill:#E0E0E0;" d="M233.156,108.613c0.009,0.011,0.109-0.063,0.293-0.215c0.186-0.148,0.439-0.398,0.716-0.759
									c0.552-0.705,1.2-1.964,1.146-3.628c-0.032-0.819-0.233-1.729-0.711-2.579c-0.479-0.841-1.189-1.654-2.147-2.199
									c-0.941-0.559-2.109-0.869-3.303-0.786c-1.197,0.06-2.406,0.538-3.386,1.346c-0.967,0.824-1.65,1.931-1.918,3.1
									c-0.29,1.162-0.189,2.366,0.197,3.39c0.369,1.039,1.046,1.88,1.79,2.498c0.754,0.62,1.614,0.976,2.415,1.151
									c1.628,0.344,2.982-0.075,3.772-0.495c0.404-0.209,0.694-0.415,0.872-0.573
									C233.076,108.709,233.166,108.624,233.156,108.613c-0.028-0.037-0.402,0.304-1.206,0.677
									c-0.79,0.365-2.099,0.716-3.636,0.353c-0.757-0.184-1.561-0.536-2.26-1.13c-0.691-0.593-1.315-1.39-1.649-2.363
									c-0.351-0.959-0.437-2.082-0.161-3.162c0.255-1.086,0.891-2.11,1.789-2.877c0.912-0.749,2.031-1.197,3.144-1.257
									c1.111-0.083,2.201,0.198,3.084,0.711c0.9,0.498,1.575,1.253,2.038,2.036c0.463,0.792,0.669,1.646,0.718,2.423
									c0.089,1.577-0.486,2.805-0.983,3.519C233.526,108.27,233.125,108.579,233.156,108.613z"/>
							</g>
						</g>
					</g>
				</g>
			</g>
		</g>
		<g>
			<g>
				<g>
					<path style="fill:#E0E0E0;" d="M193.757,56.185h5.256c0,0,0-4.413,4.586-4.492c2.382-0.041,3.617,1.519,4.119,2.715
						c0.583,1.388,0.406,2.97-0.374,4.257c-0.892,1.47-2.845,2.806-6.387,2.182v11.851h5.197v-6.942c0,0,7.289-1.884,7.289-9.917
						c0-7.686-6.893-9.471-9.843-9.471C201.344,46.367,193.658,46.912,193.757,56.185z"/>
				</g>
			</g>
			<g>
				<g>
					<rect x="200.942" y="75.138" style="fill:#E0E0E0;" width="5.274" height="4.926"/>
				</g>
			</g>
		</g>
	</g>
	<g>
		<g>
			<g>
				<path style="fill:#E0E0E0;" d="M133.474,204.643h5.256c0,0,0-4.413,4.586-4.492c2.382-0.041,3.617,1.519,4.119,2.715
					c0.582,1.388,0.406,2.97-0.374,4.257c-0.892,1.47-2.845,2.806-6.387,2.182v11.851h5.197l0-6.942c0,0,7.289-1.884,7.289-9.917
					c0-7.686-6.892-9.471-9.843-9.471C141.06,194.824,133.374,195.37,133.474,204.643z"/>
			</g>
		</g>
		<g>
			<g>
				<rect x="140.658" y="223.596" style="fill:#E0E0E0;" width="5.274" height="4.926"/>
			</g>
		</g>
	</g>
	<g>
		<g>
			<g>
				<path style="fill:#E0E0E0;" d="M369.295,243.093l-5.899-3.746c0,0-3.146,4.953-8.349,1.773
					c-2.703-1.652-2.977-4.283-2.688-5.982c0.335-1.973,1.661-3.623,3.454-4.511c2.048-1.014,5.193-1.122,8.724,2.104l8.447-13.302
					l-5.833-3.704l-4.948,7.792c0,0-9.524-3.081-15.25,5.936c-5.478,8.627,0.986,15.543,4.297,17.646
					C353.782,248.706,362.797,253.572,369.295,243.093z"/>
			</g>
		</g>
		<g>
			<g>
				
					<rect x="370.261" y="208.548" transform="matrix(0.5361 -0.8442 0.8442 0.5361 -5.7183 413.7045)" style="fill:#E0E0E0;" width="6.55" height="7.013"/>
			</g>
		</g>
	</g>
	<g>
		<g>
			<g>
				<path style="fill:#E0E0E0;" d="M135.713,58.381l-4.889,1.931c0,0,1.621,4.105-2.616,5.863c-2.2,0.913-3.922-0.084-4.828-1.012
					c-1.052-1.077-1.469-2.613-1.215-4.097c0.289-1.695,1.616-3.655,5.139-4.375l-4.353-11.022l-4.834,1.909l2.55,6.457
					c0,0-6.087,4.43-3.137,11.901c2.823,7.149,9.889,6.277,12.633,5.194C132.263,70.3,139.212,66.969,135.713,58.381z"/>
			</g>
		</g>
		<g>
			<g>
				
					<rect x="116.074" y="39.606" transform="matrix(0.9301 -0.3673 0.3673 0.9301 -7.1544 46.5453)" style="fill:#E0E0E0;" width="5.275" height="4.926"/>
			</g>
		</g>
	</g>
</g>
<g id="Background_Simple" style="display:none;">
	<g style="display:inline;">
		<path style="fill:#F5F5F5;" d="M358.138,29.692l-1.651,1.002c-13.916,8.444-22.304,23.712-21.286,39.809
			c0.131,2.069,0.411,4.13,0.846,6.162c3.133,14.636,14.201,27.37,28.375,32.649c8.336,3.104,17.934,3.972,24.551,9.863
			c8.612,7.667,8.882,20.684,8.525,32.128s-0.052,24.47,8.593,32.099c5.415,4.778,13.114,6.297,20.366,5.912
			c19.198-1.02,36.363-14.397,44.896-31.41c8.532-17.013,9.296-37.043,5.543-55.662c-5.258-26.083-19.697-50.888-42-65.798
			C412.594,21.536,382.209,17.763,358.138,29.692z"/>
	</g>
	<g style="display:inline;">
		<path style="fill:#F5F5F5;" d="M28.183,169.77l1.364,1.367c11.497,11.523,28.316,16.061,43.715,11.264
			c1.979-0.617,3.915-1.376,5.787-2.28c13.479-6.506,23.234-20.273,25.009-35.294c1.044-8.834-0.384-18.365,3.775-26.188
			c5.412-10.181,17.995-13.523,29.199-15.884c11.204-2.361,23.787-5.738,29.155-15.943c3.362-6.391,3.016-14.232,0.926-21.186
			c-5.533-18.411-22.592-31.925-41.14-36.19c-18.548-4.265-38.191-0.269-55.394,7.783C46.481,48.498,25.796,68.396,16.586,93.593
			C7.376,118.789,10.898,149.204,28.183,169.77z"/>
	</g>
	<g style="display:inline;">
		<circle style="fill:#F5F5F5;" cx="228.366" cy="67.397" r="28.339"/>
	</g>
</g>
<g id="Desk">
	<g>
		<g>
			<path style="fill:#263238;" d="M471.174,469.458c0,0.144-99.031,0.26-221.163,0.26c-122.175,0-221.185-0.117-221.185-0.26
				s99.01-0.26,221.185-0.26C372.143,469.198,471.174,469.314,471.174,469.458z"/>
		</g>
	</g>
</g>
<g id="No">
	<g>
		<g>
			<g>
				<g>
					<path style="fill:#455A64;" d="M399.955,293.161l-7.685-3.436l45.785-57.662l7.478,2.069c1.116,0.309,2.113,0.946,2.862,1.828
						l7.436,8.761c1.071,1.261,0.916,3.152-0.345,4.223l-51.399,43.628C402.937,293.547,401.331,293.776,399.955,293.161z"/>
				</g>
			</g>
			<g>
				<g>
					<path style="fill:#455A64;" d="M451.927,289.095l-8.316,7.059c-0.929,0.789-2.21,1.017-3.355,0.597l-6.224-2.283
						c-0.783-0.287-1.433-0.854-1.824-1.591l-34.06-64.203l7.678,2.227c0.99,0.287,1.873,0.859,2.54,1.645l43.951,51.779
						C453.526,285.751,453.352,287.886,451.927,289.095z"/>
				</g>
			</g>
		</g>
		<g style="opacity:0.3;">
			<g>
				<g>
					<path d="M399.955,293.161l-7.685-3.436l45.785-57.662l7.478,2.069c1.116,0.309,2.113,0.946,2.862,1.828l7.436,8.761
						c1.071,1.261,0.916,3.152-0.345,4.223l-51.399,43.628C402.937,293.547,401.331,293.776,399.955,293.161z"/>
				</g>
			</g>
			<g>
				<g>
					<path d="M451.927,289.095l-8.316,7.059c-0.929,0.789-2.21,1.017-3.355,0.597l-6.224-2.283
						c-0.783-0.287-1.433-0.854-1.824-1.591l-34.06-64.203l7.678,2.227c0.99,0.287,1.873,0.859,2.54,1.645l43.951,51.779
						C453.526,285.751,453.352,287.886,451.927,289.095z"/>
				</g>
			</g>
		</g>
		<g>
			<g>
				<g>
					<path style="fill:#455A64;" d="M391.432,289.013l-7.56-8.906c-0.819-0.965-0.701-2.41,0.264-3.229l52.071-44.198
						c0.965-0.819,2.41-0.7,3.229,0.264l7.56,8.906c0.819,0.965,0.701,2.41-0.264,3.229l-52.07,44.198
						C393.696,290.096,392.251,289.978,391.432,289.013z"/>
				</g>
			</g>
			<g>
				<g>
					<path style="fill:#455A64;" d="M443.468,284.98l-8.906,7.56c-0.965,0.819-2.41,0.701-3.229-0.264l-44.198-52.071
						c-0.819-0.964-0.701-2.41,0.264-3.229l9.162-7.777c0.823-0.699,2.057-0.598,2.755,0.225l44.415,52.327
						C444.551,282.716,444.433,284.162,443.468,284.98z"/>
				</g>
			</g>
		</g>
		<g>
			<g>
				<path style="fill:#FFFFFF;" d="M402.045,264.246c0.093,0.109-3.297,3.165-7.572,6.824c-4.277,3.66-7.818,6.538-7.912,6.429
					c-0.093-0.109,3.297-3.164,7.573-6.825C398.409,267.015,401.951,264.137,402.045,264.246z"/>
			</g>
		</g>
		<g>
			<g>
				<path style="fill:#FFFFFF;" d="M436.492,234.764c0.093,0.11-3.717,3.488-8.509,7.543c-4.794,4.058-8.754,7.257-8.847,7.147
					s3.716-3.487,8.51-7.544C432.438,237.854,436.399,234.654,436.492,234.764z"/>
			</g>
		</g>
		<g>
			<g>
				<path style="fill:#FFFFFF;" d="M403.713,256.04c-0.113,0.089-3.066-3.498-6.595-8.011c-3.53-4.514-6.299-8.244-6.185-8.332
					c0.113-0.089,3.066,3.497,6.596,8.011C401.057,252.221,403.826,255.952,403.713,256.04z"/>
			</g>
		</g>
		<g>
			<g>
				<path style="fill:#FFFFFF;" d="M430.071,286.022c-0.106,0.098-3.159-3.043-6.818-7.013c-3.661-3.971-6.542-7.269-6.436-7.366
					c0.106-0.097,3.158,3.042,6.819,7.013C427.295,282.626,430.176,285.924,430.071,286.022z"/>
			</g>
		</g>
	</g>
</g>
<g id="Yes">
	<g>
		<g>
			<g>
				<g>
					<g>
						<g>
							<path style="fill:#FF725E;" d="M36.94,282.288l-1.589-5.922l42.866,8.549l37.872-53.258l4.621,8.6
								c0.715,1.331,0.71,2.933-0.014,4.26l-32.866,60.19c-2.462,4.509-8.158,6.101-12.601,3.521l-33.181-19.267
								C39.53,287.497,37.694,285.099,36.94,282.288z"/>
						</g>
					</g>
				</g>
			</g>
		</g>
		<g style="opacity:0.3;">
			<g>
				<g>
					<g>
						<g>
							<path d="M36.94,282.288l-1.589-5.922l42.866,8.549l37.872-53.258l4.621,8.6c0.715,1.331,0.71,2.933-0.014,4.26l-32.866,60.19
								c-2.462,4.509-8.158,6.101-12.601,3.521l-33.181-19.267C39.53,287.497,37.694,285.099,36.94,282.288z"/>
						</g>
					</g>
				</g>
			</g>
		</g>
		<g>
			<g>
				<g>
					<g>
						<g>
							<path style="fill:#FF725E;" d="M35.468,273.545l6.178-10.938c0.885-1.566,2.836-2.171,4.452-1.38l24.806,12.148
								c1.645,0.806,3.632,0.162,4.493-1.455l24.572-46.163c0.92-1.729,3.109-2.324,4.778-1.298l9.998,6.146
								c1.541,0.947,2.069,2.935,1.202,4.522l-32.114,58.812c-2.162,3.96-7.106,5.444-11.091,3.329l-35.906-19.052
								C35.146,277.321,34.529,275.209,35.468,273.545z"/>
						</g>
					</g>
				</g>
			</g>
		</g>
		<g>
			<g>
				<path style="fill:none;stroke:#4E585D;stroke-width:0.05;stroke-miterlimit:10;" d="M81.141,271.592"/>
			</g>
		</g>
		<g>
			<g>
				<path style="fill:#FFFFFF;" d="M69.205,276.178c-0.016,0.032-0.487-0.156-1.326-0.524c-0.924-0.42-2.11-0.959-3.531-1.605
					c-2.971-1.375-7.061-3.308-11.563-5.471c-1.125-0.542-2.222-1.072-3.285-1.584c-0.529-0.257-1.05-0.509-1.56-0.757
					c-0.502-0.255-0.979-0.416-1.493-0.459c-1.015-0.096-1.993,0.277-2.673,0.872c-0.695,0.58-1.022,1.442-1.451,2.144
					c-0.775,1.355-1.422,2.485-1.925,3.366c-0.465,0.789-0.737,1.218-0.768,1.2c-0.032-0.017,0.18-0.478,0.59-1.297
					c0.466-0.901,1.063-2.059,1.78-3.445c0.192-0.364,0.392-0.744,0.599-1.137c0.216-0.409,0.51-0.816,0.889-1.155
					c0.749-0.681,1.843-1.121,2.997-1.027c0.569,0.035,1.161,0.233,1.67,0.489c0.512,0.244,1.035,0.492,1.566,0.745
					c1.064,0.509,2.163,1.035,3.289,1.574c4.502,2.163,8.566,4.148,11.497,5.609c1.392,0.706,2.554,1.295,3.459,1.754
					C68.779,275.896,69.221,276.146,69.205,276.178z"/>
			</g>
		</g>
		<g>
			<g>
				<path style="fill:#FFFFFF;" d="M78.297,274.188c-0.128-0.066,5.085-10.367,11.64-23.005
					c6.558-12.642,11.976-22.833,12.104-22.767c0.128,0.066-5.083,10.365-11.641,23.007
					C83.844,264.061,78.425,274.254,78.297,274.188z"/>
			</g>
		</g>
	</g>
</g>
<g id="Speech_Bubbles">
	<g>
		<g>
			<g>
				<g>
					<g>
						<g>
							
								<ellipse transform="matrix(0.1232 -0.9924 0.9924 0.1232 -1.4503 263.2863)" style="fill:#FFFFFF;" cx="148.269" cy="132.464" rx="33.582" ry="33.582"/>
						</g>
						<g>
							<g>
								<path style="fill:#263238;" d="M181.851,132.464c0,0,0.005-0.184-0.007-0.544c-0.014-0.373-0.034-0.905-0.061-1.599
									c-0.015-0.353-0.032-0.746-0.05-1.179c-0.039-0.432-0.124-0.9-0.193-1.41c-0.075-0.51-0.155-1.058-0.242-1.644
									c-0.064-0.591-0.276-1.191-0.422-1.843c-0.57-2.613-1.767-5.705-3.676-8.988c-1.924-3.269-4.713-6.69-8.527-9.6
									c-0.479-0.36-0.964-0.723-1.454-1.092c-0.511-0.338-1.049-0.647-1.582-0.978c-0.544-0.312-1.059-0.69-1.642-0.957
									c-0.577-0.279-1.16-0.561-1.749-0.846c-0.295-0.141-0.592-0.283-0.89-0.425c-0.31-0.114-0.622-0.229-0.935-0.344
									c-0.626-0.23-1.259-0.463-1.897-0.697c-0.645-0.215-1.319-0.355-1.987-0.538c-0.674-0.155-1.338-0.393-2.041-0.468
									c-1.395-0.202-2.805-0.492-4.266-0.504c-0.727-0.027-1.461-0.099-2.2-0.089c-0.739,0.037-1.484,0.073-2.234,0.11
									c-0.374,0.025-0.753,0.022-1.128,0.071c-0.374,0.057-0.749,0.113-1.126,0.171c-0.752,0.123-1.516,0.21-2.272,0.365
									c-1.491,0.402-3.036,0.703-4.505,1.313c-1.516,0.483-2.942,1.228-4.407,1.929c-0.714,0.386-1.398,0.835-2.105,1.253
									c-0.346,0.221-0.715,0.409-1.044,0.658l-0.995,0.743c-1.374,0.941-2.577,2.118-3.835,3.253
									c-0.57,0.627-1.143,1.257-1.719,1.889l-0.432,0.475l-0.389,0.513l-0.774,1.034l-0.777,1.039l-0.681,1.111l-0.68,1.118
									l-0.341,0.561l-0.289,0.591c-0.381,0.791-0.764,1.585-1.148,2.382c-0.305,0.831-0.611,1.665-0.918,2.502
									c-1.103,3.391-1.698,6.994-1.745,10.658c0.048,3.666,0.64,7.27,1.743,10.662c0.307,0.837,0.613,1.672,0.918,2.503
									c0.384,0.797,0.767,1.592,1.148,2.383l0.289,0.591l0.341,0.561l0.68,1.119l0.681,1.111l0.778,1.039l0.774,1.035l0.388,0.513
									l0.432,0.475c0.576,0.633,1.149,1.263,1.719,1.89c1.258,1.135,2.461,2.312,3.835,3.253l0.995,0.743
									c0.329,0.249,0.699,0.438,1.045,0.659c0.707,0.418,1.391,0.867,2.105,1.253c1.466,0.701,2.892,1.447,4.408,1.93
									c1.469,0.61,3.014,0.911,4.506,1.313c0.756,0.155,1.521,0.242,2.272,0.365c0.377,0.057,0.752,0.114,1.126,0.171
									c0.375,0.049,0.754,0.046,1.128,0.071c0.75,0.037,1.495,0.074,2.234,0.11c0.739,0.01,1.473-0.063,2.2-0.09
									c1.462-0.012,2.872-0.303,4.266-0.505c0.703-0.074,1.367-0.313,2.041-0.468c0.668-0.184,1.342-0.323,1.987-0.538
									c0.638-0.235,1.271-0.467,1.897-0.697c0.313-0.115,0.625-0.23,0.935-0.344c0.298-0.143,0.595-0.284,0.89-0.425
									c0.589-0.285,1.172-0.567,1.749-0.846c0.583-0.267,1.099-0.645,1.642-0.957c0.533-0.331,1.071-0.64,1.582-0.978
									c0.49-0.368,0.975-0.732,1.454-1.092c3.814-2.91,6.603-6.331,8.526-9.6c1.908-3.283,3.105-6.375,3.675-8.988
									c0.146-0.652,0.358-1.252,0.422-1.843c0.086-0.586,0.167-1.134,0.241-1.644c0.069-0.51,0.155-0.978,0.193-1.41
									c0.018-0.433,0.035-0.826,0.05-1.178c0.026-0.693,0.046-1.225,0.061-1.598C181.855,132.648,181.851,132.464,181.851,132.464
									s-0.023,0.184-0.048,0.544c-0.023,0.372-0.057,0.903-0.1,1.594c-0.021,0.351-0.044,0.743-0.069,1.174
									c-0.045,0.43-0.137,0.896-0.212,1.403c-0.08,0.507-0.167,1.052-0.259,1.634c-0.069,0.587-0.287,1.184-0.438,1.831
									c-0.59,2.594-1.803,5.66-3.716,8.91c-1.929,3.236-4.713,6.618-8.506,9.489c-0.476,0.355-0.958,0.714-1.446,1.077
									c-0.508,0.333-1.043,0.638-1.572,0.964c-0.54,0.307-1.051,0.68-1.63,0.943c-0.572,0.275-1.151,0.552-1.735,0.832
									c-0.293,0.139-0.587,0.278-0.882,0.419c-0.308,0.112-0.617,0.225-0.927,0.338c-0.621,0.226-1.248,0.455-1.881,0.685
									c-0.639,0.212-1.307,0.347-1.969,0.527c-0.668,0.151-1.326,0.387-2.022,0.458c-1.382,0.196-2.778,0.481-4.225,0.489
									c-0.72,0.025-1.446,0.095-2.178,0.084c-0.732-0.038-1.469-0.076-2.211-0.114c-0.37-0.026-0.745-0.023-1.116-0.072
									c-0.37-0.057-0.741-0.114-1.114-0.171c-0.743-0.123-1.5-0.21-2.247-0.365c-1.474-0.401-3.002-0.7-4.454-1.307
									c-1.498-0.479-2.908-1.22-4.356-1.914c-0.705-0.383-1.381-0.828-2.08-1.242c-0.342-0.219-0.707-0.405-1.032-0.652
									l-0.983-0.736c-1.358-0.932-2.545-2.097-3.788-3.22c-0.563-0.62-1.129-1.243-1.698-1.87l-0.427-0.47l-0.383-0.508
									l-0.764-1.023l-0.768-1.028l-0.672-1.099l-0.672-1.106l-0.337-0.555l-0.285-0.584c-0.376-0.782-0.754-1.567-1.134-2.355
									c-0.301-0.821-0.603-1.646-0.906-2.473c-1.088-3.352-1.673-6.913-1.721-10.536c0.048-3.622,0.634-7.181,1.723-10.532
									c0.303-0.827,0.605-1.651,0.906-2.472c0.379-0.788,0.757-1.573,1.134-2.354l0.285-0.584l0.337-0.554l0.671-1.106
									l0.672-1.099l0.768-1.027l0.764-1.023l0.384-0.507l0.427-0.47c0.568-0.626,1.134-1.249,1.697-1.869
									c1.243-1.122,2.43-2.287,3.787-3.219l0.983-0.736c0.325-0.247,0.69-0.433,1.032-0.652c0.698-0.414,1.374-0.86,2.079-1.242
									c1.448-0.694,2.857-1.434,4.355-1.914c1.452-0.606,2.979-0.906,4.453-1.307c0.747-0.155,1.504-0.242,2.247-0.365
									c0.373-0.057,0.744-0.114,1.114-0.171c0.371-0.049,0.745-0.047,1.116-0.072c0.742-0.038,1.479-0.076,2.211-0.114
									c0.731-0.011,1.457,0.059,2.178,0.084c1.447,0.008,2.843,0.293,4.225,0.489c0.697,0.071,1.354,0.306,2.022,0.458
									c0.661,0.18,1.33,0.316,1.969,0.527c0.633,0.231,1.26,0.459,1.881,0.685c0.311,0.113,0.62,0.226,0.927,0.338
									c0.296,0.14,0.59,0.28,0.883,0.419c0.584,0.28,1.163,0.558,1.735,0.832c0.579,0.262,1.091,0.636,1.63,0.943
									c0.529,0.326,1.064,0.631,1.572,0.964c0.487,0.363,0.969,0.722,1.446,1.077c3.793,2.871,6.577,6.252,8.506,9.489
									c1.914,3.25,3.127,6.317,3.717,8.911c0.151,0.648,0.368,1.244,0.438,1.831c0.092,0.583,0.179,1.128,0.259,1.635
									c0.075,0.507,0.167,0.973,0.212,1.403c0.025,0.431,0.048,0.823,0.069,1.174c0.044,0.691,0.077,1.222,0.101,1.594
									C181.828,132.28,181.851,132.464,181.851,132.464z"/>
							</g>
						</g>
					</g>
				</g>
				<g>
					<g>
						<g>
							<path style="fill:#FFFFFF;" d="M194.622,153.571c0,3.016-2.445,5.46-5.46,5.46s-5.46-2.445-5.46-5.46s2.445-5.46,5.46-5.46
								S194.622,150.556,194.622,153.571z"/>
						</g>
						<g>
							<g>
								<path style="fill:#263238;" d="M194.622,153.571c0.014,0,0.021-0.12,0.023-0.351c0.006-0.23-0.022-0.573-0.118-1.002
									c-0.18-0.846-0.71-2.109-1.976-3.101c-0.627-0.485-1.425-0.901-2.352-1.074c-0.92-0.168-1.963-0.147-2.962,0.225
									c-0.998,0.35-1.953,1.022-2.633,1.958c-0.699,0.924-1.095,2.117-1.106,3.344c0.01,1.228,0.406,2.421,1.105,3.345
									c0.68,0.936,1.636,1.609,2.634,1.959c0.999,0.372,2.042,0.393,2.962,0.225c0.927-0.173,1.725-0.589,2.352-1.074
									c1.266-0.993,1.796-2.255,1.975-3.101c0.095-0.429,0.124-0.772,0.118-1.002
									C194.643,153.691,194.636,153.571,194.622,153.571c-0.045-0.003-0.024,0.486-0.247,1.314
									c-0.22,0.812-0.773,1.999-1.996,2.913c-0.606,0.446-1.366,0.824-2.24,0.973c-0.868,0.143-1.846,0.112-2.774-0.245
									c-0.928-0.336-1.813-0.969-2.442-1.844c-0.646-0.863-1.01-1.97-1.02-3.111c0.011-1.141,0.374-2.247,1.021-3.11
									c0.628-0.874,1.513-1.507,2.441-1.843c0.928-0.357,1.905-0.389,2.774-0.245c0.874,0.149,1.634,0.526,2.24,0.972
									c1.223,0.913,1.776,2.101,1.996,2.913C194.597,153.085,194.577,153.574,194.622,153.571z"/>
							</g>
						</g>
					</g>
				</g>
			</g>
		</g>
		<g>
			<path style="fill:#263238;" d="M137.226,135.115v4.562h-3.598v-4.616l-4.852-8.105h3.798l3.017,5.052l3.017-5.052h3.489
				L137.226,135.115z"/>
			<path style="fill:#263238;" d="M153.159,136.896v2.78h-10.213v-12.721h9.977v2.78h-6.415v2.145h5.652v2.69h-5.652v2.326H153.159z
				"/>
			<path style="fill:#263238;" d="M154.264,138.531l1.181-2.653c1.126,0.745,2.726,1.254,4.198,1.254
				c1.49,0,2.072-0.418,2.072-1.036c0-2.017-7.233-0.545-7.233-5.27c0-2.271,1.854-4.125,5.634-4.125
				c1.654,0,3.362,0.381,4.616,1.108l-1.109,2.671c-1.217-0.654-2.417-0.982-3.525-0.982c-1.508,0-2.054,0.509-2.054,1.145
				c0,1.945,7.215,0.491,7.215,5.18c0,2.217-1.854,4.107-5.634,4.107C157.535,139.93,155.463,139.367,154.264,138.531z"/>
		</g>
	</g>
	<g>
		<g>
			<g>
				<g>
					<g>
						<g>
							
								<ellipse transform="matrix(0.992 -0.1261 0.1261 0.992 -16.4703 47.0638)" style="fill:#FFFFFF;" cx="363.401" cy="153.588" rx="36.059" ry="36.059"/>
						</g>
						<g>
							<g>
								<path style="fill:#263238;" d="M327.343,153.588c0,0-0.005-0.198,0.007-0.584c0.015-0.401,0.037-0.972,0.065-1.717
									c0.016-0.379,0.034-0.801,0.053-1.266c0.042-0.464,0.133-0.967,0.208-1.514c0.08-0.547,0.167-1.136,0.259-1.765
									c0.069-0.635,0.297-1.279,0.453-1.979c0.612-2.805,1.897-6.126,3.947-9.651c2.066-3.51,5.061-7.184,9.156-10.308
									c0.514-0.386,1.035-0.777,1.562-1.172c0.549-0.363,1.127-0.695,1.699-1.05c0.584-0.335,1.137-0.741,1.763-1.027
									c0.62-0.3,1.245-0.603,1.878-0.908c0.317-0.151,0.635-0.303,0.955-0.456c0.333-0.122,0.668-0.246,1.004-0.369
									c0.672-0.247,1.352-0.497,2.037-0.749c0.692-0.231,1.416-0.381,2.133-0.578c0.724-0.166,1.437-0.422,2.192-0.502
									c1.497-0.217,3.012-0.529,4.581-0.542c0.781-0.029,1.569-0.107,2.362-0.096c0.794,0.039,1.593,0.079,2.399,0.118
									c0.402,0.027,0.809,0.024,1.211,0.076c0.402,0.061,0.805,0.122,1.209,0.183c0.807,0.132,1.628,0.225,2.44,0.392
									c1.601,0.431,3.259,0.755,4.837,1.41c1.627,0.519,3.159,1.319,4.732,2.071c0.766,0.414,1.501,0.896,2.26,1.345
									c0.371,0.237,0.768,0.44,1.121,0.707l1.069,0.798c1.475,1.011,2.767,2.274,4.117,3.492c0.612,0.673,1.228,1.349,1.846,2.029
									l0.464,0.51l0.417,0.551l0.831,1.111l0.835,1.116l0.731,1.193l0.73,1.201l0.366,0.602l0.311,0.634
									c0.409,0.849,0.82,1.702,1.233,2.558c0.327,0.892,0.656,1.787,0.986,2.686c1.185,3.641,1.823,7.509,1.874,11.444
									c-0.051,3.936-0.687,7.806-1.872,11.449c-0.33,0.899-0.658,1.795-0.986,2.687c-0.413,0.856-0.824,1.709-1.233,2.559
									l-0.31,0.635l-0.366,0.603l-0.73,1.201l-0.731,1.193l-0.835,1.116l-0.831,1.111l-0.417,0.551l-0.464,0.51
									c-0.618,0.68-1.234,1.356-1.846,2.029c-1.351,1.219-2.643,2.482-4.118,3.493l-1.069,0.798
									c-0.354,0.268-0.75,0.47-1.122,0.707c-0.759,0.449-1.494,0.931-2.26,1.346c-1.574,0.753-3.105,1.553-4.733,2.072
									c-1.578,0.655-3.236,0.979-4.838,1.41c-0.812,0.167-1.633,0.26-2.44,0.392c-0.404,0.061-0.808,0.122-1.209,0.183
									c-0.403,0.052-0.809,0.049-1.211,0.076c-0.806,0.04-1.605,0.079-2.399,0.118c-0.793,0.01-1.581-0.067-2.362-0.096
									c-1.569-0.013-3.084-0.325-4.581-0.542c-0.755-0.08-1.468-0.336-2.192-0.503c-0.717-0.197-1.441-0.347-2.133-0.578
									c-0.685-0.252-1.364-0.502-2.037-0.749c-0.336-0.124-0.671-0.247-1.004-0.369c-0.32-0.153-0.639-0.305-0.955-0.457
									c-0.632-0.306-1.258-0.609-1.878-0.908c-0.626-0.287-1.18-0.693-1.763-1.028c-0.572-0.355-1.15-0.687-1.699-1.05
									c-0.527-0.395-1.047-0.786-1.562-1.172c-4.095-3.124-7.09-6.798-9.155-10.308c-2.049-3.525-3.334-6.845-3.946-9.65
									c-0.156-0.7-0.385-1.344-0.453-1.979c-0.092-0.629-0.179-1.218-0.259-1.765c-0.074-0.547-0.166-1.05-0.208-1.513
									c-0.02-0.465-0.038-0.887-0.053-1.265c-0.028-0.744-0.05-1.315-0.065-1.716
									C327.338,153.786,327.343,153.588,327.343,153.588s0.025,0.198,0.052,0.584c0.025,0.4,0.061,0.969,0.108,1.711
									c0.022,0.377,0.047,0.798,0.074,1.26c0.048,0.462,0.147,0.962,0.227,1.506c0.086,0.544,0.179,1.13,0.278,1.755
									c0.074,0.631,0.308,1.271,0.47,1.966c0.634,2.786,1.936,6.077,3.991,9.567c2.071,3.475,5.061,7.106,9.133,10.189
									c0.511,0.381,1.029,0.766,1.552,1.156c0.545,0.358,1.12,0.685,1.688,1.035c0.58,0.33,1.129,0.73,1.751,1.012
									c0.615,0.295,1.236,0.593,1.863,0.894c0.314,0.149,0.63,0.299,0.948,0.45c0.33,0.12,0.662,0.241,0.996,0.362
									c0.667,0.243,1.34,0.488,2.02,0.736c0.686,0.227,1.404,0.373,2.114,0.566c0.718,0.162,1.423,0.415,2.172,0.492
									c1.483,0.21,2.982,0.517,4.536,0.525c0.773,0.027,1.553,0.102,2.339,0.09c0.785-0.041,1.577-0.082,2.374-0.123
									c0.398-0.028,0.8-0.025,1.198-0.078c0.397-0.061,0.796-0.122,1.196-0.184c0.798-0.132,1.61-0.226,2.413-0.392
									c1.583-0.431,3.223-0.752,4.782-1.403c1.609-0.515,3.122-1.31,4.677-2.055c0.757-0.411,1.483-0.889,2.233-1.334
									c0.367-0.235,0.759-0.435,1.108-0.7l1.056-0.791c1.458-1.001,2.733-2.252,4.067-3.457c0.605-0.666,1.212-1.335,1.823-2.008
									l0.458-0.505l0.412-0.545l0.821-1.099l0.825-1.103l0.722-1.18l0.721-1.188l0.362-0.596l0.306-0.627
									c0.404-0.84,0.81-1.683,1.217-2.529c0.323-0.882,0.647-1.767,0.972-2.656c1.169-3.599,1.796-7.422,1.848-11.313
									c-0.052-3.889-0.681-7.71-1.85-11.308c-0.325-0.888-0.65-1.773-0.973-2.655c-0.407-0.846-0.813-1.689-1.217-2.528
									l-0.306-0.627l-0.362-0.595l-0.721-1.187l-0.722-1.179l-0.824-1.103l-0.821-1.098l-0.412-0.545l-0.458-0.504
									c-0.61-0.672-1.218-1.341-1.822-2.007c-1.335-1.205-2.609-2.456-4.067-3.456l-1.056-0.79
									c-0.349-0.265-0.741-0.465-1.108-0.7c-0.75-0.445-1.475-0.923-2.233-1.334c-1.555-0.746-3.068-1.54-4.676-2.055
									c-1.559-0.651-3.199-0.972-4.782-1.403c-0.803-0.166-1.615-0.259-2.413-0.392c-0.4-0.062-0.799-0.123-1.196-0.184
									c-0.398-0.053-0.8-0.05-1.198-0.078c-0.797-0.041-1.588-0.082-2.374-0.122c-0.785-0.012-1.565,0.063-2.338,0.09
									c-1.554,0.009-3.053,0.315-4.536,0.525c-0.748,0.076-1.454,0.329-2.172,0.492c-0.71,0.193-1.428,0.339-2.114,0.566
									c-0.679,0.248-1.353,0.493-2.019,0.736c-0.333,0.121-0.665,0.242-0.996,0.362c-0.317,0.151-0.633,0.3-0.948,0.449
									c-0.627,0.301-1.249,0.599-1.863,0.894c-0.622,0.282-1.171,0.683-1.751,1.012c-0.568,0.35-1.143,0.677-1.688,1.035
									c-0.523,0.39-1.041,0.775-1.552,1.156c-4.072,3.082-7.062,6.713-9.134,10.188c-2.055,3.49-3.357,6.782-3.991,9.568
									c-0.162,0.695-0.396,1.335-0.47,1.966c-0.099,0.625-0.192,1.211-0.278,1.755c-0.081,0.544-0.179,1.045-0.228,1.506
									c-0.027,0.463-0.052,0.883-0.074,1.26c-0.047,0.742-0.083,1.312-0.108,1.712
									C327.368,153.39,327.343,153.588,327.343,153.588z"/>
							</g>
						</g>
					</g>
				</g>
				<g>
					<g>
						<g>
							<path style="fill:#FFFFFF;" d="M313.63,176.252c0,3.238,2.625,5.863,5.863,5.863s5.863-2.625,5.863-5.863
								s-2.625-5.863-5.863-5.863S313.63,173.014,313.63,176.252z"/>
						</g>
						<g>
							<g>
								<path style="fill:#263238;" d="M313.63,176.252c-0.015,0-0.023-0.129-0.025-0.376c-0.007-0.247,0.024-0.615,0.126-1.076
									c0.193-0.909,0.762-2.264,2.121-3.33c0.673-0.521,1.53-0.967,2.525-1.153c0.988-0.18,2.108-0.158,3.18,0.242
									c1.071,0.376,2.097,1.098,2.827,2.103c0.75,0.992,1.176,2.273,1.187,3.59c-0.011,1.318-0.436,2.6-1.187,3.592
									c-0.731,1.005-1.756,1.727-2.828,2.104c-1.072,0.399-2.192,0.421-3.181,0.241c-0.995-0.186-1.852-0.633-2.525-1.154
									c-1.359-1.066-1.928-2.421-2.121-3.33c-0.103-0.461-0.133-0.829-0.126-1.076
									C313.607,176.381,313.615,176.252,313.63,176.252c0.048-0.003,0.026,0.522,0.265,1.411c0.236,0.871,0.83,2.147,2.143,3.128
									c0.651,0.479,1.467,0.884,2.405,1.044c0.932,0.154,1.982,0.12,2.978-0.264c0.997-0.361,1.947-1.041,2.622-1.979
									c0.694-0.927,1.084-2.115,1.095-3.34c-0.012-1.225-0.402-2.413-1.096-3.339c-0.675-0.939-1.625-1.618-2.621-1.979
									c-0.996-0.383-2.046-0.417-2.978-0.264c-0.938,0.16-1.755,0.565-2.405,1.044c-1.313,0.98-1.907,2.256-2.143,3.128
									C313.656,175.73,313.679,176.255,313.63,176.252z"/>
							</g>
						</g>
					</g>
				</g>
			</g>
		</g>
		<g>
			<path style="fill:#263238;" d="M361.731,145.459v15.242h-3.549l-6.728-8.122v8.122h-4.224v-15.242h3.549l6.729,8.122v-8.122
				H361.731z"/>
			<path style="fill:#263238;" d="M364.002,153.08c0-4.573,3.593-7.926,8.471-7.926c4.877,0,8.47,3.353,8.47,7.926
				c0,4.573-3.593,7.926-8.47,7.926C367.594,161.006,364.002,157.653,364.002,153.08z M376.587,153.08
				c0-2.635-1.808-4.355-4.115-4.355c-2.309,0-4.116,1.72-4.116,4.355s1.808,4.355,4.116,4.355
				C374.78,157.435,376.587,155.715,376.587,153.08z"/>
		</g>
	</g>
	<g>
		<g>
			<g>
				<g>
					<g>
						<g>
							
								<ellipse transform="matrix(0.9305 -0.3662 0.3662 0.9305 -6.2037 114.6653)" style="fill:#FFFFFF;" cx="299.109" cy="73.683" rx="31.12" ry="31.18"/>
						</g>
						<g>
							<g>
								<path style="fill:#263238;" d="M286.702,102.258c0,0,0.155,0.072,0.466,0.195c0.323,0.126,0.783,0.305,1.383,0.539
									c0.306,0.118,0.646,0.249,1.021,0.393c0.382,0.127,0.812,0.227,1.271,0.356c0.461,0.125,0.958,0.259,1.488,0.402
									c0.527,0.164,1.116,0.205,1.724,0.322c2.434,0.48,5.507,0.604,9.006,0.193c3.493-0.429,7.434-1.539,11.319-3.709
									c0.483-0.275,0.972-0.553,1.466-0.834c0.476-0.31,0.939-0.654,1.417-0.985c0.466-0.347,0.978-0.646,1.421-1.044
									c0.45-0.387,0.905-0.779,1.364-1.174c0.346-0.329,0.912-0.867,1.259-1.195c0.024-0.025,0.047-0.05,0.071-0.075
									c0.427-0.448,0.859-0.9,1.294-1.356c0.421-0.469,0.789-0.991,1.192-1.492c0.381-0.516,0.829-0.993,1.152-1.564
									c0.687-1.112,1.455-2.205,2.005-3.444c0.292-0.609,0.624-1.206,0.889-1.839c0.33-0.877,0.664-1.762,1.001-2.656
									c0.033-0.088,0.063-0.179,0.087-0.271c0.09-0.339,0.18-0.68,0.271-1.022c0.173-0.685,0.382-1.368,0.529-2.068
									c0.209-1.417,0.523-2.843,0.547-4.318c0.149-1.468,0.042-2.957-0.013-4.463c-0.064-0.75-0.194-1.498-0.289-2.254
									c-0.06-0.376-0.084-0.76-0.174-1.132l-0.265-1.121c-0.235-1.215-0.639-2.393-1.048-3.58
									c-0.231-0.584-0.462-1.168-0.693-1.752l-0.827-1.836l-0.293-0.52l-0.594-1.041l-0.597-1.045l-0.693-0.99l-0.7-0.992
									l-0.352-0.497l-0.396-0.464c-0.87-0.92-2.289-2.42-3.159-3.341c-0.078-0.074-0.155-0.148-0.233-0.222
									c-2.478-2.192-5.324-4.028-8.424-5.423c-3.137-1.314-6.423-2.141-9.716-2.456c-0.097-0.006-0.195-0.011-0.292-0.017
									c-1.275-0.008-3.354-0.021-4.629-0.03l-0.61,0.028l-0.603,0.083l-1.203,0.165l-1.197,0.169l-1.172,0.278l-1.166,0.277
									l-0.58,0.141l-1.909,0.651c-0.585,0.23-1.168,0.46-1.753,0.69c-1.146,0.511-2.282,1.02-3.33,1.677l-1,0.573
									c-0.334,0.188-0.631,0.433-0.946,0.646c-0.617,0.447-1.252,0.863-1.844,1.328c-1.138,0.988-2.299,1.926-3.271,3.038
									c-1.062,1.025-1.889,2.228-2.782,3.349c-0.411,0.586-0.768,1.204-1.15,1.799c-0.188,0.3-0.375,0.598-0.561,0.896
									c-0.05,0.079-0.096,0.162-0.138,0.246c-0.424,0.857-0.843,1.707-1.259,2.547c-0.281,0.625-0.491,1.276-0.737,1.905
									c-0.53,1.248-0.803,2.556-1.147,3.817c-0.197,0.626-0.239,1.279-0.356,1.91c-0.09,0.636-0.221,1.261-0.276,1.889
									c-0.036,0.634-0.073,1.263-0.108,1.886c-0.005,0.5-0.014,1.314-0.019,1.814c0,0.003,0,0.006,0,0.009
									c0.025,0.606,0.049,1.206,0.074,1.8c0.012,0.595,0.143,1.173,0.208,1.751c0.085,0.575,0.149,1.148,0.248,1.708
									c0.132,0.553,0.263,1.1,0.392,1.641c1.067,4.32,2.948,7.957,5.019,10.802c2.089,2.837,4.277,4.998,6.29,6.447
									c0.501,0.365,0.933,0.767,1.413,1.04c0.467,0.29,0.904,0.561,1.31,0.813c0.408,0.247,0.775,0.493,1.128,0.685
									c0.361,0.175,0.69,0.335,0.984,0.478c0.58,0.278,1.025,0.492,1.338,0.642C286.544,102.194,286.702,102.258,286.702,102.258
									s-0.148-0.088-0.445-0.242c-0.308-0.158-0.747-0.382-1.319-0.674c-0.291-0.147-0.616-0.312-0.973-0.492
									c-0.349-0.197-0.712-0.447-1.115-0.698c-0.402-0.256-0.834-0.53-1.295-0.824c-0.474-0.276-0.901-0.682-1.396-1.049
									c-1.99-1.461-4.15-3.625-6.209-6.454c-2.041-2.837-3.89-6.455-4.932-10.743c-0.126-0.536-0.253-1.079-0.382-1.628
									c-0.096-0.555-0.158-1.123-0.24-1.694c-0.062-0.573-0.19-1.146-0.2-1.736c-0.022-0.588-0.044-1.182-0.067-1.782
									c0.005-0.477,0.014-1.257,0.02-1.734c0.002-0.029,0.004-0.058,0.005-0.088c0.037-0.612,0.074-1.23,0.112-1.854
									c0.056-0.622,0.188-1.241,0.279-1.87c0.118-0.625,0.16-1.271,0.357-1.89c0.344-1.248,0.617-2.541,1.145-3.776
									c0.245-0.622,0.453-1.266,0.733-1.884c0.414-0.833,0.833-1.675,1.255-2.525c0.04-0.081,0.085-0.16,0.133-0.236
									c0.185-0.294,0.371-0.589,0.558-0.885c0.38-0.587,0.733-1.198,1.141-1.777c0.886-1.106,1.705-2.295,2.757-3.307
									c0.962-1.098,2.112-2.023,3.238-2.999c0.586-0.459,1.215-0.87,1.825-1.311c0.313-0.21,0.606-0.452,0.936-0.637l0.99-0.564
									c1.294-0.811,2.725-1.391,4.139-2.034c0.736-0.25,1.475-0.501,2.218-0.754l0.558-0.19l0.574-0.138l1.153-0.272l1.158-0.274
									l1.183-0.166l1.189-0.163l0.596-0.082l0.603-0.027c1.267,0.009,3.333,0.024,4.599,0.033c0.087,0.005,0.175,0.01,0.262,0.015
									c3.254,0.312,6.5,1.13,9.6,2.428c3.064,1.379,5.876,3.193,8.325,5.357c0.072,0.069,0.144,0.138,0.216,0.206
									c0.864,0.912,2.273,2.4,3.137,3.312l0.391,0.459l0.347,0.491l0.693,0.98l0.686,0.978l0.59,1.033l0.588,1.028l0.29,0.514
									l0.242,0.537c0.323,0.715,0.644,1.426,0.964,2.135c0.496,1.472,1.048,2.913,1.34,4.412l0.263,1.108
									c0.09,0.368,0.114,0.747,0.174,1.119c0.095,0.747,0.224,1.487,0.289,2.228c0.056,1.489,0.165,2.961,0.02,4.413
									c-0.02,1.459-0.33,2.869-0.533,4.272c-0.145,0.693-0.35,1.369-0.52,2.047c-0.089,0.338-0.177,0.675-0.266,1.011
									c-0.023,0.088-0.051,0.176-0.083,0.261c-0.332,0.888-0.662,1.768-0.987,2.638c-0.26,0.627-0.589,1.218-0.876,1.822
									c-0.541,1.228-1.3,2.311-1.977,3.414c-0.318,0.567-0.761,1.039-1.137,1.552c-0.397,0.496-0.76,1.015-1.176,1.48
									c-0.43,0.453-0.856,0.902-1.278,1.347c-0.211,0.222-0.421,0.444-0.63,0.664c-0.021,0.02-0.041,0.039-0.062,0.059
									c-0.666,0.577-1.323,1.146-1.969,1.706c-0.437,0.396-0.944,0.693-1.405,1.039c-0.473,0.33-0.93,0.672-1.401,0.981
									c-0.489,0.281-0.973,0.558-1.451,0.832c-3.844,2.167-7.75,3.286-11.217,3.732c-3.473,0.428-6.53,0.327-8.956-0.129
									c-0.607-0.111-1.194-0.146-1.72-0.304c-0.53-0.137-1.026-0.265-1.487-0.383c-0.459-0.123-0.889-0.217-1.272-0.338
									c-0.376-0.138-0.718-0.263-1.024-0.375c-0.604-0.218-1.068-0.386-1.394-0.503
									C286.868,102.306,286.702,102.258,286.702,102.258z"/>
							</g>
						</g>
					</g>
				</g>
				<g>
					<g>
						<g>
							<path style="fill:#FFFFFF;" d="M274.268,115.798c-3.716-0.721-5.387-4.956-3.163-8.019c1.12-1.544,3.097-2.324,4.969-1.961
								c3.716,0.721,5.387,4.956,3.163,8.019C278.117,115.382,276.14,116.161,274.268,115.798z"/>
						</g>
						<g>
							<g>
								<path style="fill:#263238;" d="M273.154,115.454c-0.005,0.012,0.094,0.063,0.29,0.149c0.193,0.09,0.495,0.193,0.896,0.27
									c0.786,0.16,2.056,0.175,3.369-0.535c0.644-0.354,1.293-0.88,1.783-1.604c0.483-0.721,0.85-1.616,0.903-2.603
									c0.071-0.979-0.148-2.039-0.694-2.964c-0.528-0.936-1.396-1.714-2.437-2.176c-1.048-0.445-2.21-0.549-3.255-0.295
									c-1.048,0.233-1.973,0.797-2.64,1.517c-0.685,0.712-1.088,1.592-1.286,2.437c-0.195,0.853-0.136,1.686,0.045,2.398
									c0.377,1.444,1.256,2.361,1.909,2.827c0.33,0.24,0.611,0.39,0.809,0.47C273.044,115.428,273.148,115.466,273.154,115.454
									c0.019-0.037-0.405-0.2-1.027-0.695c-0.609-0.487-1.416-1.396-1.741-2.774c-0.156-0.68-0.196-1.467,0-2.265
									c0.199-0.792,0.587-1.612,1.234-2.27c0.629-0.666,1.495-1.185,2.471-1.397c0.973-0.231,2.049-0.131,3.024,0.281
									c0.967,0.431,1.774,1.149,2.269,2.017c0.512,0.857,0.723,1.844,0.666,2.758c-0.039,0.921-0.373,1.765-0.816,2.451
									c-0.449,0.689-1.052,1.196-1.655,1.547c-1.229,0.703-2.444,0.735-3.216,0.622
									C273.576,115.614,273.168,115.415,273.154,115.454z"/>
							</g>
						</g>
					</g>
				</g>
			</g>
		</g>
		<g>
			<g>
				<g>
					<path style="fill:#263238;" d="M290.29,68.458h4.712c0,0,0-3.957,4.112-4.028c2.135-0.037,3.243,1.362,3.693,2.434
						c0.522,1.244,0.364,2.663-0.336,3.816c-0.799,1.318-2.551,2.516-5.727,1.956v10.625h4.659v-6.224c0,0,6.535-1.689,6.535-8.891
						c0-6.891-6.179-8.491-8.825-8.491C297.092,59.656,290.201,60.145,290.29,68.458z"/>
				</g>
			</g>
			<g>
				<g>
					<rect x="296.732" y="85.451" style="fill:#263238;" width="4.729" height="4.417"/>
				</g>
			</g>
		</g>
	</g>
</g>
<g id="Character">
	<g>
		<g>
			<g>
				<path style="fill:#FFBF9D;" d="M127.095,349.235c0,0-8.54-8.017-11.824-10.147c-3.284-2.13-10.65-5.059-13.401-5.325
					c-2.751-0.266-15.62,3.461-15.62,3.461s-18.992-1.686-22.187,0.533c-3.195,2.219-2.929,4.526-1.597,6.212
					c1.331,1.686,6.479,1.154,12.158,1.242c5.68,0.089,7.189,0.621,7.189,0.621l-8.254,8.786l21.388,5.946l13.046-0.489l4.704,5.915
					L127.095,349.235z"/>
			</g>
			<g>
				<path style="fill:#FFBF9D;" d="M61.982,329.387l0.516,18.925l0.916,2.352l9.335,11.381l22.776-1.501l-18.145-7.07l-6.452-4.903
					l-2.495-8.086C68.434,340.484,69.208,328.011,61.982,329.387z"/>
			</g>
			<g>
				<path style="fill:#FFBF9D;" d="M63.583,351.097h-5.547c0,0-7.237-11.903-13.861-7.86l1.522,2.352c0,0-2.985-1.351-4.877,1.16
					l18.257,16.016h0.84l19.454-1.253L63.583,351.097z"/>
			</g>
			<g>
				<g>
					<path style="fill:#FF9A6C;" d="M66.887,354.715c-0.006,0.057-0.587,0.029-1.57,0.066c-0.968,0.055-2.405,0.118-3.844,0.772
						l-0.186,0.085l-0.121-0.17c-0.562-0.794-1.258-1.65-1.972-2.541c-1.478-1.824-2.815-3.474-3.938-4.861
						c-1.001-1.251-1.616-2.025-1.564-2.074c0.053-0.05,0.771,0.643,1.845,1.835c1.075,1.191,2.524,2.867,4.063,4.773
						c0.719,0.899,1.399,1.752,1.972,2.601l-0.306-0.086c1.597-0.677,3.061-0.654,4.052-0.631
						C66.319,354.532,66.894,354.663,66.887,354.715z"/>
				</g>
			</g>
			<g>
				<g>
					<path style="fill:#FF9A6C;" d="M106.347,343.712c0.047,0.169-3.073,0.803-6.419,2.717c-3.356,1.899-5.495,4.256-5.616,4.129
						c-0.047-0.043,0.43-0.679,1.348-1.577c0.916-0.896,2.302-2.03,4.011-3.005c1.711-0.971,3.394-1.583,4.632-1.912
						C105.544,343.735,106.335,343.65,106.347,343.712z"/>
				</g>
			</g>
			<g>
				<g>
					<path style="fill:#FF9A6C;" d="M88.151,338.81c0.103,0.108-1.155,1.464-2.613,3.209c-1.463,1.741-2.578,3.217-2.702,3.135
						c-0.116-0.075,0.819-1.702,2.303-3.469C86.619,339.915,88.057,338.709,88.151,338.81z"/>
				</g>
			</g>
			<g>
				<g>
					<path style="fill:#FF9A6C;" d="M69.132,357.361c-0.014,0.012-0.163-0.138-0.436-0.434c-0.305-0.34-0.694-0.774-1.174-1.309
						c-0.518-0.591-1.13-1.291-1.834-2.094c-0.358-0.412-0.738-0.85-1.14-1.313c-0.396-0.464-0.852-0.946-1.235-1.538
						c-0.765-1.166-1.29-2.683-1.297-4.334c-0.031-1.613-0.065-3.333-0.1-5.142c-0.06-3.631-0.126-7.615-0.195-11.806l-0.004-0.23
						l0.215-0.029c0.19-0.026,0.396-0.054,0.603-0.082c1.343-0.15,2.78,0.321,3.682,1.306c0.909,0.965,1.417,2.161,1.762,3.325
						c0.662,2.357,0.769,4.674,0.685,6.819l-0.01-0.082c0.924,3.068,1.748,5.8,2.441,8.102l-0.061-0.088
						c1.956,1.529,3.54,2.766,4.69,3.664c0.508,0.41,0.92,0.742,1.245,1.004c0.28,0.233,0.421,0.361,0.411,0.374
						c-0.01,0.013-0.171-0.088-0.471-0.296c-0.34-0.243-0.77-0.551-1.301-0.93c-1.174-0.867-2.79-2.062-4.786-3.538l-0.044-0.033
						l-0.017-0.056c-0.724-2.293-1.583-5.014-2.548-8.07l-0.011-0.036l0.001-0.047c0.064-2.084-0.06-4.387-0.709-6.647
						c-0.334-1.119-0.829-2.244-1.648-3.108c-0.815-0.875-2.034-1.275-3.263-1.147c-0.19,0.026-0.379,0.052-0.553,0.075l0.212-0.259
						c0.054,4.191,0.105,8.175,0.151,11.806c0.15,3.594-0.412,7.019,1.226,9.286c0.35,0.566,0.785,1.043,1.177,1.523
						c0.391,0.472,0.762,0.919,1.11,1.339c0.678,0.825,1.269,1.544,1.767,2.151c0.45,0.561,0.814,1.015,1.1,1.372
						C69.022,357.178,69.145,357.35,69.132,357.361z"/>
				</g>
			</g>
			<g>
				<g>
					<path style="fill:#FF9A6C;" d="M59.917,362.764c0.007,0.025-0.39,0.046-0.97-0.277c-0.58-0.31-1.319-0.902-2.142-1.711
						c-1.65-1.618-3.656-4.09-5.721-6.917c-2.064-2.831-3.813-5.475-5.042-7.412c-0.614-0.969-1.096-1.762-1.417-2.318
						s-0.482-0.874-0.451-0.893c0.03-0.019,0.248,0.262,0.622,0.783c0.434,0.622,0.952,1.362,1.554,2.224
						c1.305,1.882,3.099,4.487,5.155,7.308c2.058,2.817,4.005,5.308,5.563,6.967c0.777,0.829,1.461,1.447,1.983,1.795
						C59.57,362.671,59.922,362.716,59.917,362.764z"/>
				</g>
			</g>
			<g>
				<path style="fill:#FFBF9D;" d="M93.149,350.549l-10.05-0.678l-3.004-8.235l-0.554-5.537c-0.271-2.707-2.534-4.842-5.253-4.802
					c-0.032,0-0.065,0.001-0.098,0.002l0.564,13.572l2.064,8.43l8.166,4.817h9.985L93.149,350.549z"/>
			</g>
			<g>
				<g>
					<path style="fill:#FFBF9D;" d="M93.149,350.549l-10.05-0.678l-3.004-8.235l-0.554-5.537c-0.271-2.707-2.534-4.842-5.253-4.802
						c-0.032,0-0.065,0.001-0.098,0.002l0.564,13.572l2.064,8.43l8.166,4.817"/>
				</g>
				<g>
					<g>
						<path style="fill:#FF9A6C;" d="M84.985,358.119c-0.009,0.016-0.212-0.084-0.59-0.287c-0.423-0.235-0.968-0.538-1.644-0.913
							c-1.474-0.846-3.515-2.018-6.025-3.458l-0.066-0.038l-0.019-0.077c-0.607-2.417-1.323-5.271-2.113-8.418l-0.006-0.022
							l-0.001-0.024c-0.177-4.08-0.378-8.695-0.59-13.571l-0.011-0.259l0.265-0.012c0.091-0.004,0.193,0.001,0.294,0.004
							c2.527,0.018,4.678,1.99,5.175,4.243c0.143,0.57,0.168,1.127,0.225,1.658c0.052,0.538,0.104,1.07,0.156,1.595
							c0.102,1.051,0.201,2.076,0.297,3.073l-0.013-0.057c1.099,3.066,2.095,5.843,2.959,8.251l-0.165-0.124
							c3.054,0.241,5.548,0.438,7.348,0.58c0.822,0.076,1.485,0.138,1.996,0.185c0.456,0.048,0.695,0.083,0.694,0.101
							c-0.001,0.019-0.243,0.021-0.701,0.007c-0.513-0.022-1.178-0.05-2.003-0.085c-1.803-0.101-4.3-0.241-7.359-0.412l-0.122-0.007
							l-0.043-0.117c-0.89-2.399-1.916-5.165-3.049-8.219l-0.01-0.027l-0.003-0.031c-0.103-0.996-0.209-2.021-0.317-3.071
							c-0.054-0.525-0.108-1.057-0.163-1.595c-0.06-0.542-0.089-1.085-0.219-1.586c-0.461-2.051-2.42-3.831-4.692-3.844
							c-0.092-0.003-0.182-0.008-0.269-0.004l0.253-0.271c0.193,4.876,0.377,9.492,0.538,13.573l-0.006-0.046
							c0.754,3.156,1.437,6.018,2.016,8.442l-0.085-0.115c2.475,1.5,4.488,2.72,5.941,3.601c0.656,0.41,1.184,0.741,1.594,0.997
							C84.809,357.974,84.994,358.103,84.985,358.119z"/>
					</g>
				</g>
			</g>
		</g>
		<g>
			<g>
				<path style="fill:#263238;" d="M308.422,190.418c-8.615-32.831-16.567-71.035-64.568-67.601c0,0-29.582,5.692-43.629,27.523
					c-8.263,12.842-15.422,68.199-16.846,111.921l0-0.001c0,0.007,0,0.015,0,0.022c-0.058,1.78,0.683,14.19,0.633,15.932
					l127.061,10.577h22.89c0,0-1.435-23.195-8.334-45.693C318.917,221.215,311.472,202.039,308.422,190.418z"/>
			</g>
			<g>
				<path style="fill:#FFBF9D;" d="M237.468,135.326l3.003-2.862l32.452,13.079c4.695,0.26,8.411,4.069,8.554,8.77l-0.285,105.737
					c0.041,7.17-1.396,13.38-5.725,19.095l-4.558,6.017c-10.392,13.72-31.769,12.591-39.997-2.526
					c-0.575-1.056-0.974-1.983-1.147-2.734c-0.174-0.942-0.431-1.563-0.483-2.365c-0.966-8.507-1.021-15.883-1.021-15.883
					c-0.578-9.34-0.769-13.172-0.77-13.085c0,0-19.876-2.285-25.25-27.799c-2.672-12.689-2.168-30.145-1.417-47.326
					C201.864,149.667,218.356,135.303,237.468,135.326z"/>
			</g>
			<g>
				<path style="fill:#263238;" d="M245.822,190.406c0.026,1.745,1.525,3.162,3.347,3.168c1.819,0.007,3.277-1.399,3.251-3.144
					c-0.026-1.745-1.525-3.164-3.344-3.17C247.253,187.254,245.796,188.662,245.822,190.406z"/>
			</g>
			<g>
				<path style="fill:#263238;" d="M211.937,191.291c0.026,1.745,1.525,3.162,3.347,3.169c1.819,0.007,3.277-1.399,3.251-3.144
					c-0.026-1.745-1.525-3.164-3.344-3.17C213.369,188.138,211.911,189.547,211.937,191.291z"/>
			</g>
			<g>
				<path style="fill:#263238;" d="M204.218,180.239c0.43,0.41,2.837-1.564,6.387-1.734c3.543-0.219,6.24,1.477,6.603,1.022
					c0.18-0.202-0.276-0.957-1.451-1.727c-1.158-0.766-3.103-1.47-5.313-1.35c-2.21,0.123-4.029,1.031-5.056,1.917
					C204.339,179.26,204.007,180.056,204.218,180.239z"/>
			</g>
			<g>
				<path style="fill:#263238;" d="M239.423,179.03c0.471,0.363,2.665-1.848,6.176-2.38c3.501-0.583,6.358,0.827,6.673,0.338
					c0.157-0.22-0.369-0.925-1.622-1.568c-1.231-0.644-3.236-1.145-5.423-0.798c-2.186,0.35-3.902,1.439-4.833,2.427
					C239.445,178.043,239.195,178.87,239.423,179.03z"/>
			</g>
			<g>
				<path style="fill:#263238;" d="M227.837,206.444c0.007-0.202-2.219-0.473-5.817-0.751c-0.911-0.049-1.778-0.185-1.962-0.796
					c-0.246-0.645,0.083-1.64,0.47-2.716c0.742-2.236,1.519-4.58,2.335-7.036c3.229-10.012,5.519-18.228,5.115-18.354
					c-0.405-0.127-3.351,7.886-6.58,17.899c-0.774,2.468-1.516,4.82-2.22,7.071c-0.292,1.047-0.823,2.245-0.292,3.581
					c0.278,0.665,0.968,1.123,1.557,1.251c0.59,0.148,1.1,0.132,1.55,0.136C225.601,206.742,227.834,206.646,227.837,206.444z"/>
			</g>
			<g>
				<path style="fill:#FF9A6C;" d="M227.491,248.568c0,0,17.358,0.248,33.984-10.914c0,0-7.768,18.238-33.63,17.122L227.491,248.568
					z"/>
			</g>
			<g>
				<path style="fill:#FF9A6C;" d="M238.93,213.661c-0.998-1.208-2.592-1.872-4.141-1.961c-2.233-0.128-3.803,0.154-4.995,1.906
					c-0.559,0.967-0.511,2.458-0.25,2.867c0.26,0.41,0.066,0.419,0.464,0.707c1.441,1.041,3.103,1.71,4.821,2.107
					c1.718,0.397,3.703-0.014,4.594-1.409C240.214,216.639,239.929,214.868,238.93,213.661z"/>
			</g>
			<g>
				<path style="fill:#263238;" d="M238.57,162.725c0.455,0.908,3.515-0.025,7.266-0.091c3.75-0.151,6.898,0.601,7.255-0.331
					c0.155-0.443-0.499-1.262-1.84-2.003c-1.33-0.741-3.36-1.328-5.609-1.265c-2.248,0.067-4.209,0.77-5.454,1.586
					C238.932,161.438,238.368,162.292,238.57,162.725z"/>
			</g>
			<g>
				<path style="fill:#263238;" d="M204.729,173.816c0.664,0.774,3.068-0.184,6.006-0.371c2.931-0.29,5.457,0.269,5.988-0.602
					c0.231-0.422-0.202-1.21-1.328-1.918c-1.11-0.707-2.935-1.238-4.952-1.076c-2.017,0.166-3.731,0.984-4.712,1.861
					C204.733,172.589,204.434,173.437,204.729,173.816z"/>
			</g>
			<g>
				<path style="fill:#263238;" d="M280.829,199.437c0,0-13.659,3.303-33.046-38.445c-6.599-14.211-19.416-28.528-19.416-28.528
					l12.025-1.735c0,0,35.848,10.099,36.451,10.551c0.603,0.452,9.044,18.54,9.044,18.54L280.829,199.437z"/>
			</g>
			<g>
				<path style="fill:#FFBF9D;" d="M276.349,197.766c-0.091-1.915,1.896-6.542,3.773-6.932c5.011-1.041,14.136-1.091,14.864,11.732
					c0.995,17.53-16.81,14.912-16.87,14.411C278.07,216.587,276.665,204.381,276.349,197.766z"/>
			</g>
			<g>
				<path style="fill:#FF9A6C;" d="M283.095,210.033c0.074-0.061,0.317,0.196,0.846,0.404c0.517,0.201,1.392,0.312,2.286-0.083
					c1.813-0.784,3.206-3.813,3.111-6.978c-0.046-1.598-0.466-3.098-1.103-4.324c-0.608-1.252-1.488-2.101-2.43-2.213
					c-0.939-0.162-1.568,0.433-1.755,0.938c-0.207,0.504-0.076,0.848-0.167,0.882c-0.046,0.047-0.393-0.272-0.293-1.003
					c0.053-0.353,0.234-0.778,0.628-1.139c0.401-0.366,1.009-0.575,1.663-0.542c1.358,0.018,2.644,1.192,3.344,2.537
					c0.774,1.348,1.285,3.032,1.336,4.826c0.088,3.539-1.532,6.947-4.025,7.823c-1.214,0.391-2.265,0.078-2.819-0.306
					C283.151,210.455,283.036,210.068,283.095,210.033z"/>
			</g>
			<g>
				<g>
					<path style="fill:#263238;" d="M241.191,214.37c-0.053,0.45-3.048,0.384-6.604,1.072c-3.564,0.652-6.33,1.802-6.543,1.403
						c-0.218-0.347,2.41-2.227,6.254-2.938C238.136,213.172,241.268,213.967,241.191,214.37z"/>
				</g>
			</g>
		</g>
		<g>
			<g>
				<path style="fill:#FFBF9D;" d="M378.189,350.225c0,0,14.682-12.577,18.937-12.912c4.254-0.336,15.445,1.744,15.445,1.744
					s7.068,0.061,10.581-0.378c5.29-0.661,8.909-0.11,11.031,0.537c1.06,0.323,2.385,2.959-0.733,4.754
					c-1.32,0.76-14.157,1.628-14.157,1.628l32.121,9.175l-4.173,3.442c-0.555,0.457-1.245,0.719-1.963,0.745l-46.249,1.64
					l-2.118,5.17L378.189,350.225z"/>
			</g>
			<g>
				<path style="fill:#FFBF9D;" d="M413.247,350.233h15.002c0,0,5.262-6.987,7.165-9.898c1.664-2.545,3.671-3.293,5.421-2.692
					c0.455,0.156,0.826,0.496,1.064,0.914l0,0c0.354,0.619,0.364,1.376,0.027,2.004l-6.595,12.313l3.457-1.168
					c0,0,6.926-6.781,8.27-8.348c1.343-1.567,6.269-8.173,10.636-3.359l-6.046,6.717l6.046-4.254c0,0,4.814-4.142,7.389,0.784
					l-17.976,15.159"/>
			</g>
			<g>
				<g>
					<path style="fill:#FF9A6C;" d="M397.631,344.019c-0.005-0.015,0.2-0.085,0.599-0.206c0.402-0.108,0.985-0.338,1.785-0.411
						c1.571-0.266,3.971-0.223,6.738,0.701c1.376,0.467,2.841,1.122,4.327,1.991c0.74,0.439,1.494,0.915,2.247,1.442
						c0.374,0.266,0.753,0.537,1.138,0.811c0.361,0.259,0.812,0.604,1.109,0.758c3.796,0.296,8.141,0.551,12.692,0.872l-0.211,0.089
						c1.401-1.667,2.789-3.482,4.128-5.38c0.523-0.738,1.021-1.483,1.509-2.224c0.482-0.739,0.941-1.506,1.475-2.216
						c0.528-0.71,1.098-1.387,1.766-1.962c0.328-0.293,0.696-0.546,1.091-0.754c0.412-0.191,0.808-0.38,1.377-0.304l-0.088-0.007
						c0.793-0.079,1.696,0.006,2.366,0.569c0.669,0.58,0.852,1.456,0.786,2.243l-0.004,0.041l-0.024,0.044
						c-2.857,5.125-5.343,9.584-7.272,13.044l0.015-0.036c-0.436,1.477-1.624,2.342-2.647,2.799
						c-1.06,0.461-2.046,0.554-2.825,0.598c-0.785,0.035-1.387,0.005-1.792-0.016c-0.406-0.023-0.616-0.045-0.615-0.061
						c0-0.016,0.212-0.025,0.617-0.032c0.405-0.01,1.006-0.008,1.779-0.071c0.766-0.07,1.73-0.192,2.729-0.655
						c0.972-0.458,2.065-1.308,2.434-2.649l0.005-0.019l0.01-0.018c1.895-3.479,4.336-7.963,7.142-13.116l-0.028,0.085
						c0.05-0.642-0.121-1.393-0.63-1.808c-0.504-0.425-1.261-0.521-1.995-0.443l-0.021,0.002l-0.068-0.009
						c-0.262-0.035-0.69,0.092-1.02,0.27c-0.346,0.185-0.683,0.414-0.989,0.691c-0.623,0.539-1.173,1.192-1.684,1.882
						c-0.99,1.394-1.908,2.965-2.974,4.433c-1.35,1.913-2.742,3.729-4.165,5.415l-0.083,0.098l-0.129-0.009
						c-4.582-0.336-8.844-0.598-12.761-0.945c-0.572-0.275-0.856-0.563-1.265-0.843c-0.38-0.276-0.754-0.548-1.123-0.816
						c-0.741-0.529-1.48-1.006-2.205-1.447c-1.456-0.874-2.888-1.536-4.233-2.016c-2.703-0.95-5.049-1.044-6.606-0.838
						c-0.792,0.044-1.376,0.242-1.783,0.32C397.851,343.994,397.636,344.034,397.631,344.019z"/>
				</g>
			</g>
			<g>
				<g>
					<path style="fill:#FF9A6C;" d="M457.693,339.999c0.027,0.024-0.183,0.316-0.586,0.825c-0.403,0.509-0.998,1.233-1.742,2.12
						c-1.488,1.775-3.57,4.203-5.894,6.863c-2.364,2.618-4.329,5.177-6.056,6.758c-0.851,0.799-1.604,1.381-2.165,1.721
						c-0.563,0.34-0.912,0.453-0.923,0.427c-0.019-0.039,0.295-0.211,0.809-0.594c0.514-0.384,1.215-0.997,2.021-1.817
						c1.636-1.623,3.536-4.193,5.911-6.826c2.328-2.665,4.457-5.059,6.018-6.774c0.78-0.858,1.419-1.546,1.868-2.013
						C457.405,340.223,457.666,339.975,457.693,339.999z"/>
				</g>
			</g>
			<g>
				<g>
					<path style="fill:#FF9A6C;" d="M449.464,340.702c0.052,0.05-0.648,0.865-1.822,2.142c-1.173,1.277-2.82,3.016-4.662,4.915
						c-1.51,1.557-2.917,2.979-4.043,4.092l-0.039,0.038l-0.044,0.014c-2.228,0.701-3.686,1.078-3.715,0.96
						c-0.003-0.029,0.339-0.161,0.963-0.397c0.761-0.278,1.632-0.596,2.62-0.956l-0.082,0.052c1.078-1.159,2.457-2.608,3.967-4.165
						c1.842-1.898,3.531-3.597,4.772-4.809C448.619,341.376,449.412,340.652,449.464,340.702z"/>
				</g>
			</g>
		</g>
		<g>
			<g>
				<path style="fill:#FF725E;" d="M328.418,275.602c0,0,21.561,5.556,23.676,34.86c1.205,16.695-7.681,70.327-7.681,70.327
					l31.84-32.701l28.376,19.744c0,0-38.604,47.2-47.513,54.296c-8.908,7.095-23.096,18.51-27.715,17.584
					c-4.619-0.926-4.619-22.212-4.619-22.212V299.962L328.418,275.602z"/>
			</g>
			<g>
				<path style="fill:#FF725E;" d="M173.422,279.19c0,0-19.183,6.306-18.4,43.774c0.783,37.467,0.168,50.083,0.168,50.083
					l-28.747-30.422l-23.881,26.339c0,0,26.716,39.692,45.413,58.983c17.617,18.177,33.276,2.392,38.366-10.387
					c4.124-10.354,7.438-49.709,7.438-49.709L173.422,279.19z"/>
			</g>
			<g style="opacity:0.3;">
				<g>
					<path d="M330.094,343.104c1.731-10.963,2.192-22.913-2.813-32.976c-12.294,30.386-11.741,65.272-7.34,97.464l9.743,27.846
						c6.137-18.66,0.301-38.537,0.436-58.043C330.197,366.315,328.363,354.067,330.094,343.104z"/>
				</g>
			</g>
			<g>
				<path style="fill:#FF725E;" d="M169.426,303.048c0,0,12.824,86.244,15.306,93.796c2.482,7.551,2.482,29.808,2.482,29.808
					s-13.459,25.054-14.286,42.473L335,469.458l-10.531-71.563c-0.362-2.672-0.386-10.896-0.24-13.587
					c0.681-12.603,1.655-39.64,5.267-56.255c4.2-19.32-1.454-52.383-1.454-52.383l-48.412-11.924
					c-11.458,16.465-40.046,16.687-51.322,0l-54.636,15.445L169.426,303.048z"/>
			</g>
			<g>
				<g>
					<path style="fill:#263238;" d="M327.646,394.469c-0.028-0.022,0.146-0.295,0.484-0.769c0.337-0.475,0.846-1.146,1.489-1.965
						c1.3-1.621,3.145-3.855,5.562-5.955c2.417-2.104,4.965-3.544,6.863-4.406c0.954-0.426,1.736-0.744,2.29-0.927
						c0.551-0.191,0.861-0.28,0.874-0.247c0.114,0.205-4.908,1.815-9.687,5.973c-2.376,2.065-4.251,4.24-5.619,5.796
						C328.546,393.541,327.706,394.516,327.646,394.469z"/>
				</g>
			</g>
			<g>
				<g>
					<path style="fill:#263238;" d="M177.571,392.644c-0.098,0.028-0.475-1.754-1.699-4.387c-1.205-2.622-3.409-6.068-6.783-8.93
						c-3.375-2.864-7.135-4.475-9.918-5.236c-2.797-0.778-4.616-0.86-4.605-0.961c0.002-0.031,0.456-0.039,1.273,0.026
						c0.817,0.064,1.997,0.229,3.426,0.578c2.846,0.68,6.714,2.269,10.161,5.195c3.448,2.923,5.647,6.479,6.782,9.176
						c0.577,1.352,0.934,2.489,1.13,3.286C177.535,392.188,177.602,392.637,177.571,392.644z"/>
				</g>
			</g>
			<g>
				<g>
					<path style="fill:#263238;" d="M178.606,345.911c-0.02,0.029-0.28-0.114-0.734-0.399c-0.456-0.282-1.093-0.724-1.861-1.297
						c-1.536-1.146-3.554-2.878-5.567-5.003c-2.011-2.128-3.655-4.205-4.8-5.736c-1.142-1.534-1.794-2.521-1.739-2.562
						c0.06-0.045,0.816,0.863,2.029,2.335c1.216,1.469,2.895,3.496,4.888,5.605c1.995,2.106,3.951,3.86,5.417,5.072
						C177.706,345.137,178.653,345.844,178.606,345.911z"/>
				</g>
			</g>
			<g>
				<g>
					<path style="fill:#263238;" d="M291.744,392.591c0.007,0.006-0.038,0.073-0.132,0.199c-0.115,0.149-0.256,0.33-0.427,0.551
						c-0.391,0.471-0.923,1.207-1.708,2.068c-1.515,1.771-3.865,4.204-7.017,6.935c-3.146,2.738-7.152,5.696-11.827,8.615
						c-4.674,2.923-10.026,5.778-15.754,8.527c-5.736,2.739-11.279,5.166-16.295,7.421c-5.019,2.25-9.511,4.332-13.225,6.199
						c-3.716,1.862-6.671,3.471-8.685,4.632c-1.016,0.564-1.783,1.042-2.318,1.341c-0.244,0.137-0.444,0.249-0.608,0.342
						c-0.139,0.074-0.212,0.109-0.217,0.101c-0.005-0.008,0.059-0.057,0.188-0.146c0.157-0.104,0.347-0.231,0.581-0.386
						c0.518-0.328,1.268-0.834,2.27-1.426c1.986-1.217,4.92-2.878,8.622-4.786c3.7-1.912,8.183-4.033,13.194-6.308
						c5.008-2.28,10.542-4.72,16.267-7.454c5.716-2.743,11.057-5.576,15.726-8.465c4.671-2.885,8.679-5.797,11.841-8.487
						c3.168-2.682,5.548-5.066,7.104-6.79c0.806-0.838,1.361-1.551,1.778-2c0.188-0.208,0.341-0.378,0.467-0.518
						C291.678,392.642,291.737,392.586,291.744,392.591z"/>
				</g>
			</g>
			<g>
				<g>
					<path style="fill:#263238;" d="M173.305,467.769c-0.007,0-0.008-0.072-0.004-0.212c0.007-0.163,0.016-0.368,0.028-0.627
						c0.036-0.581,0.087-1.394,0.152-2.437c0.288-2.112,0.735-5.216,1.83-9.014c2.094-7.615,6.205-18.097,12.476-29.747l-0.03,0.132
						c-0.644-9.384-1.616-19.864-2.739-30.886c-2.137-20.813-4.381-39.622-6.018-53.234c-0.824-6.784-1.491-12.283-1.957-16.117
						c-0.224-1.881-0.399-3.352-0.521-4.383c-0.052-0.481-0.093-0.859-0.124-1.142c-0.025-0.258-0.034-0.39-0.025-0.391
						c0.009-0.001,0.035,0.129,0.078,0.384c0.043,0.281,0.101,0.656,0.175,1.135c0.146,1.028,0.353,2.495,0.618,4.371
						c0.505,3.83,1.228,9.322,2.121,16.098c1.73,13.602,4.032,32.406,6.17,53.226c1.123,11.026,2.079,21.512,2.695,30.908
						l0.005,0.069l-0.034,0.063c-6.285,11.589-10.452,22.03-12.615,29.592c-1.131,3.775-1.619,6.855-1.954,8.955
						c-0.097,1.037-0.172,1.846-0.226,2.423c-0.027,0.258-0.049,0.462-0.066,0.624C173.323,467.698,173.311,467.769,173.305,467.769
						z"/>
				</g>
			</g>
			<g>
				<g>
					<path style="fill:#263238;" d="M331.493,305.065c0.009,0,0.015,0.145,0.019,0.427c0.001,0.307,0.003,0.723,0.005,1.255
						c-0.013,1.103,0.019,2.732-0.085,4.825c-0.116,4.19-0.547,10.243-1.29,17.698c-0.734,7.457-1.816,16.311-2.91,26.15
						c-1.089,9.838-2.181,20.675-2.526,32.086c-0.369,11.418,0.748,22.277,2.214,32.058c1.44,9.792,3.138,18.55,4.453,25.923
						c1.341,7.369,2.327,13.354,2.883,17.507c0.301,2.073,0.47,3.692,0.59,4.788c0.055,0.529,0.097,0.943,0.129,1.248
						c0.026,0.281,0.035,0.426,0.026,0.427c-0.009,0.001-0.036-0.142-0.079-0.421c-0.044-0.303-0.104-0.715-0.18-1.241
						c-0.154-1.092-0.355-2.704-0.687-4.772c-0.618-4.141-1.658-10.11-3.045-17.469c-1.361-7.363-3.097-16.116-4.565-25.919
						c-1.493-9.787-2.63-20.689-2.259-32.143c0.346-11.439,1.455-22.286,2.57-32.125c1.12-9.841,2.241-18.688,3.021-26.134
						c0.79-7.445,1.276-13.486,1.454-17.669c0.135-2.09,0.136-3.716,0.183-4.818c0.02-0.532,0.036-0.947,0.047-1.254
						C331.473,305.209,331.484,305.065,331.493,305.065z"/>
				</g>
			</g>
			<g style="opacity:0.3;">
				<g>
					<path d="M176.847,323.54c-2.895,27.1,0.57,55.99,9.396,81.775L176.847,323.54z"/>
				</g>
			</g>
			<g style="opacity:0.3;">
				<g>
					<path d="M277.098,419.088c-12.281,11.28-24.602,20.92-39.708,26.289c11.388,0.968,22.877-3.387,31.682-10.675
						c8.804-7.287,15.067-14.97,19.1-25.663L277.098,419.088z"/>
				</g>
			</g>
			<g>
				<g>
					<path style="fill:#263238;" d="M263.11,431.514c-0.096-0.107,7.544-7.115,17.063-15.651
						c9.522-8.539,17.316-15.372,17.412-15.264c0.096,0.107-7.543,7.113-17.064,15.652
						C271.002,424.787,263.206,431.621,263.11,431.514z"/>
				</g>
			</g>
		</g>
		<g>
			<path style="fill:#455A64;" d="M290.273,219.875c0,3.46-2.805,6.265-6.265,6.265c-3.46,0-6.265-2.805-6.265-6.265
				c0-3.46,2.805-6.265,6.265-6.265C287.468,213.61,290.273,216.415,290.273,219.875z"/>
		</g>
		<g>
			<g>
				<path style="fill:#263238;" d="M327.581,302.224c-1.847-15.317-3.695-30.634-5.542-45.952l-39.648-11.967
					c-0.766,27.36-5.555,58.087-12.438,84.578c14.611,4.738,30.222,6.363,45.496,4.736c0.675-7.4,1.351-14.8,2.026-22.2
					c0.991,5.578,1.981,11.155,2.972,16.733c4.162-2.332,6.615-6.976,7.445-11.674C328.722,311.78,328.152,306.961,327.581,302.224z
					"/>
			</g>
			<g>
				<g>
					<path style="fill:#455A64;" d="M296.55,333.744c0,0,0.031-0.198,0.116-0.578c0.092-0.399,0.222-0.958,0.39-1.685
						c0.354-1.499,0.868-3.676,1.528-6.471c1.296-5.626,3.217-13.761,5.087-23.912c1.881-10.141,3.714-22.324,4.316-35.952
						c0.6-13.604-0.232-28.719-3.999-44.007c-3.71-15.287-10.201-29.113-18.383-40.001c-1.036-1.35-2.02-2.716-3.129-3.952
						c-1.089-1.251-2.105-2.537-3.238-3.687c-0.553-0.587-1.102-1.171-1.647-1.749c-0.565-0.56-1.125-1.116-1.681-1.667
						c-1.098-1.117-2.244-2.149-3.343-3.193c-4.451-4.119-8.799-7.739-12.686-11.138c-3.893-3.393-7.365-6.529-10.238-9.465
						c-0.731-0.72-1.392-1.461-2.052-2.15c-0.664-0.686-1.277-1.369-1.844-2.042c-0.574-0.666-1.123-1.304-1.647-1.912
						c-0.494-0.632-0.965-1.233-1.41-1.803c-0.917-1.119-1.612-2.202-2.254-3.11c-0.653-0.902-1.136-1.71-1.522-2.367
						c-0.381-0.642-0.674-1.136-0.884-1.488c-0.197-0.337-0.285-0.515-0.285-0.515s0.12,0.161,0.331,0.489
						c0.219,0.345,0.527,0.829,0.927,1.459c0.399,0.646,0.895,1.444,1.56,2.334c0.654,0.897,1.36,1.967,2.286,3.074
						c0.45,0.563,0.925,1.158,1.424,1.783c0.528,0.602,1.081,1.233,1.659,1.892c0.571,0.666,1.187,1.342,1.855,2.021
						c0.664,0.682,1.327,1.415,2.062,2.129c2.885,2.909,6.368,6.019,10.273,9.392c3.9,3.38,8.263,6.983,12.738,11.099
						c1.106,1.043,2.258,2.074,3.363,3.192c0.559,0.552,1.123,1.108,1.691,1.669c0.549,0.58,1.102,1.164,1.659,1.753
						c1.141,1.153,2.166,2.443,3.263,3.698c1.117,1.24,2.109,2.61,3.153,3.966c8.246,10.928,14.781,24.817,18.505,40.164
						c3.782,15.348,4.6,30.518,3.973,44.153c-0.629,13.66-2.504,25.857-4.433,35.999c-1.918,10.153-3.895,18.278-5.251,23.891
						c-0.688,2.805-1.238,4.978-1.623,6.449c-0.19,0.722-0.336,1.277-0.44,1.673C296.616,333.554,296.55,333.744,296.55,333.744z"/>
				</g>
			</g>
		</g>
	</g>
</g>
</svg>
