<?xml version="1.0" encoding="utf-8"?>
<!-- Generator: Adobe Illustrator 27.5.0, SVG Export Plug-In . SVG Version: 6.00 Build 0)  -->
<svg version="1.1" xmlns="http://www.w3.org/2000/svg" xmlns:xlink="http://www.w3.org/1999/xlink" x="0px" y="0px"
	 viewBox="0 0 500 500" style="enable-background:new 0 0 500 500;" xml:space="preserve">
<g id="Floor">
	<path id="Floor_00000020371348231180307230000002387172775034036104_" style="fill:#FAFAFA;" d="M77.661,253.273
		c-95.177,54.951-95.175,144.044,0.005,198.995c95.18,54.951,249.496,54.951,344.674,0c95.178-54.951,95.175-144.044-0.005-198.995
		C327.154,198.322,172.838,198.322,77.661,253.273z"/>
</g>
<g id="Question_Marks">
	<g id="Question_Mark_00000145772455483428952950000014028260086828700844_">
		<path style="fill:#E0E0E0;" d="M431.319,298.832c1.11-0.502,2.293-0.94,3.546-1.314c1.254-0.374,2.563-0.631,3.928-0.775
			c1.364-0.142,2.8-0.144,4.303-0.005c1.503,0.139,3.077,0.46,4.721,0.966c2.236,0.687,4.177,1.621,5.824,2.802
			c1.645,1.181,2.95,2.545,3.908,4.09c0.96,1.546,1.55,3.238,1.772,5.077c0.22,1.839,0.023,3.761-0.592,5.764
			c-0.6,1.953-1.401,3.555-2.404,4.807c-1.003,1.252-2.091,2.275-3.261,3.067c-1.172,0.792-2.384,1.418-3.636,1.877
			c-1.251,0.459-2.431,0.891-3.538,1.295c-1.109,0.404-2.092,0.833-2.948,1.286c-0.856,0.453-1.474,1.072-1.856,1.854l-2.614,5.354
			l-6.513-2.002l1.276-6.482c0.217-1.254,0.717-2.261,1.497-3.018c0.781-0.758,1.706-1.388,2.774-1.889
			c1.067-0.501,2.223-0.947,3.468-1.338c1.243-0.391,2.445-0.865,3.6-1.424c1.155-0.558,2.196-1.264,3.119-2.119
			c0.923-0.855,1.606-2.002,2.048-3.441c0.284-0.925,0.366-1.806,0.243-2.645c-0.121-0.839-0.409-1.616-0.863-2.332
			c-0.455-0.716-1.07-1.347-1.843-1.895c-0.773-0.547-1.662-0.974-2.663-1.282c-1.464-0.45-2.753-0.67-3.866-0.661
			c-1.115,0.009-2.086,0.104-2.914,0.285c-0.828,0.181-1.536,0.357-2.123,0.527c-0.586,0.172-1.071,0.198-1.457,0.079
			c-0.925-0.284-1.475-0.874-1.649-1.771L431.319,298.832z M425.947,342.244c0.245-0.796,0.625-1.509,1.141-2.137
			c0.516-0.628,1.11-1.12,1.782-1.476c0.672-0.356,1.415-0.577,2.229-0.665c0.814-0.087,1.632-0.004,2.454,0.248
			c0.822,0.253,1.537,0.641,2.15,1.167c0.611,0.525,1.102,1.126,1.471,1.802c0.367,0.675,0.596,1.42,0.683,2.234
			c0.087,0.814,0.008,1.62-0.236,2.415c-0.253,0.823-0.642,1.539-1.167,2.15c-0.526,0.612-1.131,1.094-1.814,1.446
			c-0.685,0.352-1.426,0.567-2.223,0.645c-0.799,0.078-1.607-0.009-2.429-0.261c-0.822-0.253-1.547-0.638-2.176-1.154
			c-0.629-0.516-1.121-1.11-1.477-1.782c-0.356-0.672-0.573-1.406-0.651-2.204C425.607,343.876,425.694,343.067,425.947,342.244z"/>
	</g>
	<g id="Question_Mark_00000128481682116250775890000018109380327782724528_">
		<path style="fill:#E0E0E0;" d="M446.921,156.191c-0.727,0.41-1.506,0.779-2.338,1.11c-0.832,0.331-1.709,0.585-2.631,0.766
			c-0.921,0.179-1.9,0.268-2.933,0.264s-2.125-0.128-3.277-0.373c-1.566-0.333-2.945-0.852-4.139-1.558
			c-1.193-0.705-2.165-1.556-2.911-2.552c-0.748-0.996-1.253-2.114-1.515-3.354c-0.262-1.24-0.243-2.562,0.055-3.965
			c0.291-1.367,0.74-2.508,1.348-3.422c0.608-0.914,1.287-1.677,2.037-2.288c0.751-0.611,1.539-1.111,2.365-1.5
			c0.825-0.389,1.603-0.755,2.334-1.097c0.732-0.342,1.375-0.694,1.932-1.055c0.556-0.361,0.94-0.82,1.153-1.376l1.458-3.808
			l4.56,0.97l-0.477,4.496c-0.072,0.868-0.352,1.584-0.838,2.148c-0.486,0.564-1.079,1.049-1.777,1.455
			c-0.697,0.406-1.458,0.78-2.283,1.122c-0.824,0.342-1.614,0.738-2.368,1.189c-0.753,0.45-1.42,0.995-1.998,1.633
			c-0.578,0.639-0.973,1.462-1.188,2.469c-0.138,0.648-0.141,1.253-0.006,1.818c0.133,0.565,0.376,1.077,0.73,1.537
			s0.811,0.854,1.371,1.18c0.56,0.326,1.192,0.563,1.893,0.713c1.025,0.218,1.917,0.29,2.675,0.217
			c0.759-0.074,1.415-0.197,1.969-0.371c0.554-0.173,1.025-0.336,1.415-0.488c0.389-0.152,0.718-0.2,0.989-0.142
			c0.648,0.138,1.058,0.507,1.231,1.108L446.921,156.191z M447.955,126.274c-0.118,0.557-0.335,1.066-0.649,1.526
			c-0.314,0.459-0.689,0.831-1.125,1.114c-0.436,0.283-0.93,0.479-1.479,0.588c-0.55,0.109-1.112,0.102-1.688-0.021
			c-0.576-0.123-1.087-0.344-1.536-0.665c-0.448-0.321-0.819-0.701-1.112-1.139c-0.291-0.438-0.492-0.932-0.601-1.481
			c-0.109-0.55-0.104-1.104,0.015-1.661c0.123-0.576,0.344-1.088,0.665-1.536c0.321-0.449,0.705-0.814,1.149-1.096
			c0.446-0.281,0.938-0.473,1.476-0.574c0.54-0.101,1.096-0.091,1.671,0.031c0.576,0.122,1.093,0.341,1.553,0.655
			c0.46,0.314,0.831,0.689,1.115,1.125c0.283,0.436,0.476,0.924,0.577,1.463C448.088,125.141,448.077,125.698,447.955,126.274z"/>
	</g>
	<g id="Question_Mark_00000076567934235966646390000007315185042721429915_">
		<path style="fill:#E0E0E0;" d="M61.086,319.435c-0.727,0.41-1.507,0.779-2.338,1.11c-0.832,0.331-1.709,0.585-2.631,0.766
			c-0.921,0.18-1.9,0.268-2.933,0.264c-1.033-0.004-2.125-0.128-3.277-0.373c-1.566-0.333-2.945-0.852-4.139-1.558
			c-1.193-0.705-2.165-1.556-2.911-2.552c-0.748-0.996-1.252-2.114-1.515-3.354c-0.261-1.24-0.243-2.562,0.055-3.965
			c0.291-1.367,0.74-2.508,1.348-3.422c0.608-0.914,1.287-1.677,2.037-2.288c0.751-0.611,1.539-1.111,2.365-1.499
			c0.825-0.389,1.603-0.754,2.334-1.097c0.732-0.342,1.375-0.694,1.932-1.055c0.556-0.361,0.94-0.82,1.153-1.376l1.458-3.808
			l4.561,0.97l-0.477,4.496c-0.072,0.868-0.352,1.584-0.838,2.148c-0.486,0.564-1.079,1.049-1.777,1.455
			c-0.697,0.406-1.458,0.78-2.283,1.122c-0.824,0.342-1.614,0.738-2.368,1.189c-0.753,0.45-1.42,0.995-1.998,1.633
			c-0.578,0.639-0.973,1.462-1.188,2.469c-0.138,0.648-0.14,1.253-0.006,1.818c0.133,0.565,0.376,1.077,0.73,1.537
			c0.353,0.46,0.811,0.854,1.371,1.18c0.56,0.326,1.192,0.564,1.893,0.713c1.025,0.218,1.917,0.29,2.675,0.217
			c0.759-0.074,1.415-0.197,1.969-0.371c0.554-0.173,1.025-0.336,1.415-0.488c0.389-0.153,0.718-0.2,0.989-0.142
			c0.648,0.138,1.058,0.507,1.231,1.108L61.086,319.435z M62.12,289.518c-0.118,0.557-0.335,1.066-0.649,1.526
			c-0.314,0.459-0.689,0.831-1.125,1.114c-0.436,0.283-0.929,0.479-1.479,0.588c-0.55,0.109-1.112,0.102-1.688-0.021
			c-0.576-0.122-1.087-0.344-1.536-0.665c-0.449-0.321-0.819-0.701-1.112-1.139c-0.291-0.438-0.492-0.932-0.601-1.481
			c-0.109-0.55-0.104-1.104,0.015-1.661c0.123-0.576,0.344-1.088,0.665-1.536c0.321-0.449,0.705-0.814,1.149-1.096
			c0.446-0.281,0.938-0.473,1.476-0.574c0.54-0.101,1.096-0.091,1.671,0.031s1.093,0.341,1.553,0.655s0.831,0.689,1.115,1.125
			c0.283,0.436,0.476,0.924,0.577,1.463C62.253,288.385,62.243,288.942,62.12,289.518z"/>
	</g>
	<g id="Question_Mark_00000169518801736657637190000013633227827153669273_">
		<path style="fill:#E0E0E0;" d="M37.514,126.874c0.424-0.718,0.914-1.429,1.467-2.132c0.555-0.703,1.186-1.363,1.893-1.981
			c0.708-0.617,1.51-1.184,2.406-1.698c0.896-0.514,1.903-0.954,3.023-1.319c1.522-0.496,2.976-0.738,4.363-0.725
			c1.386,0.013,2.653,0.263,3.798,0.75c1.146,0.487,2.143,1.202,2.991,2.144c0.848,0.943,1.494,2.095,1.938,3.459
			c0.433,1.329,0.616,2.541,0.547,3.637c-0.069,1.096-0.274,2.096-0.617,3.001c-0.344,0.905-0.776,1.732-1.296,2.482
			c-0.52,0.75-1.01,1.456-1.47,2.118c-0.462,0.663-0.843,1.29-1.143,1.881c-0.3,0.591-0.403,1.181-0.309,1.769l0.645,4.026
			l-4.433,1.445l-1.839-4.13c-0.373-0.787-0.489-1.547-0.351-2.279c0.139-0.732,0.408-1.449,0.809-2.149
			c0.399-0.701,0.871-1.405,1.414-2.115c0.542-0.708,1.028-1.447,1.454-2.215c0.427-0.767,0.731-1.572,0.911-2.414
			c0.18-0.842,0.11-1.753-0.209-2.732c-0.205-0.63-0.506-1.155-0.905-1.576c-0.398-0.422-0.865-0.743-1.402-0.965
			c-0.536-0.221-1.129-0.333-1.778-0.335c-0.648-0.002-1.314,0.109-1.995,0.331c-0.996,0.325-1.805,0.709-2.424,1.152
			c-0.62,0.444-1.126,0.879-1.519,1.307c-0.392,0.427-0.719,0.805-0.981,1.131c-0.26,0.327-0.522,0.533-0.785,0.618
			c-0.63,0.205-1.17,0.091-1.62-0.342L37.514,126.874z M51.605,153.286c-0.176-0.542-0.244-1.091-0.203-1.646
			c0.042-0.555,0.18-1.064,0.416-1.528c0.236-0.464,0.564-0.88,0.986-1.25c0.421-0.369,0.912-0.645,1.471-0.828
			c0.56-0.182,1.113-0.247,1.663-0.194c0.549,0.053,1.06,0.196,1.533,0.429c0.472,0.233,0.893,0.56,1.262,0.981
			c0.369,0.421,0.642,0.903,0.819,1.445c0.183,0.56,0.247,1.114,0.194,1.663c-0.053,0.55-0.202,1.057-0.446,1.524
			c-0.245,0.467-0.575,0.879-0.99,1.236c-0.416,0.358-0.902,0.628-1.462,0.81c-0.56,0.182-1.117,0.252-1.672,0.211
			c-0.555-0.041-1.065-0.18-1.528-0.416c-0.464-0.236-0.874-0.561-1.232-0.977C52.057,154.333,51.787,153.846,51.605,153.286z"/>
	</g>
	<g id="Question_Mark_00000121988137228079721580000013013731324121753506_">
		<path style="fill:#E0E0E0;" d="M200.379,131.116c-0.568,0.829-1.214,1.643-1.937,2.442c-0.724,0.8-1.536,1.54-2.437,2.225
			c-0.901,0.684-1.911,1.299-3.03,1.844c-1.118,0.545-2.365,0.991-3.74,1.338c-1.869,0.472-3.636,0.644-5.302,0.516
			c-1.664-0.128-3.166-0.532-4.502-1.211c-1.337-0.679-2.477-1.619-3.42-2.82c-0.942-1.202-1.624-2.64-2.047-4.315
			c-0.412-1.633-0.533-3.104-0.361-4.415c0.172-1.311,0.501-2.497,0.987-3.555c0.487-1.06,1.074-2.019,1.759-2.877
			c0.686-0.858,1.332-1.667,1.94-2.426c0.609-0.759,1.118-1.481,1.527-2.167c0.409-0.686,0.58-1.386,0.515-2.1l-0.447-4.89
			l5.445-1.374l1.872,5.113c0.383,0.976,0.462,1.899,0.236,2.767c-0.226,0.868-0.608,1.707-1.147,2.517
			c-0.537,0.809-1.162,1.618-1.872,2.426c-0.709,0.807-1.353,1.655-1.928,2.543c-0.575,0.887-1.006,1.83-1.291,2.827
			c-0.285,0.998-0.276,2.097,0.028,3.3c0.195,0.773,0.514,1.429,0.959,1.967c0.444,0.539,0.979,0.964,1.605,1.274
			c0.627,0.31,1.33,0.492,2.109,0.548c0.779,0.055,1.587-0.024,2.424-0.235c1.224-0.309,2.226-0.705,3.007-1.187
			c0.782-0.483,1.425-0.965,1.931-1.447c0.507-0.482,0.929-0.908,1.271-1.279c0.34-0.372,0.67-0.597,0.993-0.679
			c0.773-0.195,1.413-0.015,1.919,0.543L200.379,131.116z M185.602,98.23c0.168,0.665,0.204,1.33,0.11,1.994
			c-0.095,0.663-0.303,1.264-0.624,1.802c-0.321,0.538-0.75,1.012-1.286,1.421c-0.536,0.41-1.148,0.701-1.836,0.875
			c-0.687,0.174-1.357,0.205-2.014,0.097c-0.655-0.109-1.258-0.322-1.807-0.641c-0.548-0.319-1.027-0.746-1.436-1.282
			c-0.41-0.536-0.698-1.138-0.866-1.803c-0.174-0.688-0.206-1.359-0.097-2.014c0.109-0.656,0.329-1.254,0.66-1.795
			c0.332-0.541,0.763-1.009,1.291-1.405c0.529-0.396,1.136-0.681,1.823-0.854c0.687-0.174,1.363-0.212,2.027-0.117
			c0.664,0.095,1.265,0.303,1.803,0.624c0.538,0.321,1.005,0.746,1.401,1.275C185.144,96.935,185.428,97.542,185.602,98.23z"/>
	</g>
	<g id="Question_Mark_00000116229339846351622220000002517858800528928933_">
		<path style="fill:#E0E0E0;" d="M303.559,77.859c0.786-0.391,1.626-0.737,2.518-1.04c0.893-0.302,1.828-0.522,2.807-0.661
			c0.978-0.138,2.012-0.178,3.097-0.118c1.086,0.06,2.227,0.25,3.424,0.571c1.628,0.436,3.049,1.057,4.266,1.863
			c1.216,0.806,2.19,1.754,2.921,2.841c0.732,1.087,1.201,2.29,1.41,3.608c0.207,1.318,0.116,2.706-0.274,4.165
			c-0.38,1.421-0.915,2.596-1.604,3.524c-0.689,0.928-1.445,1.693-2.267,2.294c-0.823,0.601-1.679,1.084-2.568,1.447
			c-0.889,0.364-1.726,0.706-2.513,1.026c-0.788,0.32-1.484,0.655-2.088,1.004c-0.604,0.349-1.033,0.811-1.287,1.384l-1.741,3.923
			l-4.741-1.269l0.747-4.7c0.123-0.909,0.456-1.646,0.998-2.212c0.542-0.566,1.191-1.044,1.947-1.433
			c0.755-0.389,1.575-0.74,2.461-1.055c0.884-0.314,1.737-0.687,2.554-1.12c0.816-0.432,1.547-0.968,2.189-1.608
			c0.642-0.64,1.103-1.483,1.383-2.531c0.18-0.673,0.216-1.31,0.105-1.91c-0.109-0.601-0.337-1.152-0.683-1.656
			c-0.346-0.503-0.806-0.942-1.377-1.316c-0.571-0.373-1.222-0.657-1.951-0.853c-1.066-0.285-1.999-0.41-2.8-0.374
			c-0.802,0.036-1.499,0.13-2.09,0.282c-0.591,0.152-1.096,0.298-1.514,0.436c-0.418,0.139-0.766,0.171-1.047,0.095
			c-0.673-0.18-1.085-0.59-1.234-1.231L303.559,77.859z M300.839,109.251c0.155-0.579,0.41-1.103,0.765-1.569
			c0.355-0.466,0.769-0.836,1.244-1.11c0.474-0.274,1.003-0.453,1.587-0.537c0.584-0.084,1.175-0.046,1.773,0.114
			c0.598,0.16,1.124,0.421,1.579,0.783c0.454,0.362,0.823,0.782,1.106,1.258c0.282,0.477,0.466,1.007,0.551,1.59
			c0.084,0.584,0.049,1.166-0.106,1.745c-0.16,0.599-0.421,1.125-0.783,1.579c-0.362,0.455-0.785,0.817-1.268,1.089
			c-0.484,0.271-1.012,0.446-1.583,0.523c-0.573,0.077-1.157,0.036-1.755-0.124c-0.599-0.16-1.131-0.418-1.597-0.773
			c-0.466-0.355-0.836-0.77-1.11-1.244c-0.274-0.474-0.449-0.997-0.527-1.569C300.637,110.434,300.679,109.85,300.839,109.251z"/>
	</g>
	<g id="Question_Mark_00000089557999783854855020000004294271109179848599_">
		<path style="fill:#E0E0E0;" d="M437.273,41.841c0.401-1.104,0.896-2.214,1.481-3.33c0.586-1.117,1.29-2.193,2.11-3.231
			c0.82-1.037,1.785-2.028,2.893-2.972c1.108-0.943,2.389-1.812,3.844-2.606c1.979-1.08,3.93-1.79,5.853-2.131
			c1.922-0.34,3.741-0.322,5.451,0.058c1.712,0.378,3.277,1.111,4.695,2.195c1.417,1.086,2.609,2.515,3.577,4.288
			c0.943,1.728,1.509,3.359,1.697,4.894c0.188,1.535,0.162,2.973-0.08,4.313c-0.243,1.342-0.627,2.599-1.153,3.771
			s-1.022,2.276-1.488,3.312c-0.468,1.037-0.834,2.003-1.097,2.899c-0.263,0.896-0.253,1.739,0.03,2.528l1.933,5.407l-5.764,3.145
			l-3.612-5.243c-0.719-0.994-1.077-2.016-1.074-3.064c0.003-1.049,0.191-2.111,0.564-3.184c0.372-1.073,0.843-2.171,1.412-3.292
			c0.567-1.12,1.049-2.268,1.441-3.442c0.393-1.172,0.606-2.366,0.637-3.577c0.031-1.213-0.3-2.455-0.995-3.728
			c-0.447-0.819-0.999-1.468-1.66-1.948c-0.66-0.481-1.39-0.806-2.19-0.974c-0.8-0.168-1.649-0.169-2.548-0.005
			c-0.898,0.165-1.79,0.49-2.677,0.974c-1.296,0.707-2.315,1.448-3.058,2.221c-0.744,0.775-1.332,1.508-1.765,2.202
			c-0.433,0.693-0.787,1.299-1.065,1.819c-0.276,0.52-0.585,0.872-0.927,1.058c-0.819,0.447-1.595,0.429-2.332-0.055L437.273,41.841
			z M463.6,74.767c-0.384-0.704-0.62-1.447-0.706-2.226c-0.086-0.778-0.026-1.52,0.181-2.222c0.207-0.703,0.554-1.364,1.042-1.985
			c0.488-0.62,1.096-1.129,1.823-1.526c0.728-0.397,1.477-0.629,2.252-0.698c0.774-0.068,1.518-0.002,2.233,0.198
			c0.713,0.201,1.381,0.545,2,1.032c0.62,0.488,1.123,1.085,1.507,1.789c0.397,0.728,0.63,1.478,0.698,2.252
			c0.068,0.775-0.007,1.516-0.224,2.225c-0.218,0.709-0.569,1.365-1.051,1.967c-0.484,0.603-1.087,1.102-1.815,1.499
			c-0.728,0.397-1.482,0.638-2.261,0.724c-0.779,0.086-1.52,0.026-2.223-0.181c-0.703-0.207-1.355-0.551-1.958-1.035
			C464.496,76.099,463.997,75.495,463.6,74.767z"/>
	</g>
	<g id="Question_Mark">
		<path style="fill:#E0E0E0;" d="M62.35,81.379c-1.161,0.179-2.372,0.28-3.632,0.303c-1.261,0.023-2.543-0.077-3.847-0.296
			c-1.304-0.221-2.637-0.59-3.997-1.107c-1.359-0.518-2.737-1.223-4.133-2.117c-1.898-1.216-3.459-2.585-4.683-4.107
			c-1.222-1.521-2.081-3.125-2.571-4.807c-0.492-1.683-0.602-3.407-0.333-5.172c0.271-1.764,0.95-3.497,2.04-5.198
			c1.062-1.658,2.22-2.938,3.475-3.841c1.255-0.903,2.529-1.571,3.82-2.005c1.293-0.433,2.58-0.7,3.86-0.803
			c1.28-0.103,2.487-0.199,3.62-0.288c1.134-0.088,2.157-0.233,3.069-0.432c0.912-0.2,1.646-0.615,2.202-1.242l3.811-4.295
			l5.529,3.542l-2.86,5.688c-0.525,1.108-1.25,1.914-2.17,2.415c-0.921,0.502-1.942,0.848-3.063,1.037
			c-1.12,0.19-2.309,0.304-3.566,0.346c-1.255,0.042-2.493,0.171-3.71,0.392c-1.216,0.219-2.365,0.607-3.443,1.161
			c-1.078,0.556-2.008,1.444-2.791,2.665c-0.503,0.785-0.807,1.582-0.909,2.392c-0.104,0.81-0.038,1.606,0.199,2.388
			c0.237,0.782,0.645,1.528,1.221,2.236c0.577,0.708,1.291,1.334,2.141,1.878c1.243,0.796,2.383,1.334,3.418,1.613
			c1.037,0.28,1.963,0.443,2.779,0.488c0.816,0.046,1.518,0.065,2.108,0.059c0.589-0.008,1.046,0.093,1.374,0.303
			c0.785,0.503,1.143,1.193,1.073,2.071L62.35,81.379z M78.557,42.462c-0.433,0.675-0.97,1.239-1.612,1.689
			c-0.641,0.45-1.32,0.753-2.036,0.91c-0.716,0.157-1.463,0.171-2.241,0.041c-0.778-0.13-1.517-0.418-2.215-0.865
			c-0.698-0.447-1.261-0.993-1.695-1.639c-0.432-0.646-0.732-1.33-0.9-2.053c-0.167-0.722-0.186-1.473-0.057-2.25
			c0.129-0.778,0.411-1.506,0.844-2.181c0.448-0.699,0.993-1.263,1.639-1.695c0.646-0.432,1.333-0.723,2.058-0.874
			c0.727-0.15,1.47-0.158,2.23-0.024c0.761,0.134,1.489,0.423,2.187,0.87c0.698,0.447,1.272,0.992,1.722,1.634
			c0.45,0.642,0.754,1.32,0.911,2.036c0.157,0.716,0.168,1.454,0.034,2.214C79.294,41.035,79.004,41.764,78.557,42.462z"/>
	</g>
</g>
<g id="Shadows">
	<path id="Shadow_7_" style="fill:#E0E0E0;" d="M141.898,423.38c-0.392,2.01-1.238,3.996-2.538,5.909
		c-2.047,3.089-5.234,5.982-9.537,8.47c-16.5,9.525-43.261,9.525-59.76,0c-4.303-2.488-7.49-5.382-9.537-8.47
		c-1.287-1.912-2.133-3.898-2.525-5.909h-0.013c-1.471-7.159,2.562-14.625,12.075-20.117c16.5-9.537,43.261-9.537,59.76,0
		C139.336,408.755,143.369,416.22,141.898,423.38z"/>
	<path id="Shadow_46_" style="fill:#E0E0E0;" d="M367.453,317.433c57.201,33.57,56.817,87.338-0.86,120.093
		c-57.677,32.751-150.806,32.085-208.004-1.486c-57.204-33.573-56.819-87.34,0.859-120.093
		C217.123,283.194,310.252,283.859,367.453,317.433z"/>
</g>
<g id="Character">
	<g id="Character_16_">
		<g id="Bean_Bag_1_">
			<path style="fill:#BA68C8;" d="M184.652,183.238c-26.404,15.244-64.617,51.312-64.617,116.366
				c0,65.054,30.741,113.424,89.624,135.038c18.871,6.927,44.556,9.92,69.094,8.715c28.226-1.386,55.581-10.906,78.012-28.096
				c15.667-12.007,27.213-26.209,34.795-45.956c12.495-36.667-9.864-75.051-40.263-96.995
				c-30.399-21.944-26.781-46.936-48.273-72.895c-11.555-13.957-28.571-25.896-49.341-28.209
				C231.028,168.684,204.754,171.632,184.652,183.238z"/>
			<path style="opacity:0.6;fill:#FFFFFF;" d="M184.652,183.238c-26.404,15.244-64.617,51.312-64.617,116.366
				c0,65.054,30.741,113.424,89.624,135.038c18.871,6.927,44.556,9.92,69.094,8.715c28.226-1.386,55.581-10.906,78.012-28.096
				c15.667-12.007,27.213-26.209,34.795-45.956c12.495-36.667-9.864-75.051-40.263-96.995
				c-30.399-21.944-26.781-46.936-48.273-72.895c-11.555-13.957-28.571-25.896-49.341-28.209
				C231.028,168.684,204.754,171.632,184.652,183.238z"/>
			<path style="opacity:0.3;fill:#BA68C8;" d="M374.52,354.883c9.656-10.21,13.665-25.453,10.283-39.093
				c-2.41-9.719-8.517-18.404-16.636-24.22c-8.871-6.355-20.213-8.686-29.775-13.978c-23.186-12.831-27.691-26.864-47.815-79.145
				c-2.537-6.592-5.339-12.287-8.296-17.211c-8.408-5.17-18.013-8.851-28.596-10.03c-22.656-2.523-48.93,0.426-69.032,12.032
				c-6.129,3.538-12.894,8.201-19.67,14.085c-6.823,27.912-6.05,74.144,1.658,100.046c5.031,16.906,11.915,24.895,11.915,24.895
				c-26.498-5.215-47.606,12.663-47.606,12.663c7.621-3.617,17.308-3.989,25.53-3.609c10.298,0.475,20.429,2.87,30.09,6.398
				c10.07,3.678,13.992,8.523,20.713,16.611c4.381,5.272,10.272,9.275,16.786,11.407c8.418,2.755,17.492,2.375,26.283,3.453
				s18.117,4.16,22.982,11.562c2.345,3.569,3.416,7.802,4.449,11.947c1.9,7.625,3.801,15.25,5.701,22.875
				c0.826,3.315,1.687,6.709,3.614,9.531c4.952,7.25,16.445,8.232,23.302,2.748c3.246-2.596,5.539-6.274,8.95-8.65
				c6.516-4.539,14.752-3.11,22.105-2.2c4.181,0.518,8.267,0.646,12.355,0.435c0.991-0.716,1.985-1.428,2.957-2.174
				c8.847-6.78,16.379-14.262,22.626-23.045c-1.512-1.645-3.32-3.09-5.142-4.338c-4.289-2.936-9.1-5.504-11.907-9.88
				C355.702,367.646,368.597,361.146,374.52,354.883z"/>
			<path style="opacity:0.3;fill:#BA68C8;" d="M304.254,439.815c-35.947,2.888-72.986-6.476-102.376-26.469
				c-47.379-32.235-67.887-83.332-57.745-143.877c8.958-53.479,35.698-82.926,62.542-95.106l0,0
				c-1.498,0.398-2.984,0.827-4.455,1.289c-0.01,0.003-0.019,0.006-0.029,0.009c-1.455,0.457-2.895,0.947-4.319,1.469
				c-0.027,0.01-0.054,0.019-0.08,0.029c-1.415,0.52-2.811,1.073-4.19,1.658c-0.029,0.012-0.059,0.024-0.089,0.037
				c-1.399,0.596-2.779,1.226-4.135,1.892c-21.734,15.86-41.069,44.051-48.462,88.187c-10.365,61.874,10.634,114.121,59.128,147.115
				c23.511,15.992,51.81,25.31,80.609,27.184C288.627,442.734,296.525,441.601,304.254,439.815z"/>
		</g>
		<g id="Character_17_">
			<g>
				<path style="fill:#FFBDA7;" d="M394.747,134.296c-1.537-0.432-3.219-0.309-4.772,0.114c-1.841,0.501-3.546,1.395-5.255,2.243
					c-2.612,1.295-5.271,2.497-7.97,3.6c-2.403,0.983-4.95,2.108-7.596,2.079c-0.889-0.01-2.729-0.304-1.56-1.446
					c1.525-1.49,3.185-2.868,4.433-4.597c1.247-1.729,2.057-3.917,1.591-5.998c-0.14-0.627-0.419-1.261-0.947-1.627
					c-0.748-0.519-1.239-0.157-1.799,0.294c-0.59,0.475-1.261,0.849-1.911,1.247c-1.342,0.82-2.683,1.642-4.013,2.482
					c-7.762,4.898-16.826,8.731-21.237,17.006c-0.639,1.198-2.435,6.751-4.194,16.381c-1.759,9.63-9.347,34.726-9.347,34.726
					s-14.969-17.458-25.905-31.469c-4.538-5.813-10.78-11.379-19.945-14.772c-5.809-2.151-11.983-3.307-11.983-3.307l10.911,47.257
					c0,0,26.098,27.845,41.025,39.553c13.47,10.566,21.71,6.118,24.243,2.266c4.198-6.386,7.826-9.086,10.431-48.397
					c0.225-3.038,0.38-6.081,0.57-9.121c0.665-6.301,2.485-12.505,5.135-13.433c4.876-1.706,9.699-3.65,14.117-6.329
					c2.908-1.764,5.636-3.852,7.986-6.317c0.984-1.033,2.641-2.495,3.039-3.902c0.404-1.425,0.039-3.074,0.732-4.427
					c0.473-0.925,1.271-1.607,1.701-2.607c0.876-2.038,1.123-4.509,2.8-6.112c0.922-0.881,2.321-1.576,2.37-2.85
					c0.039-1.02-0.875-1.829-1.81-2.239C395.312,134.475,395.032,134.376,394.747,134.296z"/>
				<path style="fill:#F0997A;" d="M330.169,200.801c-3.325,10.055-3.584,23.363-3.584,23.363s-3.681-15.35,0.519-26.965
					L330.169,200.801z"/>
				<path style="fill:#F0997A;" d="M364.611,146.24c-1.665,5.068-6.521,10.91-9.395,12.653c0,0,4.571-1.627,6.962-4.946
					C364.798,150.31,364.938,148.251,364.611,146.24z"/>
				<g>
					<path style="fill:#E0E0E0;" d="M272.409,149.827c15.371,3.588,21.75,5.982,29.02,13.969
						c7.27,7.987,29.136,35.143,29.136,35.143l1.555-4.72c0,0-0.059,10.086,10.192,17.26c10.251,7.175,15.171,3.467,15.171,3.467
						s-1.145,7.866-2.846,15.071c-1.701,7.205-6.852,15.335-12.431,16.074c-5.579,0.739-12.543-1.981-24.782-12.715
						c-12.239-10.734-38.821-36.184-38.821-36.184L272.409,149.827z"/>
					<path style="opacity:0.1;" d="M330.565,198.939c-2.06,6.441-5.413,18.22-1.678,26.253c-4.131-5.16-3.993-16.85-0.433-28.868
						L330.565,198.939z"/>
				</g>
			</g>
			<g id="Bottom_13_">
				<g>
					<path style="fill:#FFBDA7;" d="M315.325,356.174l14.742-23.69l24.032,17.028l-34.43,34.131c0,0-15.348-2.781-17.136-11.071
						C300.744,364.281,310.828,358.487,315.325,356.174z"/>
					<g>
						<path style="fill:#263238;" d="M296.636,364.352c-1.636,0.922-2.691,2.106-3.844,3.529c-1.152,1.423-1.475,8.79-2.746,12.109
							c-1.271,3.319-2.102,4.162-4.101,8.288c-2.216,4.573-5.928,8.602-3.22,21.086c2.743,12.651,8.241,18.804,13.076,22.218
							c2.541,1.795,6.013,2.025,6.013,2.025s6.895-1.941,6.215-5.978C307.35,423.592,296.636,364.352,296.636,364.352z"/>
						<path id="XMLID_1388_" style="fill:#455A64;" d="M324.761,380.249c-0.294,1.236-2.212,3.008-3.013,3.968
							c-2.693,3.23-4.199,7.784-5.385,11.776c-5.613,18.894,1.182,29.339-9.801,35.652c-3.165,1.627-9.341,0.566-17.742-12.383
							c-4.291-6.615-5.938-19.592-3.552-25.195c2.387-5.603,5.293-9.134,6.897-13.465c1.601-4.33,1.69-12.653,4.471-16.25
							c1.632-2.111,4.105-3.48,6.457-4.643c1.934-0.957,6.078-2.076,8.044-2.977c2.126-0.975,3.102-2.021,4.187-0.558l-2.394,2.484
							c-3.783,4.378-2.902,5.144-3.038,7.639c-0.142,2.601-1.246,5.271-1.945,7.812c2.665-2.819,3.877-5.38,6.458-4.686
							c2.416,0.649,2.905,0.593,6.353,4.443C324.207,377.716,325.022,379.151,324.761,380.249z"/>
						<path style="fill:#37474F;" d="M288.82,419.262c-4.291-6.615-5.938-19.592-3.552-25.195c0.863-2.026,1.793-3.775,2.706-5.395
							c-0.114,0.383-0.266,0.77-0.347,1.099c-0.182,0.736-0.346,1.475-0.483,2.221c-0.529,2.866-0.793,6.015,0.196,8.815
							c0.881,2.492,2.867,8.724,6.094,9.14c1.827,0.235,3.531-1.422,4.415-3.411c0.373-0.84,1.069-3.131,1.069-3.131
							s4.688,1.447,8.113,4.168c4.425,3.515,4.193,4.188,4.193,4.188c-0.289,1.043-0.658,2.826-0.512,4.108
							c0.147,1.284,0.683,3.385,1.39,4.257c0.341,0.422,0.721,0.763,1.111,1.063c-0.579,4.419-2.045,7.808-6.651,10.455
							C303.397,433.272,297.221,432.211,288.82,419.262z"/>
						<g>
							<path style="fill:#37474F;" d="M316.364,395.993c-1.742,5.862-2.287,10.908-2.541,15.272
								c-2.196,4.772-3.733,4.49-3.722,1.921c0.011-2.584,4.335-12.87,7.63-21.4C317.216,393.204,316.768,394.631,316.364,395.993z"
								/>
							<path style="fill:#37474F;" d="M307.345,364.126c-0.075-2.425,0.892-4.825,2.497-6.875c0.482-0.178,0.933-0.353,1.296-0.519
								c2.126-0.975,3.102-2.021,4.187-0.558l-2.394,2.484c-3.783,4.378-2.901,5.144-3.038,7.639
								c-0.142,2.601-1.246,5.27-1.945,7.811c-2.688,8.181-4.721,10.815-6.333,18.625c-1.613,7.81-0.494,13.25-1.647,13.599
								c-1.153,0.35-3.326-0.742-3.184-7.102c0.143-6.359,3.859-16.741,6.267-21.604
								C305.458,372.762,307.452,367.535,307.345,364.126z"/>
						</g>
						<g>
							<g>
								<path style="fill:#EBEBEB;" d="M298.308,403.908c0.097,0.118,0.228,0.208,0.384,0.255c5.439,1.623,8.269,3.272,11.967,8.487
									c0.264,0.345,0.744,0.44,1.101,0.188c0.355-0.253,0.44-0.746,0.188-1.101c-3.909-5.509-7.02-7.363-12.805-9.087
									c-0.417-0.124-0.857,0.113-0.982,0.531C298.083,403.443,298.148,403.713,298.308,403.908z"/>
							</g>
							<g>
								<path style="fill:#EBEBEB;" d="M299.88,397.416c0.095,0.115,0.223,0.205,0.375,0.256c5.613,1.825,8.652,3.725,12.582,9.221
									c0.298,0.398,0.768,0.448,1.132,0.188c0.363-0.261,0.448-0.768,0.188-1.131c-4.148-5.787-7.45-7.885-13.401-9.82
									c-0.426-0.138-0.883,0.094-1.022,0.52C299.647,396.923,299.711,397.21,299.88,397.416z"/>
							</g>
							<g>
								<path style="fill:#EBEBEB;" d="M300.373,390.158c0.104,0.126,0.244,0.226,0.413,0.281
									c6.191,2.015,9.727,4.299,14.058,10.356c0.271,0.392,0.845,0.493,1.248,0.206c0.4-0.287,0.493-0.846,0.206-1.248
									c-4.562-6.367-8.398-8.879-14.959-11.015c-0.469-0.153-0.974,0.105-1.126,0.574
									C300.115,389.615,300.185,389.93,300.373,390.158z"/>
							</g>
							<g>
								<path style="fill:#EBEBEB;" d="M301.962,384.061c0.102,0.124,0.24,0.221,0.406,0.274c6.069,1.972,9.492,4.167,13.749,10.117
									c0.271,0.378,0.828,0.484,1.221,0.202c0.394-0.281,0.485-0.828,0.202-1.222c-4.465-6.245-8.2-8.673-14.632-10.763
									c-0.459-0.149-0.954,0.102-1.104,0.563C301.708,383.527,301.778,383.837,301.962,384.061z"/>
							</g>
							<g>
								<path style="fill:#EBEBEB;" d="M304.758,378.231c0.102,0.124,0.24,0.221,0.406,0.275c6.069,1.976,9.489,4.164,13.749,10.119
									c0.278,0.386,0.828,0.484,1.222,0.202c0.394-0.281,0.484-0.828,0.202-1.222c-4.474-6.25-8.198-8.673-14.631-10.766
									c-0.46-0.148-0.955,0.103-1.106,0.563C304.505,377.697,304.574,378.007,304.758,378.231z"/>
							</g>
						</g>
					</g>
				</g>
				<polygon style="fill:#FFBDA7;" points="321.983,358.753 337.211,373.586 345.976,380.212 333.646,399.305 305.067,382.426 				
					"/>
				<g>
					<path style="fill:#455A64;" d="M296.379,266.328c0,0,60.534-4.688,86.055-2.3c26.042,2.437,26.755,22.212,19.191,33.626
						c-14.484,21.854-62.133,66.728-62.133,66.728s-13.998-7.948-17.378-20.955l11.882-21.84l-32.025,7.253l-14.981-12.065
						l-0.589-8.235L296.379,266.328z"/>
					<path style="fill:#455A64;" d="M296.379,266.328l-104.8,8.197c0,0-3.171,24.638,4.62,47.633
						c6.691,19.748,22.981,29.679,36.074,32.878c13.754,3.36,31.032,5.264,31.032,5.264s7.549,7.048,15.484,11.031
						c7.936,3.983,42.601,22.19,42.601,22.19s10.851-7.673,11.402-25.587l-30.823-39.094c-6.868-10.04-9.303-13.302-13.394-15.794
						C295.547,286.426,295.897,280.346,296.379,266.328z"/>
					<path style="fill:#37474F;" d="M297.359,322.336c3.125,4.385,4.61,6.505,4.61,6.505l5.129-1.201c0,0-8.005-10.39-13.267-15.944
						c-5.759-6.081-13.985-7.124-21.97-6.499c-10.144,0.795-39.535,3.201-39.535,3.201s27.983-0.079,42.474,0.624
						C289.291,309.725,294.234,317.95,297.359,322.336z"/>
					<path style="fill:#37474F;" d="M290.568,283.139c-0.6,10.154-7.065,21.535-10.801,24.49l5.993,2.723
						C285.761,310.352,293.011,296.601,290.568,283.139z"/>
					<g>
						<path style="fill:#37474F;" d="M340.875,302.706c-7.356,9.137-12.065,15.979-15.062,20.722l8.182-1.841
							c10.835-20.593,13.219-26.663,28.429-35.429C362.423,286.158,351.8,289.136,340.875,302.706z"/>
						<path style="fill:#37474F;" d="M256.732,347.654c0,0,4.75,8.36,21.712,17.36c9.532,5.057,39.115,19.714,48.231,22.724
							c-2.707,3.943-5.286,5.783-5.286,5.783s-34.665-18.207-42.601-22.19c-1.719-0.863-3.414-1.872-5.024-2.92
							c-0.713-0.464-1.413-0.933-2.084-1.404c-1.749-1.228-3.333-2.45-4.642-3.507c-1.309-1.058-2.341-1.952-2.986-2.524
							c-0.322-0.286-0.548-0.491-0.662-0.596c-0.057-0.053-0.087-0.08-0.087-0.08C256.154,352.888,256.732,347.654,256.732,347.654z
							"/>
					</g>
				</g>
				<g>
					<g>
						<path style="fill:#263238;" d="M382.658,393.917c6.777,3.378,10.869,6.542,13.742,11.062
							c2.873,4.519,3.488,8.898-0.039,13.763c-3.527,4.865-9.713,10.397-16.399,9.419c-6.686-0.979-10.676-3.015-16.618-6.939
							L382.658,393.917z"/>
						<path id="XMLID_1387_" style="fill:#455A64;" d="M326.052,394.965c-0.282,2.093,8.218,7.06,17.044,12.257
							c9.461,5.57,11.624,8.848,19.337,13.516c8.813,5.334,12.288,5.9,19.608,4.538c7.32-1.361,17.027-10.823,11.706-20.764
							c-4.337-8.105-10.64-10.776-20.254-14.224c-9.94-3.563-15.191-5.909-22.373-9.445c-6.865-3.38-12.29-8.85-13.908-7.257
							c0.972,0.581,8.007,5.817,6.493,6.943c-0.4,0.613-1.445,0.319-3.208-0.595c-0.768-0.399-1.674-0.68-2.538-0.345
							c-0.87,0.338-1.486,1.219-2.031,2.049c-1.324,2.017-1.585,3.307-2.72,5.444c-0.663,1.249-0.369,0.518-0.996,1.786
							c-0.703,1.421-1.99,3.543-1.963,4.903c0.016,0.819,0.584,1.129,1.174,1.58c0.591,0.451,1.429,1.007,1.979,1.512
							c0.22,0.203,0.59,0.842,0.429,1.14c-0.268,0.494-1.53,0.139-2.043-0.129c-0.617-0.323-1.392-0.567-2.021-0.865
							C329.167,396.727,327.613,395.865,326.052,394.965z"/>
						<path style="fill:#37474F;" d="M359.404,418.938c1.266,0.783,9.286,5.396,12.113,3.295c3.06-2.274-3.295-6.882-3.295-6.882
							s-0.473-6.394,7.945-15.006c1.23,1.137,6.73,1.565,6.937-1.677c0.205-3.221-8.657-8.008-8.785-8.079
							c9.202,3.343,15.216,6.054,19.427,13.922c5.321,9.941-4.387,19.403-11.706,20.764c-7.319,1.362-10.795,0.796-19.608-4.538
							C361.551,420.204,360.172,419.484,359.404,418.938z"/>
						<path style="fill:#37474F;" d="M369.176,414.799c3.385,1.468,0.717,4.429-4.299,2.956c-7.52-2.208-13.497-7.103-21.781-10.534
							c-8.826-5.197-17.85-10.106-17.043-12.381c1.595,0.762,4.991,2.538,4.991,2.538c0.665,0.354,2.387,1.171,2.387,1.171
							c6.718,3.623,14.016,9.144,21.388,11.848C361.313,412.78,365.79,413.331,369.176,414.799z"/>
						<path style="fill:#37474F;" d="M375.557,401.497c-3.029-2.124-3.447-3.75-9.454-7.17c-5.963-3.395-16.049-10.49-22.253-14.868
							c-1.948-1.3-6.572-5.832-6.638-5.872c1.19-1.139,5.077,0.348,8.846,3.21c3.769,2.863,6.059,4.676,9.835,7.079
							c7.278,5.284,15.764,9.161,19.904,12.368C379.936,399.449,378.586,403.621,375.557,401.497z"/>
						<g>
							<g>
								<path style="fill:#F0F0F0;" d="M376.103,400.689c-0.054,0.098-0.124,0.188-0.207,0.266
									c-0.072,0.063-5.542,5.119-7.318,14.924c-0.09,0.482-0.515,0.833-0.948,0.787c-0.437-0.044-0.718-0.47-0.631-0.951
									c1.901-10.489,7.632-15.772,7.947-16.056c0.358-0.323,0.862-0.297,1.124,0.063
									C376.269,399.993,376.271,400.38,376.103,400.689z"/>
							</g>
							<g>
								<path style="fill:#F0F0F0;" d="M370.309,395.632c-0.049,0.089-0.109,0.171-0.185,0.245
									c-0.076,0.074-6.692,6.781-8.983,17.587c-0.108,0.475-0.535,0.815-0.969,0.757c-0.433-0.061-0.702-0.5-0.6-0.978
									c2.428-11.428,9.224-18.298,9.554-18.621c0.351-0.336,0.857-0.328,1.132,0.017
									C370.474,394.91,370.483,395.31,370.309,395.632z"/>
							</g>
							<g>
								<path style="fill:#F0F0F0;" d="M355.121,412.283c-0.162,0.298-0.465,0.501-0.788,0.492
									c-0.442-0.015-0.753-0.415-0.696-0.897c1.343-11.149,9.457-21.014,9.829-21.348c0.359-0.325,0.862-0.297,1.124,0.063
									c0.26,0.358,0.172,0.914-0.176,1.233c-0.082,0.076-7.939,9.718-9.178,20.096
									C355.223,412.052,355.182,412.173,355.121,412.283z"/>
							</g>
							<g>
								<path style="fill:#F0F0F0;" d="M349.718,408.128c-0.159,0.293-0.455,0.493-0.773,0.491
									c-0.445-0.005-0.762-0.399-0.711-0.881c1.29-12.341,9.782-19.882,10.158-20.182c0.375-0.3,0.873-0.238,1.112,0.14
									c0.239,0.378,0.126,0.938-0.247,1.227c-0.085,0.066-8.219,7.344-9.422,18.828
									C349.821,407.888,349.779,408.015,349.718,408.128z"/>
							</g>
							<g>
								<path style="fill:#EBEBEB;" d="M342.573,404.346c-0.156,0.288-0.447,0.489-0.762,0.491
									c-0.443,0.003-0.766-0.385-0.722-0.868c1.062-11.626,10.023-19.914,10.423-20.244c0.367-0.311,0.868-0.259,1.116,0.112
									c0.25,0.368,0.157,0.921-0.22,1.229c-0.091,0.078-8.731,8.097-9.716,18.892
									C342.678,404.098,342.637,404.229,342.573,404.346z"/>
							</g>
						</g>
					</g>
				</g>
			</g>
			<g id="Top_00000036245848780919422860000000089733931892909964_">
				<g id="Chest_11_">
					<g>
						<path id="XMLID_1386_" style="fill:#263238;" d="M290.111,188.713c1.032-27.86-4.572-36.059-18.505-38.845l-23.01-4.473
							c-7.014,0.811-38.052,11.821-46.279,13.898c-5.296,1.337-8.46,12.062-11.055,29.07c-2.108,13.815-1.916,24.818-3.131,44.067
							c-1.018,16.13,0.261,42.297,3.226,65.101c43.983,16.715,98.93-9.223,104.13-30.319c-1.283-5.891-9.7-15.843-9.822-27.467
							C288.493,215.662,289.786,197.47,290.111,188.713z"/>
						<g>
							<g>
								<path style="fill:#EBEBEB;" d="M201.829,158.624l24.665-9.876c0,0,2.376,7.59,7.874,22.158
									c5.499,14.568,5.188,20.937,3.687,45.394c-1.5,24.456-3.517,50.697,5.938,86.335c-11.527,1.561-27.191,4.248-54.383-2.998
									c0,0-2.977-24.709-2.628-69.628C187.177,204.956,189.003,164.61,201.829,158.624z"/>
							</g>
						</g>
						<g>
							<g>
								<path style="fill:#EBEBEB;" d="M258.825,149.526c9.54,4.705,15.819,16.306,16.83,31.68
									c1.012,15.374-0.458,54.255,0.18,65.848c0.638,11.593,11.134,34.278,11.134,34.278s7.639-6.03,11.827-15.246
									c-4.945-7.761-9.242-18.322-9.374-27.949c-0.132-9.627,3.408-39.968,2.985-51.735c-0.423-11.767-0.25-27.946-13.582-34.522
									c-5.744-2.833-19.661-4.973-19.661-4.973L258.825,149.526z"/>
							</g>
							<g>
								<path style="fill:#FAFAFA;" d="M275.954,190.056c-0.378-11.282-4.985-31.805-16.723-36.93c-0.583-1.574-0.406-3.6-0.406-3.6
									l0.615-5.786c0,0,4.951,2.1,9.87,5.927c4.919,3.828,12.989,15.387,14.557,24.284
									C279.021,169.05,276.314,176.096,275.954,190.056z"/>
							</g>
						</g>
					</g>
					<g id="Head_11_">
						<g id="XMLID_417_">
							<g id="XMLID_664_">
								<path style="fill:#37474F;" d="M224.337,81.442c0,0-5.121,0.201-8.707,6.516c-1.801,3.173-3.225,9.029,0.76,26.068
									c2.564,10.966,5.95,15.832,7.426,18.911c1.476,3.08,4.701,4.045,4.701,4.045l0.142-12.978l-0.15-9.052
									c0,0,7.528-6.343,8.395-12.812c1.115-8.325-1.971-13.178-1.971-13.178L224.337,81.442z"/>
								<path style="fill:#37474F;" d="M222.555,81.812c1.533-7.242,11.097-15.599,28.964-15.894
									c14.639-0.242,23.001,5.097,27.774,13.804c4.773,8.707,1.014,19.617,1.014,19.617l-45.797-4.69L222.555,81.812z"/>
								<path style="fill:#FFBDA7;" d="M216.667,127.364c6.6,3.514,9.86-1.688,9.86-1.688l-0.035,29.149
									c12.261,17.736,46.928,12.057,33.288-1.392l0.249-8.203c0,0,2.255,0.031,5.84-0.411c5.981-0.719,11.029-4.721,13.039-11.097
									c2.965-9.433,3.405-24.739,0.412-41.095c-0.578-3.158-1.804-6.627-4.628-8.154c-7.01-3.792-13.798,1.053-23.886,4.564
									c-4.178,1.454-14.193,1.792-16.782,0.459c3.33,3.958,0.96,13.808-0.078,16.914c-1.498,4.482-3.49,6.618-4.442,6.781
									c-4.105,0.706-4.45-2.808-6.208-4.788c-1.776-1.965-8.568-3.926-11.753,2.253
									C208.32,116.948,210.552,124.108,216.667,127.364z"/>
								<path style="fill:#F0997A;" d="M234.91,136.6c1.159,6.635,9.909,11.297,25.007,12.214l0.113-3.585
									c0,0-4.633-0.112-11.043-1.411C241.957,142.393,234.91,136.6,234.91,136.6z"/>
							</g>
							<g id="XMLID_00000125602815342965691500000011147047020811384463_">
								<path id="XMLID_662_" style="fill:#37474F;" d="M244.414,99.808l6.382-3.25c0.865,1.831,0.136,4.044-1.626,4.941
									C247.407,102.396,245.279,101.64,244.414,99.808z"/>
								<path id="XMLID_661_" style="fill:#37474F;" d="M270.297,90.488l5.827,4.259c-1.125,1.667-3.341,2.064-4.95,0.887
									C269.565,94.457,269.172,92.154,270.297,90.488z"/>
								<path style="fill:#263238;" d="M247.592,107.079c-0.077,1.61,1.167,2.977,2.777,3.054c1.61,0.077,2.977-1.166,3.054-2.776
									c0.076-1.61-1.167-2.977-2.776-3.054C249.036,104.226,247.669,105.468,247.592,107.079z"/>
								<path style="fill:#263238;" d="M270.336,106.132c-0.077,1.61,1.166,2.977,2.776,3.054c1.61,0.077,2.977-1.166,3.054-2.776
									c0.076-1.61-1.167-2.977-2.776-3.054C271.539,103.267,270.424,104.28,270.336,106.132z"/>
								<path id="XMLID_00000118384330605170775950000004989122487453791654_" style="fill:#F0997A;" d="M259.824,100.776
									l0.257,19.073l10.63-2.359C268.616,109.898,263.588,104.57,259.824,100.776z"/>
								<path style="fill:#B16668;" d="M256.713,127.5c-0.078-0.109-0.242-0.155-0.362-0.205c-0.094-0.039-0.188-0.074-0.285-0.106
									c0.021,0.007,0.041,0.014,0.062,0.021c-0.098-0.034-0.207-0.086-0.316-0.076c-0.041,0.004-0.072,0.013-0.1,0.046
									c-0.028,0.033-0.043,0.076-0.045,0.119c-0.004,0.103,0.038,0.203,0.117,0.27c0.117,0.098,0.258,0.168,0.399,0.227
									c0.113,0.048,0.226,0.094,0.339,0.141c0.049,0.02,0.138,0.037,0.186-0.001c0.015-0.012,0.03-0.024,0.045-0.036
									c0.044-0.035,0.056-0.134,0.05-0.184C256.793,127.634,256.76,127.566,256.713,127.5z M259.313,126.583
									c-0.232-0.217-0.496-0.407-0.764-0.577c-0.538-0.342-1.113-0.633-1.707-0.867c-0.582-0.229-1.19-0.39-1.803-0.509
									c-0.621-0.121-1.372-0.261-1.991-0.092c-0.465,0.127-0.103,0.678,0.189,0.762c0.708,0.204,1.474,0.193,2.191,0.389
									c0.565,0.155,1.123,0.358,1.654,0.607c0.532,0.249,1.029,0.559,1.524,0.872c0.285,0.18,0.581,0.343,0.866,0.523
									c0.106,0.067,0.227,0.169,0.36,0.172c0.174,0.004,0.206-0.104,0.19-0.259C259.985,127.242,259.573,126.825,259.313,126.583z
									"/>
							</g>
						</g>
					</g>
					<g>
						<path style="fill:#FAFAFA;" d="M238.992,194.345c-0.79-22.149-11.283-17.419-14.034-10.402
							c-6.93-12.629-5.877-28.269-5.395-32.346c2.502-3.575,2.893-4.36,4.006-6.117c1.483-2.34,1.693-2.809,2.938-3.204
							l-0.014,6.472c0,0,1.791,4.344,7.639,12.966C238.424,168.045,239.46,175.759,238.992,194.345z"/>
					</g>
				</g>
			</g>
			<g>
				<path style="fill:#FFBDA7;" d="M108.359,127.829c1.587-0.173,3.226,0.225,4.688,0.898c1.733,0.797,3.268,1.959,4.814,3.077
					c2.363,1.708,4.788,3.33,7.269,4.863c2.208,1.364,4.536,2.893,7.151,3.3c0.878,0.137,2.741,0.15,1.777-1.169
					c-1.259-1.72-2.67-3.353-3.616-5.264c-0.946-1.91-1.384-4.202-0.582-6.178c0.242-0.595,0.62-1.174,1.202-1.449
					c0.823-0.388,1.248,0.049,1.726,0.586c0.503,0.566,1.104,1.045,1.68,1.545c1.189,1.029,2.376,2.061,3.55,3.108
					c6.851,6.108,15.16,11.381,18.149,20.268c0.433,1.287,1.291,7.059,1.442,16.848c0.151,9.789,3.318,32.733,3.318,32.733
					s4.402-5.578,14.984-19.858c9.714-13.109,12.761-18.201,21.162-20.883c3.795-1.212,7.961-2.177,9.276-2.526
					c7.005,8.286,2.7,36.881-10.51,50.912c0,0-18.659,22.902-33.764,34.927c-13.393,10.663-22.171,4.376-24.035,0.16
					c-3.09-6.99-7.748-13.953-3.851-53.156c0.278-3.033,0.626-6.06,0.939-9.09c0.381-6.325-0.394-12.744-2.855-14.095
					c-4.53-2.484-8.966-5.196-12.883-8.565c-2.578-2.218-4.925-4.727-6.838-7.545c-0.801-1.181-2.194-2.896-2.355-4.348
					c-0.164-1.472,0.467-3.038,0.007-4.488c-0.314-0.99-0.989-1.794-1.249-2.851c-0.529-2.154-0.366-4.633-1.756-6.489
					c-0.765-1.021-2.03-1.936-1.869-3.202c0.129-1.013,1.164-1.661,2.154-1.911C107.773,127.913,108.065,127.862,108.359,127.829z"
					/>
				<path style="fill:#F0997A;" d="M160.927,200.994c1.625,10.465,0.083,25.031,0.083,25.031s5.889-17.741,3.657-29.889
					L160.927,200.994z"/>
				<path style="fill:#F0997A;" d="M136.12,144.569c0.809,5.273,4.637,11.834,7.185,14.026c0,0-4.24-2.357-6.054-6.024
					C135.265,148.553,135.466,146.499,136.12,144.569z"/>
				<g>
					<path style="fill:#E0E0E0;" d="M207.066,156.525c-6.953,1.751-13.419,3.503-17.046,6.307
						c-3.627,2.804-6.005,6.13-11.258,13.279c-5.252,7.149-17.501,23.015-17.501,23.015l-1.835-9.963c0,0,0.29,6.068-5.921,11.37
						c-6.212,5.302-18.134,7.596-20.896,3.736c0,0-1.272,15.373,0.018,24.704c1.29,9.331,5.425,17.7,8.184,20.546
						c2.758,2.846,7.943,3.117,17.174-1.973s24.548-21.753,30.566-28.734c6.019-6.981,10.727-11.236,13.307-15.543
						C204.437,198.962,217.294,172.3,207.066,156.525z"/>
					<path style="opacity:0.1;" d="M161.261,199.126c1.831,8.675,1.685,20.78-1.099,27.864c6.273-11.514,5.031-24.741,3.723-31.27
						L161.261,199.126z"/>
				</g>
			</g>
		</g>
	</g>
</g>
<g id="Plant">
	<g id="Plant_00000118377366709855210660000011447699959036873885_">
		<g id="Pot_1_">
			<path id="XMLID_00000181781040157103022950000002108918670065402774_" style="fill:#37474F;" d="M133.677,390.967L66.2,390.954
				l6.976,29.065h0.009c0.532,3.505,3.112,6.925,7.757,9.608c10.494,6.058,27.508,6.058,38.002,0c5-2.887,7.589-6.629,7.824-10.411
				L133.677,390.967z"/>
			<path style="fill:#263238;" d="M125.447,410.888c1.529-0.883,2.863-1.834,4.05-2.828l3.797-15.528
				c-1.733,1.953-4,3.788-6.827,5.423c-14.235,8.217-37.048,8.424-51.767,0.668l1.715-6.924l-0.526-0.731l-9.687-0.002l6.974,29.052
				h0.009c0.532,3.504,3.112,6.925,7.757,9.607c7.475,4.316,18.251,5.541,27.63,3.708c-16.811,1.253-28.347-6.098-30.076-12.873
				c-0.69-2.703-1.894-8.686-1.894-8.686C90.643,418.906,112.033,418.625,125.447,410.888z"/>
			<path id="XMLID_00000125600935107046894750000013529846297949156275_" style="fill:#455A64;" d="M137.186,382.369
				c-0.348,1.784-1.099,3.547-2.252,5.245c-1.817,2.742-4.646,5.31-8.466,7.519c-14.647,8.455-38.401,8.455-53.048,0
				c-3.82-2.209-6.648-4.777-8.466-7.519c-1.143-1.698-1.893-3.46-2.241-5.245h-0.011c-1.306-6.355,2.275-12.982,10.719-17.857
				c14.646-8.466,38.401-8.466,53.048,0C134.911,369.387,138.491,376.014,137.186,382.369z"/>
			<path id="XMLID_00000036962201241936262520000011320133503974306961_" style="fill:#37474F;" d="M134.933,387.613
				c-1.817,2.742-4.646,5.31-8.466,7.519c-14.647,8.455-38.401,8.455-53.048,0c-3.82-2.209-6.648-4.777-8.466-7.519
				c-1.143-1.698-1.893-3.46-2.241-5.245h-0.011l1.665,11.437c0.762,4.603,4.189,9.086,10.305,12.611
				c13.961,8.052,36.584,8.052,50.545,0c6.028-3.482,9.456-7.911,10.272-12.448l0.087-0.588l1.61-11.012
				C136.837,384.153,136.087,385.916,134.933,387.613z"/>
			<path id="XMLID_00000085252070847210250450000009036254866954823066_" style="fill:#263238;" d="M122.049,367.058
				c-12.209-7.052-32.003-7.052-44.201,0c-6.91,3.993-9.902,9.38-8.999,14.581c0.696,3.994,3.7,7.878,8.999,10.936
				c12.198,7.051,31.992,7.051,44.201,0c5.289-3.058,8.292-6.942,8.988-10.925C131.952,376.438,128.959,371.052,122.049,367.058z"/>
			<path id="XMLID_00000122706747167468118410000017180811102908958876_" style="fill:#FAFAFA;" d="M70.912,386.473
				c1.526,2.221,3.824,4.306,6.937,6.102c12.198,7.051,31.992,7.051,44.201,0c3.108-1.797,5.404-3.883,6.929-6.103
				c-0.09-4.222-2.917-8.423-8.495-11.646c-11.344-6.552-29.736-6.552-41.07,0C73.832,378.051,71.005,382.255,70.912,386.473z"/>
		</g>
		<g>
			<path style="fill:#BA68C8;" d="M102.282,373.353c-5.61-1.52-6.56-13.672-3.418-26.497c3.057-12.476,12.842-31.184,14.924-30.773
				c2.081,0.411,4.677,20.746,3.215,34.175C115.231,366.525,107.891,374.872,102.282,373.353z"/>
			<path style="opacity:0.3;" d="M102.282,373.353c-5.61-1.52-6.56-13.672-3.418-26.497c3.057-12.476,12.842-31.184,14.924-30.773
				c2.081,0.411,4.677,20.746,3.215,34.175C115.231,366.525,107.891,374.872,102.282,373.353z"/>
			<path style="opacity:0.5;fill:#BA68C8;" d="M105.015,334.068c1.004,1.588,1.623,4.278,3.982,4.289
				c1.892,0.008,2.881-1.996,4.585-2.455c1.371-0.37,2.67,0.357,3.764,1.129c-0.018-0.489-0.039-0.975-0.062-1.461
				c-0.969-0.639-2.066-1.18-3.252-1.146c-1.06,0.03-1.909,0.601-2.719,1.228c-0.876,0.678-1.942,1.705-3.15,1.207
				c-1.362-0.562-1.753-2.274-2.451-3.419c-0.387-0.634-0.876-1.171-1.495-1.538c-0.152,0.344-0.304,0.688-0.454,1.035
				C104.259,333.194,104.699,333.568,105.015,334.068z M111.668,329.052c0.807-0.383,1.271-1.183,1.894-1.783
				c0.79-0.761,1.869-0.925,2.89-0.559c0.036,0.013,0.064,0.037,0.099,0.052c-0.053-0.434-0.107-0.859-0.163-1.276
				c-0.174-0.054-0.351-0.103-0.534-0.13c-0.812-0.12-1.669,0.026-2.344,0.51c-0.775,0.556-1.205,1.51-2.022,2.001
				c-1.465,0.878-2.632-0.72-3.07-1.921c-0.197-0.54-0.348-1.092-0.529-1.634c-0.149,0.28-0.298,0.568-0.448,0.858
				c0.1,0.385,0.197,0.771,0.313,1.138C108.252,327.884,109.745,329.963,111.668,329.052z M111.483,345.281
				c-1.024,0.623-1.886,1.669-3.067,2.007c-2.891,0.827-3.558-3.639-5.397-4.957c-0.779-0.558-1.714-0.767-2.624-0.684
				c-0.115,0.344-0.226,0.684-0.334,1.023c0.48-0.085,0.974-0.103,1.467,0.013c1.235,0.292,1.938,1.182,2.53,2.245
				c0.922,1.658,2.097,4.029,4.411,3.572c1.031-0.203,1.856-0.919,2.686-1.515c1.17-0.84,2.448-1.358,3.911-1.053
				c0.872,0.182,1.543,0.652,2.199,1.173c0.027-0.437,0.05-0.878,0.07-1.324c-0.801-0.599-1.659-1.065-2.673-1.186
				C113.55,344.462,112.438,344.7,111.483,345.281z M113.243,355.086c-1.28-0.319-2.656-0.074-3.826,0.503
				c-1.339,0.66-2.306,1.951-3.708,2.482c-3.054,1.157-3.527-3.267-5.765-4.354c-0.737-0.358-1.536-0.5-2.313-0.447
				c-0.049,0.347-0.098,0.694-0.14,1.038c0.296-0.019,0.594-0.022,0.885,0.018c1.532,0.209,2.449,1.133,3.15,2.44
				c1.082,2.016,2.503,3.65,4.975,2.446c1.32-0.644,2.267-1.851,3.626-2.432c1.478-0.632,3.286-0.685,4.556,0.417
				c0.234,0.203,0.527,0.592,0.859,1.053c0.115-0.432,0.218-0.884,0.323-1.333C115.175,356.057,114.349,355.361,113.243,355.086z"/>
			<path style="opacity:0.1;" d="M102.282,373.353c5.61,1.52,12.95-6.828,14.721-23.095c0.462-4.243,0.518-9.176,0.314-13.952
				c-4.584,3.764-9.177,11.444-9.177,11.444s-3.003-7.857-5.448-12.27c-1.592,3.91-2.974,7.886-3.828,11.376
				C95.722,359.681,96.672,371.832,102.282,373.353z"/>
		</g>
		<g>
			<path style="fill:#BA68C8;" d="M97.709,380.091c-7.381,4.736-14.262-12.109-17.931-24.823
				c-3.669-12.714-1.272-45.951,2.446-47.769c2.632-1.287,16.566,28.497,19.307,42.995
				C103.513,360.977,103.577,376.326,97.709,380.091z"/>
			<path style="opacity:0.1;" d="M97.709,380.091c-7.381,4.736-14.262-12.109-17.931-24.823
				c-3.669-12.714-1.272-45.951,2.446-47.769c2.632-1.287,16.566,28.497,19.307,42.995
				C103.513,360.977,103.577,376.326,97.709,380.091z"/>
			<path style="fill:#BA68C8;" d="M81.785,330.969c2.316,1.141,4.16,1.15,5.968-0.806c1.681-1.819,2.919-4.111,5.54-3.816
				c-0.254-0.585-0.509-1.164-0.765-1.738c-0.422-0.02-0.847,0.015-1.276,0.129c-2.288,0.613-3.316,2.995-4.922,4.499
				c-2.475,2.319-5.114-0.727-7.921-0.556c-0.086,0.005-0.168,0.025-0.253,0.033c-0.026,0.507-0.048,1.016-0.069,1.527
				C79.315,330.144,80.601,330.386,81.785,330.969z M102.066,353.839c-0.389-0.141-0.789-0.269-1.215-0.351
				c-1.219-0.234-2.484,0.057-3.482,0.79c-2.234,1.642-2.335,5.282-5.946,4.329c-2.749-0.725-4.808-2.535-7.69-1.089
				c-0.983,0.493-1.863,1.189-2.65,1.997c0.137,0.421,0.277,0.843,0.42,1.266c1.048-1.029,2.221-1.877,3.591-2.229
				c3.108-0.799,5.453,2.343,8.547,1.829c2.524-0.419,2.795-3.187,4.547-4.556c1.299-1.015,2.691-0.769,4.094-0.257
				C102.216,354.984,102.145,354.408,102.066,353.839z M81.914,318.902c0.864,1.189,2.076,2.5,3.677,1.678
				c1.711-0.879,1.842-2.958,2.943-4.313c-0.202-0.389-0.402-0.773-0.599-1.142c-1.069,1.43-1.6,4.538-3.648,4.427
				c-1.602-0.086-2.23-2.461-3.572-3.148c-0.458-0.235-0.907-0.302-1.336-0.257c-0.051,0.321-0.101,0.644-0.149,0.978
				c0.105-0.01,0.208-0.025,0.32-0.021C80.666,317.139,81.32,318.085,81.914,318.902z M87.473,344.132
				c2.912,0.63,4.335-2.84,5.648-4.766c0.975-1.43,2.442-2.906,4.044-3.42c-0.193-0.521-0.391-1.043-0.591-1.567
				c-0.54,0.119-1.061,0.305-1.52,0.566c-1.329,0.755-2.319,1.956-3.158,3.207c-0.88,1.311-1.606,3.07-2.967,3.953
				c-1.558,1.01-3.384-0.569-5.001-0.867c-1.5-0.277-3.058-0.143-4.492,0.368c-0.467,0.166-0.924,0.397-1.363,0.66
				c0.031,0.721,0.068,1.435,0.112,2.134c1.22-1.145,3.108-1.625,4.73-1.591C84.618,342.845,85.881,343.788,87.473,344.132z"/>
			<path style="opacity:0.1;" d="M97.66,337.293c-3.911,4.688-5.978,9.791-5.978,9.791s-8.012-10.866-13.638-15.79
				c-0.31,9.025,0.137,18.442,1.734,23.974c3.669,12.714,10.549,29.559,17.931,24.823c5.868-3.765,5.804-19.114,3.822-29.596
				C100.837,346.823,99.424,342.171,97.66,337.293z"/>
		</g>
		<g>
			<path style="fill:#BA68C8;" d="M97.204,388.752c-13.494,0.728-26.106-7.439-34.283-17.742
				c-8.178-10.303-14.565-31.579-12.718-32.886c1.848-1.308,23.619,12.116,31.792,21.802
				C92.715,372.629,97.204,388.752,97.204,388.752z"/>
			<path style="opacity:0.2;" d="M97.204,388.752c-13.494,0.728-26.106-7.439-34.283-17.742
				c-8.178-10.303-14.565-31.579-12.718-32.886c1.848-1.308,23.619,12.116,31.792,21.802
				C92.715,372.629,97.204,388.752,97.204,388.752z"/>
			<path style="fill:#BA68C8;" d="M67.75,354.954c0.789-1.272,0.339-2.803,0.167-4.173c-0.127-1.007,0.075-1.883,0.546-2.617
				c-0.507-0.365-1.015-0.725-1.523-1.079c-0.659,1.132-0.738,2.364-0.552,3.658c0.224,1.556,0.599,3.495-1.484,3.781
				c-2.27,0.311-5.411-1.718-7.229,0.529c-0.88,1.088-0.544,2.478-0.577,3.754c-0.014,0.533-0.194,1.121-0.487,1.641
				c0.244,0.513,0.494,1.021,0.747,1.526c0.53-0.65,0.903-1.463,1.005-2.288c0.195-1.568-0.42-3.594,1.695-3.929
				c1.466-0.232,2.878,0.445,4.324,0.547C65.673,356.394,67.022,356.128,67.75,354.954z M60.222,343.688
				c0.166-0.257,0.372-0.461,0.594-0.642c-0.411-0.255-0.815-0.501-1.213-0.741c-0.992,1.3-0.99,3.087-1.992,4.382
				c-0.669,0.865-1.536,0.929-2.547,0.724c-0.975-0.198-1.873-0.333-2.81,0.096c-0.201,0.092-0.387,0.203-0.564,0.323
				c0.1,0.323,0.201,0.648,0.308,0.98c0.414-0.234,0.882-0.379,1.416-0.394c1.021-0.029,1.969,0.508,2.999,0.438
				c0.714-0.049,1.31-0.397,1.788-0.918C59.309,346.725,59.361,345.024,60.222,343.688z M75.172,361.77
				c1.054-0.869,1.706-2.172,2.047-3.474c0.241-0.921,0.229-1.916,0.351-2.863c-0.416-0.377-0.84-0.754-1.278-1.133
				c-0.277,1.583-0.126,3.176-0.943,4.663c-0.936,1.705-2.336,2.201-4.2,2.2c-1.345-0.001-2.656,0.08-3.609,1.151
				c-0.882,0.991-1.16,2.349-1.346,3.619c-0.275,1.878-0.561,3.616-2.309,4.678c-0.301,0.183-0.613,0.321-0.93,0.44
				c0.315,0.396,0.647,0.783,0.975,1.172c0.727-0.329,1.39-0.791,1.937-1.44c2.259-2.677,0.428-7.997,5.225-7.992
				C72.604,362.793,73.948,362.777,75.172,361.77z M82.428,363.129c0.267-0.522,0.623-0.984,1.013-1.415
				c-0.381-0.487-0.77-0.971-1.168-1.451c-1.157,1.185-1.777,2.64-2.162,4.241c-0.413,1.72-0.637,3.589-1.757,5.029
				c-1.173,1.508-3.042,1.348-4.593,2.215c-1.326,0.741-2.335,1.944-2.877,3.357c-0.42,1.095-0.549,2.253-0.721,3.401
				c0.469,0.4,0.944,0.794,1.427,1.176c0.012-0.069,0.027-0.142,0.037-0.207c0.305-1.913,0.531-3.872,2.021-5.274
				c1.427-1.343,3.39-1.141,4.915-2.216C81.469,369.937,80.963,365.991,82.428,363.129z M88.275,368.752
				c-0.388,0.31-0.76,0.639-1.093,1.006c-2.303,2.53-2.018,5.814-2.862,8.91c-0.432,1.583-1.274,3.194-2.869,3.853
				c-1.286,0.531-2.741,0.017-3.859,1.027c-0.042,0.038-0.069,0.086-0.108,0.125c0.665,0.38,1.339,0.74,2.021,1.085
				c0.361-0.091,0.746-0.107,1.125-0.13c0.755-0.045,1.418-0.158,2.098-0.505c1.161-0.591,2.009-1.648,2.566-2.802
				c1.398-2.899,0.776-6.422,2.52-9.178c0.415-0.655,0.91-1.213,1.463-1.688C88.952,369.89,88.62,369.322,88.275,368.752z"/>
			<path style="opacity:0.2;" d="M66.815,346.997c1.27,11.17,7.231,41.231,30.389,41.755c0,0-4.489-16.123-15.209-28.827
				C78.528,355.818,72.616,351.041,66.815,346.997z"/>
		</g>
		<g>
			<path style="fill:#BA68C8;" d="M97.204,388.752c-10.616-1.549-19.721-8.267-24.404-28.26c-4.683-19.993-5.395-29.02-2.177-31.007
				c3.706-2.287,18.19,17.868,22.849,26.731C105.179,378.487,97.204,388.752,97.204,388.752z"/>
			<path style="opacity:0.2;fill:#FFFFFF;" d="M77.512,351.809c2.643,0.831,6.088,1.714,8.071-0.897
				c0.971-1.279,1.236-3.009,1.91-4.357c-0.465-0.678-0.939-1.36-1.423-2.042c-1.165,1.885-1.136,4.666-3.182,5.745
				c-1.537,0.811-3.36,0.278-4.913-0.19c-1.594-0.481-3.195-0.959-4.877-0.733c-0.931,0.125-1.781,0.443-2.541,0.893
				c0.116,0.584,0.247,1.206,0.373,1.817c0.342-0.193,0.696-0.368,1.062-0.506C73.867,350.832,75.661,351.228,77.512,351.809z
				 M74.377,341.461c0.801,0.324,1.586,0.651,2.465,0.47c1.61-0.333,2.453-1.891,3.277-3.152c0.242-0.371,0.505-0.735,0.814-1.047
				c-0.334-0.41-0.667-0.812-0.997-1.204c-0.067,0.07-0.138,0.129-0.203,0.207c-1.004,1.214-1.847,3.693-3.717,3.725
				c-0.906,0.016-1.77-0.58-2.647-0.771c-0.758-0.164-1.522-0.171-2.288-0.048c-0.773,0.123-1.485,0.409-2.121,0.81
				c0.051,0.459,0.114,0.943,0.178,1.432c0.873-0.499,1.84-0.833,2.848-0.872C72.823,340.977,73.604,341.148,74.377,341.461z
				 M85.959,363.668c1.014-1.48,1.746-3.154,3.242-4.228c1.748-1.255,3.507-1.179,5.409-0.963c-0.358-0.739-0.732-1.488-1.136-2.255
				c-1.222-0.131-2.42-0.153-3.667,0.233c-1.658,0.514-3.042,1.551-4.049,2.958c-0.917,1.282-1.538,2.843-2.716,3.919
				c-2.161,1.972-5.082,0.246-7.495-0.233c-0.705-0.14-1.413-0.195-2.116-0.165c0.187,0.697,0.378,1.381,0.576,2.043
				c0.885-0.008,1.816,0.123,2.791,0.427C80.401,366.526,83.548,367.189,85.959,363.668z M98.182,367.556
				c-0.178,0.052-0.356,0.084-0.535,0.153c-1.433,0.547-2.661,1.493-3.596,2.701c-1.029,1.329-1.574,2.941-2.545,4.302
				c-1.136,1.591-2.402,1.985-4.224,1.407c-1.596-0.506-3.031-0.876-4.665-0.343c-1.123,0.366-2.112,1.022-2.956,1.847
				c0.36,0.538,0.733,1.036,1.107,1.528c0.665-0.578,1.443-1.076,2.28-1.33c1.338-0.406,2.422-0.048,3.657,0.457
				c3.048,1.247,5.641,0.452,7.511-2.284c0.908-1.329,1.435-2.907,2.454-4.16c0.606-0.745,1.357-1.304,2.192-1.68
				C98.669,369.314,98.447,368.453,98.182,367.556z"/>
			<path style="opacity:0.15;" d="M93.472,356.216c-0.843-1.604-2.011-3.579-3.375-5.723c-4.588,14.192-6.067,34.892,7.107,38.259
				C97.204,388.752,105.179,378.487,93.472,356.216z"/>
		</g>
		<g>
			<path style="fill:#BA68C8;" d="M102.686,388.752c13.494,0.728,26.106-7.439,34.284-17.742
				c8.178-10.303,14.565-31.579,12.718-32.886c-1.848-1.308-23.619,12.116-31.793,21.802
				C107.175,372.629,102.686,388.752,102.686,388.752z"/>
			<path style="opacity:0.2;" d="M102.686,388.752c13.494,0.728,26.106-7.439,34.284-17.742
				c8.178-10.303,14.565-31.579,12.718-32.886c-1.848-1.308-23.619,12.116-31.793,21.802
				C107.175,372.629,102.686,388.752,102.686,388.752z"/>
			<path style="fill:#BA68C8;" d="M135.508,356.303c1.446-0.102,2.858-0.779,4.324-0.547c2.115,0.335,1.5,2.361,1.695,3.929
				c0.102,0.824,0.475,1.638,1.005,2.288c0.253-0.505,0.503-1.013,0.747-1.526c-0.293-0.521-0.473-1.108-0.487-1.641
				c-0.033-1.276,0.303-2.667-0.577-3.754c-1.818-2.247-4.959-0.218-7.229-0.529c-2.083-0.286-1.708-2.225-1.484-3.781
				c0.186-1.294,0.107-2.526-0.552-3.658c-0.508,0.355-1.016,0.714-1.523,1.079c0.471,0.735,0.673,1.611,0.546,2.617
				c-0.173,1.37-0.622,2.901,0.167,4.173C132.868,356.128,134.217,356.394,135.508,356.303z M141.69,347.936
				c0.477,0.522,1.074,0.869,1.787,0.918c1.03,0.07,1.978-0.466,2.999-0.438c0.534,0.015,1.002,0.159,1.416,0.394
				c0.107-0.332,0.208-0.657,0.308-0.98c-0.178-0.12-0.363-0.231-0.564-0.323c-0.938-0.429-1.835-0.294-2.81-0.096
				c-1.011,0.205-1.878,0.141-2.547-0.724c-1.002-1.294-1-3.082-1.992-4.382c-0.398,0.239-0.802,0.486-1.213,0.741
				c0.222,0.181,0.429,0.385,0.594,0.642C140.53,345.024,140.581,346.725,141.69,347.936z M128.799,362.791
				c4.797-0.005,2.965,5.315,5.224,7.992c0.548,0.649,1.211,1.111,1.937,1.44c0.328-0.389,0.66-0.776,0.975-1.172
				c-0.317-0.119-0.628-0.257-0.93-0.44c-1.749-1.063-2.034-2.8-2.309-4.678c-0.186-1.27-0.464-2.629-1.345-3.619
				c-0.954-1.071-2.265-1.152-3.61-1.151c-1.864,0.002-3.264-0.495-4.2-2.2c-0.817-1.488-0.666-3.081-0.943-4.663
				c-0.437,0.379-0.861,0.757-1.278,1.133c0.122,0.947,0.111,1.942,0.352,2.863c0.34,1.301,0.992,2.605,2.047,3.474
				C125.942,362.777,127.286,362.793,128.799,362.791z M121.327,371.986c1.525,1.075,3.487,0.873,4.915,2.216
				c1.49,1.402,1.715,3.361,2.021,5.274c0.01,0.065,0.025,0.138,0.037,0.207c0.484-0.383,0.958-0.777,1.427-1.176
				c-0.172-1.149-0.301-2.307-0.721-3.401c-0.542-1.413-1.55-2.616-2.877-3.357c-1.551-0.867-3.42-0.706-4.593-2.215
				c-1.12-1.44-1.344-3.309-1.757-5.029c-0.384-1.6-1.004-3.056-2.162-4.241c-0.398,0.479-0.787,0.963-1.168,1.451
				c0.39,0.431,0.746,0.894,1.013,1.415C118.927,365.991,118.421,369.937,121.327,371.986z M110.614,370.455
				c0.553,0.475,1.048,1.033,1.463,1.688c1.744,2.756,1.121,6.279,2.52,9.178c0.557,1.154,1.406,2.211,2.566,2.802
				c0.68,0.347,1.343,0.459,2.098,0.505c0.378,0.023,0.763,0.038,1.125,0.13c0.682-0.344,1.356-0.704,2.021-1.085
				c-0.039-0.04-0.066-0.088-0.108-0.125c-1.118-1.01-2.573-0.495-3.859-1.027c-1.595-0.66-2.438-2.27-2.869-3.853
				c-0.845-3.096-0.56-6.38-2.862-8.91c-0.333-0.366-0.706-0.695-1.094-1.006C111.27,369.322,110.938,369.89,110.614,370.455z"/>
			<path style="opacity:0.2;" d="M133.075,346.997c-1.27,11.17-7.231,41.231-30.389,41.755c0,0,4.488-16.123,15.209-28.827
				C121.362,355.818,127.274,351.041,133.075,346.997z"/>
		</g>
		<g>
			<path style="fill:#BA68C8;" d="M102.686,388.752c10.616-1.549,19.721-8.267,24.404-28.26c4.683-19.993,5.395-29.02,2.177-31.007
				c-3.706-2.287-18.19,17.868-22.848,26.731C94.712,378.487,102.686,388.752,102.686,388.752z"/>
			<path style="opacity:0.2;fill:#FFFFFF;" d="M127.899,351.539c0.366,0.138,0.719,0.312,1.062,0.506
				c0.127-0.612,0.257-1.233,0.373-1.817c-0.76-0.45-1.61-0.768-2.541-0.893c-1.682-0.226-3.283,0.252-4.877,0.733
				c-1.553,0.469-3.376,1.002-4.914,0.19c-2.046-1.079-2.017-3.86-3.182-5.745c-0.484,0.682-0.958,1.364-1.423,2.042
				c0.674,1.349,0.939,3.078,1.91,4.357c1.982,2.611,5.427,1.728,8.071,0.897C124.229,351.228,126.023,350.832,127.899,351.539z
				 M127.905,341.01c1.008,0.039,1.974,0.373,2.848,0.872c0.065-0.49,0.127-0.974,0.178-1.432c-0.637-0.4-1.348-0.686-2.121-0.81
				c-0.766-0.122-1.53-0.116-2.288,0.048c-0.877,0.19-1.741,0.786-2.647,0.771c-1.87-0.032-2.713-2.511-3.717-3.725
				c-0.064-0.078-0.136-0.137-0.203-0.207c-0.33,0.391-0.663,0.794-0.997,1.204c0.309,0.312,0.572,0.677,0.814,1.047
				c0.823,1.261,1.666,2.819,3.276,3.152c0.88,0.182,1.664-0.145,2.466-0.47C126.286,341.148,127.067,340.977,127.905,341.01z
				 M123.092,365.404c0.975-0.304,1.906-0.435,2.791-0.427c0.198-0.662,0.389-1.346,0.576-2.043
				c-0.703-0.03-1.411,0.025-2.116,0.165c-2.414,0.479-5.335,2.206-7.496,0.233c-1.179-1.076-1.799-2.637-2.716-3.919
				c-1.007-1.407-2.391-2.444-4.049-2.958c-1.247-0.387-2.444-0.364-3.667-0.233c-0.403,0.767-0.778,1.517-1.135,2.255
				c1.902-0.216,3.661-0.293,5.409,0.963c1.496,1.075,2.229,2.748,3.242,4.228C116.342,367.189,119.489,366.526,123.092,365.404z
				 M101.026,370.153c0.835,0.376,1.586,0.935,2.192,1.68c1.019,1.253,1.547,2.831,2.455,4.16c1.869,2.736,4.462,3.53,7.511,2.284
				c1.235-0.505,2.319-0.863,3.657-0.457c0.837,0.254,1.615,0.753,2.28,1.33c0.375-0.492,0.747-0.99,1.107-1.528
				c-0.844-0.825-1.832-1.48-2.956-1.847c-1.634-0.533-3.068-0.163-4.664,0.343c-1.823,0.578-3.088,0.184-4.224-1.407
				c-0.971-1.361-1.516-2.973-2.545-4.302c-0.935-1.208-2.163-2.153-3.596-2.701c-0.179-0.068-0.357-0.101-0.535-0.153
				C101.443,368.453,101.221,369.314,101.026,370.153z"/>
			<path style="opacity:0.15;" d="M106.418,356.216c0.843-1.604,2.011-3.579,3.375-5.723c4.588,14.192,6.067,34.892-7.107,38.259
				C102.686,388.752,94.712,378.487,106.418,356.216z"/>
		</g>
		<g>
			<path style="fill:#BA68C8;" d="M99.945,390.954c8.952,0,11.928-12.185,11.033-21.991c-0.896-9.806-7.091-28.464-11.033-28.464
				c-3.941,0-10.137,18.658-11.033,28.464C88.017,378.768,90.993,390.954,99.945,390.954z"/>
			<path style="opacity:0.3;fill:#FFFFFF;" d="M99.945,390.954c8.952,0,11.928-12.185,11.033-21.991
				c-0.896-9.806-7.091-28.464-11.033-28.464c-3.941,0-10.137,18.658-11.033,28.464C88.017,378.768,90.993,390.954,99.945,390.954z"
				/>
			<path style="opacity:0.2;fill:#FFFFFF;" d="M99.892,353.258c1.426-0.283,2.335-1.445,3.335-2.384
				c0.813-0.765,1.767-1.214,2.764-1.431c-0.229-0.582-0.46-1.148-0.695-1.693c-1.392,0.371-2.637,1.174-3.777,2.323
				c-0.545,0.549-1.122,1.142-1.871,1.404c-1.083,0.378-1.742-0.207-2.454-0.914c-0.852-0.846-1.745-1.5-2.945-1.76
				c-0.03-0.006-0.06-0.007-0.089-0.012c-0.187,0.46-0.372,0.932-0.555,1.413c1.123,0.2,2.204,0.768,3.12,1.753
				C97.577,352.872,98.596,353.516,99.892,353.258z M93.21,364.004c2.983,2.338,5.449-0.979,7.356-2.95
				c1.595-1.649,3.277-1.986,5.092-0.465c1.081,0.906,2.047,1.983,3.408,2.471c0.35,0.126,0.69,0.202,1.027,0.253
				c-0.115-0.557-0.236-1.12-0.368-1.692c-1.392-0.351-2.413-1.421-3.632-2.421c-2.666-2.186-5.067-1.27-7.176,1.152
				c-1.215,1.395-3.185,3.794-5.19,2.296c-1.178-0.88-1.737-2.379-2.969-3.233c-0.015-0.011-0.033-0.015-0.049-0.026
				c-0.127,0.492-0.248,0.981-0.364,1.467C91.51,361.637,92.102,363.135,93.21,364.004z M96.557,374.734
				c1.692,2.239,3.8,2.791,6.09,0.869c1.117-0.937,1.854-2.268,3.071-3.093c1.699-1.152,3.652-0.552,5.409,0.137
				c0.004-0.533-0.006-1.064-0.024-1.591c-0.806-0.326-1.62-0.627-2.486-0.775c-1.371-0.235-2.707-0.031-3.853,0.781
				c-1.269,0.9-2.045,2.303-3.269,3.248c-0.663,0.512-1.715,1.147-2.583,0.827c-1.024-0.378-1.637-1.655-2.384-2.411
				c-0.945-0.957-2.153-1.657-3.459-1.98c-1.511-0.373-2.992-0.186-4.284,0.427c-0.016,0.506-0.028,1.013-0.023,1.524
				C91.457,371.516,94.564,372.097,96.557,374.734z M105.05,383.856c-1.436,1.11-3.226,1.715-5.053,1.516
				c-0.969-0.105-1.858-0.406-2.546-1.112c-0.496-0.509-0.854-1.136-1.358-1.64c-0.91-0.909-2.097-1.488-3.369-1.669
				c-0.956-0.135-1.907-0.033-2.808,0.235c0.155,0.55,0.327,1.086,0.516,1.608c1.47-0.476,3.002-0.463,4.46,0.616
				c1.074,0.795,1.589,2.108,2.728,2.853c1.026,0.672,2.284,0.902,3.493,0.902c1.285,0.001,2.573-0.318,3.712-0.917
				c1.285-0.676,2.2-1.841,3.45-2.562c0.331-0.191,0.678-0.343,1.032-0.468c0.251-0.652,0.471-1.33,0.669-2.029
				c-0.407,0.046-0.822,0.124-1.252,0.266C107.241,381.946,106.252,382.928,105.05,383.856z"/>
		</g>
	</g>
</g>
<g id="Cross_00000033330618669395780000000007806170862432695961_">
	<g id="Cross">
		<g>
			<path style="fill:#263238;" d="M337.454,56.326c0.076-0.077,4.179-4.627,4.179-4.627c0.077-0.078,0.162-0.151,0.257-0.217
				l8.824-6.227c0.867-0.612,2.146-0.468,2.855,0.322l44.441,49.504l11.107,12.388c0.71,0.733,0.696,1.86-0.011,2.573
				c-0.029,0.029-3.515,3.959-4.181,4.631c-0.028,0.029-0.058,0.057-0.089,0.084l-8.043,7.148c-0.793,0.705-2.012,0.636-2.721-0.154
				c-8.689-9.681-47.96-53.42-56.649-63.101C336.79,57.945,336.823,56.964,337.454,56.326z"/>
			<path style="fill:#455A64;" d="M337.454,56.326c0.076-0.077,4.179-4.627,4.179-4.627c0.077-0.078,0.162-0.151,0.257-0.217
				l8.824-6.227c0.534-0.377,1.222-0.465,1.839-0.294l-14.611,14.268c-0.185-0.206-0.361-0.402-0.519-0.578
				C336.79,57.945,336.823,56.964,337.454,56.326z"/>
			<path style="fill:#37474F;" d="M337.709,56.11l8.824-6.226c0.867-0.612,2.145-0.468,2.855,0.322l44.441,49.504l11.107,12.388
				c0.738,0.763,0.694,1.953-0.1,2.658l-8.043,7.148c-0.793,0.705-2.012,0.636-2.721-0.154c-8.689-9.681-47.96-53.42-56.649-63.101
				C336.714,57.859,336.841,56.722,337.709,56.11z"/>
		</g>
		<g>
			<path style="fill:#263238;" d="M411.455,63.413l-23.186,20.82l-0.009,0.002l-8.752-0.483l-10.817,9.722l4.138,4.611
				l-10.877,9.765l-12.385,11.112c-0.737,0.709-1.865,0.688-2.576-0.018c-0.025-0.024-3.958-3.509-4.621-4.177
				c-0.037-0.031-0.062-0.055-0.089-0.088l-7.151-8.039c-0.703-0.797-0.634-2.015,0.161-2.727
				c9.682-8.686,53.416-47.964,63.098-56.651c0.704-0.633,1.687-0.599,2.324,0.036c0.075,0.072,4.631,4.175,4.631,4.175
				c0.077,0.081,0.145,0.164,0.216,0.257l6.225,8.82C412.395,61.426,412.25,62.701,411.455,63.413z"/>
			<path style="fill:#455A64;" d="M400.71,47.295c0.077,0.076,4.627,4.179,4.627,4.179c0.078,0.077,0.151,0.162,0.217,0.257
				l6.226,8.824c0.377,0.534,0.465,1.222,0.294,1.839l-14.267-14.611c0.206-0.185,0.402-0.361,0.578-0.519
				C399.091,46.631,400.072,46.665,400.71,47.295z"/>
			<path style="fill:#37474F;" d="M400.926,47.55l6.226,8.824c0.612,0.868,0.468,2.146-0.322,2.855l-49.504,44.441l-12.388,11.107
				c-0.763,0.739-1.953,0.694-2.659-0.1l-7.148-8.043c-0.705-0.793-0.636-2.012,0.154-2.721c9.681-8.689,53.42-47.96,63.101-56.649
				C399.177,46.555,400.314,46.682,400.926,47.55z"/>
		</g>
	</g>
</g>
<g id="Check_00000016766010198932074870000002882413991613880199_">
	<g id="Check">
		<path style="fill:#263238;" d="M169.541,58.532c-0.082-0.071-4.51-4.306-4.51-4.306c-0.082-0.072-0.173-0.138-0.272-0.198
			l-9.26-5.557c-0.91-0.546-2.174-0.308-2.823,0.532L116.51,95.836l-14.537-11.082c-0.844-0.644-2.079-0.506-2.759,0.31
			l-9.621,11.148c-0.654,0.783-0.556,1.907,0.201,2.565c0.031,0.027,3.798,3.688,4.512,4.309c0.03,0.026,0.062,0.052,0.095,0.077
			l25.306,19.333c0.843,0.645,2.054,0.485,2.703-0.355c7.95-10.297,39.386-50.998,47.335-61.294
			C170.322,60.097,170.217,59.121,169.541,58.532z"/>
		<path style="fill:#455A64;" d="M169.541,58.532c-0.082-0.071-4.51-4.306-4.51-4.306c-0.082-0.072-0.173-0.138-0.272-0.198
			l-9.26-5.557c-0.56-0.336-1.253-0.373-1.856-0.157l15.626,13.148c0.169-0.219,0.33-0.428,0.475-0.615
			C170.322,60.097,170.217,59.121,169.541,58.532z"/>
		<path style="fill:#37474F;" d="M169.271,58.335l-9.26-5.557c-0.91-0.546-2.174-0.308-2.823,0.533l-36.166,46.832l-14.537-11.082
			c-0.844-0.644-2.079-0.506-2.759,0.31l-9.621,11.148c-0.68,0.815-0.547,1.999,0.296,2.644l25.306,19.333
			c0.843,0.645,2.054,0.485,2.702-0.355c7.95-10.297,39.386-50.998,47.335-61.294C170.393,60.007,170.181,58.882,169.271,58.335z"/>
		<path style="fill:#455A64;" d="M116.512,95.837l4.495,4.309l-14.522-11.084c-0.425-0.328-0.95-0.45-1.451-0.391l-4.504-4.311
			c0.501-0.059,1.014,0.071,1.442,0.39L116.512,95.837z"/>
	</g>
</g>
<g id="No">
	<g id="Speech_Bubble_2_">
		<g id="Bubble_1_">
			<path style="fill:#BA68C8;" d="M395.836,167.462c6.156-3.495,14.626-2.961,23.982,2.441
				c18.82,10.866,34.077,37.291,34.077,59.022c0,10.856-3.81,18.482-9.969,22.042c-2.564,1.482-9.075,5.218-11.644,6.698
				c-6.162,3.549-14.668,3.035-24.067-2.392c-18.82-10.866-34.077-37.291-34.077-59.023c0-10.834,3.794-18.45,9.931-22.02
				C386.641,172.734,393.229,168.942,395.836,167.462z"/>
			<path style="opacity:0.15;" d="M452.641,217.632c0.811,3.833,1.254,7.63,1.254,11.293c0,10.856-3.81,18.482-9.969,22.042
				c-2.564,1.482-9.075,5.218-11.643,6.698c-6.163,3.549-14.669,3.035-24.068-2.392c-3.166-1.828-6.228-4.105-9.137-6.717
				L452.641,217.632z"/>
			<path style="fill:#BA68C8;" d="M384.104,229.811c-6.158-10.675-9.967-22.703-9.967-33.561c0-21.731,15.257-30.54,34.077-19.674
				c18.82,10.866,34.077,37.291,34.077,59.022c0,21.731-15.257,30.54-34.077,19.674c-4.721-2.726-9.217-6.431-13.306-10.796
				l-13.907,2.541c-1.771,0.324-3.206-1.43-2.537-3.102L384.104,229.811z"/>
			<path style="opacity:0.35;fill:#FFFFFF;" d="M384.104,229.811c-6.158-10.675-9.967-22.703-9.967-33.561
				c0-21.731,15.257-30.54,34.077-19.674c18.82,10.866,34.077,37.291,34.077,59.022c0,21.731-15.257,30.54-34.077,19.674
				c-4.721-2.726-9.217-6.431-13.306-10.796l-13.907,2.541c-1.771,0.324-3.206-1.43-2.537-3.102L384.104,229.811z"/>
		</g>
		<g>
			<path style="fill:#FAFAFA;" d="M402.595,227.829c-0.304-0.176-0.549-0.441-0.737-0.797c-0.188-0.356-0.308-0.619-0.361-0.788
				l-6.142-17.667v13.956c0,0.304-0.071,0.524-0.215,0.661c-0.143,0.139-0.313,0.15-0.51,0.037l-3.513-2.028
				c-0.196-0.114-0.366-0.321-0.51-0.625c-0.143-0.302-0.214-0.604-0.214-0.908v-26.674c0-0.303,0.071-0.523,0.214-0.662
				c0.144-0.137,0.314-0.149,0.51-0.036l2.79,1.611c0.303,0.175,0.55,0.441,0.738,0.798c0.188,0.356,0.308,0.618,0.361,0.787
				l6.143,17.668v-13.957c0-0.302,0.07-0.524,0.215-0.661c0.142-0.138,0.312-0.15,0.51-0.036l3.513,2.028
				c0.195,0.114,0.365,0.322,0.509,0.625c0.143,0.302,0.214,0.605,0.214,0.908v26.675c0,0.302-0.071,0.523-0.214,0.66
				c-0.144,0.138-0.314,0.15-0.509,0.037L402.595,227.829z"/>
			<path style="fill:#FAFAFA;" d="M409.247,213.542c0.053-1.51,0.272-2.837,0.657-3.977c0.384-1.14,0.929-2.01,1.636-2.607
				c0.706-0.597,1.564-0.899,2.575-0.909c1.009-0.008,2.176,0.369,3.499,1.133c1.306,0.754,2.468,1.721,3.487,2.901
				c1.018,1.18,1.881,2.476,2.588,3.888c0.706,1.414,1.252,2.912,1.636,4.496c0.385,1.584,0.604,3.163,0.657,4.735
				c0.036,1.204,0.053,2.454,0.053,3.748c0,1.294-0.018,2.495-0.053,3.603c-0.053,1.511-0.272,2.837-0.657,3.977
				c-0.384,1.14-0.93,2.016-1.636,2.626c-0.707,0.611-1.569,0.911-2.588,0.901c-1.019-0.01-2.181-0.392-3.487-1.146
				c-1.324-0.764-2.49-1.726-3.499-2.887c-1.011-1.162-1.869-2.455-2.575-3.881c-0.707-1.427-1.252-2.932-1.636-4.517
				c-0.385-1.584-0.603-3.162-0.657-4.735c-0.037-1.149-0.054-2.37-0.054-3.664C409.194,215.934,409.211,214.705,409.247,213.542z
				 M421.022,227.483c0.017-0.485,0.035-1.025,0.053-1.62c0.017-0.596,0.026-1.209,0.026-1.844c0-0.633-0.009-1.25-0.026-1.853
				c-0.019-0.603-0.037-1.142-0.053-1.62c-0.037-0.71-0.13-1.397-0.283-2.063c-0.152-0.665-0.367-1.292-0.644-1.878
				c-0.277-0.587-0.62-1.123-1.033-1.608c-0.411-0.485-0.894-0.888-1.448-1.208c-0.555-0.32-1.036-0.474-1.447-0.464
				c-0.412,0.01-0.757,0.148-1.033,0.416c-0.278,0.267-0.493,0.644-0.644,1.135c-0.152,0.491-0.246,1.069-0.283,1.736
				c-0.036,0.448-0.057,0.965-0.067,1.551c-0.008,0.587-0.013,1.197-0.013,1.829c0,0.633,0.005,1.256,0.013,1.866
				c0.009,0.611,0.031,1.174,0.067,1.691c0.072,1.417,0.38,2.737,0.926,3.961c0.544,1.223,1.371,2.155,2.48,2.795
				c1.108,0.64,1.932,0.661,2.468,0.062C420.619,229.77,420.931,228.809,421.022,227.483z"/>
		</g>
	</g>
</g>
<g id="Yes">
	<g id="Speech_Bubble_00000065050177230967476640000015732799351745590430_">
		<g id="Bubble_00000160884421011482205620000015932249316574763710_">
			<path style="fill:#BA68C8;" d="M93.119,178.461c-6.156-3.495-14.627-2.961-23.982,2.441
				c-18.82,10.866-34.077,37.291-34.077,59.022c0,10.857,3.81,18.482,9.969,22.042c2.564,1.482,9.075,5.219,11.644,6.698
				c6.163,3.549,14.668,3.034,24.067-2.392c18.82-10.866,34.077-37.291,34.077-59.022c0-10.834-3.794-18.45-9.931-22.021
				C102.314,183.733,95.725,179.941,93.119,178.461z"/>
			<path style="opacity:0.15;" d="M36.314,228.631c-0.811,3.833-1.254,7.63-1.254,11.293c0,10.857,3.81,18.482,9.969,22.042
				c2.564,1.482,9.075,5.219,11.643,6.698c6.163,3.549,14.669,3.034,24.068-2.392c3.166-1.828,6.228-4.105,9.137-6.717
				L36.314,228.631z"/>
			<path style="fill:#BA68C8;" d="M114.821,207.253c-0.024,9.383-2.753,18.921-6.767,27.422c0,0.01,0,0.019-0.01,0.029
				c-0.317,0.682-0.653,1.365-1,2.038c0,0.01,0,0.019-0.01,0.029c-4.769,9.355-11.129,17.856-19.137,24.491
				c-17.917,15.79-41.507,12.564-41.234-14.668c0.054-10.936,3.654-21.924,8.842-31.535c0-0.01,0.01-0.019,0.01-0.029
				c0.365-0.673,0.74-1.336,1.115-1.99v-0.01c3.076-5.325,6.738-10.313,10.794-14.658h0.01c0.019-0.019,0.029-0.029,0.038-0.048
				C84.227,179.022,114.406,174.181,114.821,207.253z"/>
			<path style="fill:#BA68C8;" d="M99.945,188.958l20.702-11.7c1.32-0.746,2.846,0.577,2.294,1.989l-11.618,29.738L99.945,188.958z"
				/>
			<path style="opacity:0.35;fill:#FFFFFF;" d="M120.647,177.257l-14.946,8.447c-10.343-6.527-27.195-0.091-38.228,12.619
				c-0.009,0.019-0.019,0.029-0.038,0.048h-0.01c-4.056,4.345-7.718,9.333-10.794,14.658v0.01c-0.375,0.654-0.75,1.317-1.115,1.99
				c0,0.01-0.01,0.019-0.01,0.029c-5.188,9.612-8.788,20.599-8.842,31.535c-0.273,27.232,23.317,30.458,41.234,14.668
				c8.008-6.635,14.368-15.136,19.137-24.491c0.01-0.01,0.01-0.019,0.01-0.029c0.346-0.673,0.682-1.355,1-2.038
				c0.01-0.01,0.01-0.019,0.01-0.029c4.013-8.501,6.743-18.04,6.767-27.422c-0.027-2.178-0.187-4.187-0.46-6.043l8.581-21.964
				C123.493,177.834,121.967,176.511,120.647,177.257z"/>
		</g>
		<g>
			<path style="fill:#FAFAFA;" d="M65.75,250.919c0,0.304-0.071,0.606-0.215,0.909c-0.143,0.304-0.313,0.512-0.51,0.625
				l-3.513,2.028c-0.196,0.114-0.366,0.102-0.51-0.037c-0.143-0.137-0.214-0.357-0.214-0.661v-8.795l-6.195-13.972
				c-0.072-0.151-0.108-0.31-0.108-0.475c0-0.248,0.058-0.495,0.175-0.741c0.116-0.246,0.255-0.416,0.416-0.509l3.674-2.121
				c0.358-0.206,0.625-0.223,0.805-0.052c0.177,0.174,0.285,0.318,0.321,0.435l3.38,8.206l3.405-12.124
				c0.037-0.158,0.144-0.426,0.322-0.805c0.178-0.378,0.447-0.671,0.804-0.878l3.674-2.121c0.161-0.093,0.3-0.084,0.417,0.028
				s0.174,0.292,0.174,0.54c0,0.165-0.036,0.365-0.107,0.599l-6.195,21.125V250.919z"/>
			<path style="fill:#FAFAFA;" d="M87.795,232.7c0.197-0.115,0.367-0.101,0.51,0.036c0.144,0.138,0.215,0.359,0.215,0.661v4.377
				c0,0.303-0.071,0.606-0.215,0.909c-0.143,0.303-0.313,0.512-0.51,0.624l-12.712,7.34c-0.197,0.114-0.367,0.101-0.51-0.036
				c-0.144-0.137-0.214-0.359-0.214-0.662v-26.674c0-0.302,0.07-0.605,0.214-0.908c0.143-0.302,0.313-0.511,0.51-0.625l12.498-7.216
				c0.196-0.113,0.366-0.1,0.51,0.037c0.143,0.138,0.214,0.359,0.214,0.661v4.377c0,0.303-0.071,0.606-0.214,0.909
				c-0.144,0.303-0.313,0.511-0.51,0.625l-8.261,4.768v4.46l7.671-4.428c0.197-0.115,0.367-0.102,0.51,0.036
				c0.143,0.138,0.215,0.358,0.215,0.661v4.377c0,0.303-0.072,0.605-0.215,0.909c-0.143,0.303-0.313,0.51-0.51,0.624l-7.671,4.428
				v4.624L87.795,232.7z"/>
			<path style="fill:#FAFAFA;" d="M98.576,203.764c1.144-0.66,2.195-1.011,3.151-1.055c0.957-0.042,1.784,0.134,2.481,0.529
				c0.697,0.396,1.243,0.962,1.637,1.698c0.392,0.737,0.598,1.539,0.617,2.41c0,0.248-0.058,0.495-0.175,0.742
				c-0.116,0.246-0.246,0.409-0.389,0.492l-3.513,2.027c-0.251,0.145-0.452,0.206-0.604,0.184c-0.152-0.021-0.308-0.096-0.468-0.223
				c-0.054-0.053-0.139-0.141-0.254-0.267c-0.117-0.125-0.282-0.229-0.497-0.312c-0.214-0.083-0.482-0.107-0.804-0.073
				c-0.322,0.036-0.715,0.186-1.18,0.454c-0.34,0.196-0.666,0.419-0.979,0.668c-0.314,0.251-0.59,0.52-0.831,0.811
				c-0.241,0.29-0.439,0.618-0.59,0.98c-0.152,0.363-0.228,0.752-0.228,1.165c0,0.412,0.085,0.707,0.255,0.884
				c0.17,0.177,0.456,0.268,0.858,0.268c0.402,0.003,0.934-0.078,1.596-0.239c0.661-0.162,1.484-0.376,2.468-0.64
				c0.983-0.265,1.841-0.375,2.574-0.33c0.733,0.045,1.346,0.276,1.838,0.695c0.491,0.418,0.858,1.033,1.099,1.843
				c0.241,0.81,0.362,1.863,0.362,3.157c0,1.404-0.205,2.775-0.617,4.113c-0.412,1.339-0.988,2.615-1.73,3.826
				c-0.742,1.214-1.618,2.318-2.628,3.315c-1.011,0.996-2.115,1.84-3.313,2.531c-1.215,0.702-2.324,1.094-3.326,1.177
				c-1.002,0.083-1.863-0.073-2.588-0.467c-0.725-0.393-1.293-0.982-1.703-1.764c-0.412-0.78-0.627-1.688-0.644-2.724
				c0-0.248,0.057-0.495,0.174-0.742c0.116-0.245,0.246-0.409,0.39-0.493l3.513-2.028c0.251-0.145,0.446-0.208,0.59-0.196
				c0.142,0.014,0.285,0.076,0.428,0.187c0.071,0.068,0.179,0.186,0.322,0.351c0.143,0.165,0.336,0.308,0.577,0.43
				c0.241,0.123,0.545,0.175,0.912,0.154c0.365-0.017,0.818-0.182,1.354-0.492c0.947-0.547,1.739-1.162,2.374-1.845
				c0.634-0.681,0.952-1.437,0.952-2.263c0-0.413-0.116-0.689-0.348-0.831c-0.233-0.141-0.581-0.194-1.047-0.161
				c-0.465,0.035-1.059,0.151-1.783,0.348c-0.725,0.199-1.578,0.415-2.562,0.653c-1.841,0.458-3.187,0.223-4.036-0.705
				c-0.85-0.926-1.274-2.575-1.274-4.942c0-1.183,0.175-2.412,0.523-3.688c0.349-1.276,0.854-2.516,1.516-3.724
				c0.661-1.208,1.461-2.323,2.4-3.347C96.364,205.284,97.414,204.435,98.576,203.764z"/>
		</g>
	</g>
</g>
</svg>
