<?xml version="1.0" encoding="utf-8"?>
<!-- Generator: Adobe Illustrator 27.5.0, SVG Export Plug-In . SVG Version: 6.00 Build 0)  -->
<svg version="1.1" id="Слой_1__x28_копия_x29_"
	 xmlns="http://www.w3.org/2000/svg" xmlns:xlink="http://www.w3.org/1999/xlink" x="0px" y="0px" viewBox="0 0 2000 2000"
	 style="enable-background:new 0 0 2000 2000;" xml:space="preserve">
<rect style="fill:#FFFFFF;" width="2000" height="2000"/>
<path style="fill:#D2E2F5;" d="M1582.791,699.07c0,29.042-25.479,52.57-56.94,52.57c-16.337,0-182.385,2.622-194.418,2.622
	c-33.008,0-59.764-24.739-59.764-55.192c0-30.521,26.756-55.193,59.764-55.193c2.084,0,4.168,0.135,6.252,0.269
	c14.453-27.697,45.108-46.857,80.537-46.857c38.453,0,71.259,22.453,83.83,53.982c7.193-3.092,15.328-4.84,23.799-4.84
	C1557.313,646.432,1582.791,670.029,1582.791,699.07z"/>
<polygon style="fill:#5A8DBF;" points="802.735,687.084 1410.604,686.513 1410.604,1788.041 542.878,1788.041 542.878,686.513 
	780.964,686.513 "/>
<polygon style="fill:#C0E3E9;" points="1108.327,1747.089 593.005,1747.089 593.005,727.465 1360.058,727.465 1360.058,1747.089 
	1130.404,1747.089 "/>
<rect x="593.005" y="719.533" style="fill:#1DAE8F;" width="767.473" height="72.616"/>
<path style="fill:#F7AF4D;" d="M1121.34,679.462h-84.514c-13.801,0-25.038-11.194-25.038-25.038V636.65
	c0-25.166-20.38-45.589-45.589-45.589h-0.94c-25.166,0-45.589,20.423-45.589,45.589v17.775c0,13.843-11.195,25.038-25.038,25.038
	h-84.514c-4.187,0-7.605,3.418-7.605,7.605v18.629c0,19.996,16.193,36.189,36.189,36.189h254.053
	c19.996,0,36.189-16.193,36.189-36.189v-18.629C1128.945,682.88,1125.527,679.462,1121.34,679.462z M984.657,643.059
	c-1.239,8.075-7.861,14.698-15.937,15.895c-13.63,2.008-24.995-10.212-21.491-23.97c1.666-6.366,6.75-11.579,13.074-13.331
	C974.146,617.808,986.75,629.301,984.657,643.059z"/>
<path style="fill:#2B2150;" d="M965.756,662.373c-6.974,0-13.421-3.152-17.687-8.65c-4.265-5.495-5.696-12.611-3.926-19.521
	c1.902-7.433,7.915-13.571,15.313-15.634c8.531-2.366,17.6,0.369,23.222,6.914c4.256,4.953,6.125,11.541,5.128,18.077
	c-1.448,9.509-9.1,17.141-18.607,18.558C968.036,662.289,966.885,662.373,965.756,662.373z M965.754,624.104
	c-1.517,0-3.056,0.215-4.577,0.638c-5.231,1.458-9.48,5.796-10.826,11.049c-1.275,4.978-0.261,10.083,2.781,14.001
	c3.547,4.567,9.142,6.866,15.124,5.985c6.643-0.991,12.203-6.536,13.216-13.185c0.724-4.754-0.573-9.349-3.655-12.935
	C974.785,626.128,970.388,624.104,965.754,624.104z"/>
<g>
	<path style="fill:#EDF6F7;" d="M768.094,1001.109h-113.92c-5.857,0-10.606-4.749-10.606-10.606v-113.92
		c0-5.857,4.749-10.606,10.606-10.606h113.92c5.857,0,10.606,4.748,10.606,10.606v113.92
		C778.7,996.361,773.951,1001.109,768.094,1001.109z"/>
	<path style="fill:#2B2150;" d="M768.095,1004.313H654.174c-7.615,0-13.811-6.196-13.811-13.811V876.584
		c0-7.615,6.196-13.811,13.811-13.811h113.921c7.615,0,13.809,6.196,13.809,13.811v113.918
		C781.904,998.117,775.71,1004.313,768.095,1004.313z M654.174,869.182c-4.081,0-7.402,3.321-7.402,7.402v113.918
		c0,4.081,3.321,7.402,7.402,7.402h113.921c4.081,0,7.4-3.321,7.4-7.402V876.584c0-4.081-3.319-7.402-7.4-7.402H654.174z"/>
</g>
<path style="fill:#E6325C;" d="M714.316,967.496c-3.169-0.027-6.306-1.746-7.76-4.893c0,0-24.841-53.799-24.924-53.98
	c-4.503-9.752,10.885-17.19,15.518-7.164l19.502,42.241c0,0,72.646-80.314,72.854-80.544c7.368-8.145,20.107,3.247,12.676,11.466
	c0,0-81.349,89.934-81.529,90.132C718.952,966.635,716.625,967.516,714.316,967.496z"/>
<g>
	<path style="fill:#EDF6F7;" d="M768.094,1291.717h-113.92c-5.857,0-10.606-4.749-10.606-10.606v-113.92
		c0-5.857,4.749-10.605,10.606-10.605h113.92c5.857,0,10.606,4.748,10.606,10.605v113.92
		C778.7,1286.968,773.951,1291.717,768.094,1291.717z"/>
</g>
<g>
	<path style="fill:#EDF6F7;" d="M768.094,1582.323h-113.92c-5.857,0-10.606-4.748-10.606-10.605v-113.92
		c0-5.857,4.749-10.605,10.606-10.605h113.92c5.857,0,10.606,4.748,10.606,10.605v113.92
		C778.7,1577.575,773.951,1582.323,768.094,1582.323z"/>
</g>
<path style="fill:#2B2150;" d="M768.095,1585.528H654.174c-7.615,0-13.811-6.196-13.811-13.812v-113.918
	c0-7.615,6.196-13.812,13.811-13.812h113.921c7.615,0,13.809,6.196,13.809,13.812v113.918
	C781.904,1579.332,775.71,1585.528,768.095,1585.528z M654.174,1450.396c-4.081,0-7.402,3.321-7.402,7.402v113.918
	c0,4.081,3.321,7.402,7.402,7.402h113.921c4.081,0,7.4-3.321,7.4-7.402v-113.918c0-4.081-3.319-7.402-7.4-7.402H654.174z"/>
<path style="fill:#E6325C;" d="M714.317,1550.295c-3.164-0.021-6.295-1.743-7.759-4.911c0,0-24.833-53.776-24.927-53.979
	c-4.611-9.985,10.875-17.197,15.518-7.164l19.504,42.24c0,0,72.621-80.284,72.854-80.542c7.334-8.107,20.099,3.256,12.677,11.466
	c0,0-81.486,90.083-81.529,90.131C718.947,1549.423,716.623,1550.311,714.317,1550.295z"/>
<path style="fill:#4B3584;" d="M1411.753,527.184v0.043c-0.086,2.692-0.513,5.127-1.41,7.307c-1.794,4.742-5.512,8.289-11.407,10.51
	l-7.136,2.436l-21.791,7.392l-1.666,0.598l-2.051,0.684l-0.513,7.52l2.563,5.554l1.666,3.589l16.279,35.25
	c14.1,34.353,2.948,76.951-19.74,90.581c-0.042,0.043-0.085,0.085-0.128,0.085c-0.128,0.086-0.214,0.129-0.342,0.171
	c-0.043,0.043-0.043,0.043-0.086,0.043c-0.896,0.598-1.88,1.068-2.819,1.495l-0.77,22.816h-155.781l-0.769-25.038
	c-22.176-14.142-32.985-56.185-18.971-90.153l20.723-44.777l-43.325-7.135c-16.664,0-27.858-17.091-21.192-32.387l11.621-26.661
	c0,0,0,0,0-0.043l2.222-4.999l44.82-88.957c0-0.042,0-0.085,0-0.085s6.409-11.237,19.27-13.288
	c11.537-1.837,20.467-3.247,20.467-3.247c0,6.11,16.792,25.337,44.351,24.653c11.878-0.299,20.936-3.674,27.516-7.69
	c1.452-0.855,2.777-1.752,3.974-2.692c4.657-3.461,7.606-6.965,9.058-8.973c1.795-2.564,2.392-5.298,2.392-5.298l15.981,3.247
	c11.835,2.051,16.962,6.965,22.474,14.912c0,0,1.581,3.248,4.231,9.187c0.256,0.598,0.513,1.196,0.812,1.837
	c0.257,0.598,0.556,1.239,0.854,1.88c9.187,20.38,26.747,61.355,36.831,97.374C1411.197,519.408,1411.839,523.51,1411.753,527.184z"
	/>
<path style="fill:#1DAE8F;" d="M1288.059,858.786l-2.307,54.263c-0.94,13.416-12.391,23.542-21.705,20.851l-21.62-6.324
	c-8.417-2.478-12.86-14.313-9.741-26.02l17.219-65.115l0.342,1.624l0.043,16.663c0,10.51,6.28,19.099,14.911,20.423l0.342,0.043
	C1274.729,876.604,1285.154,869.383,1288.059,858.786z"/>
<path style="fill:#1DAE8F;" d="M1331.769,925.525l-21.919,7.306c-9.399,3.119-20.466-6.495-20.894-19.825l-0.128-60.159l0.385-8.716
	l0.256,10.255c1.838,11.963,13.246,20.551,23.115,19.013l0.342-0.043c8.631-1.324,14.912-9.913,14.912-20.423v-14.698l0.385-2.221
	l14.355,63.022C1345.185,910.571,1340.271,922.663,1331.769,925.525z"/>
<path style="fill:#F5AE9E;" d="M1348.176,723.257l-20.338,114.977v14.698c0,10.511-6.281,19.099-14.912,20.423l-0.342,0.043
	c-9.869,1.538-21.277-7.05-23.115-19.013l-0.256-10.255l-0.556,12.049c-1.837,11.963-13.202,20.552-23.115,19.014l-0.342-0.043
	c-8.631-1.324-14.911-9.913-14.911-20.423l-0.043-16.663l-24.312-114.807H1348.176z"/>
<path style="fill:#4B3584;" d="M1598.683,1789.63c0,0-9.571,0.641-18.8,1.025l-103.271,5.598
	c-14.058,0.599-23.414,1.281-23.414,1.281s-0.556-3.375-0.642-8.032l-50.075,0.086c-14.057-0.129-23.457,0.042-23.457,0.042
	s-4.571-39.009,22.688-34.907c17.817,2.691,54.69-16.193,54.69-16.193c0.043,0,0.299,0,0.641,0.085
	c2.521,0.342,12.263,2.563,27.815,15.296c6.109,4.957,40.035,1.496,42.94-11.45c0.043,0,0.428,0,1.153,0.085
	c3.119,0.428,12.733,2.606,28.071,13.801c6.366,4.657,27.729-1.752,29.994-14.783l-0.171-1.196c1.752,0.727,3.419,2.222,5.085,4.871
	C1602.784,1762.712,1598.683,1789.63,1598.683,1789.63z"/>
<path style="fill:#F5AE9E;" d="M1527.799,1742.46c-3.867,8.239-36.831,16.407-42.94,11.45
	c-17.774-14.526-27.943-15.381-28.456-15.381l2.308-7.521l46.956-0.812l0.642,7.947l18.97-1.581L1527.799,1742.46z"/>
<path style="fill:#2BB19E;" d="M1577.661,1344.931c-5.854,18.885-8.973,27.217-11.194,32.387l0.256,50.418l-93.4-120.276
	c2.35-1.751,4.828-3.674,7.264-5.64c12.903,1.11,34.053,0.897,61.185-6.28c8.802-2.308,32.045-17.348,32.045-17.348l0.128-0.812
	c4.315,9.656,6.836,22.688,8.075,30.464C1583.813,1319.338,1580.651,1335.231,1577.661,1344.931z"/>
<polygon style="fill:#2BB19E;" points="1587.701,1731.309 1506.308,1738.145 1505.666,1730.197 1454.224,1731.095 
	1451.403,1553.181 1450.592,1487.766 1579.498,1653.759 "/>
<path style="fill:#F5AE9E;" d="M1282.334,1271.099c-0.854,0.513-1.367,0.812-1.367,0.812c-12.135,9.4-34.011,0.855-41.274-10.938
	c-2.691-4.785,6.452-15.382,15.98-24.227L1282.334,1271.099z"/>
<path style="fill:#F5AE9E;" d="M1587.018,1741.563c-2.265,13.031-23.628,19.44-29.994,14.783
	c-18.885-13.801-29.054-13.886-29.225-13.886l1.538-6.238l56.271-4.743L1587.018,1741.563z"/>
<path style="fill:#F7AF4D;" d="M1606.886,1191.456c0.47,8.161-7.776,18.929-7.776,18.929l-16.364,14.569l-8.93,53.237
	c0,0-23.243,15.04-32.045,17.348c-27.132,7.178-48.281,7.391-61.185,6.28c8.118-6.58,15.681-13.801,16.236-18.244l-25.423-32.814
	c-4.358-1.324-11.194-0.47-15.168,0.897c-1.837,0.641-8.331,2.563-14.484,3.247c-1.837,0.214-3.632,0.3-5.256,0.171
	c0.385-16.449,1.923-30.122,1.923-30.122l-23.841,5.256l-38.454-48.623l29.652-8.888c0,0,30.977-124.762,48.409-136.683
	c7.52-5.17,17.176-7.136,26.021-5.811c-0.171,2.606-0.385,4.828-0.598,6.408c-0.214,1.539,0.812,2.906,2.307,3.205
	c3.29,0.641,5.299,0.47,14.869-0.428c7.861-0.726,33.583-10.596,39.863-16.278c0.897,0.641,1.923,1.41,3.077,2.265
	c0.47-1.41,0.726-2.18,0.726-2.18l23.757,16.236c10.126,5.469,12.22,11.151,12.562,18.159
	C1578.387,1089.126,1606.373,1181.886,1606.886,1191.456z"/>
<path style="fill:#F8C180;" d="M1283.786,1069.002c-6.579-2.308-14.228-1.325-20.167,3.29l-0.342,0.299
	c-8.032,6.238-10.382,17.048-6.238,25.893l-0.427,0.342c-7.563-6.195-18.629-6.58-26.661-0.342l-0.342,0.256
	c-8.076,6.238-10.426,17.091-6.281,25.936l-0.385,0.299c-7.563-6.195-18.629-6.58-26.704-0.342l-0.342,0.257
	c-5.981,4.656-8.802,11.835-8.118,18.842l-26.832-105.321l27.559-21.448L1283.786,1069.002z"/>
<polygon style="fill:#E6325C;" points="1159.901,1039.205 1134.677,976.123 1189.543,1016.19 "/>
<path style="fill:#E73680;" d="M1265.412,1179.739l-39.583-50.978c-7.249-9.335-5.558-22.779,3.778-30.028l0.342-0.265
	c9.335-7.249,22.779-5.558,30.027,3.778l422.26,543.812l-34.148,26.516l-370.341-477.892L1265.412,1179.739z"/>
<path style="fill:#CC156B;" d="M1277.741,1194.675l370.804,477.544l-34.148,26.516l-422.259-543.812
	c-7.249-9.335-5.558-22.779,3.778-30.028l0.341-0.266c9.336-7.248,22.78-5.557,30.029,3.778l39.582,50.978L1277.741,1194.675z"/>
<path style="fill:#CC156B;" d="M1715.928,1619.897l-34.148,26.516l-422.259-543.812c-7.249-9.336-5.558-22.779,3.778-30.028
	l0.342-0.266c9.335-7.249,22.779-5.557,30.028,3.778L1715.928,1619.897z"/>
<path style="fill:#F7AF4D;" d="M597.083,1799.329H431.56c0,0-1.026-4.871-1.496-12.007l-82.121,1.111c0,0-6.708-30.208,4.273-50.845
	c1.667-3.162,3.461-4.999,5.384-5.938l-0.086,1.367c3.546,14.612,28.242,20.252,35.079,14.484
	c17.646-14.784,28.626-17.433,31.404-17.86c0.385-0.085,0.599-0.085,0.684-0.085c0,0,7.52,3.717,17.774,7.733l-0.598,6.751
	c3.375,14.697,27.986,20.594,34.908,14.954c17.817-14.484,28.84-17.091,31.618-17.476c0.385-0.085,0.641-0.085,0.684-0.085
	c0,0,41.915,21.363,62.167,18.287C602.21,1754.979,597.083,1799.329,597.083,1799.329z"/>
<path style="fill:#F5AE9E;" d="M424.681,1729.557c-0.47,0-11.92,1.025-32.087,17.945c-6.836,5.768-31.532,0.128-35.079-14.484
	l0.812-11.194l65.158,4.059L424.681,1729.557z"/>
<path style="fill:#E73680;" d="M562.175,1523.956l-31.404,209.36l-91.776,1.837l23.286-213.377l-9.955-38.924l-7.093,41.104
	l-19.825,202.054l-76.011-4.742l10.126-199.491l5.64-203.037c0,0,30.336,45.119,160.438,14.356L562.175,1523.956z"/>
<path style="fill:#F5AE9E;" d="M738.594,1124.076c-0.213,0.086-25.038,12.775-42.727,18.886l-31.019-29.695
	c1.837-4.785,5.469-11.365,8.075-13.758c2.35-2.18,13.16-12.732,14.399-19.355c0.684-3.589,2.307-4.614,7.733-3.247
	c1.795,0.427,4.615,6.622,4.316,8.973c-0.47,3.247-3.333,10.895-3.333,10.895c8.246-4.357,51.144-19.397,56.399-12.091
	C759.573,1095.706,754.915,1117.753,738.594,1124.076z"/>
<path style="fill:#F5AE9E;" d="M562.859,973.55c0.47,1.41-6.409,6.11-11.92,7.007c-2.137,27.815-15.168,50.076-48.282,49.863
	c-1.837,0-3.717-0.086-5.64-0.3c0.128,3.889,0.256,7.904,0.47,11.579c-19.441-1.752-41.958-3.718-60.373-2.35
	c1.837-2.906,7.733-20.082,10.468-27.089c2.948,1.324,15.766,3.845,19.056,1.025c5.084-4.401,11.537-11.066,12.306-19.014
	c0.342-3.375-0.727-6.751-2.649-9.571c-6.965-10.382-11.365-21.32-2.094-24.995c4.529-1.367,12.092-0.341,15.979,4.615
	c3.504,4.486,10.853-8.588,9.058-17.134c-2.734-12.775-2.734-12.775-9.998-23.158l22.346,5.726
	c10.725,1.282,23.329,4.145,33.882-0.385c1.324,4.828,2.436,10.083,3.418,15.724c0.513,3.076,1.496,4.102,1.496,4.102
	L562.859,973.55z"/>
<path style="fill:#EE7E94;" d="M506.917,979.186c0,7.528,6.103,13.63,13.631,13.63c7.528,0,13.631-6.102,13.631-13.63
	c0-7.529-6.103-13.632-13.631-13.632C513.02,965.554,506.917,971.657,506.917,979.186z"/>
<path style="fill:#1DAE8F;" d="M511.579,929.742c12.342,1.482,27.187,5.072,38.489-2.913c2.245-1.586,5.055-4.756,7.977-8.641
	c10.515-13.981,2.901-34.211-14.103-38.318c0,0-25.373-13.352-31.838-14.241c-36.122-4.973-69.522,8.157-72.713,22.654
	c-15.249,3.849-36.595,20.501-37.075,55.628c-0.704,51.522,33.696,63.797,45.266,68.35c4.015,1.58,15.773,3.846,19.04,1.029
	c5.107-4.402,11.552-11.063,12.321-19.007c0.327-3.384-0.732-6.781-2.631-9.6c-6.986-10.375-11.394-21.292-2.126-24.991
	c4.529-1.341,12.109-0.335,15.99,4.618c3.52,4.492,10.873-8.597,9.057-17.125c-2.717-12.755-2.717-12.755-9.994-23.167
	L511.579,929.742z"/>
<path style="fill:#2B2150;" d="M529.479,947.331c-0.701,0-1.39-0.344-1.798-0.978c-0.638-0.993-0.353-2.314,0.638-2.954
	c0.647-0.418,6.468-4.054,11.074-2.902c1.145,0.282,1.846,1.44,1.563,2.585c-0.284,1.146-1.442,1.857-2.585,1.563
	c-2.426-0.601-6.497,1.548-7.736,2.347C530.275,947.221,529.875,947.331,529.479,947.331z"/>
<path style="fill:#313B84;" d="M664.677,1113.096l-73.191,55.887L524.405,1050.8c-4.999-4.657-11.066-7.733-18.586-8.374
	c-24.354-2.094-55.801-5.512-78.019-2.051l-12.903,2.051c-10.511,3.119-19.099,9.998-26.875,20.295c0,0-0.043,0.043-0.086,0.043
	c-1.538,2.008-8.759,13.544-8.759,13.544h-0.042l-69.73,115.704c-3.119,6.152-2.307,13.545,2.094,18.843l62.894,77.335l-9.229,30.55
	c0,0,30.336,45.119,160.438,14.356c0.684,0,0.727-94.555,10.639-147.407c0,0,0.043-0.428,0,0l36.275,43.752
	c10.896,9.016,27.687,8.075,37.386-3.461l87.975-81.096L664.677,1113.096z M367.897,1200.856l19.569-35.763l1.496,63.706
	L367.897,1200.856z"/>
<path style="fill:#2B2150;" d="M489.168,979.268c-0.599,0-1.193-0.251-1.617-0.741c-3.282-3.799-5.833-6.186-6.567-6.505
	c-1.177-0.061-1.911-1.033-1.851-2.212c0.063-1.179,1.246-2.044,2.418-1.99c0.876,0.046,2.51,0.129,9.234,7.915
	c0.772,0.893,0.672,2.241-0.221,3.013C490.161,979.097,489.664,979.268,489.168,979.268z"/>
<path style="fill:#2B2150;" d="M536.749,960.381c-1.769,0-3.205-1.435-3.205-3.205v-4.955c0-1.769,1.436-3.205,3.205-3.205
	c1.769,0,3.205,1.435,3.205,3.205v4.955C539.954,958.946,538.518,960.381,536.749,960.381z"/>
<path style="fill:#2B2150;" d="M1212.371,911.521H834.899c-1.77,0-3.205-1.435-3.205-3.204c0-1.77,1.435-3.205,3.205-3.205h377.472
	c1.77,0,3.205,1.435,3.205,3.205C1215.576,910.085,1214.141,911.521,1212.371,911.521z"/>
<path style="fill:#2B2150;" d="M1212.371,944.104H834.899c-1.77,0-3.205-1.435-3.205-3.205c0-1.769,1.435-3.205,3.205-3.205h377.472
	c1.77,0,3.205,1.436,3.205,3.205C1215.576,942.669,1214.141,944.104,1212.371,944.104z"/>
<path style="fill:#2B2150;" d="M1212.371,1302.56H834.899c-1.77,0-3.205-1.436-3.205-3.204c0-1.77,1.435-3.205,3.205-3.205h377.472
	c1.77,0,3.205,1.436,3.205,3.205C1215.576,1301.124,1214.141,1302.56,1212.371,1302.56z"/>
<path style="fill:#2B2150;" d="M1212.371,1335.143H834.899c-1.77,0-3.205-1.435-3.205-3.204s1.435-3.204,3.205-3.204h377.472
	c1.77,0,3.205,1.435,3.205,3.204S1214.141,1335.143,1212.371,1335.143z"/>
<path style="fill:#2B2150;" d="M1212.371,1470.773H834.899c-1.77,0-3.205-1.436-3.205-3.205c0-1.769,1.435-3.204,3.205-3.204
	h377.472c1.77,0,3.205,1.436,3.205,3.204C1215.576,1469.338,1214.141,1470.773,1212.371,1470.773z"/>
<path style="fill:#2B2150;" d="M1212.371,1503.356H834.899c-1.77,0-3.205-1.436-3.205-3.205c0-1.769,1.435-3.204,3.205-3.204
	h377.472c1.77,0,3.205,1.436,3.205,3.204C1215.576,1501.921,1214.141,1503.356,1212.371,1503.356z"/>
<path style="fill:#2B2150;" d="M1212.371,1542.169H834.899c-1.77,0-3.205-1.435-3.205-3.204s1.435-3.205,3.205-3.205h377.472
	c1.77,0,3.205,1.436,3.205,3.205S1214.141,1542.169,1212.371,1542.169z"/>
<path style="fill:#2B2150;" d="M1153.941,1177.384H834.899c-1.77,0-3.205-1.436-3.205-3.204c0-1.77,1.435-3.205,3.205-3.205h319.042
	c1.769,0,3.204,1.436,3.204,3.205C1157.146,1175.948,1155.71,1177.384,1153.941,1177.384z"/>
<path style="fill:#B5C7E8;" d="M807.092,510.247c0,29.041-25.478,52.57-56.94,52.57c-16.336,0-31.059-6.318-41.412-16.47
	c-16.336,16.672-40,27.159-66.217,27.159c-20.437,0-39.193-6.319-54.252-17.008c-9.344,5.646-20.504,8.94-32.538,8.94
	c-33.008,0-59.764-24.739-59.764-55.192c0-30.521,26.756-55.193,59.764-55.193c2.084,0,4.168,0.135,6.252,0.269
	c14.454-27.697,45.109-46.856,80.538-46.856c38.453,0,71.259,22.453,83.831,53.982c7.193-3.092,15.328-4.84,23.798-4.84
	C781.614,457.609,807.092,481.206,807.092,510.247z"/>
<path style="fill:#9AAEDA;" d="M1015.415,438.76c0,24.731-21.697,44.768-48.49,44.768c-13.912,0-26.449-5.381-35.265-14.026
	c-13.912,14.198-34.064,23.128-56.39,23.128c-17.404,0-33.376-5.381-46.2-14.484c-7.958,4.809-17.461,7.614-27.708,7.614
	c-28.109,0-50.894-21.067-50.894-47.001c0-25.991,22.785-47.001,50.894-47.001c1.775,0,3.549,0.114,5.324,0.229
	c12.309-23.586,38.414-39.902,68.584-39.902c32.746,0,60.684,19.121,71.389,45.97c6.125-2.633,13.053-4.122,20.266-4.122
	C993.718,393.934,1015.415,414.028,1015.415,438.76z"/>
<path style="fill:#2B2150;" d="M430.283,979.502c-0.734,0-1.448-0.378-1.844-1.056c-2.443-4.166-4.364-8.681-5.71-13.414
	c-0.323-1.135,0.336-2.316,1.471-2.639c1.135-0.321,2.316,0.336,2.639,1.471c1.247,4.387,3.025,8.566,5.285,12.421
	c0.597,1.018,0.256,2.326-0.762,2.923C431.022,979.408,430.65,979.502,430.283,979.502z"/>
<path style="fill:#2B2150;" d="M422.718,954.594c-1.118,0-2.057-0.868-2.13-2.001c-0.348-5.445,0.054-10.854,1.2-16.077
	c3.1-14.151,11.693-27.019,23.573-35.306c0.968-0.674,2.297-0.438,2.975,0.53c0.674,0.968,0.438,2.299-0.53,2.975
	c-11.009,7.677-18.97,19.603-21.845,32.715c-1.058,4.833-1.431,9.843-1.107,14.892c0.075,1.177-0.818,2.192-1.997,2.268
	C422.81,954.592,422.764,954.594,422.718,954.594z"/>
<path style="fill:#FAC88F;" d="M1468.923,1030.393c2.596-1.667,5.487-3.034,8.861-4.272c-0.667,1.495-1.038,2.905-1.224,4.272
	H1468.923z"/>
<path style="fill:#FAC88F;" d="M1543.669,1030.393h-12.092c2.308-1.111,3.077-3.76,5.555-4.272h0.47
	C1538.969,1026.248,1541.319,1028.171,1543.669,1030.393z"/>
<path style="fill:#FAC88F;" d="M1561.187,1045.304h-109.808c1.068-1.538,2.18-2.948,3.333-4.272h26.49
	c0.599,0.47,1.41,0.641,2.18,0.77c6.152,0.982,12.519,0.555,18.928-0.77h53.408
	C1557.684,1042.526,1559.479,1043.937,1561.187,1045.304z"/>
<path style="fill:#FAC88F;" d="M1575.158,1060.258h-132.11c0.598-1.452,1.239-2.862,1.965-4.272h127.497
	C1573.663,1057.438,1574.561,1058.891,1575.158,1060.258z"/>
<path style="fill:#FAC88F;" d="M1577.637,1075.213h-139.802c0.47-1.41,0.94-2.82,1.41-4.272h137.537
	C1576.996,1072.222,1577.295,1073.675,1577.637,1075.213z"/>
<path style="fill:#FAC88F;" d="M1581.183,1090.167h-148.304c0.47-1.41,0.982-2.82,1.452-4.272h145.784
	C1580.457,1087.304,1580.799,1088.714,1581.183,1090.167z"/>
<path style="fill:#FAC88F;" d="M1585.114,1105.121h-157.15c0.428-1.41,0.898-2.82,1.41-4.272h154.585
	C1584.345,1102.344,1584.729,1103.754,1585.114,1105.121z"/>
<path style="fill:#FAC88F;" d="M1589.088,1120.076h-166.036c0.47-1.41,0.939-2.82,1.41-4.273h163.515
	C1588.318,1117.085,1588.703,1118.537,1589.088,1120.076z"/>
<path style="fill:#FAC88F;" d="M1592.814,1134.987h-173.541c0.466-1.453,0.89-2.862,1.354-4.272h171.091
	C1592.101,1132.125,1592.476,1133.577,1592.814,1134.987z"/>
<path style="fill:#FAC88F;" d="M1596.735,1149.941h-181.868c0.425-1.453,0.85-2.862,1.274-4.272h179.575
	C1596.099,1147.25,1596.438,1148.702,1596.735,1149.941z"/>
<path style="fill:#FAC88F;" d="M1600.1,1164.9h-188.596c0.128-1.496,0.256-2.948,0.384-4.273h187.442
	C1599.501,1162.08,1599.801,1163.49,1600.1,1164.9z"/>
<path style="fill:#FAC88F;" d="M1603.601,1179.851h-211.673c4.646-1.496,9.42-3.119,12.745-4.273h198.258
	C1603.229,1176.987,1603.43,1178.397,1603.601,1179.851z"/>
<path style="fill:#FAC88F;" d="M1602.931,1190.532c0,1.452-0.042,2.862-0.169,4.272h-212.378c-1.059-1.41-2.118-2.862-3.22-4.272
	H1602.931z"/>
<path style="fill:#FAC88F;" d="M1600.324,1205.486c-0.042,0.128-0.127,0.299-0.169,0.47c0,0-1.858,1.41-4.815,3.803h-193.173
	c-1.056-1.41-2.112-2.862-3.21-4.272H1600.324z"/>
<path style="fill:#FAC88F;" d="M1582.55,1220.397c-1.72,1.538-2.937,2.948-3.817,4.273h-164.441
	c-1.049-1.41-2.141-2.863-3.189-4.273H1582.55z"/>
<path style="fill:#FAC88F;" d="M1573.92,1250.307c-0.172,1.367-0.342,2.777-0.471,4.272h-96.007
	c-0.256-0.385-0.513-0.769-0.727-1.153c-0.684-1.111-1.409-2.179-2.35-3.119H1573.92z"/>
<path style="fill:#FAC88F;" d="M1574.363,1235.353c-0.252,1.11-0.547,2.563-0.883,4.272h-134.324
	c-0.084-1.41-0.126-2.862-0.168-4.272H1574.363z"/>
<path style="fill:#FAC88F;" d="M1572.723,1265.261c0,0.982-0.085,2.606-0.256,4.272h-83.616c-1.153-1.367-2.35-2.819-3.504-4.272
	H1572.723z"/>
<path style="fill:#FAC88F;" d="M1566.143,1280.215c-2.084,1.496-4.252,2.948-6.461,4.273h-60.649
	c-0.25-1.41-0.709-2.863-1.209-4.273H1566.143z"/>
<path style="fill:#FAC88F;" d="M1536.434,1295.17c-4.419,1.709-8.919,3.119-13.5,4.272h-33.527c0.973-0.513,1.702-0.94,1.865-1.111
	c0.973-1.239,1.418-2.265,1.823-3.161H1536.434z"/>
<path style="fill:#F5AE9E;" d="M1496.822,1283.575c-1.325,9.913-36.959,33.412-37.13,33.54
	c-11.109,10.597-33.754,4.273-42.171-6.751c-3.718-5.298,8.288-20.466,18.287-30.934c2.393-2.521,4.699-4.785,6.622-6.537
	c1.666-1.581,3.076-2.777,4.06-3.461c0,0-1.838-0.257-4.145-0.641c-2.18-0.385-4.743-0.854-6.495-1.367
	c-0.342-0.086-0.598-0.171-0.854-0.257c-2.35-0.854-7.435-6.024-7.306-7.69c0.384-5.085,1.837-5.982,5.512-4.871
	c0.684,0.171,1.367,0.342,2.136,0.428c1.923,0.213,4.145,0.128,6.409-0.129c6.153-0.684,12.647-2.606,14.484-3.247
	c3.974-1.367,10.81-2.222,15.168-0.897L1496.822,1283.575z"/>
<path style="fill:#2B2150;" d="M1376.888,1178.04l-1.409,0.427c0.812,2.094,2.093,3.932,3.546,5.641l2.094-0.641L1376.888,1178.04z"
	/>
<path style="fill:#2B2150;" d="M1486.189,1052.043c-6.226,0-12.563-1.515-16-6.714c-0.65-0.984-0.379-2.31,0.604-2.96
	c0.98-0.651,2.307-0.386,2.96,0.603c5.197,7.855,22.142,4.16,28.231,2.067c1.104-0.379,2.33,0.213,2.712,1.329
	c0.384,1.114-0.208,2.331-1.324,2.712C1502.785,1049.283,1494.589,1052.043,1486.189,1052.043z"/>
<path style="fill:#313B84;" d="M1574.029,928.303c-1.453,16.492-2.051,26.619-14.101,38.368
	c-10.81,10.511-20.295,10.511-20.765,10.511c-0.043,0-0.043,0-0.043,0c-6.494-4.614-2.393-16.278-2.393-16.278
	c5.981-6.836,14.527-19.868,2.521-23.799c-5.042-1.239-9.614,1.111-13.93,5.683c-3.931,4.144-11.151-2.735-8.93-10.554
	c2.393-8.331,3.333-16.493,7.904-23.67c2.521-1.239,4.871-2.692,7.05-4.273l-7.05,4.273c-11.579,5.81-26.021,8.246-38.24,9.485
	c-8.075,0.812-17.134,2.265-25.765,1.838c-0.513,0-1.026-0.043-1.538-0.086c-0.939-0.042-1.837-0.17-2.734-0.256
	c-4.571-0.599-8.93-1.88-12.903-4.188c-1.795-1.068-3.503-2.265-5.127-3.632c-2.009,6.281-3.718,13.373-5.085,21.278
	c-0.555,3.29-0.939,6.537-1.11,9.785c-1.581-0.812-3.034-1.966-4.272-3.333c-4.315-4.828-6.153-11.835-6.452-18.629
	c-0.385-8.887,1.538-17.902,5.726-25.764c-0.897-2.82-1.324-5.768-1.282-8.759c0.043-2.265,0.342-4.572,1.325-6.622
	c3.888-8.46,11.707-17.219,24.141-17.347c4.187-0.043,9.313,3.205,9.313,3.205s9.4-3.888,25.166-6.793
	c9.486-1.752,20.296-0.983,29.823,0.769c14.271,2.606,28.841,13.074,32.388,26.49
	C1564.672,889.549,1575.524,911.81,1574.029,928.303z"/>
<path style="fill:#F5AE9E;" d="M1524.979,994.187c0.171,0.256,0.299,0.513,0.471,0.769c1.281,1.923,9.998,28.071,11.279,28.071
	c-6.152,5.683-32.045,15.639-39.949,16.364c-9.57,0.897-11.579,1.068-14.869,0.428c-1.495-0.299-2.521-1.666-2.307-3.205
	c0.641-4.656,1.11-14.996,1.367-24.14c-1.795-0.043-3.547-0.257-5.299-0.556c-30.207-5.298-49.349-40.548-42.77-78.917
	c1.367-7.904,3.076-14.997,5.085-21.278c1.624,1.367,3.332,2.564,5.127,3.632c12.604,7.349,29.183,4.059,42.94,2.692
	c12.22-1.239,26.661-3.674,38.24-9.485c-4.571,7.178-5.512,15.339-7.904,23.67c-2.222,7.819,4.999,14.698,8.93,10.554
	c4.315-4.572,8.888-6.922,13.93-5.683c12.006,3.931,3.46,16.962-2.521,23.799c0,0-4.102,11.664,2.393,16.278c0,0,0,0,0.043,0
	C1535.147,983.548,1530.319,989.273,1524.979,994.187z"/>
<path style="fill:#EE7E94;" d="M1451.015,963.407c0,6.954-5.656,12.61-12.609,12.61c-0.685,0-1.333-0.036-1.981-0.18
	c-2.631-7.098-4.252-14.916-4.648-23.13c1.91-1.225,4.18-1.91,6.63-1.91C1445.358,950.797,1451.015,956.417,1451.015,963.407z"/>
<path style="fill:#2B2150;" d="M1466.433,969.68c-3.275,0-6.677-1.196-8.91-2.174c-2.779-1.212-4.29-4.248-3.587-7.216l6.2-26.114
	c0.407-1.721,2.111-2.802,3.858-2.376c1.722,0.407,2.785,2.134,2.377,3.857l-6.198,26.112c3.815,1.566,7.076,1.831,7.988,1.118
	c1.387-1.104,3.402-0.866,4.5,0.523c1.1,1.387,0.865,3.403-0.523,4.5C1470.501,969.206,1468.491,969.68,1466.433,969.68z"/>
<path style="fill:#2B2150;" d="M1472.824,989.539c-1.614,0-3.287-0.21-4.987-0.641c-5.043-1.277-10.817-4.833-11.583-9.632
	c-0.277-1.749,0.911-3.391,2.659-3.67c1.766-0.282,3.391,0.914,3.67,2.66c0.152,0.956,2.7,3.384,6.824,4.429
	c2.192,0.551,7.648,1.354,11.109-3.165c1.077-1.408,3.086-1.675,4.492-0.595c1.403,1.074,1.671,3.085,0.595,4.492
	C1482.553,987.4,1477.977,989.539,1472.824,989.539z"/>
<path style="fill:#2B2150;" d="M1449.415,945.984c-1.77,0-3.205-1.436-3.205-3.205v-4.583c0-1.77,1.436-3.205,3.205-3.205
	c1.769,0,3.204,1.435,3.204,3.205v4.583C1452.619,944.548,1451.184,945.984,1449.415,945.984z"/>
<path style="fill:#2B2150;" d="M1487.574,947.857c-1.769,0-3.204-1.435-3.204-3.205v-4.583c0-1.769,1.436-3.205,3.204-3.205
	c1.77,0,3.205,1.435,3.205,3.205v4.583C1490.779,946.422,1489.344,947.857,1487.574,947.857z"/>
<path style="fill:#EE7E94;" d="M1507.938,966.662c0,6.964-5.646,12.609-12.609,12.609c-6.965,0-12.61-5.646-12.61-12.609
	c0-6.964,5.646-12.61,12.61-12.61C1502.293,954.051,1507.938,959.697,1507.938,966.662z"/>
<path style="fill:#2B2150;" d="M1528.088,956.21c-0.198,0-0.4-0.027-0.602-0.085c-1.132-0.334-1.781-1.521-1.449-2.651
	c1.258-4.288,6.916-7.273,7.557-7.601c1.058-0.523,2.336-0.113,2.87,0.933c0.536,1.049,0.121,2.336-0.929,2.875
	c-1.789,0.918-4.838,3.085-5.396,4.995C1529.865,955.607,1529.012,956.21,1528.088,956.21z"/>
<path style="fill:#2B2150;" d="M1473.929,910.701c-7.375,0-14.564-1.406-20.884-4.095c-2.616-1.112-14.282-8.46-16.513-14.441
	c-0.413-1.106,0.147-2.337,1.254-2.748c1.107-0.413,2.336,0.148,2.747,1.254c1.52,4.072,11.48,10.855,14.185,12.004
	c6.205,2.639,13.346,3.96,20.652,3.732c1.798-0.048,3.588-0.177,5.37-0.376c1.147-0.115,2.229,0.715,2.359,1.888
	c0.129,1.172-0.716,2.228-1.888,2.359c-1.898,0.211-3.81,0.349-5.728,0.4C1474.965,910.692,1474.445,910.701,1473.929,910.701z"/>
<path style="fill:#2B2150;" d="M1495.41,935.156c-0.473,0-0.953-0.107-1.408-0.328c-1.86-0.912-7.425-3.209-10.882-3.086
	c-1.779,0.1-3.267-1.285-3.348-3.052c-0.084-1.767,1.282-3.267,3.052-3.348c5.721-0.33,13.171,3.321,14.005,3.734
	c1.588,0.78,2.241,2.7,1.461,4.287C1497.732,934.497,1496.596,935.156,1495.41,935.156z"/>
<path style="fill:#2B2150;" d="M1444.128,934.257c-1.287,0-2.503-0.78-2.993-2.053c-0.635-1.65,0.186-3.503,1.833-4.142
	c1.193-0.461,7.377-2.697,11.698-1.45c1.7,0.49,2.683,2.266,2.192,3.966c-0.492,1.7-2.266,2.679-3.966,2.193
	c-1.665-0.474-5.537,0.478-7.617,1.271C1444.898,934.188,1444.51,934.257,1444.128,934.257z"/>
<g>
	<g>
		<path style="fill:#E73680;" d="M1182.396,479.331v4.272h-16.963c0.684-1.453,1.367-2.863,2.051-4.272H1182.396z"/>
		<rect x="1128.793" y="715.069" style="fill:#E73680;" width="1.239" height="4.273"/>
		<polygon style="fill:#E73680;" points="1343.817,588.284 1343.817,610.288 1339.545,610.288 1339.545,588.241 		"/>
		<path style="fill:#E73680;" d="M1396.243,531.713l0.086-21.919h9.313c-0.427-1.453-0.896-2.905-1.367-4.272h-7.904l0.086-21.919
			c0,0-3.675-10.596-4.529-12.989v8.716h-21.919v-21.919h16.749c-0.598-1.453-1.239-2.863-1.795-4.273h-14.954V431.22h5.341
			c-0.641-1.41-1.239-2.82-1.88-4.272h-3.461v-8.033c-0.556-1.325-1.11-2.692-1.709-4.102c-0.684-1.666-1.538-3.46-2.563-5.212
			v17.347h-21.919v-21.919h19.099c-1.067-1.538-2.222-2.991-3.375-4.273h-15.724v-8.076c-1.324-0.213-2.734-0.384-4.272-0.598v8.674
			h-26.191v26.192h-21.919v-13.246c-1.41,0.171-2.862,0.256-4.272,0.342v12.904h-21.919v-15.852
			c-1.453-0.513-2.862-1.025-4.272-1.667v17.518h-21.791l0.043-21.919h13.587c-1.88-1.282-3.675-2.692-5.341-4.273h-8.246v-11.408
			c0,0-1.709,0.427-4.272,1.153v10.255h-22.09v-4.144c-1.41,0.555-2.563,1.111-3.333,1.624c-0.342,0.213-0.641,0.427-0.939,0.684
			v1.837h-1.838c-1.067,1.282-1.923,2.734-2.691,4.273h4.529v21.919h-15.681c-0.727,1.453-1.453,2.863-2.137,4.272h17.817v21.918
			h-21.919v-13.587c-1.453,2.905-2.862,5.811-4.272,8.716v4.871h-2.351c-0.684,1.41-1.367,2.863-2.094,4.273h4.444v48.11h-21.919
			v-11.665c-1.41,2.863-2.82,5.768-4.272,8.716v2.948h-1.453c-0.684,1.41-1.367,2.82-2.094,4.272h3.547v21.919h-11.75
			c-0.129,1.453-0.129,2.905,0.042,4.272h11.708v14.955c1.324,0.47,2.734,0.897,4.272,1.239v-16.194h21.919v19.398l4.272,0.769
			v-20.168h16.535v-4.272h-16.535v-21.919h16.535v-4.272h-16.535v-21.919h16.535v-4.272h-16.535v-21.919h21.919v6.324h4.272v-6.324
			h22.047v6.324h4.272v-6.324h21.791v6.324h4.272v-6.324h21.919v6.324h4.272v-6.324h21.919v6.324h4.272v-6.324h21.919v6.324h4.272
			v-6.324h21.919v6.324h2.606v91.734l1.666-0.598v-18.885h21.919v8.289c0.727-0.256,1.453-0.513,2.137-0.769
			c0.727-0.299,1.452-0.555,2.136-0.898l0.043-6.623h9.528c1.025-1.111,1.709-2.563,2.136-4.272H1396.243z M1182.396,531.713
			h-21.919v-21.919h21.919V531.713z M1234.907,453.139h-22.047V431.22h22.047V453.139z M1234.907,426.948h-22.047v-21.919h22.09
			L1234.907,426.948z M1260.971,453.139h-21.791V431.22h21.791V453.139z M1287.162,453.139h-21.919V431.22h21.919V453.139z
			 M1313.354,453.139h-21.919V431.22h21.919V453.139z M1339.545,453.139h-21.919V431.22h21.919V453.139z M1339.545,426.948h-21.919
			v-21.919h21.919V426.948z M1365.736,453.139h-21.919V431.22h21.919V453.139z M1391.928,531.713h-21.919v-21.919h21.919V531.713z
			 M1391.928,505.522h-21.919v-21.919h21.919V505.522z"/>
		<rect x="1287.162" y="666.943" style="fill:#E73680;" width="4.273" height="21.919"/>
		<rect x="1260.971" y="666.943" style="fill:#E73680;" width="4.273" height="21.919"/>
		<path style="fill:#E73680;" d="M1391.928,640.752v-4.273h-21.919V614.56h14.869c-0.513-1.453-1.026-2.863-1.581-4.273h-13.288
			v-21.919h3.589c-0.641-1.41-1.281-2.863-1.922-4.273h-1.667v-11.28l-1.666-3.589v15.125h-167.019
			c-0.897,1.41-1.282,2.008-2.137,3.419l9.4,0.042v22.474h-19.612l-1.409,4.273h21.021v21.919h-21.919v-20.381
			c-0.854,1.88-1.538,3.717-2.137,5.512c-1.025,3.076-1.709,6.238-2.136,9.485v15.253l4.272,20.552c0,0.043,0,0.043,0,0.043h21.919
			v21.919h-9.4c1.324,1.495,2.649,2.948,3.889,4.273h5.512v26.191h149.971l0.256-4.272h-14.997v-21.919h21.919v5.768
			c0.086,0,0.171,0.043,0.256,0.043c0.043,0,0.043,0,0.086-0.043c0.128-0.042,0.214-0.085,0.342-0.171
			c0.043,0,0.086-0.042,0.128-0.085c1.196-1.538,2.351-3.119,3.461-4.657v-0.854h0.599c1.025-1.41,2.008-2.863,2.948-4.273h-3.547
			v-21.919h15.168c0.513-1.41,1.025-2.82,1.453-4.273l-16.621-0.043v-21.876H1391.928z M1208.588,662.115l-21.919-0.085v-21.278
			h21.919V662.115z M1265.243,587.984l21.919,0.085v22.218h-21.919V587.984z M1265.243,614.56h21.919v21.919h-21.919V614.56z
			 M1265.243,640.752h21.919v21.62l-21.919-0.086V640.752z M1239.052,587.899l21.919,0.085v22.303h-21.962L1239.052,587.899z
			 M1239.009,614.56h21.962v21.919h-21.962V614.56z M1239.009,640.752h21.962v21.534l-22.005-0.085L1239.009,640.752z
			 M1234.65,715.054h-21.79v-21.919h21.833L1234.65,715.054z M1234.693,688.862h-21.833v-21.919h21.833V688.862z M1234.693,662.201
			l-21.833-0.086v-21.363h21.876L1234.693,662.201z M1234.736,636.479h-21.876V614.56h21.876V636.479z M1234.736,610.288h-21.876
			v-22.474l21.919,0.085L1234.736,610.288z M1260.971,715.054h-22.047l0.042-21.919h22.005V715.054z M1265.243,715.054v-21.919
			h21.919v21.919H1265.243z M1313.354,715.054h-21.919v-21.919h21.919V715.054z M1313.354,688.862h-74.388v-21.919h74.388V688.862z
			 M1313.354,662.457l-21.919-0.085v-21.62h21.919V662.457z M1313.354,636.479h-21.919V614.56h21.919V636.479z M1313.354,610.288
			h-21.919V588.07l21.919,0.085V610.288z M1339.545,715.054h-21.919v-21.919h21.919V715.054z M1339.545,688.862h-21.919v-21.919
			h21.919V688.862z M1339.545,662.5l-21.919-0.043v-21.705h21.919V662.5z M1339.545,636.479h-21.919V614.56h21.919V636.479z
			 M1365.736,688.862h-21.919v-21.919h21.919V688.862z M1365.736,662.585l-21.919-0.043v-21.79h21.919V662.585z M1365.736,636.479
			h-21.919V614.56h21.919V636.479z M1365.736,610.288h-48.11v-22.089l21.919,0.043l4.272,0.042l21.919,0.042V610.288z"/>
	</g>
</g>
<path style="fill:#2B2150;" d="M1220.37,624.836c-0.77,0-1.542-0.275-2.155-0.834c-1.31-1.189-1.406-3.217-0.215-4.525
	c14.719-16.19,41.93-18.249,58.224-4.415c1.349,1.146,1.515,3.167,0.369,4.517c-1.144,1.35-3.163,1.515-4.517,0.37
	c-15.246-12.943-38.237-8.366-49.336,3.838C1222.107,624.484,1221.24,624.836,1220.37,624.836z"/>
<g>
	<path style="fill:#2B2150;" d="M1347.021,615.244c-0.598,0.983-1.666,1.538-2.734,1.538c-0.555,0-1.153-0.128-1.623-0.427
		c-0.77-0.47-1.581-0.854-2.393-1.282c-5.085-2.478-10.426-3.546-15.852-3.29c-0.043,0-0.043,0-0.086,0
		c-7.647,0.47-15.809,3.632-24.824,9.785c-0.556,0.384-1.153,0.555-1.794,0.555c-1.025,0-2.009-0.513-2.649-1.41
		c-0.982-1.453-0.599-3.461,0.854-4.443c9.784-6.665,18.843-10.254,27.517-10.81c0.213-0.042,0.427-0.085,0.641-0.085
		c6.537-0.341,12.903,0.983,19.013,3.931c0.94,0.47,1.88,0.982,2.82,1.538C1347.406,611.741,1347.919,613.706,1347.021,615.244z"/>
	<path style="fill:#F5AE9E;" d="M1328.777,386.485c0,0-0.598,2.734-2.392,5.298c-3.546,5-16.065,18.757-40.547,19.355
		c-27.559,0.684-44.351-18.543-44.351-24.653l1.752-0.641c0-0.641,19.867-4.786,19.867-4.786l2.82-17.262
		c-14.143-5.896-25.081-19.697-30.935-36.702c0,0,0,0,0-0.043c-0.812-2.308-1.495-4.615-2.093-7.05
		c-1.41-5.64-2.308-11.622-2.521-17.689l9.742-36.702l76.267,2.222c-4.229,5.085-7.477,16.236-3.589,24.397
		c0.77,1.581,1.709,3.034,2.179,4.742c1.88,7.093-6.109,13.545-5.811,20.893c0.128,3.803,2.479,7.136,4.315,10.511
		c1.837,3.375,3.162,7.563,1.324,10.895c-0.598,1.068-1.409,1.923-1.965,2.948c-0.77,1.367-0.983,2.948-1.068,4.529
		c-0.128,2.606,0.171,5.17,0.854,7.691c-2.606,2.136-5.341,4.102-8.16,5.768l2.691,20.851
		C1307.158,381.059,1323.309,385.545,1328.777,386.485z"/>
	<path style="fill:#2B2150;" d="M1295.019,302.156c-1.77,0-3.204-1.436-3.204-3.205v-4.577c0-1.769,1.435-3.205,3.204-3.205
		s3.205,1.436,3.205,3.205v4.577C1298.224,300.721,1296.788,302.156,1295.019,302.156z"/>
	<path style="fill:#2B2150;" d="M1252.075,301.787c-1.77,0-3.205-1.436-3.205-3.205v-3.841c0-1.769,1.436-3.205,3.205-3.205
		c1.769,0,3.204,1.436,3.204,3.205v3.841C1255.279,300.352,1253.844,301.787,1252.075,301.787z"/>
	<path style="fill:#2B2150;" d="M1274.335,325.23c-2.203,0-4.285-0.38-5.791-0.655c-1.815-0.33-3.4-1.425-4.346-3.002
		c-0.889-1.486-1.129-3.267-0.674-4.934l4.978-31.974c0.273-1.749,1.926-2.923,3.659-2.675c1.751,0.273,2.946,1.911,2.675,3.66
		l-5.011,32.183c-0.027,0.167-0.067,0.332-0.117,0.492c2.097,0.336,6.484,1.135,8.155-0.474c1.274-1.227,3.305-1.187,4.531,0.092
		c1.227,1.277,1.186,3.307-0.092,4.531C1280.056,324.631,1277.1,325.23,1274.335,325.23z"/>
	<path style="fill:#2B2150;" d="M1295.194,334.23c-2.948,9.101-8.802,13.758-17.048,13.758c-2.265,0-4.699-0.342-7.306-1.025
		c-3.995-1.048-2.336-7.296,1.666-6.196c6.323,1.667,10.639,0.897,13.544-2.649c-2.862,0.684-6.152,1.026-9.399,1.026
		c-3.205,0-6.409-0.342-9.187-1.026c-2.905-0.726-5.512-1.837-7.604-3.204c-3.423-2.235,0.116-7.623,3.588-5.341
		c1.453,0.983,3.376,1.752,5.555,2.308c5.981,1.495,14.825,0.94,19.312-1.196c1.237-0.589,2.255-1.789,3.719-1.667
		C1294.813,329.134,1295.968,331.845,1295.194,334.23z"/>
	<path style="fill:#EE7E94;" d="M1257.647,320.163c0,6.829-5.555,12.383-12.384,12.383c-4.28,0-8.031-2.158-10.26-5.449
		c0,0,0,0-0.036-0.035c-0.813-2.3-1.485-4.635-2.087-7.041c0.07-6.758,5.555-12.242,12.383-12.242
		C1252.093,307.779,1257.647,313.333,1257.647,320.163z"/>
	<path style="fill:#EE7E94;" d="M1319.784,320.163c0,6.839-5.544,12.383-12.383,12.383c-6.84,0-12.384-5.544-12.384-12.383
		c0-6.839,5.544-12.383,12.384-12.383C1314.24,307.779,1319.784,313.323,1319.784,320.163z"/>
	<path style="fill:#2B2150;" d="M1247.107,285.024c-1.318,0-2.556-0.82-3.021-2.134c-0.591-1.669,0.283-3.501,1.95-4.091
		c3.538-1.252,7.4-1.848,11.149-1.659c1.769,0.077,3.138,1.575,3.059,3.342c-0.077,1.769-1.611,3.229-3.343,3.059
		c-2.958-0.136-5.96,0.317-8.724,1.3C1247.823,284.965,1247.462,285.024,1247.107,285.024z"/>
	<path style="fill:#2B2150;" d="M1302.711,284.271c-0.355,0-0.716-0.058-1.068-0.184c-2.772-0.979-5.779-1.423-8.727-1.3
		c-1.746,0.163-3.266-1.289-3.343-3.058c-0.079-1.767,1.29-3.265,3.059-3.342c3.749-0.18,7.606,0.407,11.147,1.659
		c1.669,0.59,2.543,2.42,1.952,4.089C1305.267,283.449,1304.031,284.271,1302.711,284.271z"/>
	<path style="fill:#F7AF4D;" d="M1378.426,365.635l-59.817-0.342c-4.657-4.957-7.178-11.792-6.836-18.543
		c0.085-1.581,0.299-3.162,1.068-4.529c0.556-1.025,1.367-1.88,1.965-2.948c1.838-3.333,0.513-7.52-1.324-10.895
		c-1.837-3.375-4.188-6.708-4.315-10.511c-0.299-7.349,7.69-13.8,5.811-20.893c-0.47-1.709-1.409-3.162-2.179-4.742
		c-3.888-8.161-0.641-19.313,3.589-24.397l-76.267-2.222c0,0-9.827,38.155-9.656,38.069c0.256,5.597,1.11,11.109,2.436,16.321
		c0.598,2.436,1.281,4.743,2.093,7.05c0,0.043,0,0.043,0,0.043c3.504,10.212,8.888,19.313,15.681,26.192
		c-1.281,0.513-2.648,0.854-3.974,1.11c-5.683,1.111-11.493,1.111-17.261,1.111h-13.117l-0.043,0.128h-10.853
		c-1.41-6.495,0.299-13.63,4.486-18.8c1.538-1.88,3.418-3.589,4.272-5.896c1.709-4.871-1.965-10.126-1.581-15.254
		c0.556-6.793,7.819-11.408,8.93-18.159c1.325-7.733-5.854-14.484-6.323-22.346c-0.256-3.589,0.982-7.05,2.82-10.212l-8.161-0.256
		c0-14.271,4.615-29.353,15.297-39.223c10.254-9.442,25.166-12.22,25.166-12.22c7.221-12.22,52.98-21.962,84.642,2.692
		c57.979,45.205,8.331,58.962,29.523,77.506c15.296,13.416,0.171,25.636,3.247,36.317c0.898,3.119,3.376,5.555,4.871,8.46
		C1376.974,346.75,1383.254,357.346,1378.426,365.635z"/>
	<path style="fill:#2B2150;" d="M1260.201,224.846c-0.791,0-1.551-0.44-1.922-1.198c-0.518-1.059-0.079-2.339,0.98-2.858
		c4.707-2.303,9.372-3.681,13.863-4.087c1.149-0.106,2.216,0.76,2.32,1.936c0.106,1.175-0.76,2.214-1.937,2.32
		c-3.97,0.358-8.13,1.594-12.369,3.669C1260.835,224.777,1260.516,224.846,1260.201,224.846z"/>
	<path style="fill:#2B2150;" d="M1342.838,258.962c-0.927,0-1.781-0.609-2.051-1.546c-2.009-6.987-5.135-11.869-9.553-14.93
		c-0.971-0.671-1.212-2.003-0.541-2.973c0.672-0.97,1.997-1.216,2.974-0.541c5.262,3.645,8.936,9.29,11.226,17.262
		c0.326,1.135-0.329,2.318-1.462,2.643C1343.232,258.935,1343.034,258.962,1342.838,258.962z"/>
	<path style="fill:#2B2150;" d="M1333.631,349.631c-0.046,0-0.092-0.002-0.14-0.004c-1.177-0.075-2.069-1.091-1.994-2.27
		c0.131-2.032,0.52-4.01,0.897-5.923c0.553-2.808,1.074-5.461,0.759-8.038c-0.349-2.873-1.724-5.56-3.177-8.403
		c-0.964-1.888-1.964-3.839-2.691-5.925c-2.564-7.352-1.346-15.855,3.175-22.193c0.688-0.96,2.018-1.181,2.981-0.499
		c0.96,0.686,1.183,2.02,0.499,2.981c-3.73,5.228-4.736,12.242-2.621,18.305c0.63,1.807,1.52,3.547,2.462,5.387
		c1.561,3.05,3.174,6.204,3.615,9.83c0.395,3.252-0.219,6.367-0.812,9.38c-0.364,1.861-0.711,3.62-0.823,5.375
		C1335.688,348.763,1334.747,349.631,1333.631,349.631z"/>
</g>
<g>
	<path style="fill:#59549F;" d="M541.343,1431.973v219.22c-0.555,9.741-1.41,19.438-3.589,28.785
		c-0.812,3.466-1.794,6.889-2.82,10.312v-290.437L541.343,1431.973z"/>
	<path style="fill:#59549F;" d="M517.331,1337.891v395.647h-6.409v-393.465C513.101,1339.389,515.237,1338.661,517.331,1337.891z"/>
	<path style="fill:#59549F;" d="M493.276,1341.971v391.48l-6.409-0.043v-390.102C489.003,1342.919,491.14,1342.488,493.276,1341.971
		z"/>
	<path style="fill:#59549F;" d="M469.263,1345.895v387.471l-6.409-0.043v-386.867
		C464.991,1346.325,467.127,1346.153,469.263,1345.895z"/>
	<path style="fill:#59549F;" d="M445.251,1346.973v159.024c-1.794,13.194-4.273,31.391-6.409,48.38V1346.8
		C440.978,1346.93,443.115,1346.973,445.251,1346.973z"/>
	<path style="fill:#59549F;" d="M440.637,1733.236c1.666-10.909,3.204-21.775,4.614-32.599v32.599H440.637z"/>
	<path style="fill:#59549F;" d="M421.196,1345.276v377.315c-1.837-0.383-4.059-0.85-6.409-1.401v-376.849
		C416.88,1344.682,419.06,1344.979,421.196,1345.276z"/>
	<path style="fill:#59549F;" d="M397.184,1340.66v380.615c-2.179,0.043-6.409-0.712-6.409-0.712v-381.611
		C392.911,1339.593,395.047,1340.147,397.184,1340.66z"/>
	<path style="fill:#59549F;" d="M373.171,1328.871v390.84c-2.136-0.217-4.272-0.434-6.409-0.606v-392.878
		C368.898,1327.181,371.035,1328.048,373.171,1328.871z"/>
	<path style="fill:#59549F;" d="M558.947,1531.954v-8.365C558.989,1525.832,558.989,1528.548,558.947,1531.954z"/>
</g>
<path style="fill:#2B2150;" d="M439.11,1217.897c-0.63,0-1.254-0.278-1.675-0.808c-2.095-2.638-4.045-9.315-6.745-18.558
	c-2.157-7.388-4.605-15.762-7.648-23.827c-0.418-1.105,0.14-2.337,1.243-2.754c1.108-0.417,2.337,0.14,2.754,1.243
	c3.103,8.22,5.573,16.678,7.753,24.139c2.27,7.775,4.415,15.116,5.989,17.099c0.734,0.924,0.58,2.268-0.344,3.002
	C440.044,1217.745,439.575,1217.897,439.11,1217.897z"/>
<path style="fill:#2B2150;" d="M420.548,1165.546c-0.79,0-1.552-0.439-1.921-1.199c-2.51-5.143-5.145-9.282-7.834-12.305
	c-0.784-0.883-0.705-2.232,0.175-3.017c0.887-0.784,2.232-0.707,3.017,0.175c2.99,3.361,5.765,7.703,8.481,13.273
	c0.517,1.06,0.077,2.339-0.983,2.855C421.183,1165.478,420.861,1165.546,420.548,1165.546z"/>
<path style="fill:#F5AE9E;" d="M509.066,1741.435c-0.47,0-11.963,0.982-32.301,17.561c-6.922,5.64-31.532-0.257-34.908-14.954
	l0.769-8.973l64.09-1.282L509.066,1741.435z"/>
<rect x="1204.87" y="463.727" style="fill:#5A8DBF;" width="165.138" height="120.614"/>
<path style="fill:#2B2150;" d="M1613.979,1701.869c0.812,0.129,1.666-0.043,2.393-0.598l101.519-78.831
	c1.41-1.11,1.666-3.119,0.556-4.528l-148.518-191.288c0,0,0.683-49.947,0.47-50.375c6.708-14.356,10.98-35.292,11.493-40.804
	c0.939-10.255,1.795-19.91,1.282-31.02c-0.385-8.887-2.479-17.774-6.024-25.978c0.128-0.171,0.598-2.009,1.195-4.871l4.017-44.436
	l14.912-12.306c11.792-10.041,16.065-27.303,11.237-45.034l-28.841-117.327c-0.77-3.119-2.606-5.854-5.213-7.733
	c0,0-35.591-26.064-35.634-26.106c-1.111-2.094-9.187-24.183-9.87-25.764c4.486-4.358,8.546-9.229,11.964-14.57
	c3.674-0.47,12.092-2.436,21.235-11.322c11.536-11.237,15.552-29.012,15.21-44.735c-0.299-14.357-7.647-30.208-20.209-37.813
	c-2.18-1.325-4.529-2.393-6.965-3.077c-4.871-14.527-20.68-24.482-34.353-27.003c-8.032-1.453-19.91-2.82-30.934-0.77
	c-12.52,2.308-21.021,5.213-24.354,6.409c-2.051-1.111-5.896-2.863-9.613-2.863c-16.407,0.128-24.354,13.459-27.004,19.227
	c-1.068,2.222-1.581,4.828-1.623,7.905c-0.043,2.862,0.342,5.768,1.153,8.63c-0.299,0.727-2.478,5.811-2.734,6.708
	c-1.282,4.358-2.607,8.844-3.162,13.629c-1.11,10.34,2.436,25.166,10.383,32.045c0.171,0.128,0.556,3.845,0.641,5.597
	c0.385,8.417,2.009,16.492,4.828,24.055c7.605,20.637,23.201,34.907,41.702,38.112c0.812,0.171,1.666,0.299,2.521,0.384
	c-0.043,1.966-0.128,3.889-0.214,5.812c-17.134,3.846-28.926,11.151-35.891,27.217c-0.171,0.428-12.177,29.695-21.32,59.86
	c-1.282,4.229-3.846,12.988-6.623,22.773c0,0,0-444.144,0-444.572c0-1.666-1.41-3.204-3.204-3.204l-25.337,0.042
	c12.391-21.449,14.186-52.169,4.145-76.609l-17.646-38.155v-10.853l28.542-9.699c9.271-3.461,19.099-12.22,12.946-33.968
	c-6.367-22.688-14.698-44.778-23.585-66.568c-5.769-14.1-11.793-28.114-18.245-41.914c-5.041-10.896-14.484-16.45-25.807-18.971
	c0,0-31.703-7.093-35.335-8.076l-2.179-16.664c1.11-0.726,2.179-1.452,3.204-2.221c1.239,2.862,2.991,5.512,5.17,7.818
	c0.598,0.641,1.453,1.026,2.308,1.026l59.859,0.342c1.154,0,2.223-0.598,2.777-1.624c5.299-9.143-0.214-19.825-4.699-28.413
	c-1.025-1.966-5.256-8.503-5.684-9.913c-0.854-2.991,0.257-6.452,1.539-10.468c2.434-7.776,5.512-17.475-5.769-27.345
	c-6.452-5.64-4.913-10.126-2.35-17.604c4.4-12.903,10.468-30.592-27.303-60.031c-13.245-10.297-30.592-15.98-48.88-15.98
	c-17.646,0-33.882,5.384-39.649,12.946c-4.06,0.94-16.322,4.358-25.423,12.732c-10.383,9.571-16.321,24.739-16.321,41.573
	c0,3.503,3.845,3.204,6.409,3.29c-2.308,4.187-0.214,10.938,0.256,12.433c2.137,6.538,6.11,12.434,3.589,19.612
	c-1.923,5.426-7.306,9.571-7.605,15.296c-0.213,4.529,2.906,8.93,2.051,13.373c-0.598,3.375-3.289,5.854-5.298,8.588
	c-3.674,5.085-5.127,11.707-3.974,17.86c0.471,2.521,1.624,3.589,4.145,3.631c2.394,0.043,4.828,0.128,7.222,0.171
	c6.28,0.129,8.203-6.793,1.153-6.708c-2.308,0.043-4.743,0.769-6.837-0.171c0.897-9.699,11.451-17.39,9.827-27.003
	c-0.427-2.777-1.923-5.383-1.923-8.161c0-5.341,5.085-9.101,7.393-13.886c2.819-5.854,1.153-12.519-1.154-18.245
	c-1.11-2.777-2.648-5.212-3.204-8.161c-0.171-0.983-0.599-8.46,1.281-8.418c4.486,0.128,9.016,0.256,13.545,0.385
	c-7.221,16.45-8.161,34.865-3.76,52.212c4.614,18.202,15.168,36.446,32.601,44.906l-2.094,12.647
	c-12.648,2.649-34.31,7.349-39.779,8.204c-14.185,2.265-21.234,14.356-21.534,14.869c0,0.042-0.042,0.128-0.085,0.213
	l-58.749,120.831c-3.547,8.161-2.777,17.518,2.136,24.953c4.828,7.392,12.989,11.151,21.748,11.921
	c9.102,0.769,35.977,5.938,35.977,5.938v6.751l-16.108,34.822c-9.998,24.354-8.161,55.246,4.358,76.652l-56.699,0.043
	c-1.452-4.23-5.511-7.306-10.211-7.306h-84.514c-12.049,0-21.833-9.784-21.833-21.833V636.65c0-43.88-56.656-65.03-85.881-32.729
	c-8.075,8.887-12.647,20.68-12.647,32.729v17.775c0,12.049-9.785,21.833-21.833,21.833h-84.514c-5.939,0-10.81,4.871-10.81,10.81
	v18.629c0,3.674,0.513,7.263,1.453,10.639H593.024c-1.794,0-3.205,1.41-3.205,3.205v440.042l-43.965-77.506v-73.832
	c4.23-7.519,6.623-16.193,7.733-24.995c4.914-1.41,9.913-4.657,11.579-6.922c1.111-1.538,1.025-2.905,0.727-3.76
	c-0.042-0.171-12.861-25.251-13.032-25.38c-1.068-0.812-3.033-16.407-3.033-16.407c0.726-0.385,1.41-0.855,2.093-1.325
	c10.896-7.477,17.091-22.303,12.519-34.95c-3.076-8.503-9.956-14.955-18.586-17.433V689.717h234.911
	c1.752,0,3.205-1.453,3.205-3.205c0-1.752-1.453-3.204-3.205-3.204H542.649c-1.752,0-3.205,1.452-3.205,3.204v187.442
	c-9.656-4.871-19.185-10.682-30.123-11.878c-10.767-1.196-21.748-0.854-32.387,0.94c-9.1,1.581-18.287,4.188-26.362,8.716
	c-2.991,1.667-6.665,3.931-9.015,6.751c-1.325,1.538-2.777,6.58-4.743,7.178c-14.57,4.529-37.215,21.15-37.685,58.194
	c-0.47,31.832,14.484,55.332,44.393,70.03c0.684,0.641-7.862,22.389-8.417,22.431c-2.692,0.214-5.255,0.513-7.776,0.897
	l-13.331,2.137c-10.511,3.119-19.483,9.741-28.028,20.765c-1.795,2.308-8.161,12.092-9.614,14.613l-69.815,115.831
	c-3.717,7.307-2.734,16.065,2.478,22.304l61.825,76.097l-8.716,28.883c-0.128,0.257-5.811,203.764-5.811,203.764l-10.126,199.491
	c-0.085,1.752,1.239,3.247,2.991,3.333l5.726,0.342l-0.385,5.041c-1.965,1.367-3.674,3.461-5.169,6.238
	c-9.785,18.501-6.794,43.219-5.426,50.609h-60.373c-1.794,0-2.692,1.773-2.692,3.568c0,1.752,1.41,3.204,3.205,3.204h143.348
	c0.427,3.76,0.94,6.195,1.025,6.537c0.299,1.453,1.581,2.521,3.076,2.563h165.523c1.837,0.086,3.076-1.196,3.247-2.862
	c0.043-0.299,0.342-2.692,0.342-6.238h848.894c0.171,2.692,0.47,4.401,0.513,4.657c0.257,1.538,1.624,2.649,3.162,2.649
	c0,0,132.623-7.179,135.273-7.307h103.143c1.794,0,3.204-1.452,3.204-3.204c0-1.795-1.923-3.568-3.718-3.568h-89.384
	c0.77-7.861,2.179-28.221-7.05-43.09c-1.495-2.393-3.076-4.102-4.871-5.255c-0.214-1.367-0.342-2.777-0.598-4.145
	c1.11-0.599,1.794-1.966,1.666-3.205l-7.05-66.396c0,0,27.985,36.062,28.071,36.146
	C1612.44,1701.313,1613.209,1701.741,1613.979,1701.869z M1711.438,1619.321l-29.098,22.603l-246.233-317.117
	c2.734,1.025,5.341,1.623,8.246,1.623c6.965,0,15.339-3.29,28.37-14.526L1711.438,1619.321z M1252.041,1092.459
	c-1.881-0.727-3.846-1.239-5.896-1.496c-13.416-1.666-26.149,8.204-27.815,21.62c-0.257,2.051-0.257,4.059,0,6.067
	c-0.257-1.966-10.853-1.667-12.263-1.496c-7.69,1.025-14.911,5.896-18.543,12.818l-22.987-90.281l24.269-18.886l81.693,44.564
	c-3.204,0.854-6.195,2.35-8.844,4.4l-0.299,0.257c-5.213,4.059-8.503,9.869-9.357,16.364
	C1251.741,1088.442,1251.741,1090.45,1252.041,1092.459z M1161.289,1034.051l-19.483-48.75l42.428,30.977L1161.289,1034.051z
	 M1258.364,1087.203c1.153-9.016,9.314-16.193,18.372-16.193c5.682,0,10.938,2.563,14.399,7.05l135.571,174.624
	c-2.605,2.649-2.862,7.307-0.897,10.34c1.752,2.692,4.444,5.298,7.307,6.751c1.88,1.025,4.188,1.324,6.238,1.752
	c-6.708,6.366-17.902,17.945-23.029,27.815l-154.286-198.723c-0.684-0.897-1.282-1.837-1.752-2.82
	C1258.578,1094.553,1257.895,1090.92,1258.364,1087.203z M1326.983,878.355c-2.009,1.154-3.889,2.521-6.024,3.418
	c-4.657,2.136-9.998,2.82-15.04,2.307c-6.409-0.641-13.587-7.691-13.587-7.691v-10.254c4.614,6.11,10.041,10.639,17.945,10.639
	c10.126,0,17.817-7.862,19.996-17.39c0,0,1.88,8.204,1.88,8.289C1332.153,870.963,1330.786,876.262,1326.983,878.355z
	 M1334.888,879.637l4.571,20.125c2.222,9.784-1.837,20.423-8.716,22.73l-21.876,7.306c-6.836,2.265-16.322-5.213-16.706-16.792
	l0.171-28.2c3.247,2.948,7.563,4.957,12.775,5.64c1.452,0.171,2.862,0.256,4.315,0.256c4.87,0,9.741-1.025,14.185-3.077
	c2.265-1.025,4.273-2.521,6.495-3.631C1332.067,882.927,1333.648,881.389,1334.888,879.637z M1324.633,838.234
	c0,0,0,14.655,0,14.698c0,8.075-4.87,17.091-13.801,17.433c-8.887,0.299-18.158-7.563-19.482-16.065V726.462h53.023
	C1344.373,726.462,1324.633,838.064,1324.633,838.234z M1350.867,726.462h6.409v62.466h-17.475L1350.867,726.462z
	 M1419.188,1232.474l15.211-3.375c0.256,8.331,0.555,16.022,0.812,22.688L1419.188,1232.474z M1420.598,1304.811
	c3.076-7.264,15.211-21.748,23.713-29.481c1.496-1.282,2.862-2.436,4.06-3.29c3.632-2.606-0.385-5.64-3.119-5.982
	c-2.82-0.47-7.221-1.238-9.187-1.922c-1.196-0.428-4.059-2.094-4.914-4.315c-0.384-1.154-0.299-2.563,1.111-2.137
	c2.008,0.599,4.443,0.77,7.008,0.641c8.16-0.342,17.474-3.461,17.987-3.632c2.905-0.982,7.435-1.623,10.895-1.281l25.123,30.849
	c-1.11,2.563-35.762,30.507-35.805,30.55c-3.504,3.375-8.93,4.913-15.296,4.443c-4.572-0.385-9.314-1.795-13.417-3.889
	c-3.589-1.837-6.622-4.187-8.63-6.793C1419.657,1307.844,1419.871,1306.563,1420.598,1304.811z M1512.674,1299.427
	c-4.657,0.513-9.272,0.812-13.887,0.94c-3.504,0.085-7.264,0.299-10.639-0.813c3.974-3.546,7.307-7.007,9.4-10.083l2.649,3.247
	c1.154,1.41,3.119,1.581,4.529,0.47l70.883-58.45c0,0-3.717,38.711-3.76,38.924c-0.128,2.051-1.196,3.076-2.691,4.358
	C1553.35,1291.266,1533.012,1297.29,1512.674,1299.427z M1514.254,1305.665c2.991,7.904,9.656,16.107,14.527,19.868
	c2.35,1.751,6.537,4.656,9.314,4.87l-2.436,52.084l-57.809-74.43c1.709-1.282,3.375-2.606,4.913-3.931
	c-0.043,0.043,5.555,3.632,19.142,2.521C1503.018,1306.563,1514.169,1305.408,1514.254,1305.665z M1575.524,1334.848
	c-0.428,4.571-4.486,24.909-10.938,38.667c-0.427,0.897-0.939,45.034-0.939,45.034l-23.97-30.849l2.649-56.015
	c3.632,0.47,11.835,0.854,12.689,0.727c3.119-0.813,2.948-4.658,0.257-4.358c-7.776,0.854-17.732-0.641-24.099-5.854
	c-5.512-4.529-9.869-10.511-12.519-17.091c21.919-3.076,39.906-10.255,53.707-21.406c2.563,6.708,4.102,13.844,4.401,20.979
	C1577.276,1315.406,1576.422,1324.849,1575.524,1334.848z M1532.499,1022.216c-7.947,5.213-29.311,12.689-36.019,14.015
	c-7.435,1.452-12.604,0.684-13.673,0.513c0.598-4.401,1.025-12.946,1.281-21.064c14.015-0.299,28.029-6.409,39.821-16.236
	C1524.68,1001.536,1531.26,1019.438,1532.499,1022.216z M1429.741,881.004c2.136-4.614,8.502-15.338,21.277-15.467
	c2.649,0,6.323,1.965,7.563,2.734c0.855,0.556,1.966,0.641,2.948,0.256c0.086-0.042,9.314-3.845,24.525-6.665
	c10.041-1.837,21.107-0.598,28.627,0.812c12.263,2.222,26.448,11.237,29.866,24.141c0.342,1.196,1.281,2.094,2.478,2.307
	c17.134,3.589,25.123,24.525,23.714,40.249c-1.41,15.766-2.18,24.44-13.032,34.993c-7.989,7.734-14.911,9.272-17.475,9.571
	c-2.777-3.076-1.197-9.528-0.642-11.408c4.23-4.999,10.511-13.844,8.546-21.022c-0.684-2.436-2.563-5.726-8.118-7.52
	c-3.546-1.154-7.178-0.299-10.383,1.41c-1.538,0.854-6.494,5.896-7.818,5.169c-1.538-0.854-3.376-3.845-2.351-7.477
	c0.641-2.222,4.315-17.433,7.093-22.047c2.393-1.282,4.614-2.649,6.665-4.145c3.333-2.436-0.427-7.648-3.803-5.17
	c-12.305,9.058-28.883,11.621-43.666,13.117c-13.203,1.325-28.841,4.871-41.018-2.265c-9.742-5.726-16.193-16.236-16.022-26.234
	C1428.758,884.166,1429.1,882.457,1429.741,881.004z M1429.784,932.447c-0.343,2.051-0.642,4.102-0.813,6.153
	c-3.931-6.196-5.768-15.767-4.999-22.688c0.428-4.187,1.709-8.417,2.905-12.518c0-0.043,0.043-0.086,0.043-0.171
	c1.966,3.503,4.486,6.75,7.52,9.528C1432.56,918.732,1431.022,925.269,1429.784,932.447z M1476.227,1008.757
	c-16.492-2.905-29.908-15.296-36.788-34.053c-2.605-6.964-4.102-14.399-4.443-22.175c-0.385-6.281,0-12.647,1.111-18.971
	c1.025-5.982,2.264-11.494,3.674-16.536c0.556,0.385,1.111,0.727,1.71,1.068c11.792,6.922,26.319,5.255,39.137,3.76
	c1.966-0.213,3.889-0.427,5.769-0.641c12.434-1.239,22.816-3.333,31.361-6.409c-1.153,3.375-3.845,14.398-4.443,16.535
	c-1.88,6.58,1.324,12.561,5.341,14.826c3.162,1.795,6.58,1.325,8.973-1.196c2.094-2.222,4.913-4.615,8.118-4.956
	c2.264-0.256,5.512,0.684,6.195,3.162c1.922,7.05-5.982,11.579-8.375,17.048c-0.939,2.136-1.196,4.956-1.281,7.221
	c-0.129,2.307,0.085,4.358,0.939,6.452c0.129,0.427,1.88,3.375,1.709,3.632c-12.604,18.628-32.643,31.789-52.041,31.789
	C1480.628,1009.313,1478.364,1009.142,1476.227,1008.757z M1414.744,1185.773c-1.325-4.614-3.29-8.973-5.725-13.031
	c3.333-14.356,31.618-122.839,47.085-134.162c3.076-2.179,5.469-4.742,9.015-6.494c1.111-0.556,11.964-4.102,11.964-4.188
	c-0.171,3.418-0.428,6.366-0.684,8.289c-0.769,5.683,4.956,7.264,9.401,7.221c20.509-0.214,41.872-10.041,50.973-16.364l3.803,2.777
	c-5.641,3.375-17.006,8.032-24.867,11.237c-2.051,0.854-3.931,1.623-5.512,2.265c-1.068,0.47-1.581,1.709-1.153,2.819
	c0.342,0.813,1.153,1.282,1.965,1.282c0.299,0,0.556-0.043,0.854-0.129c1.581-0.683,3.461-1.452,5.47-2.264
	c9.186-3.76,21.577-8.845,26.96-12.477l26.405,19.355c1.367,0.982,2.35,2.436,2.734,4.102l28.841,117.413
	c4.229,15.382,0.727,30.122-9.144,38.496l-90.025,74.26l-28.498-34.95l75.754-65.757c5.213,1.367,18.372,6.836,18.971,6.836
	c3.076,0,4.358-4.187,1.794-5.896c-4.144-2.735-13.629-5.683-18.971-7.093l-20.722-83.36c-0.428-1.709-2.137-2.734-3.889-2.307
	c-1.709,0.427-2.777,2.136-2.35,3.888l20.723,83.317l-76.353,66.269c-4.7-0.641-10.469,0.171-14.356,1.496
	c-2.991,1.025-8.588,2.521-13.587,3.076c-1.667-40.505-4.188-117.199,11.963-161.636c1.41-3.845-4.614-6.066-6.024-2.222
	c-13.159,36.232-14.271,92.589-13.33,134.761l-19.398,4.272l-33.711-43.41l22.73-6.837c2.051,3.418,3.632,7.093,4.742,10.896
	C1409.745,1191.542,1415.94,1189.747,1414.744,1185.773z M1407.182,689.717v464.481c-1.795,6.666-3.248,12.434-3.974,15.938
	l-26.32,7.904l-13.63-17.561l0.428-434.317c0.342-0.128,1.923-2.094,1.923-2.948l-0.214-20.295
	c5.682-2.735,10.938-7.178,15.424-13.16h0.043L1407.182,689.717z M1230.164,262.108c2.606-11.323,11.408-24.012,22.646-32.344
	c0.94-0.726,1.111-2.051,0.428-2.991c-0.727-0.94-2.052-1.153-2.991-0.427c-12.477,9.271-21.876,23.03-24.482,35.634l-12.604-0.385
	c0.641-13.758,5.726-25.935,14.186-33.754c9.399-8.674,23.457-11.408,23.585-11.451c0.94-0.171,1.709-0.727,2.179-1.496
	c3.119-5.298,17.39-11.023,34.95-11.023c16.878,0,32.814,5.17,44.949,14.612c34.139,26.619,29.183,41.189,25.166,52.895
	c-2.691,7.905-5.469,16.065,4.188,24.525c8.16,7.093,6.152,13.373,3.845,20.594c-1.452,4.572-2.948,9.315-1.538,14.143
	c2.948,10.041,15.724,20.167,11.75,31.789l-10.383-0.043c0.299-6.238-2.648-11.964-5.512-17.475
	c-2.179-4.188-4.486-8.545-5.127-12.946c-0.556-3.846,0.043-7.734,0.684-11.878c0.684-4.444,1.367-9.016,0.598-13.63
	c-0.982-5.555-4.016-10.383-6.023-15.596c-1.41-3.674-1.966-9.228-2.606-15.125c-0.3-3.247-0.642-6.623-1.154-9.998
	c-0.427-2.691-4.614-2.179-4.229,0.641c0.47,3.29,0.812,6.622,1.153,9.784c0.641,6.195,1.239,12.049,2.82,16.236
	c1.966,4.871,4.913,9.528,5.81,14.783c0.684,3.931,0.043,7.99-0.599,12.263c-0.641,4.272-1.324,8.673-0.683,13.16
	c0.768,5.128,3.204,9.785,5.554,14.314c2.734,5.255,5.384,10.212,5.042,15.424l-41.701-0.256c-3.461-4.23-5.341-9.784-5.085-15.168
	c0.129-2.478,1.367-3.931,2.606-6.067c1.453-2.649,2.394-7.178-1.281-14.015c-3.333-6.195-4.572-10.639-1.196-17.262
	c2.008-3.931,4.272-8.417,2.948-13.458c-1.325-5.085-4.146-8.332-3.761-13.844c0.3-4.272,1.795-9.058,4.572-12.391
	c1.666-2.008,0.299-5.17-2.35-5.255L1230.164,262.108z M1238.026,326.07c-2.905-8.289-4.358-17.048-4.529-25.807
	c-0.171-10.639,2.265-21.534,7.007-31.447l70.243,2.051c-3.119,6.665-4.188,15.724-0.812,22.731
	c2.436,5.084,2.136,7.819-0.556,13.074c-1.666,3.333-3.589,7.093-3.418,11.323c0.128,3.888,2.051,7.221,3.717,10.126
	c3.034,5.255,3.076,7.478,0.342,12.562c-1.153,2.093-1.367,4.358-1.452,5.896c-0.129,2.222,0.042,4.444,0.47,6.58
	c0.214,1.068-7.99,5.298-9.187,5.896c-3.845,1.923-7.989,3.333-12.22,4.102c-7.605,1.325-15.211,0.256-22.132-3.077
	C1251.998,353.501,1242.939,339.828,1238.026,326.07z M1263.748,384.178c1.324-0.256,2.307-1.325,2.521-2.606l2.222-13.373
	c0,1.111,10.639,1.88,11.75,1.922c3.333,0.214,6.665-0.128,9.912-0.769c1.197-0.256,11.75-2.906,11.75-4.102l2.094,16.193
	c0.171,1.282,1.068,2.35,2.308,2.692c0.256,0.086,14.527,3.889,18.116,4.7c-0.171,0.384-0.428,0.727-0.684,1.111
	c-2.051,2.905-13.587,17.39-37.984,17.988c-19.227,0.513-31.233-9.144-35.463-13.288c-2.606-2.521-4.102-4.7-4.914-6.238
	C1247.939,387.639,1256.313,385.759,1263.748,384.178z M1164.493,552.949c-6.708,0-13.159-3.376-16.877-9.016
	c-3.674-5.64-4.272-12.69-1.581-18.885l58.536-120.489c0.47-0.727,6.238-9.956,16.962-11.665c4.957-0.769,11.066-2.008,17.348-3.375
	c1.068,2.948,3.504,6.366,6.922,9.742c21.662,21.406,65.158,20.509,83.188-5.597c0.854-1.239,1.495-2.436,1.923-3.503l13.288,2.734
	c10.468,1.794,15.083,5.939,20.252,13.373c1.966,4.145,28.927,61.655,42.428,109.552c5.213,18.501-2.691,23.841-8.973,26.191
	l-26.362,8.972v-55.075c0.94-0.341,1.666-0.47,2.777-0.641c0.94-0.171,2.009-0.342,3.504-0.684c1.752-0.385,2.82-2.094,2.478-3.803
	c-0.385-1.752-2.094-2.82-3.846-2.436c-1.367,0.299-2.351,0.427-3.162,0.598c-0.641,0.086-1.196,0.171-1.752,0.299v-25.508
	c0-1.795-1.452-3.205-3.204-3.205h-20.937c-0.812-7.178-2.734-24.61-3.931-28.371c-0.513-1.709-2.308-2.649-4.017-2.136
	c-1.666,0.555-2.605,2.35-2.093,4.016c0.812,2.607,2.478,16.407,3.546,26.491h-118.311c2.052-7.819,4.486-15.638,7.264-23.286
	c1.41-3.845-4.614-6.11-6.024-2.179c-3.033,8.332-5.683,16.878-7.904,25.465h-12.732c-1.795,0-3.204,1.41-3.204,3.205v51.528
	c-12.092-1.624-22.09-1.196-29.653,1.196c-2.393,0.769-2.777,3.632-1.025,5.298c2.094,2.008,5.47,0.043,7.99-0.384
	c7.435-1.282,15.211-0.726,22.688,0.342v37.087C1200,558.802,1164.707,552.949,1164.493,552.949z M1365.139,466.94v114.208h-158.73
	V466.94H1365.139z M1189.788,609.433l10.767-23.286c0.556,0.855,1.538,1.41,2.649,1.41h165.139c1.752,0,3.204-1.453,3.204-3.205
	l11.793,24.953c9.784,23.841,7.392,54.348-5.853,74.173c-3.546,5.255-7.691,9.4-12.135,12.134c0,0-0.342-34.822-0.342-34.95
	c-0.043-4.102-6.409-4.102-6.409,0.042l0.556,59.348h-149.372l-0.983-59.433c-0.042-1.751-1.495-3.205-3.29-3.119
	c-1.751,0-3.161,1.453-3.118,3.247l0.513,31.148c-2.606-2.307-4.999-5.127-7.222-8.417
	C1182.438,663.653,1180.003,633.146,1189.788,609.433z M1250.887,884.208c2.009,1.966,10.554,5.555,18.672,5.555
	c1.11,0,2.222-0.042,3.29-0.171c3.632-0.513,9.528-1.325,12.817-3.205v26.448c-0.812,11.665-13.843,19.953-20.722,17.988
	l-21.62-6.324c-6.622-1.923-10.169-12.263-7.563-22.132l11.579-43.88c1.367,10.34,8.289,18.415,17.731,19.868
	c0.94,0.128,1.88,0.213,2.82,0.213c6.066,0,13.287-2.777,17.773-7.349v6.067c-1.794,3.461-11.065,5.597-13.672,5.939
	c-7.05,0.982-15.51-2.692-16.621-3.589c-1.281-1.239-3.29-1.239-4.528,0.043C1249.605,880.919,1249.605,882.97,1250.887,884.208z
	 M1267.893,872.16c-9.229,0-14.356-9.144-14.399-17.475l-0.043-16.621c0-0.214-23.542-111.602-23.542-111.602h55.758V855.71
	C1284.171,865.537,1275.156,872.16,1267.893,872.16z M1132.149,705.697v-15.724l60.287-0.085c3.205,4.23,6.751,7.648,10.597,10.254
	l0.256,16.193h-72.592C1131.637,712.96,1132.149,709.371,1132.149,705.697z M805.718,687.067c0-2.393,2.008-4.4,4.4-4.4h84.514
	c15.595,0,28.242-12.648,28.242-28.242V636.65c0-20.295,15.51-38.411,35.463-41.787c20.081-3.418,40.376,7.776,47.555,26.961
	c1.794,4.743,2.691,9.784,2.691,14.826v17.775c0,15.595,12.689,28.242,28.242,28.242h84.514c2.436,0,4.4,2.008,4.4,4.4v18.629
	c0,18.202-14.783,32.985-32.984,32.985H838.703c-18.159,0-32.985-14.783-32.985-32.985V687.067z M596.229,722.745h206.968
	c6.366,13.202,19.868,22.346,35.506,22.346h254.053c15.638,0,29.14-8.887,35.506-22.089h75.156c0.042,1.751,1.452,3.461,3.204,3.461
	h16.749l13.202,62.466H596.229V722.745z M405.539,943.94c0.47-34.694,22.004-49.349,34.651-52.554
	c1.154-0.299,2.051-1.239,2.35-2.436c2.179-9.87,24.44-21.235,53.537-21.235c11.28,0,19.398,2.093,29.396,6.751
	c5.555,2.564,11.793,7.049,17.732,8.502c7.05,1.709,12.733,6.836,15.168,13.672c3.504,9.784-1.624,21.833-10.169,27.559
	c-10.596,7.52-24.439,3.76-36.232,2.35c-12.391-1.453-24.867-5.255-34.566-13.416c-0.983-0.769-1.966-1.667-3.205-1.837
	c-2.051-0.256-3.974,2.051-3.333,4.017c0.342,1.068,1.197,1.837,2.051,2.52c4.358,3.589,9.144,6.58,14.271,8.845
	c2.222,0.982,4.999,7.434,5.939,9.699c1.794,4.315,3.375,9.87,3.205,14.57c-0.043,0.983-3.632,11.365-4.187,10.724
	c-4.743-5.298-13.16-6.75-19.142-4.956c-4.358,1.752-6.109,4.743-6.793,6.922c-1.667,5.426,0.769,12.903,7.434,22.816
	c1.624,2.393,2.35,5.042,2.094,7.52c-0.513,5.298-4.187,10.81-11.194,16.877c-2.35,2.051-9.271,1.153-9.271,1.153
	C442.797,1007.134,404.856,992.265,405.539,943.94z M449.377,1016.618c5.469,3.974,14.27,3.504,19.355-0.897
	c8.332-7.221,12.733-14.1,13.417-21.15c0.384-3.931-0.769-8.076-3.162-11.665c-7.178-10.639-7.221-15.467-6.622-17.39
	c0.256-0.812,0.812-1.965,2.735-2.734c3.333-1.025,9.571-0.342,12.562,3.503c1.666,2.094,4.187,2.735,6.58,1.581
	c5.384-2.521,9.699-13.886,8.118-21.363c-1.88-8.845-2.563-11.921-5.127-16.279c4.358,1.196,17.347,3.119,19.099,3.375
	c8.844,1.239,18.586,2.606,27.516-0.213c0.684,3.034,2.265,11.75,2.393,12.989l12.903,26.96c-1.068,0.812-2.862,1.966-4.871,2.82
	c-1.709,0.769-3.546,1.368-5.084,1.368c-2.906,0-4.23,3.803-2.008,5.64c-0.641,4.401-1.581,8.759-2.948,12.861
	c-3.204,0.47-7.819-0.128-9.357-2.393c-2.307-3.418-7.605,0.171-5.298,3.589c2.691,4.06,7.818,5.256,12.006,5.384
	c-1.538,3.076-3.333,5.939-5.512,8.502c-8.545,10.041-23.072,14.57-36.018,13.331c-0.085-3.033-0.128-6.024-0.128-8.802
	c0-4.144-6.409-4.102-6.409,0.043c0.085,9.357,0.256,16.749,0.513,22.517c-17.133-1.538-35.591-2.99-51.828-2.35
	C443.438,1032.77,448.736,1018.37,449.377,1016.618z M539.445,1016.961v53.793l-12.22-21.535c-1.708-2.99-6.409-5.383-9.399-6.793
	c-3.675-1.795-7.648-2.777-11.708-3.162l-5.597-0.513c-0.128-2.521-0.213-5.17-0.299-7.861c7.392,0.384,15.04-0.47,22.047-2.905
	c3.29-1.111,6.409-2.606,9.357-4.486C532.993,1022.601,539.445,1018.755,539.445,1016.961z M392.294,1240.165
	c0.085-0.3,0.171-0.641,0.128-0.983l-2.436-102.031c-0.042-1.794-1.496-3.161-3.29-3.119c-1.752,0.043-3.162,1.496-3.119,3.248
	l0.641,27.003l-19.142,35.078c-0.598,1.068-0.513,2.436,0.256,3.461l20.466,27.132l0.213,8.844l-12.903,42.728l-59.134-72.721
	c-3.589-4.315-4.273-10.341-1.837-15.126c0,0,72.422-120.275,73.747-122.326c9.314-14.441,18.671-22.517,29.524-25.764l12.903-2.009
	c19.569-3.076,47.256-0.598,69.516,1.367l7.734,0.684c6.195,0.513,11.579,2.905,16.321,7.221l65.586,115.533
	c-2.521,4.401-4.273,9.271-5.17,14.271c-0.727,4.017,5.512,5.17,6.323,1.111c0.727-4.145,2.179-8.203,4.23-11.921
	c0.214-0.043,71.61-54.52,71.61-54.52l28.755,27.517l-85.753,79.087c-8.204,9.784-22.816,11.194-32.686,3.247
	c0,0-83.189-107.885-88.273-114.679c-1.025-1.409-3.034-1.709-4.486-0.641c-1.41,1.025-1.709,3.033-0.641,4.486
	c5.341,7.136,51.442,68.875,51.614,69.132c-7.733,41.787-9.443,108.611-10.127,135.7c-0.128,3.803-0.213,7.221-0.299,9.314
	c-112.414,26.063-148.005-5.982-153.816-12.434L392.294,1240.165z M385.543,1218.93L371.7,1200.6l12.818-23.542L385.543,1218.93z
	 M693.987,1099.039c0.94,0.812,2.264,1.195,3.503,0.555c11.109-5.811,48.238-16.962,52.255-13.202
	c3.076,4.785,3.589,12.391,1.325,19.44c-2.393,7.477-7.52,12.177-14.442,15.638c-15.809,7.947-29.823,14.143-39.992,17.817
	l-28.029-26.833c1.794-4.059,4.572-8.844,6.495-10.596c0.556-0.513,13.801-12.646,15.381-21.107c0.342-1.708,2.051-1.11,3.333-0.854
	c0.94,1.068,2.393,4.444,2.35,5.555c-0.256,2.094-2.094,7.35-3.162,10.169C692.534,1096.859,693.047,1098.227,693.987,1099.039z
	 M768.075,1159.796c4.102,0,7.435,3.333,7.435,7.392v113.909c0,4.103-3.333,7.435-7.435,7.435H654.166
	c-4.059,0-7.392-3.332-7.392-7.435v-84.727l39.693-36.574H768.075z M539.445,1194.148v194.149l-10.596-55.373
	c0.171-1.752,0.256-5.042,0.384-11.579c0.684-25.679,2.265-87.462,9.016-128.821C538.676,1193.08,539.06,1193.635,539.445,1194.148z
	 M352.729,1718.233l9.999-196.372l5.426-195.432c9.272,7.862,31.191,20.638,76.139,20.638c20.936,0,46.871-2.778,78.788-10.127
	l35.848,187.101l-28.627,190.646h-35.506c-1.196,0-2.136,0.939-2.136,2.137c0,1.196,0.94,2.136,2.136,2.136h34.865l-1.666,11.194
	l-41.445,0.854l25.508-221.367c0.042-0.213,0.042-0.384,0-0.598l-26.021-150.099c-0.214-1.154-1.325-1.966-2.478-1.752
	c-1.153,0.214-1.922,1.324-1.752,2.479l25.978,149.799l-23.627,205.217H444.42l21.064-192.569v-0.299
	c0-0.299-46.743-163.387-46.743-163.387c-0.47-1.709-2.264-2.692-3.973-2.222c-1.709,0.513-2.692,2.264-2.179,3.973l35.976,125.403
	v0.085l-6.537,37.984l-17.774,181.46c-0.042-0.042-59.603-6.28-59.603-6.28c-1.196-0.128-2.222,0.727-2.307,1.88
	c-0.128,1.196,0.726,2.222,1.88,2.35l59.646,6.238l-1.325,13.331L352.729,1718.233z M539.445,1697.041v53.793
	c-12.562-4.357-24.012-9.827-27.687-11.621l-0.684-2.308l19.783-0.385c1.538-0.042,2.862-1.196,3.076-2.734L539.445,1697.041z
	 M443.951,1718.96h39.693l-1.41,12.135l-39.693,0.812L443.951,1718.96z M435.918,1733.829l-10.639-4.614h0.128
	c1.666,0,3.034-1.239,3.205-2.863l19.783-201.841l4.272-24.653l6.366,22.218v0.043L435.918,1733.829z M445.574,1738.229
	l58.792-1.196l0.598,1.966c-5.255,1.41-15.553,5.512-30.208,17.519c-1.068,0.854-3.29,1.409-5.982,1.409
	c-8.204,0-21.192-5.042-23.671-14.143L445.574,1738.229z M416.178,1728.659c-5.811,2.35-14.484,7.007-25.636,16.407
	c-1.11,0.896-3.418,1.452-6.195,1.452c-8.375,0-21.022-4.785-23.586-13.801l0.556-7.52L416.178,1728.659z M350.593,1785.229
	c-0.256-1.667-0.641-4.103-0.897-7.008l76.908-1.025c-0.043,2.436-0.043,5.854,0.043,8.033
	C426.647,1785.229,354.481,1785.187,350.593,1785.229z M426.817,1772.924l-53.835,0.727c-1.068-8.46-5.896-16.407-13.758-22.517
	c-0.94-0.727-2.265-0.556-2.991,0.384c-0.727,0.94-0.556,2.265,0.384,2.991c6.751,5.255,11.023,12.006,12.006,19.185l-19.313,0.256
	c-0.598-10.126-0.042-24.013,5.725-34.865c0.299-0.513,0.556-0.982,0.812-1.409c5.127,10.382,19.355,15.253,28.499,15.253
	c4.443,0,7.99-1.025,10.34-2.948c9.485-7.989,16.962-12.305,22.047-14.612c3.803-1.709,6.323-2.35,7.392-2.521
	c2.051,1.068,14.826,7.393,14.826,7.862c-2.008,1.367-3.76,3.461-5.255,6.28C429.295,1755.021,427.415,1764.336,426.817,1772.924z
	 M594.135,1796.082c-4.273-0.043-155.995,0.085-159.883,0.043c-0.256-1.667-0.599-4.06-0.855-7.008h153.987
	c1.196,0,2.136-0.939,2.136-2.136s-0.94-2.137-2.136-2.137H456.811c-0.427-4.358-1.538-8.075-3.119-10.169
	c-1.154-1.538-4.017-0.769-3.803,1.324c0.086,0.684,0.427,1.282,0.726,1.88c1.111,2.18,1.795,4.529,1.923,6.965h-19.398
	c-0.47-7.733,0.171-15.51,1.837-23.072c3.717,1.966,7.093,4.571,9.87,7.733c0.769,0.897,1.581,1.88,2.735,2.137
	c1.88,0.385,3.119-1.923,1.965-3.333c-3.162-4.017-7.862-7.776-13.416-10.725c0.812-2.606,1.88-5.127,3.162-7.52
	c0.256-0.513,0.556-0.983,0.854-1.367c5.042,10.639,19.398,15.638,28.627,15.638c4.272,0,7.733-0.982,10.041-2.863
	c16.792-13.715,27.088-16.278,29.652-16.748c0.854,0.427,2.308,1.153,4.23,2.051c-5.982,2.99-9.827,8.289-11.921,16.364
	c-0.684,2.649,3.418,3.803,4.145,1.068c2.179-8.375,6.238-12.989,13.288-14.912c2.008,0.897,4.23,1.838,6.622,2.82
	c-4.529,4.102-9.186,10.81-8.887,16.962c0.128,2.735,4.443,2.521,4.23-0.213c-0.214-4.786,4.443-11.408,9.101-14.955
	c2.948,1.154,6.11,2.351,9.314,3.419c-4.273,3.76-7.477,8.759-9.101,14.271c-0.684,2.648,3.375,3.888,4.102,1.196
	c1.111-3.76,3.162-7.307,5.854-10.255c1.196-1.367,2.563-2.563,4.017-3.631c0.811,0.256,1.581,0.47,2.393,0.683
	c7.392,2.18,14.783,3.632,21.021,3.632c1.752,0,3.375-0.128,4.871-0.342c6.794-1.025,11.963,0.471,15.638,4.615
	c3.973,4.443,5.725,11.236,6.409,17.347C594.049,1787.109,594.178,1794.8,594.135,1796.082z M599.732,1786.66
	c-0.77-7.306-2.35-17.582-7.563-23.436c-5.127-5.768-12.391-8.032-21.406-6.665c-1.153,0.171-2.478,0.257-3.888,0.257
	c-6.067,0-13.544-1.624-21.021-3.889v-98.613l19.483-129.889c0.042-0.342,0.042-0.727-0.043-1.068l-19.44-101.562v-219.53
	c7.477,9.016,14.954,18.074,22.431,27.09c5.17,6.237,13.16,9.399,21.235,9.399l0.299,508.319c0,1.795,1.41,3.205,3.205,3.205
	h515.284c1.795,0,3.205-1.41,3.205-3.205c0-1.752-1.41-3.204-3.205-3.204H596.229v-505.927c6.024-1.325,11.665-4.615,15.852-9.571
	l28.285-26.063v78.788c0,7.648,6.195,13.844,13.801,13.844h113.909c7.648,0,13.844-6.195,13.844-13.844v-113.909
	c0-7.605-6.195-13.801-13.844-13.801h-74.644l6.623-6.109c0.684-0.642,1.025-2.649,0.983-2.777
	c12.732-4.743,38.711-17.433,38.711-17.433c8.118-3.119,14.441-10.169,17.432-19.27c2.906-8.931,2.094-18.458-2.136-24.995
	c-6.238-8.631-39.052,2.521-53.665,8.246c0.513-1.752,0.983-3.504,1.154-4.743c0.427-3.247-2.777-11.536-6.708-12.519
	c-2.82-0.684-6.024-1.196-8.503,0.385c-2.179,1.41-2.82,3.76-3.119,5.383c-0.94,4.828-9.614,14.101-13.459,17.562
	c-2.735,2.521-6.281,8.716-8.417,13.8l-66.098,50.461v-366.04h641.712l8.674,41.061l-17.048,64.346
	c-3.589,13.502,1.795,26.918,11.964,29.909l21.619,6.324c1.282,0.342,2.649,0.556,4.017,0.556c8.417,0,17.133-5.64,20.637-15.04
	c3.034,8.973,10.041,14.143,18.372,14.143c1.581,0,3.205-0.256,4.7-0.769l21.919-7.306c10.126-3.375,15.938-16.962,12.903-30.25
	l-14.185-62.467l7.178-40.505h18.586v356.896c0,0-65.115-82.292-65.628-82.634l-98.955-53.964
	c-0.128-0.811-55.716-41.786-56.143-42.085c-2.521-1.837-6.067,0.854-4.828,3.76c0,0,26.063,64.432,26.789,64.774l15.767,61.825
	H834.9c-1.752,0-3.205,1.453-3.205,3.204c0,1.752,1.453,3.205,3.205,3.205h341.001l6.708,26.191H834.9
	c-1.752,0-3.205,1.41-3.205,3.204c0,1.752,1.453,3.205,3.205,3.205h349.333c0,0-0.513,4.956,2.991,10.212
	c0.812,1.196,64.133,83.316,64.133,83.316c-9.486,9.016-18.031,19.697-14.399,26.191c4.743,7.691,14.869,14.058,25.209,15.938
	c2.051,0.385,4.017,0.556,5.938,0.556c5.085,0,9.699-1.282,13.502-3.718l75.242,96.861v371.595h-226.452
	c-1.752,0-3.204,1.452-3.204,3.204c0,1.795,1.452,3.205,3.204,3.205h229.656c1.795,0,3.204-1.41,3.204-3.205v-366.552l43.924,56.569
	v314.683c-1.795,0.085-3.461,0-4.999-0.214c-8.033-1.196-14.57,0.854-19.142,6.024c-6.794,7.605-8.161,22.025-7.99,29.075H599.732z
	 M1255.288,1241.446l22.389,28.841c-3.76,2.308-8.802,2.991-14.356,1.966c-8.545-1.538-17.133-6.879-20.851-12.861
	C1241.146,1256.999,1247.512,1249.138,1255.288,1241.446z M1448.84,1786.66h-67.38c-0.043-1.153,0.47-4.336,0.513-5.832h67.765
	C1449.48,1782.751,1448.883,1784.908,1448.84,1786.66z M1450.506,1776.556h-68.191c0.598-5.255,2.094-10.938,5.512-14.698
	c2.521-2.862,5.811-4.229,10.041-4.229c2.563,0,5.041,0.556,7.605,0.556c2.648,0,4.656-0.171,7.647-0.684
	c2.991,3.717,7.733,5.127,12.434,5.127c0.727,0,1.452-0.043,2.222-0.086c4.272-0.427,42.855-14.527,43.025-14.697
	c0.684-0.684,5.598,3.503,6.153,3.931c1.324,1.025,6.622,5.597,7.477,5.597c-3.717,0.854-7.178,1.196-10.083,0.94
	c-8.161-0.812-14.186,1.452-18.501,6.622C1453.069,1768.182,1451.446,1772.368,1450.506,1776.556z M1466.187,1745.279
	c-4.999,1.924-35.078,12.647-38.838,12.989c-3.547,0.342-6.751-0.299-9.144-1.794c16.235-3.675,34.48-12.52,38.753-14.655
	c0.043,0,0.043,0,0.043,0C1458.325,1742.075,1461.444,1742.887,1466.187,1745.279z M1457.214,1715.2h43.966l0.983,11.878
	l-44.778,0.77L1457.214,1715.2z M1460.504,1736.094l0.599-1.923l41.573-0.727l0.427,4.956c0.129,1.667,1.538,2.948,3.205,2.948
	l16.919-1.409l0.471,1.153c-4.443,2.436-14.271,7.605-24.653,11.707c-1.111,0.042-2.265,0.085-3.333,0.085
	c-5.555,0-8.204-0.939-8.802-1.452C1474.262,1741.178,1465.29,1737.461,1460.504,1736.094z M1507.803,1717.551l40.847-3.12
	l1.794,16.792l-41.23,3.461L1507.803,1717.551z M1528.482,1745.75c0,0,0,0,0.043,0c0.342,0.043,6.195,1.453,10.383,3.375
	c-8.76,5.341-26.063,14.741-29.61,15.767c-4.614,1.281-9.741,0.854-14.057-1.282c-0.77-0.385-1.795-0.939-2.734-1.794
	C1507.974,1757.072,1524.423,1748.057,1528.482,1745.75z M1531.772,1739.811l0.128-0.598l50.93-4.273l0.94,6.537
	c-1.794,8.076-13.331,13.203-20.722,13.203c-2.607,0-3.761-0.641-4.103-0.897
	C1545.744,1744.126,1536.601,1740.879,1531.772,1739.811z M1541.984,1610.69l34.352,44.265l5.598,52.64l-29.439,2.222
	L1541.984,1610.69z M1548.222,1710.158l-40.804,3.119l-13.673-164.711l43.282,55.758L1548.222,1710.158z M1500.796,1710.928h-43.667
	l-3.076-213.463l32.429,41.787L1500.796,1710.928z M1454.224,1734.299h0.085l-0.598,1.966c-5.042,2.521-24.653,11.921-40.121,14.74
	v-305.667l33.926,43.71l3.503,242.09c0,0.854,0.385,1.666,0.983,2.264C1452.6,1733.957,1453.411,1734.299,1454.224,1734.299z
	 M1589.197,1746.946c1.196,1.923,2.222,4.016,3.076,6.152c-4.358,2.563-8.161,5.981-11.066,9.955
	c-1.282,1.752,0.684,4.103,2.649,3.119c0.769-0.384,1.324-1.153,1.88-1.88c2.222-2.82,4.913-5.213,7.947-7.05
	c1.709,6.366,2.563,12.946,2.563,19.526c-5.47,0.299-10.938,0.598-16.45,0.896c0.556-2.179,1.068-4.357,1.624-6.537
	c0.128-0.555,0.256-1.11,0.171-1.666c-0.342-2.008-3.205-1.837-3.931-0.213c-1.154,2.819-1.88,5.725-2.052,8.63
	c0,0-114.507,6.195-114.55,6.195c-2.691,0.129-2.649,4.272,0.085,4.272h0.129l134.888-7.263c-0.085,2.265-0.214,4.145-0.342,5.512
	c-3.461,0.214-135.956,7.306-139.845,7.52c-0.641-6.622-0.555-18.714,4.786-25.08c2.521-2.991,6.025-4.486,10.639-4.486
	c0.727,0,1.495,0.042,2.308,0.128c4.102,0.385,8.973-0.257,14.228-1.581c1.239,1.709,3.076,3.204,5.427,4.358
	c3.289,1.623,6.964,2.436,10.596,2.436c2.222,0,4.401-0.299,6.537-0.897c4.572-1.324,24.953-12.562,32.857-17.604
	c3.418,1.837,7.349,4.272,11.792,7.563c1.923,1.41,4.614,2.137,7.905,2.137c8.502,0,21.277-5.213,25.764-14.698
	C1588.94,1746.562,1589.068,1746.775,1589.197,1746.946z M1584.155,1728.402l-29.438,2.479l-1.795-16.791l29.481-2.265
	L1584.155,1728.402z M1193.206,1150.738c-8.759-17.519,12.86-36.404,28.199-22.816c0.556,0.982,41.231,53.451,41.488,53.793
	c2.435,3.119,7.604-0.727,5.042-3.931c0,0-40.89-52.854-41.402-53.836c-1.667-3.247-2.308-6.922-1.838-10.597
	c1.838-14.313,19.611-21.234,30.464-11.579c0.813,0.727,158.815,203.978,158.815,204.021c-0.513,2.563-0.256,4.743,0.982,6.537
	c2.649,3.375,6.409,6.409,10.853,8.674l251.917,324.509l-29.054,22.56c0,0-367.493-474.181-368.39-475.334
	c-2.521-3.247-7.648,0.598-5.085,3.888l368.86,475.036l-29.098,22.56C1614.961,1694.222,1193.377,1151.08,1193.206,1150.738z"/>
<path style="fill:#E6325C;" d="M714.316,1257.047c-3.17-0.028-6.31-1.748-7.76-4.887c0,0-24.864-53.851-24.924-53.98
	c-4.559-9.874,10.872-17.22,15.518-7.164l19.502,42.24c0,0,72.63-80.294,72.854-80.542c7.32-8.093,20.099,3.256,12.676,11.466
	c0,0-81.307,89.886-81.528,90.131C718.953,1256.19,716.626,1257.068,714.316,1257.047z"/>
<g>
	<circle style="fill:#1DAE8F;" cx="1289.057" cy="526.887" r="13.506"/>
	<path style="fill:#2B2150;" d="M1289.056,543.598c-9.213,0-16.708-7.496-16.708-16.711c0-9.213,7.495-16.709,16.708-16.709
		c9.216,0,16.712,7.496,16.712,16.709C1305.768,536.102,1298.271,543.598,1289.056,543.598z M1289.056,516.586
		c-5.679,0-10.3,4.621-10.3,10.3c0,5.681,4.621,10.302,10.3,10.302c5.682,0,10.303-4.621,10.303-10.302
		C1299.358,521.208,1294.737,516.586,1289.056,516.586z"/>
</g>
</svg>
