<?xml version="1.0" encoding="iso-8859-1"?>
<!-- Uploaded to: SVG Repo, www.svgrepo.com, Generator: SVG Repo Mixer Tools -->
<!DOCTYPE svg PUBLIC "-//W3C//DTD SVG 1.1//EN" "http://www.w3.org/Graphics/SVG/1.1/DTD/svg11.dtd">
<svg fill="#000000" height="800px" width="800px" version="1.1" id="Capa_1" xmlns="http://www.w3.org/2000/svg" xmlns:xlink="http://www.w3.org/1999/xlink" 
	 viewBox="0 0 465 465" xml:space="preserve">
<g>
	<path d="M457.5,211.363H336.82v-18.897c0-32.293-14.645-62.262-40.18-82.223c-3.265-2.552-7.977-1.974-10.528,1.29
		c-2.551,3.264-1.974,7.977,1.29,10.528c21.874,17.098,34.418,42.76,34.418,70.405v18.897h-15.776
		c-3.457-16.543-18.107-29.026-35.638-29.126c-3.501-17.728-19.167-31.138-37.907-31.138s-34.406,13.411-37.907,31.138
		c-17.531,0.101-32.181,12.583-35.638,29.126H143.18v-18.897c0-27.646,12.544-53.308,34.417-70.405
		c3.263-2.551,3.841-7.264,1.29-10.528c-2.55-3.263-7.262-3.841-10.528-1.29c-25.534,19.96-40.179,49.929-40.179,82.223v18.897H7.5
		c-4.142,0-7.5,3.358-7.5,7.5c0,54.521,44.356,98.878,98.878,98.878h29.582c2.997,42.117,31.046,78.409,71.708,91.693
		c0.774,0.252,1.559,0.373,2.331,0.373c3.157,0,6.094-2.009,7.128-5.173c1.286-3.938-0.863-8.172-4.8-9.458
		c-34.474-11.262-58.367-41.831-61.331-77.434h15.061c3.772,37.471,35.494,66.82,73.943,66.82s70.17-29.349,73.943-66.82h15.061
		c-2.964,35.603-26.857,66.172-61.331,77.434c-3.937,1.287-6.086,5.521-4.8,9.458c1.034,3.164,3.971,5.173,7.128,5.173
		c0.771,0,1.557-0.12,2.331-0.373c40.663-13.284,68.711-49.576,71.709-91.693h29.582c54.521,0,98.878-44.356,98.878-98.878
		C465,214.721,461.642,211.363,457.5,211.363z M194.807,197.236h6.556h32.275c4.142,0,7.5-3.358,7.5-7.5s-3.358-7.5-7.5-7.5h-23.548
		c3.143-9.367,11.999-16.138,22.411-16.138c13.034,0,23.637,10.604,23.637,23.638c0,4.142,3.358,7.5,7.5,7.5h6.556
		c11.925,0,21.627,9.702,21.627,21.627c0,11.925-9.702,21.626-21.627,21.626h-17.705c-7.642,0-14.757,3.034-19.989,8.133
		c-5.231-5.099-12.347-8.133-19.989-8.133h-17.704c-11.925,0-21.627-9.702-21.627-21.626
		C173.18,206.938,182.881,197.236,194.807,197.236z M50.428,287.282h47.347c4.142,0,7.5-3.358,7.5-7.5s-3.358-7.5-7.5-7.5H34.256
		c-3.927-4.742-7.334-9.927-10.154-15.459h55.603c4.142,0,7.5-3.358,7.5-7.5s-3.358-7.5-7.5-7.5h-61.51
		c-1.419-4.981-2.391-10.149-2.863-15.459H158.18v76.378H98.878C80.84,302.741,64.122,297.007,50.428,287.282z M173.18,310.241
		v-61.843c6.065,4.453,13.542,7.091,21.627,7.091h17.704c5.45,0,10.336,3.242,12.489,8.172v105.409
		C195.821,365.37,173.18,340.409,173.18,310.241z M240,369.071V263.662c2.153-4.93,7.039-8.172,12.489-8.172h17.705
		c8.084,0,15.562-2.638,21.627-7.091v61.843C291.82,340.409,269.179,365.37,240,369.071z M306.82,302.741v-76.378h142.847
		c-0.472,5.31-1.444,10.478-2.863,15.459h-61.51c-4.142,0-7.5,3.358-7.5,7.5s3.358,7.5,7.5,7.5h55.603
		c-2.82,5.532-6.227,10.717-10.154,15.459h-63.519c-4.142,0-7.5,3.358-7.5,7.5s3.358,7.5,7.5,7.5h47.347
		c-13.694,9.726-30.412,15.459-48.45,15.459H306.82z"/>
	<path d="M232.5,136.099c22.305,0,40.452-18.147,40.452-40.453S254.805,55.193,232.5,55.193c-22.306,0-40.453,18.147-40.453,40.453
		S210.194,136.099,232.5,136.099z M232.5,70.193c14.034,0,25.452,11.418,25.452,25.453s-11.418,25.453-25.452,25.453
		c-14.035,0-25.453-11.418-25.453-25.453S218.465,70.193,232.5,70.193z"/>
</g>
</svg>