<?xml version="1.0" encoding="utf-8"?>
<!-- Generator: Adobe Illustrator 27.5.0, SVG Export Plug-In . SVG Version: 6.00 Build 0)  -->
<svg version="1.1" xmlns="http://www.w3.org/2000/svg" xmlns:xlink="http://www.w3.org/1999/xlink" x="0px" y="0px"
	 viewBox="0 0 500 500" style="enable-background:new 0 0 500 500;" xml:space="preserve">
<g id="BACKGROUND">
</g>
<g id="OBJECTS">
	<g>
		<g>
			<linearGradient id="SVGID_1_" gradientUnits="userSpaceOnUse" x1="249.9999" y1="467.1565" x2="249.9999" y2="32.844">
				<stop  offset="0" style="stop-color:#CCE4FC"/>
				<stop  offset="1" style="stop-color:#F6F9FE"/>
			</linearGradient>
			<circle style="fill:url(#SVGID_1_);" cx="250" cy="250" r="217.156"/>
			<g>
				<path style="fill:#EBF3FE;" d="M451.558,158.694c0,2.058-1.668,3.726-3.728,3.726h-61.485c-2.058,0-3.727-1.668-3.727-3.726
					v-30.996c0-2.057,1.669-3.728,3.727-3.728h61.485c2.06,0,3.728,1.671,3.728,3.728V158.694z"/>
				<path style="fill:#EBF3FE;" d="M128.91,163.95c0,4.116-3.336,7.452-7.453,7.452H55.04c-4.115,0-7.454-3.336-7.454-7.452v-34
					c0-4.115,3.339-7.454,7.454-7.454h66.416c4.117,0,7.453,3.338,7.453,7.454V163.95z"/>
				<path style="fill:#EBF3FE;" d="M482.489,175.788c0,3.409-2.762,6.172-6.17,6.172h-49.521c-3.408,0-6.172-2.764-6.172-6.172
					v-26.735c0-3.406,2.764-6.17,6.172-6.17h49.521c3.408,0,6.17,2.763,6.17,6.17V175.788z"/>
				<path style="fill:#EBF3FE;" d="M65.631,181.349c0,2.293-1.86,4.152-4.154,4.152H28.152c-2.293,0-4.152-1.859-4.152-4.152
					v-17.992c0-2.294,1.858-4.153,4.152-4.153h33.325c2.293,0,4.154,1.859,4.154,4.153V181.349z"/>
			</g>
		</g>
		<g>
			<g>
				<g>
					<path style="fill:#393280;" d="M358.719,419.048c0,5.522-4.477,10-10,10H176.147c-5.522,0-16.996-5.577-16.996-14.733
						l6.996-321.124c0-5.522,4.478-10,10-10l166.162-5.885c9.343,0,16.41,10.362,16.41,15.885V419.048z"/>
					<path style="fill:#9C93EE;" d="M351.652,413.135c0,5.523-4.478,10-10,10H169.08c-5.522,0-10-4.477-10-10V87.278
						c0-5.522,4.478-10,10-10h172.572c5.522,0,10,4.478,10,10V413.135z"/>
					
						<linearGradient id="SVGID_00000041978484186220405660000015759175612721881226_" gradientUnits="userSpaceOnUse" x1="255.3665" y1="388.9096" x2="255.3665" y2="87.7651">
						<stop  offset="0" style="stop-color:#CCE4FC"/>
						<stop  offset="1" style="stop-color:#F6F9FE"/>
					</linearGradient>
					<path style="fill:url(#SVGID_00000041978484186220405660000015759175612721881226_);" d="M342.309,379.879
						c0,4.987-4.043,9.03-9.03,9.03H177.454c-4.987,0-9.03-4.043-9.03-9.03V96.795c0-4.987,4.043-9.03,9.03-9.03h155.825
						c4.987,0,9.03,4.043,9.03,9.03V379.879z"/>
					
						<ellipse transform="matrix(0.1608 -0.987 0.987 0.1608 -187.0585 592.1364)" style="fill:#ADAFEC;" cx="254.667" cy="406.065" rx="11.714" ry="11.714"/>
					<path style="fill:#EBF5FF;" d="M332.518,243.875c1.522-0.354,2.604-0.778,3.064-1.287c1.917-2.121-0.272-8.548-4.678-15.566
						v-14.688c0-11.649-9.444-21.093-21.093-21.093h-1.529c-0.024-0.008-0.048-0.014-0.072-0.022
						c-0.118-0.036-0.234-0.07-0.35-0.103c-0.085-0.024-0.171-0.051-0.255-0.073c-0.132-0.035-0.259-0.065-0.385-0.096
						c-0.065-0.016-0.131-0.033-0.193-0.048c-0.189-0.043-0.374-0.081-0.551-0.113c-0.248-0.045-0.474-0.114-0.689-0.194
						c-0.055-0.02-0.107-0.041-0.16-0.063c-0.202-0.086-0.396-0.182-0.57-0.299c-0.005-0.003-0.011-0.006-0.016-0.009
						c-0.181-0.122-0.343-0.265-0.497-0.418c-0.037-0.037-0.074-0.076-0.11-0.115c-0.141-0.152-0.273-0.315-0.394-0.495
						c-0.006-0.009-0.013-0.017-0.019-0.025c-0.125-0.19-0.236-0.4-0.341-0.62c-0.024-0.052-0.048-0.105-0.072-0.158
						c-0.093-0.211-0.18-0.431-0.258-0.665c-0.006-0.017-0.012-0.03-0.017-0.047c-0.083-0.253-0.155-0.521-0.222-0.799
						c-0.016-0.066-0.031-0.131-0.046-0.197c-0.058-0.257-0.111-0.521-0.159-0.796c-0.005-0.029-0.012-0.058-0.017-0.088
						c-0.051-0.302-0.096-0.617-0.138-0.939c-0.011-0.087-0.022-0.176-0.032-0.264c-0.033-0.275-0.065-0.557-0.094-0.845
						c-0.006-0.063-0.013-0.121-0.018-0.184c-0.032-0.328-0.061-0.667-0.089-1.01c-0.014-0.168-0.027-0.336-0.041-0.507
						c-0.012-0.15-0.023-0.302-0.035-0.454c-0.107-1.425-0.213-2.958-0.379-4.564c-0.002-0.018-0.004-0.035-0.006-0.053
						c-0.324-3.113-0.881-6.488-2.15-9.838c-4.218-11.133-23.257-9.847-31.275-7.425c-11.254,3.397-11.839,14.229-6.847,16.468
						c0.818,2.943,0.811,12.39-2.531,18.574c-3.342,6.186-10.898,13.872-2.93,25.237c0.885,1.262,2.109,2.365,3.58,3.323
						c-1.272,1.191-2.528,2.339-3.697,3.356c-4.676,4.07-12.868,10.505-16.828,13.588h-12.007c-0.41-0.823-1.252-1.395-2.234-1.395
						c-6.428,0-7.684,0.431-7.684-2.023v-5.262h20.307h5.399c4.412,0,7.99-3.577,7.99-7.99v-66.016c0-4.413-3.578-7.99-7.99-7.99
						h-74.738v81.996h20.431v5.262c0,2.825,1.671,5.255,4.075,6.372c0.445,0.405,1.029,0.658,1.679,0.658h-12.296v2.441v5.135v5.27
						V369h42.229h13.186c3.883,0,7.031-3.148,7.031-7.03v-58.136c5.056,12.982,14.053,32.016,22.698,43.243
						c0,0,0.948,0.01,2.357-0.242c0.065,0.08,0.127,0.159,0.191,0.24c0.065,0.081,0.13,0.163,0.194,0.244
						c0.093,0.116,0.185,0.232,0.277,0.35c0.067,0.086,0.135,0.172,0.202,0.258c0.101,0.127,0.201,0.256,0.302,0.384
						c0.055,0.07,0.109,0.14,0.164,0.21c0.122,0.156,0.243,0.313,0.364,0.469c0.038,0.049,0.075,0.098,0.113,0.146
						c0.161,0.209,0.321,0.417,0.48,0.625c0.476,0.624,0.933,1.237,1.355,1.821c-1.818,0.788-3.257,2.438-2.969,4.828
						c-1.112,0.554-1.854,1.352-1.64,2.407c0.028,0.143,0.17,0.248,0.318,0.28c-0.218,0.37-0.455,0.774-0.703,1.204
						c-0.996,0.467-1.821,1.122-2.281,1.973c-0.153,0.284-0.11,0.719,0.158,0.927c0.042,0.033,0.086,0.065,0.13,0.094
						c0.011,0.007,0.02,0.014,0.03,0.021c0.068,0.044,0.15,0.066,0.236,0.08c-1.937,3.618-3.838,7.805-3.632,10.157
						c-0.208,0.387-0.255,0.856-0.08,1.296c0.315,0.794,1.212,1.183,2.003,0.866c0.367-0.144,5.121-2.056,11.004-5.53
						c0.637-0.376,1.288-0.772,1.947-1.184h28.352c2.068,0,3.744-1.676,3.744-3.744c0-1.269-0.635-2.386-1.601-3.064
						c0.624-0.301,1.247-0.603,1.855-0.931c0.75-0.403,1.03-1.342,0.625-2.091c-0.306-0.563-0.907-0.86-1.506-0.804
						c0.229-2.7-1.714-6.659-2.727-6.368c-0.34,0.098-0.782,0.261-1.287,0.436l-0.701-11.741c0.346-0.217,0.691-0.421,1.039-0.666
						c0,0-0.894-18.306-1.303-28.251c-0.003-0.073-0.006-0.144-0.009-0.217c-0.014-0.331-0.027-0.655-0.039-0.967
						c-0.005-0.112-0.009-0.218-0.014-0.327c-0.01-0.255-0.02-0.506-0.028-0.744c-0.007-0.171-0.013-0.329-0.018-0.491
						c-0.007-0.168-0.013-0.339-0.019-0.497c-0.008-0.22-0.015-0.422-0.021-0.621h15.945c1.453,0,2.739-0.661,3.616-1.685
						c2.641-0.575,4.28-2.149,2.278-5.027c-0.932-1.34-1.537-3.253-1.997-5.476c0.162-0.151,0.334-0.293,0.491-0.449
						c0.186-0.185,0.355-0.384,0.535-0.575c0.261-0.278,0.523-0.555,0.77-0.847c0.18-0.215,0.345-0.44,0.517-0.661
						c0.224-0.289,0.447-0.577,0.656-0.878c0.162-0.233,0.313-0.474,0.465-0.714c0.196-0.308,0.388-0.616,0.567-0.935
						c0.141-0.247,0.272-0.499,0.402-0.752c0.169-0.328,0.329-0.659,0.48-0.997c0.115-0.258,0.227-0.517,0.333-0.78
						c0.141-0.351,0.269-0.708,0.391-1.068c0.089-0.262,0.179-0.522,0.257-0.789c0.113-0.383,0.208-0.773,0.3-1.166
						c0.06-0.255,0.126-0.507,0.177-0.766c0.085-0.439,0.145-0.885,0.203-1.332c0.028-0.223,0.069-0.442,0.091-0.665
						c0.065-0.676,0.103-1.359,0.103-2.053v-28.848h11.404v-7.575H332.518z M265.999,272.896c-3.46,1.419-8.115,3.091-11.079,4.4
						c-0.37,0.164-0.703,0.325-1.017,0.485c-0.09,0.046-0.172,0.091-0.258,0.137c-0.217,0.116-0.42,0.229-0.606,0.342
						c-0.077,0.046-0.154,0.092-0.227,0.138c-0.194,0.122-0.369,0.241-0.528,0.356c-0.035,0.026-0.077,0.053-0.11,0.078
						c-0.19,0.145-0.354,0.283-0.489,0.414c-0.014,0.014-0.023,0.025-0.036,0.038c-0.117,0.117-0.211,0.227-0.285,0.331
						c-0.017,0.022-0.029,0.043-0.043,0.064c-0.064,0.1-0.109,0.191-0.134,0.275c-0.003,0.01-0.008,0.021-0.01,0.03
						c-0.046,0.194,0.017,0.342,0.182,0.433c0.001,0.001,0.001,0.002,0.002,0.002h0.001c0.37,0.201,1.24,0.116,2.533-0.396
						c-0.098,0.043-0.193,0.087-0.291,0.13c-0.229,0.101-0.456,0.202-0.683,0.306c-0.2,0.09-0.4,0.181-0.599,0.273
						c-0.372,0.174-0.742,0.351-1.107,0.531c-0.17,0.085-0.335,0.171-0.503,0.257c-0.16,0.082-0.322,0.162-0.48,0.245
						c0.005-0.001,0.011-0.002,0.016-0.003c-2.032,1.066-3.911,2.238-5.488,3.528v-28.57v-5.27h21.239V272.896z M265.999,240.263
						h-3.507c1.218-0.457,2.399-0.909,3.507-1.339V240.263z M285.948,349.795c-0.156-0.02-0.298-0.012-0.396,0.063
						c-0.119,0.089-0.254,0.198-0.398,0.316l-5.236-9.83c0.069-0.108,0.146-0.204,0.214-0.316c0,0-7.372-21.925-12.104-32.115
						h14.795c0.754,7.168,1.861,15.207,3.126,22.871V349.795z M290.524,352.129v-8.511c0.406,0.069,0.869,0.128,1.362,0.177
						c0.164,0.727,0.332,1.476,0.497,2.222c0.279,1.267,0.548,2.521,0.773,3.633C292.019,350.054,291.038,350.847,290.524,352.129z"
						/>
				</g>
				<g>
					<g>
						<g>
							<g>
								<path style="fill:#8BCED1;" d="M272.071,370.937c0,1.264,1.024,2.288,2.287,2.288l0,0c1.264,0,2.289-1.024,2.289-2.288
									v-58.694c0-1.265-1.025-2.289-2.289-2.289l0,0c-1.263,0-2.287,1.024-2.287,2.289V370.937z"/>
								<path style="fill:#FFFFFF;" d="M296.2,372.081c0,2.068-1.676,3.744-3.744,3.744H257.51c-2.067,0-3.743-1.676-3.743-3.744
									l0,0c0-2.067,1.676-3.744,3.743-3.744h34.946C294.524,368.336,296.2,370.013,296.2,372.081L296.2,372.081z"/>
								<path style="fill:#FFFFFF;" d="M272.071,317.648v53.289c0,1.264,1.024,2.288,2.287,2.288c1.264,0,2.289-1.024,2.289-2.288
									v-52.164C275.124,318.367,273.6,317.983,272.071,317.648z"/>
							</g>
							<g>
								<path style="fill:#ADAFEC;" d="M317.028,219.159c0-11.649-9.444-21.093-21.093-21.093h-22.722
									c-11.649,0-21.092,9.443-21.092,21.093v67.965c0,11.649,9.442,21.093,21.092,21.093h22.722
									c11.648,0,21.093-9.443,21.093-21.093V219.159z"/>
								<path style="opacity:0.5;fill:#393280;" d="M295.935,198.066h-22.722c-5.265,0-10.075,1.934-13.77,5.122
									c1.157-0.195,2.342-0.304,3.555-0.304h22.722c11.649,0,21.093,9.442,21.093,21.092v67.966c0,6.384-2.84,12.102-7.322,15.971
									c9.956-1.691,17.538-10.352,17.538-20.789v-67.965C317.028,207.509,307.584,198.066,295.935,198.066z"/>
							</g>
							<path style="fill:#ADAFEC;" d="M311.177,309.954c0,2.643-2.143,4.784-4.784,4.784h-59.49c-2.643,0-4.784-2.141-4.784-4.784
								l0,0c0-2.643,2.142-4.784,4.784-4.784h59.49C309.034,305.169,311.177,307.311,311.177,309.954L311.177,309.954z"/>
						</g>
						<g>
							<g>
								<g>
									<g>
										<g>
											<path style="fill:#FFD5CF;" d="M252.375,349.304c0,0,9.047,10.741,9.45,12.821c0,0,5.026,1.165,10.246-3.636
												l-7.315-13.732L252.375,349.304z"/>
											<path style="fill:#FFBDAE;" d="M268.368,351.539l-3.612-6.782l-12.381,4.547c0,0,3.179,3.773,5.852,7.281
												c3.077-0.935,5.984-2.262,8.713-4.121C267.315,352.214,267.821,351.903,268.368,351.539z"/>
										</g>
										<g>
											<g>
												<path style="fill:#30393E;" d="M275.917,364.311c-10.855,9.64-26.337,17.184-26.337,17.184
													c-2.254-3.316,6.545-16.745,7.078-17.925c-1.067-5.806,7.874-7.508,8.942-3.538c2.5,0.05,4.897-2.47,6.074-3.349
													C272.85,355.803,278.666,362.005,275.917,364.311z"/>
												<path style="fill:#1A1F21;" d="M271.675,356.683c-0.518,0.387-1.271,1.091-2.166,1.754
													c-0.834,3.56-3.38,7.02-5.382,9.846c-1.626,2.264-2.733,4.586-3.392,6.996c4.827-2.955,10.444-6.762,15.182-10.968
													C278.666,362.005,272.85,355.803,271.675,356.683z"/>
											</g>
											<g>
												<path style="fill:#FFFFFF;" d="M262.157,377.009c-5.883,3.475-10.637,5.387-11.004,5.53
													c-0.791,0.316-1.688-0.072-2.003-0.866c-0.315-0.791,0.071-1.69,0.863-2.004c0.165-0.065,16.455-6.62,25.981-17.625
													c0.559-0.643,1.532-0.714,2.179-0.155c0.644,0.557,0.715,1.533,0.156,2.177
													C273.592,369.538,267.423,373.9,262.157,377.009z"/>
											</g>
											<g>
												<path style="fill:#FFFFFF;" d="M255.501,365.914c0.496-0.207,0.794-0.633,1.293-0.858
													c0.613-0.276,1.303-0.449,1.965-0.549c1.294-0.196,2.793,0.251,4.018-0.101c0.808-0.233,0.885-1.389,0.159-1.77
													c-1.75-0.919-8.563,0.056-7.963,3.005C255.015,365.854,255.305,365.997,255.501,365.914L255.501,365.914z"/>
											</g>
											<g>
												<path style="fill:#FFFFFF;" d="M252.595,370.12c0.011,0.007,0.02,0.014,0.03,0.021c0.221,0.143,0.568,0.113,0.777-0.031
													c2.28-1.58,5.291-2.002,8.003-1.627c0.884,0.121,1.429-1.06,0.569-1.515c-2.646-1.401-8.143-0.686-9.668,2.132
													c-0.153,0.284-0.11,0.719,0.158,0.927C252.508,370.059,252.552,370.09,252.595,370.12L252.595,370.12z"/>
											</g>
										</g>
									</g>
									<g>
										<path style="fill:#9B68C4;" d="M261.41,280.563c0,0-29.281,5.107-34.546,16.39c-1.23,2.637,13.183,39.372,26.717,56.949
											c0,0,8.299,0.142,12.674-7.049c0,0-8.918-26.523-13.433-34.785c0,0,17.234-0.526,21.476-1.581
											C278.54,309.432,296.837,278.762,261.41,280.563z"/>
										<path style="fill:#633870;" d="M261.41,280.563c0,0-14.619,2.552-25.055,8.028c6.31-1.406,12.745-2.028,18.632-0.458
											c9.14,2.109,5.273,7.383,0.352,11.952c-5.274,4.922-10.898,8.437-7.734,16.171c2.813,7.733,7.383,13.357,9.141,21.795
											c0.936,4.871,1.476,9.842,2.146,14.806c2.489-0.929,5.345-2.685,7.364-6.004c0,0-8.918-26.523-13.433-34.785
											c0,0,17.234-0.526,21.476-1.581C278.54,309.432,296.837,278.762,261.41,280.563z"/>
										<path style="fill:#4B2B56;" d="M268.123,296.375c0.095-6.658,6.137-8.565,9.505-12.999
											c-0.514-0.316-1.074-0.61-1.678-0.883c-4.662,1.472-9.151,3.319-10.915,7.639c-1.166,2.855-0.56,8.797-0.41,11.813
											c0.149,3.064,2.263,9.419,2.978,9.364c0.699-0.055,1.377-0.113,2.022-0.173
											C270.19,306.302,268.052,301.238,268.123,296.375z"/>
									</g>
								</g>
								<g>
									<g>
										<g>
											<path style="fill:#FFD5CF;" d="M276.647,344.757c0,0,3.154,13.186,3.23,15.303c0,0,5.976,6.384,11.877,2.449
												l-1.253-20.967L276.647,344.757z"/>
											<path style="fill:#FFBDAE;" d="M291.25,354.062l-0.748-12.52l-13.855,3.215c0,0,0.979,4.094,1.859,8.085
												C282.54,353.806,286.952,354.339,291.25,354.062z"/>
										</g>
										<g>
											<path style="fill:#30393E;" d="M294.112,367.46c-13.568,5.168-30.718,6.737-30.718,6.737
												c-0.932-3.899,12.053-13.339,12.97-14.254c1.06-5.807,10.023-4.231,9.617-0.141c2.32,0.935,5.454-0.572,6.866-0.979
												C294.259,358.418,297.499,366.279,294.112,367.46z"/>
											<g>
												<path style="fill:#FFFFFF;" d="M276.745,374.46c-6.733,1.165-11.854,1.269-12.249,1.272
													c-0.851,0.016-1.553-0.665-1.566-1.52c-0.014-0.852,0.665-1.555,1.518-1.568c0.178-0.003,17.733-0.359,30.54-7.275
													c0.751-0.403,1.686-0.125,2.093,0.626c0.405,0.749,0.125,1.688-0.625,2.091
													C290.087,371.525,282.771,373.418,276.745,374.46z"/>
											</g>
											<g>
												<path style="fill:#FFFFFF;" d="M274.452,361.728c0.537-0.019,0.967-0.312,1.512-0.346
													c0.672-0.042,1.379,0.042,2.033,0.184c1.281,0.274,2.522,1.225,3.794,1.329c0.838,0.068,1.319-0.985,0.775-1.599
													c-1.31-1.479-8.028-2.981-8.512-0.011C274.019,361.497,274.24,361.735,274.452,361.728L274.452,361.728z"/>
											</g>
											<g>
												<path style="fill:#FFFFFF;" d="M270.245,364.629c0.007,0.011,0.014,0.02,0.022,0.03c0.154,0.211,0.49,0.308,0.736,0.246
													c2.692-0.67,5.658,0.002,8.061,1.315c0.782,0.427,1.71-0.485,1.067-1.215c-1.976-2.248-7.371-3.526-9.794-1.432
													c-0.246,0.21-0.359,0.633-0.181,0.922C270.184,364.541,270.215,364.586,270.245,364.629L270.245,364.629z"/>
											</g>
										</g>
									</g>
									<g>
										<path style="fill:#9B68C4;" d="M279.575,281.661c0,0-9.424,4.746-11.206,11.601c-1.782,6.855,1.863,36.385,5.93,56.598
											c0,0,8.635,3.305,17.6-3.006c0,0-1.595-32.675-1.5-34.433c0.094-1.758,11.66-0.879,13.699-4.043
											c2.038-3.164,3.585-20.565,0-28.825L279.575,281.661z"/>
										<path style="fill:#633870;" d="M304.098,279.552l-24.523,2.108c0,0-9.424,4.746-11.206,11.601
											c-0.163,0.629-0.28,1.454-0.356,2.44c2.429,1.137,7.951,0.517,9.121,0.517c4.569,0,14.061,3.164,11.953,9.492
											c-0.704,2.108-3.165,2.812-3.516,4.569c-0.703,2.461,1.405,4.923,2.108,7.031c2.054,4.694,2.397,9.388,3.474,13.878
											c-0.4-8.661-0.804-17.858-0.755-18.769c0.094-1.758,11.66-0.879,13.699-4.043
											C306.135,305.213,307.682,287.812,304.098,279.552z"/>
									</g>
								</g>
							</g>
							<g>
								<path style="fill:#633870;" d="M247.91,183.009c-4.992-2.239-4.407-13.07,6.847-16.468
									c8.019-2.422,27.058-3.708,31.275,7.425c4.218,11.132,0.593,22.56,6.568,23.646c5.977,1.087,19.102,8.117,5.626,23.936
									c-13.476,15.819-47.81,16.64-55.777,5.272c-7.968-11.365-0.412-19.052,2.93-25.237
									C248.721,195.399,248.728,185.953,247.91,183.009z"/>
								<path style="fill:#4B2B56;" d="M285.688,208.216c-1.523-3.747-4.966-5.013-4.966-5.013
									c-6.253-0.445-11.27-18.773-11.27-18.773c-3.281-1.172-18.155-4.209-18.155-4.209c-2.929,2.578-2.403,8.311-2.403,11.709
									c0,5.624-2.345,12.069-0.352,17.459c1.288,3.516,7.265,5.858,5.154,9.96c-1.64,3.281-4.569,5.86-6.327,9.141
									c-0.355,0.632-0.653,1.276-0.928,1.927c8.207,5.017,23.829,5.525,36.688,0.917
									C284.44,224.501,286.815,210.994,285.688,208.216z"/>
								<path style="fill:#4B2B56;" d="M292.6,197.612c-4.449-0.809-3.576-7.355-4.583-15.241c-0.906,2.435-2.04,4.826-2.799,7.45
									c-1.055,3.515-2.93,9.374,1.29,11.483c4.101,1.991,8.435,2.461,11.951,5.624c3.204,2.879,3.839,6.309,3.227,9.805
									C308.934,204.287,297.932,198.581,292.6,197.612z"/>
								<g>
									<g>
										<path style="fill:#8A41B6;" d="M248.91,180.132c-0.788-4.462,2.036-8.122,5.812-10.201c2.795-1.54,6.303-1.727,9.371-2.36
											c0.3-0.063,0.234-0.558-0.071-0.535c-4.239,0.325-8.58,0.687-12.139,3.234c-3.266,2.338-4.968,6.267-3.45,9.993
											C248.552,180.556,248.966,180.45,248.91,180.132L248.91,180.132z"/>
									</g>
									<g>
										<path style="fill:#8A41B6;" d="M246.762,203.751c-1.813,3.239-5.046,6.484-5.225,10.402
											c-0.145,3.162,0.849,6.498,3.733,8.158c0.357,0.205,0.895-0.238,0.608-0.609c-2.275-2.947-3.836-5.539-2.92-9.434
											c0.703-2.988,2.837-5.585,3.849-8.497C246.817,203.745,246.777,203.728,246.762,203.751L246.762,203.751z"/>
									</g>
									<g>
										<path style="fill:#8A41B6;" d="M270.299,167.308c-1.147,5.564,3.976,11.07,8.545,13.553
											c0.34,0.186,0.707-0.264,0.419-0.543c-3.832-3.727-9.071-6.919-8.867-12.997
											C270.397,167.266,270.31,167.253,270.299,167.308L270.299,167.308z"/>
									</g>
									<g>
										<path style="fill:#8A41B6;" d="M267.489,167.64c-2.034,0.524-4.027,1.477-5.305,3.207
											c-1.18,1.601-2.396,3.972-1.901,6.005c0.086,0.354,0.648,0.461,0.814,0.106c0.785-1.696,0.814-3.521,1.795-5.189
											c1.067-1.811,2.774-3.126,4.653-3.993C267.625,167.74,267.566,167.62,267.489,167.64L267.489,167.64z"/>
									</g>
								</g>
							</g>
							<g>
								<path style="fill:#30393E;" d="M262.486,222.134c-0.378,4.325-2.344,54.84-3.163,58.121c-0.82,3.28,33.747,4.335,37.263,0
									c3.516-4.336-4.219-65.955-11.718-68.424C277.368,209.362,263.307,212.76,262.486,222.134z"/>
								<g>
									<path style="fill:#FFF9F3;" d="M268.367,228.461c-0.096-7.266-1.077-15.351-1.077-15.351
										c-2.811,1.172-9.49,4.453-10.392,5.606c-0.169,0.217-0.284,0.571-0.35,1.051c-2.512,2.579-9.179,9.347-14.216,13.732
										c-6.327,5.508-19.101,15.351-19.101,15.351s4.219,2.813,9.023,3.047c4.158,0.202,21.369-6.699,25.931-8.561
										c-0.105,13.47-1.135,33.059-1.556,33.988c-0.587,1.289-10.547,4.569-15.586,6.796c-5.038,2.226-4.688,4.218-0.938,2.695
										c3.749-1.523,22.03-4.219,23.768-8.438C265.612,274.162,268.463,235.727,268.367,228.461z"/>
									<path style="fill:#EADFD3;" d="M260.624,271.677c1.013-6.834,1.182-13.753,2.109-20.587
										c0.506-3.545-0.908-14.429-2.869-14.091c-4.492,0.773-9.364,2.868-13.246,4.894c-6.066,2.898-11.917,6.173-17.768,9.438
										c1.062,0.291,2.214,0.509,3.403,0.566c4.158,0.202,21.369-6.699,25.931-8.561c-0.105,13.47-1.135,33.059-1.556,33.988
										c-0.587,1.289-10.547,4.569-15.586,6.796c-3.231,1.429-4.237,2.754-3.56,3.124c5.307-2.113,10.659-4.076,15.801-6.454
										C257.503,278.766,259.95,276.32,260.624,271.677z"/>
								</g>
								<g>
									<path style="fill:#FFF9F3;" d="M279.735,210.182c0,0-0.611,28.826-0.669,37.38c-0.058,8.555-2.05,31.99-4.862,34.333
										c-2.813,2.344-6.935,6.924-6.561,12.891c0.117,1.874,2.227,0.351,3.867-1.875c1.64-2.227,10.897-5.274,16.99-0.235
										c6.094,5.039,9.609,18.045,14.063,19.803c4.451,1.758,13.474,0.938,9.725-4.452c-3.749-5.391-2.226-20.037-7.147-26.952
										c-3.309-4.648-2.46-31.638-3.866-42.301C299.867,228.111,291.926,210.638,279.735,210.182z"/>
									<path style="fill:#F4EBE4;" d="M294.037,253.453c2.73,0.324,5.446,0.69,8.165,1.027
										c-0.217-6.136-0.433-11.941-0.929-15.707c-1.137-8.621-6.549-21.689-15.021-26.619c2.243,3.66,4.513,7.384,6.52,11.176
										c1.519,2.954,3.29,6.16,3.628,9.535c0.59,5.737-5.569,7.594-9.956,9.028c-2.422,0.757-4.875,1.423-7.34,2.089
										c-0.018,1.402-0.031,2.62-0.038,3.58c-0.009,1.302-0.063,2.952-0.157,4.816c1.715,0.024,3.406,0.063,5.087,0.063
										C287.371,252.441,290.662,253.031,294.037,253.453z"/>
									<path style="fill:#EADFD3;" d="M302.491,262.141c-0.067-1.559-0.128-3.141-0.185-4.719c-4.103,0-8.209,0.142-12.309,0.17
										c-3.32,0.022-7.863-0.643-11.44,0.256c-0.077,0.997-0.161,2.015-0.254,3.042c3.167,1.127,7.275,0.87,10.309,0.969
										C293.228,262.009,297.866,262.159,302.491,262.141z"/>
									<path style="fill:#EADFD3;" d="M299.973,278.388c-0.578-0.135-1.197-0.139-1.774-0.331
										c-2.833-0.942-16.145-0.326-19.44-1.763c-0.333-0.147-0.635,0.216-0.389,0.504c1.33,1.564,3.198,2.211,5.163,2.445
										c-1.296,0.365-2.545,0.785-3.716,1.252c-5.359,2.136-9.091,5.682-10.57,11.283c-0.06,0.223,0.252,0.444,0.413,0.241
										c3.291-4.163,6.924-7.549,11.934-9.491c2.822-1.094,5.908-1.598,8.899-1.955c3.138-0.372,6.41-0.033,9.479-0.755
										C300.681,279.652,300.682,278.554,299.973,278.388z"/>
								</g>
								<g>
									<g>
										<path style="fill:#F4EBE4;" d="M283.431,210.633c-1.018,3.701,0.352,7.753-0.255,11.572
											c-0.278,1.755-0.75,3.416-0.891,5.194c-0.192,2.428,0.625,5.033,0.765,7.47c0.293,5.085-1.462,10.262-2.359,15.228
											c-0.723,4.003-1.64,7.984-1.955,12.046c-0.017,0.223,0.347,0.272,0.388,0.053c1.669-8.891,6.149-16.909,6.779-26.101
											c0.141-2.05-0.097-4.133-0.303-6.17c-0.257-2.545,0.177-4.809,0.405-7.337c0.36-3.979-0.948-8.237-2.289-11.955
											C283.669,210.502,283.471,210.485,283.431,210.633L283.431,210.633z"/>
									</g>
									<path style="fill:#FFF9F3;" d="M279.066,210.182c0,0-0.474,48.905-1.613,58.609c0,0,4.719-18.886,5.891-27.323
										c1.173-8.437,0-15.115,0-15.115s1.505-2.805,1.788-6.444c0.237-3.029-0.968-9.141-2.021-9.727
										C282.055,209.596,280.388,209.245,279.066,210.182z"/>
								</g>
								<g>
									<g>
										<path style="fill:#F4EBE4;" d="M263.23,214.715c-1.754,2.218-2.232,4.864-2.81,7.59c-0.659,3.11,1.054,5.814,1.873,8.737
											c1.167,4.164,0.692,8.85,0.891,13.128c0.183,3.926,0.735,7.912,1.359,11.788c0.042,0.261,0.423,0.179,0.438-0.06
											c0.199-3.493-0.203-6.948-0.435-10.435c-0.246-3.724,0.304-7.4,0.391-11.119c0.061-2.651-0.56-5.162-1.636-7.564
											c-1.758-3.924-0.246-7.705,0.548-11.707C263.914,214.75,263.482,214.396,263.23,214.715L263.23,214.715z"/>
									</g>
									<path style="fill:#FFF9F3;" d="M267.618,212.829c0,0,1.665,43.171-2.322,57.218l-1.656-40.296c0,0-1.504-2.804-1.788-6.445
										c-0.237-3.027,1.192-8.849,2.021-9.726C264.684,212.724,266.294,212.214,267.618,212.829z"/>
								</g>
								<g>
									<g>
										<path style="fill:#5B6D75;" d="M261.263,250.672c0.731,1.42,9.697,1.163,14.625,1.163c3.842,0,4.152-6.091-1.139-6.558
											C269.459,244.81,260.223,248.652,261.263,250.672z"/>
										<path style="opacity:0.3;fill:#5B6D75;" d="M274.75,245.278c-3.325-0.294-8.209,1.114-11.12,2.704
											c1.046,1.508,5.172,0.552,6.551,0.505c1.244,0,2.545,0.452,3.45,1.301c0.673,0.58,1.048,1.285,1.249,2.052
											c0.35-0.003,0.689-0.004,1.009-0.004C279.73,251.835,280.041,245.745,274.75,245.278z"/>
									</g>
									<path style="fill:#FFD5CF;" d="M280.997,243.428c0,0-8.311-0.893-9.993-0.687c-1.683,0.206-6.215,3.4-6.284,4.43
										c-0.068,1.03,1.304,1.03,2.025,0.653c0.722-0.378,3.194-2.233,4.327-2.267c1.134-0.034,4.51,4.443,10.137,2.496
										C282.474,247.619,283.023,244.321,280.997,243.428z"/>
									<path style="fill:#FFBDAE;" d="M280.997,243.428c0,0-1.117-0.119-2.613-0.262c-0.008,0.65-0.003,1.298-0.003,1.925
										c0,1.165-0.012,2.312,0.09,3.445c0.846-0.006,1.756-0.142,2.738-0.483C282.474,247.619,283.023,244.321,280.997,243.428z"
										/>
								</g>
								<g>
									<path style="fill:#FFF9F3;" d="M285.163,211.052c-2.354,0.5,19.75,26.986,18.021,28.145
										c-1.73,1.159-22.829,1.939-23.448,3.024c-0.621,1.084,0.823,7.963,0,9.043c-0.825,1.08,38.467,2.023,41.971-1.852
										C326.827,243.747,302.642,207.335,285.163,211.052z"/>
									<path style="fill:#FFFFFF;" d="M287.035,243.665c4.808-2.025,10.209-1.772,15.355-2.109
										c2.869-0.169,8.017-0.506,5.906-4.642c-1.266-2.277-3.206-4.218-4.979-6.075c-2.361-2.446-4.81-4.894-7.002-7.51
										c-3.348-3.845-5.608-7.693-6.639-12.402c-1.537-0.21-3.051-0.186-4.515,0.125c-2.354,0.5,19.75,26.986,18.021,28.145
										c-1.73,1.159-22.829,1.939-23.448,3.024c-0.512,0.893,0.374,5.698,0.245,7.979
										C281.741,247.428,283.83,245.04,287.035,243.665z"/>
								</g>
								<g>
									<g>
										<path style="fill:#EADFD3;" d="M302.974,307.151c0.576,3.009,7.458,5.031,8.488,1.512
											c0.247-0.846-0.291-1.762-1.131-1.991c-1.123-0.308-2.248,0.34-3.402,0.326c-1.153-0.015-2.387-0.522-3.526-0.41
											C303.101,306.618,302.916,306.848,302.974,307.151L302.974,307.151z"/>
									</g>
								</g>
							</g>
							<g>
								<g>
									<path style="fill:#FFD5CF;" d="M267.755,207.721c0,0,1.1,8.437,1.077,10.194c-0.021,1.758,9.703,0.469,9.821-2.343
										c0.118-2.813-3.397-10.628-3.397-10.628L267.755,207.721z"/>
									<path style="fill:#FFBDAE;" d="M276.931,209.026c-0.843-2.227-1.676-4.081-1.676-4.081l-7.501,2.776
										c0,0,0.435,3.34,0.753,6.255c2.201-0.77,4.311-1.783,6.221-3.18C275.499,210.228,276.22,209.631,276.931,209.026z"/>
								</g>
								<g>
									<path style="fill:#FFD5CF;" d="M251.298,180.221c0,0-6.456,15.93,0.933,26.333c7.39,10.403,24.755,2.151,26.835-2.655
										c0,0-2.584-2.081-3.229-8.538C275.192,188.904,272.967,177.423,251.298,180.221z"/>
									<path style="fill:#FFBDAE;" d="M266.148,184.782c2.109,1.318,3.877,2.784,5.361,4.688c1.963,2.519,4.122,8.328,4.81,8.844
										c-0.083-0.497-0.426-2.39-0.481-2.952c-0.645-6.457-2.871-17.938-24.54-15.14c0,0-0.274,0.683-0.644,1.843
										C256.004,181.624,261.556,181.972,266.148,184.782z"/>
								</g>
								<g>
									<path style="fill:#FF8F8F;" d="M260.368,202.14c-0.17,0.469-0.096,0.945-0.169,1.438c-0.103,0.685-0.425,1.335-0.897,1.833
										c-0.794,0.839-2.369,0.914-3.446,1.023c-0.057,0.005-0.068,0.078-0.015,0.098c1.408,0.524,2.781,0.567,4.038-0.372
										c1.134-0.85,1.819-2.814,0.985-4.084C260.73,201.87,260.449,201.918,260.368,202.14z"/>
									<g>
										<path style="fill:#4B2B56;" d="M264.674,194.296c0.064-0.347-0.395-0.578-0.588-0.247c-0.499,0.86-0.984,1.53-1.986,1.819
											c-0.302,0.086-0.8,0.235-0.946-0.135c-0.147-0.365-0.292-0.695-0.37-1.085c-0.021-0.104-0.18-0.123-0.227-0.029
											c-0.263,0.521-0.504,1.068-0.283,1.646c0.226,0.59,0.76,0.819,1.354,0.857
											C263.047,197.216,264.439,195.557,264.674,194.296z"/>
										<path style="fill:#4B2B56;" d="M253.202,194.338c-0.406,0.743-0.864,1.236-1.7,1.468c-0.635,0.175-0.671-0.859-0.668-1.26
											c0-0.024-0.033-0.032-0.046-0.012c-0.444,0.712-0.653,1.716,0.352,2.041c1.262,0.409,2.236-0.915,2.66-1.888
											C253.972,194.29,253.42,193.938,253.202,194.338z"/>
									</g>
									<path style="fill:#FF8F8F;" d="M266.341,196.141c-0.411,0.145-0.986,0.408-1.496,0.758c-0.321,0.155-0.63,0.35-0.921,0.596
										c-1.127,0.958-0.657,2.582,0.622,3.049c0.923,0.338,2.094-0.183,2.912-0.569c0.975-0.463,1.97-1.232,1.995-2.404
										C269.485,195.976,267.45,195.749,266.341,196.141z"/>
									<path style="fill:#FF8F8F;" d="M249.402,195.831c-0.823-0.069-1.396,0.811-1.331,1.556c0.002,0.028,0.01,0.058,0.014,0.085
										c-0.004,0.029-0.012,0.059-0.015,0.087c-0.079,0.656,0.433,1.372,0.938,1.707c0.277,0.184,0.634,0.277,0.964,0.281
										c0.547,0.005,0.932-0.309,1.24-0.721c0.439-0.585,0.17-1.447-0.226-1.97C250.582,196.32,250.099,195.889,249.402,195.831z"
										/>
									<path style="fill:#4B2B56;" d="M262.11,188.982c0.446-0.132,0.874-0.108,1.313,0.041c0.454,0.155,0.683,0.502,0.985,0.838
										c0.144,0.16,0.452-0.007,0.372-0.216c-0.39-1.016-1.833-1.259-2.736-0.901C261.899,188.8,261.953,189.028,262.11,188.982z"
										/>
									<path style="fill:#4B2B56;" d="M253.387,189.65c-0.445-0.131-0.875-0.108-1.314,0.041
										c-0.454,0.155-0.682,0.502-0.984,0.838c-0.144,0.16-0.453-0.007-0.372-0.216c0.389-1.015,1.834-1.26,2.736-0.901
										C253.598,189.468,253.545,189.696,253.387,189.65z"/>
									<g>
										<path style="fill:#FF8F8F;" d="M255.417,196.409c-0.114,0.595-0.74,3.262-1.951,3.833
											c-1.21,0.572-1.178,2.423,0.403,2.858c1.582,0.438,3.095-1.109,3.028-3.161
											C256.83,197.887,255.63,195.304,255.417,196.409z"/>
										<path style="fill:#EA8686;" d="M255.731,196.208c0.326,2.412-0.216,5.211-1.813,6.902
											c1.563,0.393,3.045-1.141,2.979-3.172C256.846,198.404,256.161,196.572,255.731,196.208z"/>
										<g>
											<path style="fill:#FFA4A4;" d="M253.46,201.635c0.094-0.313,0.313-0.502,0.233-0.859
												c-0.018-0.083-0.094-0.15-0.173-0.173c-0.655-0.187-0.876,0.647-0.664,1.111
												C252.98,201.989,253.385,201.885,253.46,201.635L253.46,201.635z"/>
										</g>
										<g>
											<path style="fill:#FFA4A4;" d="M254.505,200.415c0.068-0.091,0.096-0.146,0.113-0.258
												c0.027-0.168-0.068-0.351-0.262-0.345c-0.14,0.004-0.231,0.039-0.356,0.098
												C253.511,200.134,254.098,200.95,254.505,200.415L254.505,200.415z"/>
										</g>
									</g>
								</g>
								<g>
									<path style="fill:#FFD5CF;" d="M283.176,202.671c0,2.754-2.232,4.986-4.984,4.986c-2.754,0-4.985-2.232-4.985-4.986
										c0-2.753,2.231-4.985,4.985-4.985C280.944,197.686,283.176,199.918,283.176,202.671z"/>
									<path style="fill:#FFBDAE;" d="M277.621,202.14c-0.287,0.059-0.54,0.173-0.764,0.323c0.074-0.16,0.161-0.325,0.265-0.497
										c0.644-1.068,1.957-1.394,3.115-1.477c0.079-0.006,0.107-0.128,0.02-0.146c-1.363-0.275-2.498-0.058-3.468,0.991
										c-1.101,1.19-1.575,3.257-0.651,4.67c0.22,0.336,0.706,0.117,0.633-0.267c-0.015-0.075-0.028-0.143-0.041-0.215
										c0.073-0.289,0.141-0.577,0.185-0.889c0.074-0.527,0.366-1.046,0.878-1.259c0.856-0.353,2.053-0.129,2.228,0.897
										c0.092,0.536,0.917,0.39,0.923-0.125C280.962,202.385,279.076,201.837,277.621,202.14z"/>
								</g>
							</g>
						</g>
					</g>
					<g>
						<g>
							<g>
								<path style="fill:#5B6D75;" d="M237.275,230.418c0,4.413-3.578,7.99-7.99,7.99h-78.427c-4.414,0-7.991-3.577-7.991-7.99
									v-66.016c0-4.413,3.577-7.99,7.991-7.99h78.427c4.412,0,7.99,3.577,7.99,7.99V230.418z"/>
								<path style="opacity:0.3;fill:#5B6D75;" d="M224.711,168.87c0-4.413-3.577-7.99-7.989-7.99h-73.027
									c-0.524,1.064-0.827,2.257-0.827,3.523v66.016c0,4.413,3.577,7.99,7.991,7.99h73.027c0.522-1.064,0.825-2.257,0.825-3.523
									V168.87z"/>
								<g>
									<path style="fill:#6D8189;" d="M199.813,197.127c0,8.851-7.173,16.023-16.023,16.023c-8.85,0-16.024-7.173-16.024-16.023
										c0-8.85,7.174-16.023,16.024-16.023C192.64,181.104,199.813,188.278,199.813,197.127z"/>
									<path style="opacity:0.3;fill:#5B6D75;" d="M192.526,193.338h-4.947v-4.947c0-0.891-0.721-1.613-1.612-1.613h-4.354
										c-0.892,0-1.613,0.723-1.613,1.613v4.947h-4.946c-0.892,0-1.613,0.722-1.613,1.612v4.353c0,0.891,0.722,1.613,1.613,1.613
										H180v4.946c0,0.891,0.722,1.611,1.613,1.611h4.354c0.892,0,1.612-0.721,1.612-1.611v-4.946h4.947
										c0.892,0,1.613-0.723,1.613-1.613v-4.353C194.139,194.06,193.418,193.338,192.526,193.338z"/>
								</g>
							</g>
							<g>
								<path style="fill:#5B6D75;" d="M259.122,248.895c0,0.997-0.809,1.806-1.806,1.806h-52.868c-0.997,0-1.806-0.809-1.806-1.806
									l0,0c0-0.998,0.809-1.807,1.806-1.807h52.868C258.313,247.088,259.122,247.897,259.122,248.895L259.122,248.895z"/>
								<path style="opacity:0.3;fill:#5B6D75;" d="M225.004,248.395h34.039c-0.218-0.753-0.903-1.307-1.727-1.307h-52.868
									c-0.997,0-1.806,0.809-1.806,1.807c0,0.997,0.809,1.806,1.806,1.806h18.827c-0.045-0.159-0.077-0.324-0.077-0.499
									C223.198,249.204,224.007,248.395,225.004,248.395z"/>
							</g>
							<path style="fill:#5B6D75;" d="M211.262,245.694c-6.428,0-7.684,0.431-7.684-2.023v-6.436c0-3.883-3.147-7.031-7.031-7.031
								h-14.539c-3.884,0-7.031,3.148-7.031,7.031v6.436c0,2.825,1.671,5.255,4.075,6.372c0.445,0.405,1.029,0.658,1.679,0.658
								h1.277h14.539h14.715c1.383,0,2.504-1.121,2.504-2.504C213.766,246.816,212.645,245.694,211.262,245.694z"/>
							<path style="opacity:0.3;fill:#5B6D75;" d="M194.833,245.928v-6.436c0-3.882-3.148-7.03-7.031-7.03h-10.945
								c-1.162,1.254-1.879,2.927-1.879,4.773v6.436c0,2.825,1.671,5.255,4.075,6.372c0.445,0.405,1.029,0.658,1.679,0.658h1.277
								h14.539h8.447C205.004,250.62,194.833,249.495,194.833,245.928z"/>
						</g>
						<g>
							<path style="fill:#ADAFEC;" d="M168.435,253.141h62.447v115.653c0,3.883-3.148,7.03-7.031,7.03h-55.416V253.141z"/>
							<path style="opacity:0.5;fill:#393280;" d="M168.435,253.141h62.447v2.832v7.573v105.248c0,3.883-3.148,7.03-7.031,7.03
								h-13.187c2.289-1.16,3.861-3.528,3.861-6.268v-106.01h-46.091V253.141z"/>
							<rect x="168.435" y="250.701" style="fill:#ADAFEC;" width="173.874" height="7.575"/>
						</g>
					</g>
				</g>
			</g>
			<g>
				<g>
					<path style="opacity:0.8;fill:#FFFFFF;" d="M138.568,288.874c0,4.779-3.874,8.654-8.654,8.654H52.792
						c-4.78,0-8.655-3.875-8.655-8.654v-39.48c0-4.78,3.875-8.655,8.655-8.655h77.121c4.78,0,8.654,3.875,8.654,8.655V288.874z"/>
					<g>
						<path style="fill:#393280;" d="M83.968,288.103L83.968,288.103c-0.616,0-1.149-0.433-1.273-1.036l-2.209-10.744H58.673
							c-0.718,0-1.297-0.58-1.297-1.299c0-0.717,0.579-1.297,1.297-1.297h22.869c0.616,0,1.149,0.433,1.274,1.037l1.151,5.604
							l6.008-29.17c0.125-0.605,0.657-1.035,1.271-1.035c0.014,0,0.028,0,0.042,0.001c0.633,0.021,1.159,0.496,1.243,1.122
							l3.118,22.941l4.774-12.823c0.21-0.559,0.782-0.914,1.364-0.837c0.595,0.067,1.063,0.53,1.141,1.121l1.562,12.039h19.543
							c0.717,0,1.296,0.58,1.296,1.297c0,0.719-0.579,1.299-1.296,1.299h-20.684c-0.65,0-1.203-0.484-1.287-1.131l-1.035-7.973
							l-4.75,12.762c-0.211,0.559-0.774,0.894-1.362,0.838c-0.591-0.066-1.062-0.526-1.141-1.115l-2.789-20.534l-5.748,27.898
							C85.113,287.67,84.583,288.103,83.968,288.103z"/>
					</g>
				</g>
				<g>
					<path style="opacity:0.8;fill:#FFFFFF;" d="M449.939,309.922c0,3.42-2.772,6.191-6.191,6.191h-88.114
						c-3.418,0-6.189-2.772-6.189-6.191V258.44c0-3.418,2.771-6.191,6.189-6.191h88.114c3.42,0,6.191,2.773,6.191,6.191V309.922z"/>
					<path style="fill:#393280;" d="M377.909,259.864c5.383,0,10.23,2.691,13.064,7.066c2.84-4.375,7.684-7.066,13.068-7.066
						c8.604,0,15.602,6.996,15.602,15.6c0,2.029-0.68,4.328-2.01,6.85h19.633c0.875,0,1.582,0.709,1.582,1.584
						s-0.707,1.584-1.582,1.584h-26.984c-0.592,0-1.135-0.328-1.404-0.853l-3.02-5.807l-3.31,12.242
						c-0.174,0.647-0.736,1.113-1.406,1.166c-0.041,0.002-0.08,0.004-0.123,0.004c-0.621,0-1.188-0.361-1.445-0.935l-3.572-7.959
						l-0.897,1.408c-0.291,0.457-0.791,0.734-1.336,0.734h-9.32c-0.875,0-1.584-0.709-1.584-1.584s0.709-1.584,1.584-1.584h8.449
						l2.008-3.158c0.313-0.49,0.869-0.773,1.451-0.728c0.58,0.041,1.094,0.398,1.33,0.93l2.961,6.598l3.213-11.883
						c0.172-0.631,0.711-1.092,1.359-1.162c0.648-0.07,1.275,0.264,1.576,0.844l4.447,8.56h2.74c1.647-2.67,2.49-4.975,2.49-6.85
						c0-6.855-5.576-12.434-12.432-12.434c-5.168,0-9.719,3.115-11.592,7.936c-0.236,0.609-0.82,1.012-1.477,1.012
						c-0.654,0-1.236-0.402-1.475-1.012c-1.873-4.82-6.422-7.936-11.59-7.936c-6.855,0-12.43,5.578-12.43,12.434
						c0,8.721,17.582,23.609,25.492,29.486c1.873-1.408,6.336-4.85,11.004-9.109c0.643-0.588,1.65-0.543,2.238,0.103
						c0.59,0.648,0.545,1.648-0.103,2.24c-6.24,5.691-12.147,9.973-12.209,10.018c-0.273,0.197-0.598,0.299-0.928,0.299
						c-0.324,0-0.648-0.102-0.924-0.299c-1.137-0.82-27.738-20.184-27.738-32.738C362.311,266.86,369.307,259.864,377.909,259.864z"
						/>
				</g>
				<g>
					<path style="opacity:0.8;fill:#FFFFFF;" d="M194.11,342.812c0,5.66-4.589,10.25-10.251,10.25h-82.255
						c-5.661,0-10.251-4.59-10.251-10.25v-44.407c0-5.66,4.59-10.25,10.251-10.25h82.255c5.662,0,10.251,4.59,10.251,10.25V342.812z
						"/>
					<g>
						<path style="fill:#393280;" d="M164.05,320.61c0,11.773-9.544,21.317-21.319,21.317c-11.775,0-21.318-9.544-21.318-21.317
							s9.544-21.318,21.318-21.318C154.505,299.291,164.05,308.836,164.05,320.61z"/>
						<path style="fill:#FFFFFF;" d="M155.563,315.025h-7.251v-7.251c0-3.082-2.498-5.583-5.582-5.583
							c-3.085,0-5.581,2.501-5.581,5.583v7.251h-7.253c-3.084,0-5.586,2.499-5.586,5.585c0,3.081,2.502,5.582,5.586,5.582h7.253
							v7.252c0,3.083,2.496,5.581,5.581,5.581c3.084,0,5.582-2.498,5.582-5.581v-7.252h7.251c3.086,0,5.583-2.501,5.583-5.582
							C161.147,317.524,158.649,315.025,155.563,315.025z"/>
					</g>
				</g>
				<g>
					<path style="opacity:0.8;fill:#FFFFFF;" d="M368.027,331.596c0,2.663-2.159,4.822-4.822,4.822h-38.696
						c-2.663,0-4.822-2.159-4.822-4.822v-20.891c0-2.663,2.159-4.822,4.822-4.822h38.696c2.663,0,4.822,2.159,4.822,4.822V331.596z"
						/>
					<g>
						<path style="fill:#393280;" d="M339.393,321.151c0,1.557-1.261,2.818-2.818,2.818c-1.557,0-2.817-1.262-2.817-2.818
							c0-1.557,1.261-2.818,2.817-2.818C338.133,318.332,339.393,319.594,339.393,321.151z"/>
						<path style="fill:#393280;" d="M346.676,321.151c0,1.557-1.261,2.818-2.817,2.818c-1.555,0-2.82-1.262-2.82-2.818
							c0-1.557,1.266-2.818,2.82-2.818C345.415,318.332,346.676,319.594,346.676,321.151z"/>
						<path style="fill:#393280;" d="M353.958,321.151c0,1.557-1.264,2.818-2.818,2.818c-1.557,0-2.818-1.262-2.818-2.818
							c0-1.557,1.262-2.818,2.818-2.818C352.694,318.332,353.958,319.594,353.958,321.151z"/>
					</g>
				</g>
			</g>
		</g>
	</g>
</g>
</svg>
