<?xml version="1.0" encoding="utf-8"?>
<!-- Generator: Adobe Illustrator 27.5.0, SVG Export Plug-In . SVG Version: 6.00 Build 0)  -->
<svg version="1.1" xmlns="http://www.w3.org/2000/svg" xmlns:xlink="http://www.w3.org/1999/xlink" x="0px" y="0px"
	 viewBox="0 0 500 500" style="enable-background:new 0 0 500 500;" xml:space="preserve">
<g id="Background_Complete">
	<g>
		<rect y="382.398" style="fill:#EBEBEB;" width="500" height="0.25"/>
		<rect x="416.779" y="398.494" style="fill:#EBEBEB;" width="33.122" height="0.25"/>
		<rect x="260.335" y="395.361" style="fill:#EBEBEB;" width="12.887" height="0.25"/>
		<rect x="322.527" y="396.417" style="fill:#EBEBEB;" width="27.14" height="0.25"/>
		<rect x="359.667" y="389.208" style="fill:#EBEBEB;" width="56.111" height="0.25"/>
		<rect x="52.459" y="400.778" style="fill:#EBEBEB;" width="26.527" height="0.25"/>
		<rect x="87.889" y="400.778" style="fill:#EBEBEB;" width="23" height="0.25"/>
		<rect x="131" y="395.236" style="fill:#EBEBEB;" width="60.814" height="0.25"/>
		<path style="fill:#EBEBEB;" d="M237.014,337.8H43.915c-3.147,0-5.708-2.561-5.708-5.708V60.66c0-3.147,2.561-5.708,5.708-5.708
			h193.099c3.146,0,5.707,2.561,5.707,5.708v271.432C242.721,335.239,240.16,337.8,237.014,337.8z M43.915,55.203
			c-3.01,0-5.458,2.448-5.458,5.458v271.432c0,3.01,2.448,5.458,5.458,5.458h193.099c3.009,0,5.457-2.448,5.457-5.458V60.66
			c0-3.009-2.448-5.458-5.457-5.458H43.915z"/>
		<path style="fill:#EBEBEB;" d="M453.31,337.8H260.212c-3.147,0-5.707-2.561-5.707-5.708V60.66c0-3.147,2.561-5.708,5.707-5.708
			H453.31c3.148,0,5.708,2.561,5.708,5.708v271.432C459.019,335.239,456.458,337.8,453.31,337.8z M260.212,55.203
			c-3.009,0-5.457,2.448-5.457,5.458v271.432c0,3.01,2.448,5.458,5.457,5.458H453.31c3.01,0,5.458-2.448,5.458-5.458V60.66
			c0-3.009-2.448-5.458-5.458-5.458H260.212z"/>
	</g>
	<g>
		<g>
			<rect x="294.975" y="78" style="fill:#FAFAFA;" width="151.346" height="304.398"/>
			<rect x="343.648" y="117" style="fill:#FFFFFF;" width="54" height="75.333"/>
			
				<rect x="446.321" y="78" transform="matrix(-1 -1.224647e-16 1.224647e-16 -1 893.5801 460.3984)" style="fill:#EBEBEB;" width="0.938" height="304.398"/>
			<polygon style="fill:#E0E0E0;" points="438.821,382.398 437.821,382.398 437.821,86.5 303.476,86.5 303.476,382.398 
				302.476,382.398 302.476,85.5 438.821,85.5 			"/>
			<path style="fill:#E0E0E0;" d="M427.193,235.833H406.32c-1.691,0-3.067-1.376-3.067-3.066c0-1.691,1.376-3.067,3.067-3.067
				h20.873c1.691,0,3.067,1.376,3.067,3.067C430.26,234.457,428.884,235.833,427.193,235.833z M406.32,230.699
				c-1.14,0-2.067,0.928-2.067,2.067c0,1.14,0.927,2.066,2.067,2.066h20.873c1.14,0,2.067-0.927,2.067-2.066
				c0-1.14-0.927-2.067-2.067-2.067H406.32z"/>
		</g>
		<g>
			<rect x="55.97" y="163.444" style="fill:#FAFAFA;" width="140.766" height="12.078"/>
			<rect x="57.774" y="175.522" style="fill:#FAFAFA;" width="138.962" height="206.876"/>
			
				<rect x="196.736" y="163.444" transform="matrix(-1 -1.224647e-16 1.224647e-16 -1 403.6759 545.8428)" style="fill:#F0F0F0;" width="10.203" height="218.954"/>
			<rect x="69.436" y="187.519" style="fill:#F0F0F0;" width="53.754" height="122.245"/>
			<polygon style="fill:#FFFFFF;" points="107.827,187.519 95.224,187.519 84.799,309.764 97.402,309.764 			"/>
			<path style="fill:#F0F0F0;" d="M183.322,372.947H71.188c-1.311,0-2.378-1.067-2.378-2.378v-51.001
				c0-1.311,1.066-2.378,2.378-2.378h112.134c1.311,0,2.377,1.067,2.377,2.378v51.001C185.7,371.88,184.633,372.947,183.322,372.947
				z M71.188,318.44c-0.622,0-1.128,0.506-1.128,1.128v51.001c0,0.622,0.506,1.128,1.128,1.128h112.134
				c0.622,0,1.128-0.506,1.128-1.128v-51.001c0-0.622-0.506-1.128-1.128-1.128H71.188z"/>
			<path style="fill:#F0F0F0;" d="M175.995,329.515c-1.444,0-2.618-1.175-2.618-2.619c0-1.443,1.174-2.618,2.618-2.618
				c1.444,0,2.618,1.175,2.618,2.618C178.613,328.34,177.439,329.515,175.995,329.515z M175.995,325.527
				c-0.755,0-1.369,0.613-1.369,1.368c0,0.755,0.614,1.369,1.369,1.369s1.369-0.614,1.369-1.369
				C177.364,326.141,176.749,325.527,175.995,325.527z"/>
			<rect x="69.436" y="187.519" style="fill:#EBEBEB;" width="1.388" height="122.245"/>
			<rect x="131.321" y="187.519" style="fill:#F0F0F0;" width="53.754" height="122.245"/>
			<polygon style="fill:#FFFFFF;" points="156.221,187.519 151.03,187.519 140.606,309.764 145.797,309.764 			"/>
			<polygon style="fill:#FFFFFF;" points="164.029,187.519 158.838,187.519 148.413,309.764 153.604,309.764 			"/>
			<rect x="131.321" y="187.519" style="fill:#EBEBEB;" width="1.388" height="122.245"/>
			<rect x="57.774" y="175.522" style="fill:#EBEBEB;" width="138.962" height="1.527"/>
		</g>
		<g>
			<rect x="80" y="75.704" style="fill:#FAFAFA;" width="144.333" height="69.667"/>
			<path style="fill:#FFFFFF;" d="M170.702,136.405c-14.264,0-25.868-11.605-25.868-25.868s11.605-25.867,25.868-25.867
				c14.264,0,25.868,11.604,25.868,25.867S184.965,136.405,170.702,136.405z M170.702,85.67c-13.712,0-24.868,11.155-24.868,24.867
				s11.156,24.868,24.868,24.868c13.712,0,24.868-11.156,24.868-24.868S184.414,85.67,170.702,85.67z"/>
			<path style="fill:#EBEBEB;" d="M199.588,92.174c1.147-3.166,1.483-6.598,0.618-10.207c-1.439-0.048-2.698-0.09-2.698-0.09
				s1.109,4.38-1.164,9.731c-9.833-0.079-11.571,10.288-19.426,8.029c-2.449-0.704-5.47-0.791-8.569-0.305l0.001-0.002
				c-0.01,0.002-0.022,0.004-0.032,0.006c-1.163,0.184-2.336,0.448-3.495,0.792c-10.4,2.714-23.105,9.19-25.368,18.92
				c1.288,0.247,2.415,0.463,2.415,0.463s1.566-7.222,12.022-12.369c-0.983,1.305-1.735,2.757-2.17,4.354
				c-6.413,23.584,37.055,19.43,48.59,11.206C214.416,112.649,208.411,95.646,199.588,92.174z"/>
			<g>
				<rect x="87.111" y="83.593" style="fill:#EBEBEB;" width="43.556" height="2.778"/>
				<rect x="87.111" y="90.68" style="fill:#EBEBEB;" width="32.556" height="2.778"/>
				<rect x="87.111" y="104.853" style="fill:#EBEBEB;" width="43.556" height="2.778"/>
				<rect x="87.111" y="111.94" style="fill:#EBEBEB;" width="21.056" height="2.778"/>
				<rect x="111.583" y="111.94" style="fill:#EBEBEB;" width="15" height="2.778"/>
				<rect x="87.111" y="119.026" style="fill:#EBEBEB;" width="35.056" height="2.778"/>
				<rect x="87.111" y="126.113" style="fill:#EBEBEB;" width="43.556" height="2.778"/>
			</g>
		</g>
		<g>
			<path style="fill:#EBEBEB;" d="M270.414,382.398h-41.116c-0.963,0-1.775-0.717-1.895-1.672l-8.299-66.047
				c-0.143-1.14,0.746-2.148,1.895-2.148h57.714c1.149,0,2.038,1.008,1.895,2.148l-8.299,66.047
				C272.189,381.682,271.376,382.398,270.414,382.398z"/>
			<path style="opacity:0.7;fill:#F5F5F5;" d="M218.214,311.172c-1.509,1.079-0.31,17.795,1.652,21.491
				c1.961,3.695,13.73,0.516,27.77-0.723s30.867,3.716,31.59,0.723c0.723-2.994,4.836-19.318,2.684-21.491
				c-1.721-1.737-22.402-1.737-31.486-0.705C241.339,311.499,221.415,308.883,218.214,311.172z"/>
		</g>
	</g>
</g>
<g id="Background_Simple" style="display:none;">
	<g style="display:inline;">
		<path style="fill:#407BFF;" d="M49.739,251.809c-23.448,81.659,128.392,120.174,209.529,108.292
			c102.654-15.033,160.516-71.004,158.945-157.25c-1.556-85.459-97.864-134.42-170.42-98.393
			c-35.765,17.759-61.957,49.954-97.622,68.443C107.828,194.85,64.392,200.778,49.739,251.809z"/>
		<path style="opacity:0.9;fill:#FFFFFF;" d="M49.739,251.809c-23.448,81.659,128.392,120.174,209.529,108.292
			c102.654-15.033,160.516-71.004,158.945-157.25c-1.556-85.459-97.864-134.42-170.42-98.393
			c-35.765,17.759-61.957,49.954-97.622,68.443C107.828,194.85,64.392,200.778,49.739,251.809z"/>
	</g>
</g>
<g id="Shadow_1_">
	<ellipse id="_x3C_Path_x3E__257_" style="fill:#F5F5F5;" cx="250" cy="416.238" rx="193.889" ry="11.323"/>
</g>
<g id="Character_1">
	<g>
		<path style="fill:#263238;" d="M164.033,101.379c-7.552-7.09-20.017-8.446-24.66-1.066c-4.643,7.379-2.027,15.178-11.559,23.361
			c-6.507,5.586-1.679,22.721,35.393,21.15c17.553-0.744,11.616-18.961,11.145-27.635
			C173.882,108.515,173.82,98.005,164.033,101.379z"/>
		<g>
			<polygon style="fill:#B55B52;" points="149.39,402.418 140.408,402.769 140.237,393.054 149.219,392.703 			"/>
			<path style="fill:#263238;" d="M139.852,400.907h10.167c0.37,0,0.69,0.257,0.769,0.618l1.763,8.044
				c0.183,0.834-0.475,1.624-1.33,1.609c-3.549-0.061-5.273-0.269-9.744-0.269c-2.751,0-9.877,0.286-13.675,0.286
				c-3.715,0-4.284-3.756-2.727-4.096c6.978-1.525,11.068-3.629,13.306-5.636C138.785,401.101,139.311,400.907,139.852,400.907z"/>
			<polygon style="opacity:0.2;" points="140.239,393.057 140.317,397.576 149.302,397.195 149.224,392.706 			"/>
			<path style="fill:#407BFF;" d="M127.007,206.646c-2.034,10.78,0.306,63.477,3.357,86.741
				c4.053,30.901,8.256,102.655,8.256,102.655l12.055-0.726c0,0,3.013-75.555,0.542-100.366c1.392-31.928,4.835-87.697,4.835-87.697
				L127.007,206.646z"/>
			<path style="opacity:0.2;" d="M153.993,241.97c0.415-8.09-5.314-15.278-7.619-0.033c-1.469,9.714,1.556,26.732,5.512,38.755
				C152.512,268.24,153.287,254.313,153.993,241.97z"/>
		</g>
		<g>
			<polygon style="fill:#B55B52;" points="215.369,372.192 209.532,377.768 201.616,369.294 207.452,363.718 			"/>
			<path style="fill:#263238;" d="M208.037,377.923l5.978-8.224c0.217-0.299,0.594-0.381,0.907-0.196l6.954,4.115
				c0.721,0.427,0.915,1.503,0.402,2.184c-2.132,2.829-3.298,4.08-5.927,7.697c-1.617,2.225-3.488,5.285-5.722,8.358
				c-2.184,3.005-5.281,0.878-4.617-0.616c2.98-6.695,1.73-8.552,1.57-11.745C207.553,378.921,207.719,378.361,208.037,377.923z"/>
			<polygon style="opacity:0.2;" points="201.619,369.295 205.699,373.664 211.492,368.037 207.458,363.716 			"/>
			<path style="fill:#407BFF;" d="M140.922,206.937c0,0,12.918,68.032,16.277,94.407c2.007,15.762,46.098,72.503,46.098,72.503
				l7.534-7.929c0,0-16.138-41.537-35.579-66.176c-0.771-28.887,2.51-76.423-8.649-92.268L140.922,206.937z"/>
		</g>
		<path style="fill:#B55B52;" d="M129.583,154.796c-0.013,5.847-0.277,11.576-0.702,17.363c-0.41,5.778-1.001,11.553-1.932,17.356
			l-0.171,1.087l-0.227,1.229c-0.172,0.809-0.361,1.601-0.575,2.367c-0.438,1.533-0.947,2.995-1.491,4.421
			c-1.089,2.848-2.38,5.534-3.728,8.158c-2.746,5.237-5.815,10.143-9.29,14.896c-0.808,1.105-2.358,1.346-3.463,0.538
			c-0.97-0.709-1.274-1.991-0.787-3.04l0.028-0.059c2.35-5.077,4.627-10.289,6.613-15.454c1.008-2.58,1.89-5.185,2.65-7.744
			c0.367-1.281,0.686-2.555,0.929-3.797c0.13-0.62,0.229-1.228,0.314-1.824l0.102-0.889l0.096-1.038
			c0.515-5.534,0.809-11.158,1.089-16.785c0.23-5.621,0.412-11.313,0.577-16.891l0.002-0.052c0.081-2.752,2.378-4.917,5.13-4.836
			C127.449,149.881,129.586,152.108,129.583,154.796z"/>
		<path style="fill:#407BFF;" d="M126.321,147.492c-12.284,3.585-10.697,25.924-10.697,25.924l17.46,4.703
			c0,0,2.896-16.361,2.64-22.227C135.458,149.787,133.092,145.515,126.321,147.492z"/>
		<path style="fill:#B55B52;" d="M108.517,217.876l-6.142,5.232l8.617,3.521c0,0,2.669-4.069,1.433-7.929L108.517,217.876z"/>
		<path style="fill:#B55B52;" d="M103.455,231.093l3.937,0.491c0.9,0.112,1.762-0.395,2.101-1.236l1.498-3.719l-8.617-3.521
			l-0.658,5.775C101.593,229.972,102.368,230.957,103.455,231.093z"/>
		<path style="fill:#407BFF;" d="M122.345,153.301c-0.544,22.396,4.605,38.751,4.662,53.345l39.595,0.829
			c-0.297-14.629-0.169-24.165,6.121-50.369c1.156-4.816-2.062-9.586-6.96-10.317c-2.369-0.353-5.008-0.674-7.672-0.858
			c-6.656-0.461-12.111-0.788-17.98-0.376c-4.222,0.296-8.76,0.91-12.011,1.407C124.924,147.447,122.423,150.087,122.345,153.301z"
			/>
		<path style="fill:#FFFFFF;" d="M159.245,173.976l-11.734-0.073c-0.518-0.003-0.895-0.408-0.838-0.898l0.65-5.566
			c0.057-0.491,0.528-0.89,1.046-0.887l11.734,0.073c0.518,0.003,0.895,0.407,0.838,0.898l-0.65,5.566
			C160.234,173.58,159.763,173.979,159.245,173.976z"/>
		<path style="opacity:0.4;fill:#FFFFFF;" d="M140.112,145.555c0,0-6.457,4.529,0.364,15.864
			c10.033-9.654,17.616-15.489,17.616-15.489L140.112,145.555z"/>
		<path style="fill:#B55B52;" d="M156.734,125.648c-1.255,5.761-2.609,16.337,1.358,20.282c0,0-8.782,3.089-17.014,10.475
			c-4.383-8.051-0.966-10.851-0.966-10.851c6.483-1.406,6.417-6.195,5.387-10.714L156.734,125.648z"/>
		<path style="opacity:0.2;" d="M155.512,126.651c-0.116,1.707-0.391,5.613-2.612,9.88c-1.09,2.105-3.971,3.015-6.929,3.165
			c0.146-1.535-0.098-3.211-0.468-4.854L155.512,126.651z"/>
		<path style="fill:#B55B52;" d="M166.1,118.605c-2.962,9.214-4.018,13.177-9.971,16.776c-8.954,5.413-19.623-0.239-19.474-10.152
			c0.134-8.923,4.955-22.491,15.067-23.88C161.684,99.98,169.061,109.391,166.1,118.605z"/>
		<path style="fill:#263238;" d="M141.648,106.487c4.987,1.411,17.178,2.464,19.625,0.97c-2.293,3.527-0.111,13.143,3.428,15.478
			c4.773-3.838,5.831-13.097,1.422-17.682C161.713,100.667,147.772,95.2,141.648,106.487z"/>
		<path style="fill:#B55B52;" d="M167.5,124.239c-0.685,1.886-2.176,3.28-3.681,3.954c-2.263,1.014-3.761-0.922-3.438-3.25
			c0.29-2.095,1.818-5.147,4.237-5.181C167.001,119.73,168.283,122.083,167.5,124.239z"/>
		<path style="fill:#263238;" d="M167.244,205.164l1.711,3.581c0.133,0.278-0.199,0.551-0.656,0.542l-41.525-0.869
			c-0.357-0.007-0.649-0.188-0.667-0.413l-0.283-3.552c-0.02-0.246,0.294-0.447,0.685-0.439l40.096,0.839
			C166.9,204.859,167.159,204.985,167.244,205.164z"/>
		<path style="fill:#407BFF;" d="M161.765,209.534l1.074,0.022c0.214,0.004,0.379-0.102,0.367-0.237l-0.407-4.615
			c-0.012-0.135-0.197-0.249-0.411-0.254l-1.074-0.023c-0.214-0.004-0.379,0.102-0.367,0.238l0.407,4.615
			C161.367,209.416,161.551,209.53,161.765,209.534z"/>
		<path style="fill:#407BFF;" d="M129.784,208.865l1.074,0.022c0.214,0.005,0.379-0.102,0.367-0.237l-0.407-4.615
			c-0.012-0.135-0.197-0.249-0.411-0.254l-1.074-0.022c-0.214-0.005-0.379,0.102-0.367,0.237l0.407,4.615
			C129.386,208.746,129.571,208.861,129.784,208.865z"/>
		<path style="fill:#407BFF;" d="M145.775,209.2l1.074,0.022c0.214,0.004,0.379-0.102,0.367-0.237l-0.407-4.615
			c-0.012-0.135-0.197-0.249-0.411-0.254l-1.074-0.023c-0.214-0.005-0.379,0.102-0.367,0.238l0.407,4.615
			C145.376,209.081,145.561,209.195,145.775,209.2z"/>
		<path style="fill:#263238;" d="M151.706,117.831c-0.194,0.762-0.756,1.277-1.254,1.15c-0.498-0.127-0.745-0.848-0.55-1.61
			c0.194-0.762,0.756-1.277,1.254-1.15C151.654,116.348,151.901,117.068,151.706,117.831z"/>
		<path style="fill:#263238;" d="M143.092,115.634c-0.194,0.762-0.756,1.277-1.254,1.15c-0.498-0.127-0.745-0.848-0.55-1.61
			c0.194-0.762,0.756-1.277,1.254-1.15C143.04,114.151,143.286,114.872,143.092,115.634z"/>
		<path style="fill:#263238;" d="M142.751,114.122l-1.696-0.994C141.055,113.128,141.629,114.797,142.751,114.122z"/>
		<path style="fill:#A02724;" d="M145.035,117.524c0,0-2.13,2.951-3.957,4.172c0.767,1.196,2.587,1.203,2.587,1.203L145.035,117.524
			z"/>
		<path style="fill:#263238;" d="M145.478,125.888c-0.07-0.057-0.102-0.152-0.076-0.244c0.036-0.122,0.164-0.193,0.286-0.157
			c3.305,0.964,5.537-0.897,5.559-0.916c0.096-0.082,0.239-0.074,0.325,0.025c0.083,0.097,0.072,0.242-0.025,0.325
			c-0.098,0.084-2.436,2.045-5.989,1.009C145.528,125.922,145.501,125.907,145.478,125.888z"/>
		<path style="fill:#263238;" d="M156.409,114.315c-0.062-0.047-0.113-0.111-0.145-0.188c-0.798-1.898-2.468-2.222-2.486-2.226
			c-0.252-0.045-0.418-0.287-0.372-0.537c0.046-0.251,0.286-0.417,0.537-0.372c0.088,0.016,2.182,0.421,3.172,2.776
			c0.099,0.235-0.012,0.506-0.247,0.605C156.711,114.44,156.537,114.412,156.409,114.315z"/>
		<path style="fill:#263238;" d="M141.392,110.77c-0.023-0.017-0.044-0.037-0.064-0.059c-0.171-0.189-0.156-0.481,0.034-0.652
			c1.898-1.711,3.965-1.187,4.053-1.164c0.246,0.066,0.393,0.318,0.328,0.565c-0.065,0.246-0.318,0.392-0.564,0.328
			c-0.077-0.02-1.688-0.404-3.198,0.958C141.813,110.896,141.565,110.902,141.392,110.77z"/>
		<path style="fill:#B55B52;" d="M172.708,153.858c2.908,3.85,5.632,7.731,8.276,11.758c1.303,2.022,2.608,4.052,3.84,6.167
			c1.231,2.139,2.457,4.225,3.559,6.781c0.277,0.66,0.551,1.329,0.813,2.228c0.127,0.462,0.267,0.969,0.344,1.788
			c0.015,0.231,0.033,0.4,0.021,0.733l-0.027,0.445c-0.013,0.151-0.054,0.4-0.095,0.594l-0.072,0.307l-0.038,0.139l-0.01,0.028
			l-0.041,0.113l-0.083,0.225c-0.461,1.195-0.84,2.402-1.395,3.569c-0.993,2.36-2.239,4.642-3.639,6.827
			c-1.455,2.164-3.111,4.22-5.058,6.026c-0.953,0.917-2.025,1.733-3.137,2.492c-0.563,0.374-1.144,0.73-1.75,1.06
			c-0.308,0.166-0.623,0.316-0.95,0.465c-0.354,0.155-0.614,0.266-1.133,0.454l-1.906-4.556c0.021-0.053,0.275-0.23,0.433-0.37
			l0.549-0.478c0.372-0.332,0.732-0.688,1.084-1.06c0.696-0.758,1.351-1.561,1.963-2.41c1.223-1.696,2.269-3.538,3.189-5.454
			c0.419-0.99,0.879-1.941,1.228-2.967c0.408-0.988,0.735-2.021,1.057-3.054c0.346-1.018,0.572-2.1,0.879-3.136l0.054-0.196
			l0.027-0.098l0.007-0.025l-0.027,0.085l-0.051,0.199c-0.03,0.121-0.049,0.299-0.059,0.376c-0.01,0.074-0.017,0.149-0.019,0.224
			c0.001,0.185-0.004,0.208,0.001,0.292c0.015,0.232,0.011,0.164-0.037,0.063c-0.091-0.227-0.284-0.646-0.499-1.058
			c-0.907-1.718-2.126-3.684-3.372-5.561c-1.261-1.893-2.55-3.809-3.886-5.702c-2.643-3.796-5.377-7.622-8.055-11.384
			L172.708,153.858z"/>
		<path style="fill:#B55B52;" d="M174.883,204.818l-7.715,5.454l-3.458-7.885c0,0,4.675-2.503,8.366-0.829L174.883,204.818z"/>
		<path style="fill:#B55B52;" d="M161.796,210.922l-1.921-2.69c-0.768-1.075-0.537-2.567,0.521-3.36l3.315-2.485l3.458,7.885
			l-2.116,1.306C163.963,212.25,162.539,211.963,161.796,210.922z"/>
		<path style="fill:#407BFF;" d="M157.285,151.483c-2.626,10.411,13.534,28.223,13.534,28.223l13.589-14.105
			c0,0-6.205-13.261-14.314-17.419C164.43,145.277,158.442,146.894,157.285,151.483z"/>
		<path style="fill:#263238;" d="M151.365,116.319l-1.696-0.994C149.669,115.325,150.244,116.994,151.365,116.319z"/>
		<g>
			<path style="fill:#263238;" d="M133.958,179.289c-0.144,0-0.28-0.088-0.335-0.231c-0.07-0.185,0.022-0.391,0.207-0.461
				l1.561-0.595c2.989-1.139,4.936-3.941,4.96-7.14l0.111-14.62c0.021-2.821-1.97-4.32-3.681-4.747
				c-1.709-0.426-4.172-0.035-5.477,2.466l-6.761,12.963c-1.479,2.837-1.074,6.225,1.032,8.633l1.099,1.257
				c0.13,0.148,0.115,0.375-0.034,0.505c-0.148,0.132-0.375,0.115-0.505-0.034l-1.099-1.257c-2.301-2.631-2.744-6.334-1.128-9.434
				l6.761-12.963c1.232-2.364,3.702-3.471,6.285-2.83c2.586,0.645,4.244,2.782,4.224,5.447l-0.111,14.62
				c-0.026,3.495-2.154,6.558-5.421,7.802l-1.56,0.595C134.043,179.281,134,179.289,133.958,179.289z"/>
			<path style="fill:#263238;" d="M140.79,159.496c-0.194,0-0.354-0.154-0.358-0.35c-0.064-2.851-2.373-4.432-4.331-4.919
				c-1.959-0.487-4.74-0.176-6.134,2.313c-0.096,0.172-0.315,0.23-0.487,0.138c-0.172-0.097-0.234-0.315-0.137-0.487
				c1.309-2.337,4.029-3.38,6.931-2.657c2.901,0.723,4.814,2.92,4.874,5.598c0.004,0.197-0.152,0.361-0.35,0.365
				C140.795,159.496,140.792,159.496,140.79,159.496z"/>
			<path style="fill:#263238;" d="M136.892,151.512c-0.118,0-0.233-0.058-0.302-0.164c-0.351-0.547-0.338-1.51,0.035-2.576
				c0.6-1.715,1.861-3.044,3.372-3.556c0.188-0.062,0.39,0.037,0.454,0.224c0.064,0.188-0.037,0.391-0.224,0.454
				c-1.933,0.654-2.728,2.549-2.926,3.114c-0.332,0.949-0.294,1.665-0.108,1.953c0.106,0.166,0.059,0.388-0.108,0.494
				C137.025,151.494,136.958,151.512,136.892,151.512z"/>
			<path style="fill:#263238;" d="M133.176,178.736c-0.163,0.654,0.055,1.272,0.486,1.38c0.432,0.107,0.914-0.336,1.077-0.99
				c0.163-0.655-0.055-1.272-0.486-1.38C133.821,177.638,133.339,178.081,133.176,178.736z"/>
			<path style="fill:#263238;" d="M161.557,161.47c0.328,1.506,1.4,2.551,2.393,2.335c0.993-0.217,1.532-1.613,1.204-3.119
				c-0.328-1.506-1.4-2.551-2.393-2.335C161.767,158.568,161.228,159.964,161.557,161.47z"/>
			<path style="fill:#263238;" d="M164.685,161.023c-0.191,0-0.35-0.151-0.357-0.344c-0.212-5.529-2.303-12.403-6.395-14.429
				c-0.177-0.087-0.249-0.302-0.162-0.48c0.088-0.177,0.303-0.251,0.48-0.161c4.378,2.166,6.566,9.115,6.793,15.042
				c0.008,0.197-0.146,0.363-0.344,0.371C164.694,161.023,164.69,161.023,164.685,161.023z"/>
			<path style="fill:#FFFFFF;" d="M160.491,161.596c0.21,1.293,1.142,2.217,2.083,2.064c0.94-0.153,1.532-1.324,1.322-2.617
				c-0.21-1.293-1.142-2.217-2.083-2.064C160.873,159.132,160.281,160.303,160.491,161.596z"/>
			<path style="fill:#263238;" d="M160.407,161.71c0.305,1.598,1.142,2.78,1.868,2.641c0.727-0.139,1.068-1.546,0.763-3.144
				c-0.305-1.598-1.142-2.78-1.868-2.641C160.443,158.705,160.102,160.113,160.407,161.71z"/>
			<path style="fill:#263238;" d="M125.622,176.854c-0.163,0.654,0.055,1.272,0.486,1.38c0.432,0.107,0.914-0.336,1.077-0.99
				c0.163-0.654-0.055-1.272-0.486-1.38C126.268,175.756,125.785,176.2,125.622,176.854z"/>
		</g>
	</g>
</g>
<g id="Character_2">
	<g>
		<path style="fill:#263238;" d="M235.163,95.425c-6.337,1.129-7.135,0.55-7.217-3.976c-0.082-4.526-2.377-12.14,0.826-14.52
			c2.036-1.513,2.872,0.839,2.872,0.839c0.459-1.034,1.599-1.605,2.603-1.205c0.137-0.942,0.286-3.354,2.042-4.05
			c1.756-0.696,3.302,0.904,3.302,0.904s-0.13-3.702,2.373-3.348c2.503,0.354,3.002,2.935,3.002,2.935s1.446-2.103,3.396-1.273
			c1.949,0.831,1.565,3.245,1.565,3.245s2.076-0.993,3.617,0.136c1.541,1.129,0.415,2.935,0.415,2.935s1.404-3.596,4.068-1.603
			c2.401,1.796,0.228,4.613,0.228,4.613s2.636-0.427,3.273,0.904c2.167,4.532-6.066,9.592-6.333,17.238
			C242.55,104.043,235.163,95.425,235.163,95.425z"/>
		<path style="fill:#FFB573;" d="M189.544,216.959l-4.219-0.777l-5.584,5.333c-0.611,0.584-0.95,1.397-0.935,2.242l0.081,4.36
			c0.029,1.544,1.216,2.818,2.754,2.954l1.937,0.172c1.458,0.13,2.799-0.804,3.184-2.216l0.971-3.56
			C187.733,225.468,193.265,218.976,189.544,216.959z"/>
		<g>
			<path style="fill:#407BFF;" d="M232.16,137.263c-2.834,7.332-5.653,14.687-8.37,22.063c-2.749,7.348-5.421,14.797-7.946,22.087
				l-0.457,1.347l-0.306,0.876c-0.118,0.333-0.24,0.67-0.355,0.939c-0.47,1.184-0.936,2.167-1.409,3.16
				c-0.934,1.961-1.883,3.786-2.85,5.592c-1.931,3.601-3.918,7.075-5.93,10.529c-3.985,6.933-8.051,13.701-12.132,20.574
				l-12.738-7.919c4.199-6.53,8.249-13.266,12.131-19.983c1.91-3.376,3.79-6.767,5.539-10.131c0.87-1.678,1.718-3.359,2.451-4.966
				c0.353-0.794,0.702-1.605,0.937-2.26c0.075-0.186,0.111-0.315,0.153-0.447l0.168-0.523l0.453-1.463
				c2.411-7.672,4.946-15.093,7.379-22.622l7.328-22.516L232.16,137.263z"/>
			<path style="opacity:0.6;fill:#FFFFFF;" d="M232.16,137.263c-2.834,7.332-5.653,14.687-8.37,22.063
				c-2.749,7.348-5.421,14.797-7.946,22.087l-0.457,1.347l-0.306,0.876c-0.118,0.333-0.24,0.67-0.355,0.939
				c-0.47,1.184-0.936,2.167-1.409,3.16c-0.934,1.961-1.883,3.786-2.85,5.592c-1.931,3.601-3.918,7.075-5.93,10.529
				c-3.985,6.933-8.051,13.701-12.132,20.574l-12.738-7.919c4.199-6.53,8.249-13.266,12.131-19.983
				c1.91-3.376,3.79-6.767,5.539-10.131c0.87-1.678,1.718-3.359,2.451-4.966c0.353-0.794,0.702-1.605,0.937-2.26
				c0.075-0.186,0.111-0.315,0.153-0.447l0.168-0.523l0.453-1.463c2.411-7.672,4.946-15.093,7.379-22.622l7.328-22.516
				L232.16,137.263z"/>
		</g>
		<polygon style="fill:#FFB573;" points="194.02,404.909 185.054,405.348 189.288,381.993 197.82,383.951 		"/>
		<polygon style="fill:#FFB573;" points="258.372,405.246 249.404,405.246 249.427,384.478 258.395,384.478 		"/>
		<path style="fill:#263238;" d="M248.547,404.207l10.933,0c0.367,0,0.674,0.255,0.738,0.612l1.445,7.971
			c0.15,0.827-0.532,1.609-1.378,1.595c-3.515-0.06-6.074-0.267-10.504-0.267c-2.726,0-10.958,0.283-14.722,0.283
			c-3.682,0-4.103-3.722-2.548-4.059c6.972-1.512,12.264-3.596,14.558-5.585C247.482,404.4,248.011,404.207,248.547,404.207z"/>
		<polygon style="opacity:0.2;" points="189.289,382 187.329,392.802 195.864,394.761 197.824,383.958 		"/>
		<rect x="249.422" y="384.484" style="opacity:0.2;" width="8.972" height="10.705"/>
		<path style="fill:#407BFF;" d="M265.605,137.008c-6.978,31.493-5.14,62.567-5.886,69.297c-7.019-0.452-33.454-2.202-47.865-3.158
			c-4.984-37.948,0.577-62.237,3.747-72.178c1.066-3.345,3.951-5.779,7.433-6.225c5.816-0.745,13.976-0.997,21.443-0.675
			c4.902,0.212,10.119,1.181,14.36,2.178C263.665,127.383,266.678,132.167,265.605,137.008z"/>
		<path style="fill:#FFB573;" d="M251.179,102.719c-1.574,5.926-3.449,16.436-0.438,21.74c0.474,0.835-0.435,1.539-0.471,2.499
			c-0.112,2.943-4.09,3.825-11.213,3.86c-7.19,0.036-10.17-2.928-8.23-5.732c0.295-0.427,0.752-0.703,1.259-0.816
			c6.675-1.493,6.801-6.723,5.898-11.713L251.179,102.719z"/>
		<path style="opacity:0.4;" d="M238.553,129.192c0,0,2.846,3.613,3.449,8.78c7.106-3.342,10.498-11.449,10.498-11.449l-2.142-2.295
			C250.359,124.228,242.459,125.753,238.553,129.192z"/>
		<path style="opacity:0.4;" d="M237.846,129.219c0,0-3.161,2.25-6.511,7.637c-4.973-3.075-3.322-11.868-3.322-11.868l4.048-0.795
			C232.06,124.194,233.864,125.868,237.846,129.219z"/>
		<path style="fill:#263238;" d="M238.174,129.02l-1.539,0.15l-2.582,1.706c-0.149,1.087-0.018,2.111,0.52,3.045
			c0,0,2.496,0.507,4.566,0.307c1.854-1.009,2.31-2.379,2.31-2.379l-1.901-2.426L238.174,129.02z"/>
		<path style="fill:#407BFF;" d="M238.174,129.02c0,0,2.84,3.319,4.348,8.065c7.106-3.342,11.251-11.326,11.251-11.326l-3.43-3.031
			C250.342,122.728,242.079,125.581,238.174,129.02z"/>
		<path style="fill:#407BFF;" d="M238.174,129.02c0,0-3.612,2.026-7.089,6.561c-4.973-3.075-3.081-11.342-3.081-11.342l4.048-0.795
			C232.052,123.444,234.193,125.669,238.174,129.02z"/>
		<path style="opacity:0.2;" d="M245.799,106.733l-7.809,5.819c0.226,1.224,0.382,2.46,0.389,3.653
			c2.815-0.219,6.849-3.027,7.338-5.927C245.96,108.831,245.992,107.427,245.799,106.733z"/>
		<path style="fill:#FFB573;" d="M252.609,92.919c-1.13,8.828-1.343,14.053-6.121,18.307c-7.187,6.399-17.86,1.616-19.39-7.372
			c-1.377-8.09,0.702-21.168,9.612-24.122C245.488,76.82,253.739,84.09,252.609,92.919z"/>
		<path style="fill:#263238;" d="M250.451,100.898c-2.05-1.932-0.751-11.171,0.257-13.818c-5.012,0.477-21.158,0.457-20.546-4.003
			c0.612-4.46,6.485-8.249,16.094-5.118c8.025,2.615,10.009,6.599,10.046,9.862C256.377,94.516,250.451,100.898,250.451,100.898z"/>
		<path style="fill:#FFB573;" d="M255.706,101.01c-1.028,1.979-2.826,3.3-4.52,3.824c-2.548,0.789-3.809-1.562-3.089-4.081
			c0.647-2.267,2.754-5.41,5.306-5.096C255.917,95.967,256.882,98.746,255.706,101.01z"/>
		<path style="fill:#263238;" d="M184.408,390.063l14.828,3.27c0,0,14.423-56.517,18.707-84.132
			c1.304-8.4,4.345-20.393,7.112-33.017c3.494-15.906,7.887-33.106,11.485-46.576c3.797-14.187,6.616-24.388,6.616-24.388
			l-31.301-2.072c0,0-14.57,73.913-17.515,101.124C191.274,332.566,184.408,390.063,184.408,390.063z"/>
		<path style="opacity:0.2;" d="M225.055,276.184c3.494-15.906,7.887-33.106,11.485-46.576l-3.29-7.018
			C225.482,231.89,223.488,260.598,225.055,276.184z"/>
		<path style="fill:#263238;" d="M226.768,204.135c0,0,6.484,75.525,9.042,101.677c2.8,28.638,10.313,87.304,10.313,87.304h15.058
			c0,0,0.68-62.475-2.027-90.132c-0.382-54.378,0.565-96.677,0.565-96.677L226.768,204.135z"/>
		<polygon style="fill:#407BFF;" points="244.157,393.47 263.499,393.47 263.499,387.692 243.406,386.578 		"/>
		<polygon style="fill:#407BFF;" points="182.469,389.996 200.139,393.902 201.4,388.193 182.902,383.527 		"/>
		<path style="fill:#263238;" d="M239.697,94.5c-0.048,0.722-0.469,1.281-0.941,1.25c-0.472-0.031-0.816-0.642-0.768-1.363
			c0.048-0.722,0.469-1.282,0.941-1.25C239.401,93.168,239.745,93.778,239.697,94.5z"/>
		<path style="fill:#263238;" d="M231.539,93.96c-0.048,0.722-0.469,1.282-0.941,1.25s-0.816-0.642-0.768-1.363
			c0.048-0.722,0.469-1.282,0.941-1.25C231.243,92.628,231.587,93.239,231.539,93.96z"/>
		<path style="fill:#ED893E;" d="M233.411,94.499c0,0-1.916,4.055-3.856,5.945c1.198,1.276,3.405,0.875,3.405,0.875L233.411,94.499z
			"/>
		<path style="fill:#263238;" d="M235.875,103.451c2.77-0.189,4.17-2.01,4.234-2.096c0.07-0.094,0.051-0.226-0.042-0.297
			c-0.094-0.07-0.227-0.051-0.297,0.042c-0.016,0.021-1.651,2.136-4.809,1.927c-0.117-0.007-0.218,0.081-0.226,0.198
			c-0.008,0.117,0.081,0.218,0.198,0.226C235.262,103.473,235.577,103.471,235.875,103.451z"/>
		<path style="fill:#263238;" d="M241.689,92.039c0.071-0.005,0.141-0.027,0.204-0.069c0.196-0.129,0.25-0.392,0.122-0.588
			c-1.291-1.964-3.252-1.978-3.335-1.978c-0.235,0.001-0.424,0.192-0.423,0.426c0.001,0.234,0.191,0.423,0.424,0.423l0,0
			c0.065,0,1.594,0.028,2.624,1.595C241.392,91.981,241.541,92.049,241.689,92.039z"/>
		<path style="fill:#263238;" d="M227.512,90.93c0.137-0.009,0.267-0.085,0.34-0.213c0.929-1.629,2.453-1.754,2.518-1.758
			c0.233-0.016,0.411-0.218,0.396-0.451c-0.015-0.233-0.215-0.411-0.448-0.397c-0.084,0.007-2.039,0.144-3.203,2.185
			c-0.116,0.204-0.045,0.463,0.159,0.579C227.348,90.918,227.431,90.935,227.512,90.93z"/>
		<g>
			<path style="fill:#407BFF;" d="M245.517,405.774c0.829,0,1.731-0.172,2.36-0.322c0.084-0.02,0.15-0.088,0.167-0.172
				c0.017-0.085-0.018-0.169-0.088-0.214c-0.318-0.204-3.139-1.981-4.151-1.472c-0.157,0.079-0.352,0.247-0.389,0.601
				c-0.049,0.475,0.083,0.853,0.393,1.122C244.201,405.658,244.835,405.774,245.517,405.774z M247.273,405.153
				c-1.535,0.306-2.704,0.25-3.178-0.162c-0.208-0.181-0.292-0.433-0.257-0.771c0.017-0.165,0.086-0.22,0.145-0.249
				C244.509,403.707,246.126,404.474,247.273,405.153z"/>
			<path style="fill:#407BFF;" d="M247.827,405.458c0.04,0,0.081-0.012,0.117-0.034c0.067-0.042,0.107-0.117,0.104-0.195
				c-0.004-0.11-0.112-2.697-1.119-3.549c-0.262-0.222-0.563-0.314-0.894-0.273h0c-0.51,0.063-0.657,0.376-0.699,0.557
				c-0.231,1,1.483,2.964,2.39,3.468C247.758,405.449,247.792,405.458,247.827,405.458z M246.166,401.823
				c0.175,0,0.333,0.061,0.48,0.186c0.646,0.546,0.87,2.054,0.944,2.81c-0.894-0.7-1.976-2.185-1.84-2.775
				c0.012-0.054,0.042-0.18,0.319-0.214l0,0C246.102,401.825,246.134,401.823,246.166,401.823z"/>
		</g>
		<path style="fill:#263238;" d="M183.706,401.396l10.52,2.977c0.353,0.1,0.579,0.428,0.544,0.79l-0.78,8.064
			c-0.081,0.836-0.95,1.404-1.76,1.159c-3.366-1.015-5.771-1.91-10.035-3.117c-2.623-0.742-11.153-3.797-14.26-5.922
			c-3.039-2.078-1.287-5.388,0.187-4.789c6.608,2.686,11.264,2.254,14.012,0.965C182.629,401.292,183.19,401.25,183.706,401.396z"/>
		<g>
			<path style="fill:#407BFF;" d="M180.363,402.079c0.798,0.226,1.713,0.306,2.359,0.332c0.086,0.004,0.168-0.044,0.208-0.12
				c0.04-0.077,0.029-0.167-0.027-0.23c-0.251-0.283-2.481-2.761-3.594-2.546c-0.173,0.033-0.406,0.142-0.538,0.472
				c-0.177,0.444-0.152,0.843,0.073,1.187C179.129,401.608,179.707,401.893,180.363,402.079z M182.222,401.959
				c-1.56-0.124-2.67-0.496-3.014-1.021c-0.151-0.23-0.163-0.496-0.037-0.811c0.061-0.154,0.143-0.188,0.207-0.201
				C179.957,399.815,181.303,400.993,182.222,401.959z"/>
			<path style="fill:#407BFF;" d="M182.672,402.403c0.039,0.011,0.081,0.011,0.122-0.001c0.076-0.022,0.135-0.084,0.153-0.159
				c0.026-0.107,0.626-2.626-0.111-3.719c-0.192-0.285-0.456-0.455-0.786-0.506h0c-0.508-0.079-0.734,0.183-0.824,0.346
				c-0.494,0.899,0.62,3.256,1.356,3.988C182.608,402.376,182.639,402.394,182.672,402.403z M182.063,398.453
				c0.168,0.048,0.303,0.15,0.412,0.31c0.473,0.701,0.278,2.213,0.143,2.961c-0.669-0.917-1.306-2.64-1.014-3.172
				c0.027-0.049,0.089-0.162,0.365-0.12l0,0C182.002,398.438,182.033,398.444,182.063,398.453z"/>
		</g>
		<g>
			<path style="fill:#407BFF;" d="M251.328,123.685c-0.46-0.083-0.846,0.294-0.815,0.76c0.349,5.358-8.031,14.966-9.985,43.862
				c-1.188,17.567-2.281,72.309-1.479,100.792c0.045,1.601,1.588,2.721,3.131,2.291c14.757-4.116,21.727,5.866,24.573-5.913
				c-0.158-14.108-4.428-64.768-3.327-76.773c1.1-12.006,5.674-44.645,6.812-53.341
				C271.227,127.802,255.457,124.435,251.328,123.685z"/>
			<path style="opacity:0.7;fill:#FFFFFF;" d="M251.328,123.685c-0.46-0.083-0.846,0.294-0.815,0.76
				c0.349,5.358-8.031,14.966-9.985,43.862c-1.188,17.567-2.281,72.309-1.479,100.792c0.045,1.601,1.588,2.721,3.131,2.291
				c14.757-4.116,21.727,5.866,24.573-5.913c-0.158-14.108-4.428-64.768-3.327-76.773c1.1-12.006,5.674-44.645,6.812-53.341
				C271.227,127.802,255.457,124.435,251.328,123.685z"/>
		</g>
		<path style="opacity:0.2;fill:#407BFF;" d="M261.057,148.147c-0.648,4.462-0.902,22.487,3.396,31.149
			c0.717-5.955,1.652-13.13,2.57-20.019L261.057,148.147z"/>
		<path style="fill:#FFB573;" d="M267.191,226.079l-4.262,0.496l-3.773,6.737c-0.413,0.738-0.499,1.615-0.235,2.418l1.357,4.144
			c0.481,1.467,1.99,2.336,3.5,2.016l1.903-0.404c1.432-0.304,2.44-1.59,2.393-3.053l-0.117-3.688
			C267.958,234.746,271.341,226.915,267.191,226.079z"/>
		<g>
			<path style="fill:#407BFF;" d="M269.533,132.003c1.352,4.021,2.616,7.949,3.865,11.944c1.25,3.981,2.502,7.967,3.68,11.996
				c1.173,4.034,2.318,8.088,3.374,12.254c0.522,2.089,1.018,4.202,1.455,6.412c0.216,1.109,0.419,2.242,0.591,3.439
				c0.079,0.622,0.171,1.192,0.226,1.878l0.089,0.994l0.045,1.125c0.019,0.37,0.007,0.76-0.005,1.147
				c-0.01,0.393-0.027,0.781-0.057,1.089l-0.084,0.989l-0.107,0.904c-0.146,1.202-0.328,2.306-0.504,3.406
				c-0.364,2.184-0.777,4.281-1.209,6.364c-0.864,4.157-1.821,8.223-2.795,12.278c-0.952,4.058-1.943,8.092-2.958,12.116
				l-3.033,12.095l-14.475-3.932c2.24-7.807,4.28-15.765,6.165-23.663c0.919-3.956,1.788-7.919,2.556-11.832
				c0.381-1.953,0.739-3.9,1.028-5.78c0.144-0.932,0.267-1.865,0.345-2.709c0.098-0.913,0.113-1.548,0.088-2.03l-0.027-0.416
				l-0.068-0.542c-0.03-0.34-0.117-0.785-0.176-1.182c-0.143-0.836-0.324-1.726-0.526-2.632c-0.409-1.819-0.901-3.703-1.425-5.595
				c-1.049-3.793-2.268-7.628-3.558-11.449c-2.552-7.642-5.42-15.332-8.387-22.811L269.533,132.003z"/>
			<path style="opacity:0.7;fill:#FFFFFF;" d="M269.533,132.003c1.352,4.021,2.616,7.949,3.865,11.944
				c1.25,3.981,2.502,7.967,3.68,11.996c1.173,4.034,2.318,8.088,3.374,12.254c0.522,2.089,1.018,4.202,1.455,6.412
				c0.216,1.109,0.419,2.242,0.591,3.439c0.079,0.622,0.171,1.192,0.226,1.878l0.089,0.994l0.045,1.125
				c0.019,0.37,0.007,0.76-0.005,1.147c-0.01,0.393-0.027,0.781-0.057,1.089l-0.084,0.989l-0.107,0.904
				c-0.146,1.202-0.328,2.306-0.504,3.406c-0.364,2.184-0.777,4.281-1.209,6.364c-0.864,4.157-1.821,8.223-2.795,12.278
				c-0.952,4.058-1.943,8.092-2.958,12.116l-3.033,12.095l-14.475-3.932c2.24-7.807,4.28-15.765,6.165-23.663
				c0.919-3.956,1.788-7.919,2.556-11.832c0.381-1.953,0.739-3.9,1.028-5.78c0.144-0.932,0.267-1.865,0.345-2.709
				c0.098-0.913,0.113-1.548,0.088-2.03l-0.027-0.416l-0.068-0.542c-0.03-0.34-0.117-0.785-0.176-1.182
				c-0.143-0.836-0.324-1.726-0.526-2.632c-0.409-1.819-0.901-3.703-1.425-5.595c-1.049-3.793-2.268-7.628-3.558-11.449
				c-2.552-7.642-5.42-15.332-8.387-22.811L269.533,132.003z"/>
		</g>
		<g>
			<path style="fill:#407BFF;" d="M231.878,122.934c0.983-0.02,1.552,1.142,0.91,1.887c-2.38,2.758-3.881,6.546-6.696,18.708
				c-3.397,14.674-10.642,88.484-12.014,124.647c-0.048,1.266-1.206,2.193-2.452,1.964c-7.052-1.296-11.896,2.122-12.663-2.405
				c-0.85-5.017,2.321-52.762,8.243-75.227c-0.928-19.92,2.432-59.881,9.148-65.184C220.044,124.41,227.739,123.019,231.878,122.934
				z"/>
			<path style="opacity:0.7;fill:#FFFFFF;" d="M231.878,122.934c0.983-0.02,1.552,1.142,0.91,1.887
				c-2.38,2.758-3.881,6.546-6.696,18.708c-3.397,14.674-10.642,88.484-12.014,124.647c-0.048,1.266-1.206,2.193-2.452,1.964
				c-7.052-1.296-11.896,2.122-12.663-2.405c-0.85-5.017,2.321-52.762,8.243-75.227c-0.928-19.92,2.432-59.881,9.148-65.184
				C220.044,124.41,227.739,123.019,231.878,122.934z"/>
		</g>
		<path style="fill:#263238;" d="M235.772,132.839c0,0-8.646,24.276-11.684,44.612c-0.242,5.527,2.393,16.237,4.521,20.914
			c4.451-9.693,7.235-15.408,7.667-20.914c0.714-8.295,1.883-44.449,1.883-44.449L235.772,132.839z"/>
		<g>
			<path style="fill:#263238;" d="M253.855,161.709c-0.143,0-0.282-0.077-0.353-0.213c-0.101-0.194-0.026-0.434,0.169-0.535
				l1.642-0.856c3.144-1.642,4.925-4.981,4.536-8.506l-1.775-16.114c-0.342-3.11-2.729-4.503-4.669-4.75
				c-1.944-0.255-4.601,0.501-5.712,3.425l-5.763,15.153c-1.261,3.315-0.375,6.994,2.256,9.372l1.374,1.242
				c0.163,0.146,0.175,0.397,0.028,0.561c-0.148,0.161-0.399,0.175-0.561,0.027l-1.374-1.242c-2.875-2.599-3.844-6.618-2.466-10.241
				l5.763-15.153c1.051-2.762,3.623-4.304,6.555-3.931c2.931,0.374,5.034,2.513,5.357,5.45l1.775,16.115
				c0.424,3.853-1.522,7.501-4.958,9.295l-1.642,0.856C253.98,161.695,253.917,161.709,253.855,161.709z"/>
			<path style="fill:#263238;" d="M258.81,139.027c-0.195,0-0.365-0.143-0.393-0.341c-0.44-3.132-3.188-4.573-5.408-4.856
				c-2.222-0.284-5.242,0.424-6.454,3.344c-0.085,0.202-0.319,0.296-0.519,0.214c-0.203-0.084-0.299-0.315-0.215-0.519
				c1.139-2.743,3.992-4.246,7.288-3.826c3.288,0.42,5.68,2.591,6.094,5.532c0.03,0.218-0.121,0.418-0.338,0.448
				C258.847,139.026,258.828,139.027,258.81,139.027z"/>
			<path style="fill:#263238;" d="M253.428,130.733c-0.008,0-0.017,0-0.025,0c-0.219-0.014-0.385-0.202-0.372-0.421
				c0.12-1.951-0.159-5.501-1.958-6.427c-0.195-0.1-0.272-0.339-0.172-0.534c0.1-0.194,0.34-0.272,0.534-0.171
				c2.665,1.369,2.424,6.59,2.388,7.181C253.811,130.571,253.636,130.733,253.428,130.733z"/>
			<path style="fill:#263238;" d="M246.178,160.333c-0.095,0.742-0.568,1.293-1.057,1.23c-0.489-0.062-0.809-0.714-0.715-1.456
				c0.095-0.742,0.568-1.293,1.057-1.23C245.953,158.94,246.273,159.592,246.178,160.333z"/>
			<path style="fill:#263238;" d="M222.926,144.121c-0.624,1.591-1.981,2.547-3.031,2.135c-1.049-0.412-1.394-2.036-0.769-3.626
				c0.624-1.591,1.981-2.547,3.031-2.135C223.206,140.906,223.55,142.53,222.926,144.121z"/>
			<path style="fill:#263238;" d="M219.642,143.086c-0.026,0-0.052-0.002-0.079-0.008c-0.215-0.043-0.354-0.252-0.311-0.467
				c1.316-6.57,6.777-16.948,11.587-19.98c0.185-0.116,0.43-0.061,0.547,0.124c0.117,0.186,0.062,0.431-0.124,0.548
				c-4.649,2.932-9.946,13.046-11.231,19.465C219.993,142.956,219.827,143.086,219.642,143.086z"/>
			<path style="fill:#FFFFFF;" d="M224.07,144.446c-0.457,1.378-1.641,2.226-2.643,1.893c-1.003-0.333-1.445-1.72-0.987-3.098
				c0.457-1.378,1.641-2.226,2.643-1.893C224.085,141.681,224.527,143.068,224.07,144.446z"/>
			<path style="fill:#263238;" d="M224.142,144.586c-0.615,1.695-1.739,2.842-2.51,2.563c-0.771-0.28-0.897-1.881-0.281-3.576
				c0.615-1.695,1.739-2.843,2.51-2.563C224.631,141.29,224.757,142.891,224.142,144.586z"/>
			<path style="fill:#263238;" d="M254.741,161.426c-0.095,0.742-0.568,1.293-1.057,1.23c-0.489-0.062-0.809-0.714-0.715-1.456
				c0.095-0.742,0.568-1.293,1.057-1.23S254.835,160.684,254.741,161.426z"/>
		</g>
	</g>
</g>
<g id="Character_3">
	<g>
		<path style="fill:#263238;" d="M311.443,118.104c3.341,9.129-5.545,13.717-11.365,27.162c-5.82,13.445,8.221,29.494,29.771,29.847
			c21.55,0.353,22.229-20.298,18.891-35.104c-3.338-14.806,3.641-17.222,2.16-28.528C348.953,96.62,327.586,85.361,319.086,99
			C311.531,98.287,308.523,110.124,311.443,118.104z"/>
		<path style="fill:#FFC3BD;" d="M375.269,241.041l-0.045-1.156c-0.022-0.56-0.164-1.108-0.417-1.608l-3.616-7.132l-4.234-0.849
			c-2.993,3.238-0.039,9.675-0.039,9.675v1.056c0,1.735,1.15,3.26,2.818,3.738l0.576,0.165
			C372.857,245.659,375.371,243.687,375.269,241.041z"/>
		<g>
			<path style="fill:#407BFF;" d="M357.297,149.149l1.56,10.938l1.641,10.926c0.541,3.643,1.109,7.282,1.693,10.917l1.731,10.842
				l0.211,1.067c0.064,0.349,0.188,0.799,0.279,1.194l0.296,1.224l0.35,1.27c0.453,1.684,0.975,3.419,1.486,5.14
				c1.039,3.455,2.141,6.938,3.273,10.409c2.307,6.93,4.704,13.893,7.263,20.733l-14.135,5.018l-7.082-21.135
				c-1.173-3.536-2.363-7.064-3.49-10.661c-0.562-1.807-1.126-3.597-1.658-5.468l-0.403-1.392l-0.395-1.454
				c-0.13-0.5-0.266-0.936-0.391-1.49l-0.372-1.637l-2.081-10.956c-0.678-3.632-1.373-7.261-2.094-10.885l-2.145-10.878
				l-2.227-10.865L357.297,149.149z"/>
			<path style="opacity:0.6;fill:#FFFFFF;" d="M357.297,149.149l1.56,10.938l1.641,10.926c0.541,3.643,1.109,7.282,1.693,10.917
				l1.731,10.842l0.211,1.067c0.064,0.349,0.188,0.799,0.279,1.194l0.296,1.224l0.35,1.27c0.453,1.684,0.975,3.419,1.486,5.14
				c1.039,3.455,2.141,6.938,3.273,10.409c2.307,6.93,4.704,13.893,7.263,20.733l-14.135,5.018l-7.082-21.135
				c-1.173-3.536-2.363-7.064-3.49-10.661c-0.562-1.807-1.126-3.597-1.658-5.468l-0.403-1.392l-0.395-1.454
				c-0.13-0.5-0.266-0.936-0.391-1.49l-0.372-1.637l-2.081-10.956c-0.678-3.632-1.373-7.261-2.094-10.885l-2.145-10.878
				l-2.227-10.865L357.297,149.149z"/>
		</g>
		<path style="fill:#263238;" d="M355.05,148.305c0.47,5.336,0.047,18.593-5.3,51.469h-37.042
			c0.589-14.288,0.636-23.385-5.496-50.637c-0.581-2.583,1.128-5.135,3.742-5.555c2.943-0.473,6.903-0.997,10.916-1.19
			c6.233-0.3,11.34-0.499,16.82,0.001c4.597,0.42,9.586,1.251,12.607,1.8C353.335,144.562,354.868,146.243,355.05,148.305z"/>
		<path style="fill:#FFC3BD;" d="M323.538,123.452c1.061,5.412,2.12,15.328-1.667,18.939c0,0,4.741,5.756,11.987,5.756
			c7.246,0,4.833-5.756,4.833-5.756c-6.035-1.441-5.879-5.919-4.828-10.124L323.538,123.452z"/>
		<path style="opacity:0.2;" d="M327.748,127.049l6.111,5.214c-0.252,0.995-0.448,2.005-0.519,2.986
			c-2.306-0.333-5.931-2.298-6.426-4.804C326.679,129.257,327.551,127.61,327.748,127.049z"/>
		<path style="fill:#FFC3BD;" d="M317.168,112.826c1.413,8.941,1.82,12.755,6.803,16.937c7.497,6.29,18.17,2.6,19.457-6.583
			c1.159-8.265-1.346-21.498-10.492-24.235C323.927,96.249,315.756,103.886,317.168,112.826z"/>
		<path style="fill:#263238;" d="M318.663,119.273c5.115-5.07,6.878-12.125,6.393-14.991c4.938,1.367,8.554-0.573,8.333-1.411
			c3.483,3.395,9.788,6.085,9.083,2.425c-0.706-3.66-5.379-10.405-15.123-8.025c-9.744,2.381-13.492,12.43-13.404,16.488
			C314.034,117.818,318.663,119.273,318.663,119.273z"/>
		<path style="fill:#263238;" d="M330.035,113.843c0.07,0.732,0.515,1.289,0.993,1.243c0.479-0.046,0.81-0.676,0.74-1.409
			c-0.07-0.732-0.515-1.289-0.993-1.243S329.965,113.11,330.035,113.843z"/>
		<path style="fill:#263238;" d="M338.313,113.051c0.07,0.732,0.515,1.289,0.994,1.243s0.81-0.676,0.74-1.409
			c-0.07-0.732-0.515-1.289-0.994-1.243S338.243,112.319,338.313,113.051z"/>
		<path style="fill:#263238;" d="M338.845,111.703l1.71-0.675C340.556,111.028,339.784,112.488,338.845,111.703z"/>
		<path style="fill:#ED847E;" d="M335.887,114.614c0,0,1.544,3.034,3.058,4.424c-0.88,0.995-2.564,0.74-2.564,0.74L335.887,114.614z
			"/>
		<path style="fill:#263238;" d="M332.661,123.028c0.342,0.02,0.704,0.014,1.087-0.022c0.119-0.011,0.206-0.117,0.195-0.235
			c-0.012-0.119-0.117-0.212-0.236-0.194c-3.216,0.302-4.929-1.795-4.947-1.816c-0.075-0.094-0.21-0.11-0.304-0.034
			c-0.093,0.074-0.108,0.211-0.034,0.304C328.489,121.113,329.923,122.87,332.661,123.028z"/>
		<path style="fill:#FFC3BD;" d="M315.194,120.099c0.693,1.744,2.127,3.005,3.553,3.592c2.145,0.884,3.49-0.969,3.122-3.136
			c-0.331-1.951-1.845-4.761-4.108-4.723C315.532,115.869,314.401,118.105,315.194,120.099z"/>
		<path style="fill:#263238;" d="M327.152,110.007c0.17,0.065,0.37,0.017,0.49-0.132c1.255-1.555,3.825-1.408,3.851-1.406
			c0.238,0.016,0.444-0.165,0.459-0.403c0.016-0.237-0.162-0.444-0.403-0.459c-0.124-0.008-3.045-0.174-4.579,1.726
			c-0.15,0.186-0.121,0.458,0.065,0.607C327.071,109.969,327.111,109.992,327.152,110.007z"/>
		<path style="fill:#263238;" d="M341.318,109.092c0.147,0.008,0.295-0.058,0.384-0.189c0.133-0.198,0.081-0.466-0.116-0.6
			c-1.98-1.337-3.828-0.583-3.905-0.55c-0.22,0.093-0.323,0.346-0.23,0.566c0.092,0.219,0.344,0.321,0.565,0.231
			c0.074-0.031,1.514-0.592,3.086,0.47C341.168,109.064,341.243,109.088,341.318,109.092z"/>
		<g>
			<polygon style="fill:#FFC3BD;" points="372.742,406.789 381.948,406.346 379.223,385.552 370.017,385.995 			"/>
			<g style="opacity:0.2;">
				<polygon points="379.222,385.558 380.628,396.276 371.419,396.719 370.012,386.001 				"/>
			</g>
			<path style="fill:#407BFF;" d="M349.75,199.774c0,0,11.59,70.246,16.313,97.634c4.913,28.487,15.962,95.513,15.962,95.513
				l-12.176,1.96c0,0-16.418-67.105-22.962-95.039c-7.135-30.453-24.436-71.284-24.262-100.068
				C331.239,199.774,349.75,199.774,349.75,199.774z"/>
			<path style="opacity:0.2;" d="M331.144,221.334c-1.746-2.529-5.09-6.084-7.661-8.984c2.328,17.904,9.016,38.666,15.09,58.231
				C340.192,255.661,339.271,233.058,331.144,221.334z"/>
			<polygon style="fill:#FFC3BD;" points="315.916,405.384 325.037,405.384 325.646,384.263 316.525,384.263 			"/>
			<path style="fill:#263238;" d="M325.467,404.034H315.22c-0.373,0-0.675,0.259-0.728,0.623l-1.167,8.107
				c-0.121,0.841,0.602,1.637,1.462,1.622c3.572-0.062,5.294-0.271,9.8-0.271c2.772,0,8.506,0.288,12.334,0.288
				c3.744,0,4.032-3.785,2.438-4.128c-7.147-1.537-9.96-3.657-12.368-5.68C326.557,404.23,326.012,404.034,325.467,404.034z"/>
			<g style="opacity:0.2;">
				<polygon points="325.644,384.268 325.331,395.155 316.207,395.155 316.519,384.268 				"/>
			</g>
			<path style="fill:#407BFF;" d="M339.344,199.774c0,0-3.709,71.142-6.209,98.849c-2.601,28.819-5.749,94.13-5.749,94.13h-12.333
				c0,0-2.204-65.061-1.347-93.481c0.935-30.983-6.512-70.714-1.487-99.499C320.834,199.774,339.344,199.774,339.344,199.774z"/>
			<polygon style="fill:#263238;" points="313.984,393.195 328.448,393.462 328.673,384.639 313.916,385.558 			"/>
			<path style="fill:#407BFF;" d="M328.891,405.628c0.907,0,1.744-0.141,2.213-0.562c0.297-0.268,0.429-0.621,0.39-1.052
				c-0.023-0.257-0.15-0.456-0.367-0.574c-1.12-0.616-4.753,1.245-5.163,1.458c-0.082,0.042-0.127,0.131-0.114,0.222
				c0.013,0.091,0.081,0.164,0.172,0.182C326.795,405.456,327.886,405.628,328.891,405.628z M330.516,403.741
				c0.167,0,0.305,0.025,0.403,0.078c0.089,0.049,0.133,0.121,0.143,0.234c0.027,0.292-0.055,0.518-0.248,0.691
				c-0.554,0.499-2.054,0.585-4.076,0.249C327.99,404.393,329.653,403.741,330.516,403.741z"/>
			<path style="fill:#407BFF;" d="M326.063,405.306c0.031,0,0.06-0.006,0.089-0.019c1.087-0.491,3.237-2.459,3.069-3.492
				c-0.04-0.245-0.213-0.549-0.811-0.61c-0.44-0.046-0.845,0.08-1.197,0.373c-1.146,0.955-1.357,3.41-1.365,3.514
				c-0.006,0.076,0.028,0.15,0.091,0.194C325.975,405.293,326.019,405.306,326.063,405.306z M328.236,401.609
				c0.043,0,0.086,0.002,0.13,0.007c0.394,0.04,0.42,0.198,0.429,0.25c0.101,0.62-1.359,2.168-2.467,2.839
				c0.107-0.715,0.41-2.187,1.162-2.814C327.716,401.702,327.961,401.609,328.236,401.609z"/>
			<path style="fill:#263238;" d="M381.841,404.034h-10.247c-0.373,0-0.621,0.259-0.598,0.623l0.524,8.107
				c0.054,0.841,0.944,1.637,1.801,1.622c3.56-0.062,5.237-0.271,9.743-0.271c2.772,0,8.566,0.288,12.395,0.288
				c3.744,0,3.242-3.785,1.577-4.128c-7.468-1.537-10.723-3.657-13.553-5.68C382.972,404.23,382.386,404.034,381.841,404.034z"/>
			<path style="fill:#407BFF;" d="M385.265,405.628c0.907,0,1.744-0.141,2.213-0.562c0.298-0.268,0.429-0.621,0.39-1.052
				c-0.023-0.257-0.15-0.456-0.367-0.574c-1.12-0.616-4.753,1.245-5.164,1.458c-0.082,0.042-0.127,0.131-0.114,0.222
				c0.013,0.091,0.082,0.164,0.172,0.182C383.169,405.456,384.26,405.628,385.265,405.628z M386.89,403.741
				c0.167,0,0.305,0.025,0.403,0.078c0.089,0.049,0.133,0.121,0.143,0.234c0.027,0.292-0.055,0.518-0.248,0.691
				c-0.554,0.499-2.054,0.585-4.076,0.249C384.364,404.393,386.027,403.741,386.89,403.741z"/>
			<path style="fill:#407BFF;" d="M382.437,405.306c0.03,0,0.06-0.006,0.089-0.019c1.087-0.491,3.237-2.459,3.069-3.492
				c-0.04-0.245-0.213-0.549-0.812-0.61c-0.44-0.046-0.845,0.08-1.197,0.373c-1.146,0.955-1.357,3.41-1.365,3.514
				c-0.006,0.076,0.028,0.15,0.091,0.194C382.349,405.293,382.393,405.306,382.437,405.306z M384.61,401.609
				c0.042,0,0.086,0.002,0.13,0.007c0.394,0.04,0.42,0.198,0.429,0.25c0.101,0.62-1.359,2.168-2.467,2.839
				c0.107-0.715,0.41-2.187,1.162-2.814C384.09,401.702,384.336,401.609,384.61,401.609z"/>
			<polygon style="fill:#263238;" points="368.864,395.487 383.151,393.187 381.536,385.552 367.376,388.887 			"/>
		</g>
		<path style="fill:#263238;" d="M330.568,112.495l1.71-0.675C332.278,111.819,331.507,113.28,330.568,112.495z"/>
		<g>
			<path style="fill:#263238;" d="M312.154,197.6l-0.947,3.316c-0.13,0.257,0.175,0.52,0.603,0.52h38.123
				c0.334,0,0.61-0.164,0.632-0.374l0.334-3.316c0.023-0.23-0.266-0.424-0.632-0.424h-37.51
				C312.481,197.322,312.237,197.435,312.154,197.6z"/>
		</g>
		<g>
			<path style="fill:#407BFF;" d="M317.315,201.795h-1.005c-0.2,0-0.353-0.103-0.339-0.229l0.471-4.308
				c0.014-0.126,0.189-0.229,0.389-0.229h1.005c0.2,0,0.353,0.103,0.339,0.229l-0.471,4.308
				C317.69,201.691,317.515,201.795,317.315,201.795z"/>
		</g>
		<g>
			<path style="fill:#407BFF;" d="M347.11,201.795h-1.005c-0.2,0-0.352-0.103-0.339-0.229l0.471-4.308
				c0.014-0.126,0.189-0.229,0.389-0.229h1.005c0.2,0,0.352,0.103,0.339,0.229l-0.471,4.308
				C347.485,201.691,347.31,201.795,347.11,201.795z"/>
		</g>
		<g>
			<path style="fill:#407BFF;" d="M332.274,201.795h-1.005c-0.2,0-0.353-0.103-0.339-0.229l0.471-4.308
				c0.014-0.126,0.189-0.229,0.389-0.229h1.005c0.2,0,0.353,0.103,0.339,0.229l-0.471,4.308
				C332.649,201.691,332.474,201.795,332.274,201.795z"/>
		</g>
		<g>
			<path style="fill:#407BFF;" d="M320.265,142.087c-5.81,0.529-14.684-0.566-14.419,8.34c0.264,8.906-1.454,32.513-0.983,43.565
				s-2.418,82.595,2.236,103.336c0.821,3.657,30.92,3.187,34.565,2.834c0-1.529,0-3.292,0-3.292s21.869-2.939,27.277-1.999
				c-0.47-12.463-12.581-75.397-13.051-93.076c-0.47-17.679,1.52-48.069,1.402-52.89c-0.118-4.82-9.702-6.936-15.57-6.818
				c1.293,4.35-1.577,12.528-6.167,21.635C324.263,152.723,320.931,147.26,320.265,142.087z"/>
			<path style="opacity:0.7;fill:#FFFFFF;" d="M320.265,142.087c-5.81,0.529-14.684-0.566-14.419,8.34
				c0.264,8.906-1.454,32.513-0.983,43.565s-2.418,82.595,2.236,103.336c0.821,3.657,30.92,3.187,34.565,2.834
				c0-1.529,0-3.292,0-3.292s21.869-2.939,27.277-1.999c-0.47-12.463-12.581-75.397-13.051-93.076
				c-0.47-17.679,1.52-48.069,1.402-52.89c-0.118-4.82-9.702-6.936-15.57-6.818c1.293,4.35-1.577,12.528-6.167,21.635
				C324.263,152.723,320.931,147.26,320.265,142.087z"/>
			<path style="opacity:0.2;fill:#407BFF;" d="M309.213,163.216l-3.719,2.637c-0.296,7.693-0.688,16.328-0.72,22.962
				C308.228,181.204,310.176,170.158,309.213,163.216z"/>
		</g>
		<g>
			<path style="fill:#407BFF;" d="M321.065,155.226c-0.191,0.282-0.397,0.556-0.616,0.818l-0.207,0.238l-0.11,0.117l-0.203,0.216
				l-0.4,0.43l-0.8,0.883c-0.535,0.593-1.058,1.208-1.579,1.825c-1.04,1.237-2.057,2.503-3.046,3.787
				c-1.981,2.566-3.801,5.24-5.473,7.953c-3.341,5.405-5.976,11.169-7.06,16.647c-0.263,1.362-0.409,2.691-0.47,3.978
				c-0.09-0.276,0.059,0.815,0.571,1.908c0.998,2.312,2.721,5.046,4.555,7.646c1.852,2.633,3.955,5.203,6.107,7.749
				c1.076,1.275,2.196,2.521,3.329,3.753c1.119,1.218,2.312,2.487,3.413,3.575l-10.788,10.421c-1.306-1.428-2.466-2.729-3.673-4.104
				l-3.533-4.127c-2.345-2.773-4.595-5.65-6.814-8.67c-2.203-3.065-4.352-6.173-6.219-10.221c-0.461-1.031-0.899-2.141-1.286-3.433
				c-0.192-0.643-0.364-1.349-0.497-2.132c-0.066-0.392-0.122-0.802-0.158-1.25c-0.042-0.39-0.053-1.011-0.051-1.324
				c0.026-2.195,0.219-4.34,0.558-6.41c0.702-4.125,1.879-7.991,3.338-11.615c1.45-3.636,3.121-7.081,4.966-10.382
				c1.838-3.305,3.857-6.453,5.953-9.535c1.055-1.536,2.142-3.048,3.265-4.54l1.716-2.229l0.885-1.114l0.454-0.558l0.227-0.276
				l0.106-0.128l0.026-0.032l0.013-0.016l-0.14,0.163c-0.184,0.221-0.354,0.454-0.509,0.694L321.065,155.226z"/>
			<path style="opacity:0.7;fill:#FFFFFF;" d="M321.065,155.226c-0.191,0.282-0.397,0.556-0.616,0.818l-0.207,0.238l-0.11,0.117
				l-0.203,0.216l-0.4,0.43l-0.8,0.883c-0.535,0.593-1.058,1.208-1.579,1.825c-1.04,1.237-2.057,2.503-3.046,3.787
				c-1.981,2.566-3.801,5.24-5.473,7.953c-3.341,5.405-5.976,11.169-7.06,16.647c-0.263,1.362-0.409,2.691-0.47,3.978
				c-0.09-0.276,0.059,0.815,0.571,1.908c0.998,2.312,2.721,5.046,4.555,7.646c1.852,2.633,3.955,5.203,6.107,7.749
				c1.076,1.275,2.196,2.521,3.329,3.753c1.119,1.218,2.312,2.487,3.413,3.575l-10.788,10.421c-1.306-1.428-2.466-2.729-3.673-4.104
				l-3.533-4.127c-2.345-2.773-4.595-5.65-6.814-8.67c-2.203-3.065-4.352-6.173-6.219-10.221c-0.461-1.031-0.899-2.141-1.286-3.433
				c-0.192-0.643-0.364-1.349-0.497-2.132c-0.066-0.392-0.122-0.802-0.158-1.25c-0.042-0.39-0.053-1.011-0.051-1.324
				c0.026-2.195,0.219-4.34,0.558-6.41c0.702-4.125,1.879-7.991,3.338-11.615c1.45-3.636,3.121-7.081,4.966-10.382
				c1.838-3.305,3.857-6.453,5.953-9.535c1.055-1.536,2.142-3.048,3.265-4.54l1.716-2.229l0.885-1.114l0.454-0.558l0.227-0.276
				l0.106-0.128l0.026-0.032l0.013-0.016l-0.14,0.163c-0.184,0.221-0.354,0.454-0.509,0.694L321.065,155.226z"/>
		</g>
		<path style="opacity:0.3;fill:#407BFF;" d="M335.555,163.722c1.053,21.334,6.755,95.759,6.109,133.148
			c1.598-0.207,1.737-0.225,1.737-0.225s-2.699-57.504-3.923-82.665C338.254,188.818,335.555,163.722,335.555,163.722z"/>
		<path style="opacity:0.3;fill:#407BFF;" d="M318.281,217.036l-10.682,11.522c0,3.88-2.704,11.64,4.468,14.462
			C319.239,245.842,319.44,225.384,318.281,217.036z"/>
		<path style="opacity:0.3;fill:#407BFF;" d="M353.105,216.645l4.699,11.776c0.139,4.019,1.502,12.017-1.274,15.047
			C353.754,246.498,352.939,225.309,353.105,216.645z"/>
		<path style="fill:#FFFFFF;stroke:#407BFF;stroke-width:0.5;stroke-miterlimit:10;" d="M341.43,171.145l11.734-0.073
			c0.518-0.003,0.895-0.408,0.838-0.898l-0.65-5.566c-0.057-0.491-0.528-0.89-1.046-0.887l-11.734,0.073
			c-0.518,0.003-0.895,0.408-0.838,0.898l0.65,5.566C340.442,170.749,340.912,171.148,341.43,171.145z"/>
	</g>
</g>
</svg>
